  0
SECTION
  2
HEADER
  9
$ACADVER
  1
AC1015
  9
$ACADMAINTVER
 70
     6
  9
$DWGCODEPAGE
  3
UNDEFINED
  9
$INSBASE
 10
0.0
 20
0.0
 30
0.0
  9
$EXTMIN
 10
1.000000000000000E+20
 20
1.000000000000000E+20
 30
1.000000000000000E+20
  9
$EXTMAX
 10
-1.000000000000000E+20
 20
-1.000000000000000E+20
 30
-1.000000000000000E+20
  9
$LIMMIN
 10
0.0
 20
0.0
  9
$LIMMAX
 10
12.0
 20
9.0
  9
$ORTHOMODE
 70
     0
  9
$REGENMODE
 70
     1
  9
$FILLMODE
 70
     1
  9
$QTEXTMODE
 70
     0
  9
$MIRRTEXT
 70
     1
  9
$LTSCALE
 40
1.0
  9
$ATTMODE
 70
     1
  9
$TEXTSIZE
 40
0.2
  9
$TRACEWID
 40
0.05
  9
$TEXTSTYLE
  7
Standard
  9
$CLAYER
  8
0
  9
$CELTYPE
  6
ByLayer
  9
$CECOLOR
 62
   256
  9
$CELTSCALE
 40
1.0
  9
$DISPSILH
 70
     0
  9
$DIMSCALE
 40
1.0
  9
$DIMASZ
 40
0.18
  9
$DIMEXO
 40
0.0625
  9
$DIMDLI
 40
0.38
  9
$DIMRND
 40
0.0
  9
$DIMDLE
 40
0.0
  9
$DIMEXE
 40
0.18
  9
$DIMTP
 40
0.0
  9
$DIMTM
 40
0.0
  9
$DIMTXT
 40
0.18
  9
$DIMCEN
 40
0.09
  9
$DIMTSZ
 40
0.0
  9
$DIMTOL
 70
     0
  9
$DIMLIM
 70
     0
  9
$DIMTIH
 70
     1
  9
$DIMTOH
 70
     1
  9
$DIMSE1
 70
     0
  9
$DIMSE2
 70
     0
  9
$DIMTAD
 70
     0
  9
$DIMZIN
 70
     0
  9
$DIMBLK
  1

  9
$DIMASO
 70
     1
  9
$DIMSHO
 70
     1
  9
$DIMPOST
  1

  9
$DIMAPOST
  1

  9
$DIMALT
 70
     0
  9
$DIMALTD
 70
     2
  9
$DIMALTF
 40
25.4
  9
$DIMLFAC
 40
1.0
  9
$DIMTOFL
 70
     0
  9
$DIMTVP
 40
0.0
  9
$DIMTIX
 70
     0
  9
$DIMSOXD
 70
     0
  9
$DIMSAH
 70
     0
  9
$DIMBLK1
  1

  9
$DIMBLK2
  1

  9
$DIMSTYLE
  2
Standard
  9
$DIMCLRD
 70
     0
  9
$DIMCLRE
 70
     0
  9
$DIMCLRT
 70
     0
  9
$DIMTFAC
 40
1.0
  9
$DIMGAP
 40
0.09
  9
$DIMJUST
 70
     0
  9
$DIMSD1
 70
     0
  9
$DIMSD2
 70
     0
  9
$DIMTOLJ
 70
     1
  9
$DIMTZIN
 70
     0
  9
$DIMALTZ
 70
     0
  9
$DIMALTTZ
 70
     0
  9
$DIMUPT
 70
     0
  9
$DIMDEC
 70
     4
  9
$DIMTDEC
 70
     4
  9
$DIMALTU
 70
     2
  9
$DIMALTTD
 70
     2
  9
$DIMTXSTY
  7
Standard
  9
$DIMAUNIT
 70
     0
  9
$DIMADEC
 70
     0
  9
$DIMALTRND
 40
0.0
  9
$DIMAZIN
 70
     0
  9
$DIMDSEP
 70
    46
  9
$DIMATFIT
 70
     3
  9
$DIMFRAC
 70
     0
  9
$DIMLDRBLK
  1

  9
$DIMLUNIT
 70
     2
  9
$DIMLWD
 70
    -2
  9
$DIMLWE
 70
    -2
  9
$DIMTMOVE
 70
     0
  9
$LUNITS
 70
     2
  9
$LUPREC
 70
     4
  9
$SKETCHINC
 40
0.1
  9
$FILLETRAD
 40
0.5
  9
$AUNITS
 70
     0
  9
$AUPREC
 70
     0
  9
$MENU
  1
.
  9
$ELEVATION
 40
0.0
  9
$PELEVATION
 40
0.0
  9
$THICKNESS
 40
0.0
  9
$LIMCHECK
 70
     0
  9
$CHAMFERA
 40
0.5
  9
$CHAMFERB
 40
0.5
  9
$CHAMFERC
 40
1.0
  9
$CHAMFERD
 40
0.0
  9
$SKPOLY
 70
     0
  9
$TDCREATE
 40
2458820.992662026
  9
$TDUCREATE
 40
2458820.95099537
  9
$TDUPDATE
 40
2458820.992662026
  9
$TDUUPDATE
 40
2458820.95099537
  9
$TDINDWG
 40
0.0000000116
  9
$TDUSRTIMER
 40
0.0000000116
  9
$USRTIMER
 70
     1
  9
$ANGBASE
 50
0.0
  9
$ANGDIR
 70
     0
  9
$PDMODE
 70
     0
  9
$PDSIZE
 40
0.0
  9
$PLINEWID
 40
0.0
  9
$SPLFRAME
 70
     0
  9
$SPLINETYPE
 70
     6
  9
$SPLINESEGS
 70
     8
  9
$HANDSEED
  5
82
  9
$SURFTAB1
 70
     6
  9
$SURFTAB2
 70
     6
  9
$SURFTYPE
 70
     6
  9
$SURFU
 70
     6
  9
$SURFV
 70
     6
  9
$UCSBASE
  2

  9
$UCSNAME
  2

  9
$UCSORG
 10
0.0
 20
0.0
 30
0.0
  9
$UCSXDIR
 10
1.0
 20
0.0
 30
0.0
  9
$UCSYDIR
 10
0.0
 20
1.0
 30
0.0
  9
$UCSORTHOREF
  2

  9
$UCSORTHOVIEW
 70
     0
  9
$UCSORGTOP
 10
0.0
 20
0.0
 30
0.0
  9
$UCSORGBOTTOM
 10
0.0
 20
0.0
 30
0.0
  9
$UCSORGLEFT
 10
0.0
 20
0.0
 30
0.0
  9
$UCSORGRIGHT
 10
0.0
 20
0.0
 30
0.0
  9
$UCSORGFRONT
 10
0.0
 20
0.0
 30
0.0
  9
$UCSORGBACK
 10
0.0
 20
0.0
 30
0.0
  9
$PUCSBASE
  2

  9
$PUCSNAME
  2

  9
$PUCSORG
 10
0.0
 20
0.0
 30
0.0
  9
$PUCSXDIR
 10
1.0
 20
0.0
 30
0.0
  9
$PUCSYDIR
 10
0.0
 20
1.0
 30
0.0
  9
$PUCSORTHOREF
  2

  9
$PUCSORTHOVIEW
 70
     0
  9
$PUCSORGTOP
 10
0.0
 20
0.0
 30
0.0
  9
$PUCSORGBOTTOM
 10
0.0
 20
0.0
 30
0.0
  9
$PUCSORGLEFT
 10
0.0
 20
0.0
 30
0.0
  9
$PUCSORGRIGHT
 10
0.0
 20
0.0
 30
0.0
  9
$PUCSORGFRONT
 10
0.0
 20
0.0
 30
0.0
  9
$PUCSORGBACK
 10
0.0
 20
0.0
 30
0.0
  9
$USERI1
 70
     0
  9
$USERI2
 70
     0
  9
$USERI3
 70
     0
  9
$USERI4
 70
     0
  9
$USERI5
 70
     0
  9
$USERR1
 40
0.0
  9
$USERR2
 40
0.0
  9
$USERR3
 40
0.0
  9
$USERR4
 40
0.0
  9
$USERR5
 40
0.0
  9
$WORLDVIEW
 70
     1
  9
$SHADEDGE
 70
     3
  9
$SHADEDIF
 70
    70
  9
$TILEMODE
 70
     1
  9
$MAXACTVP
 70
    64
  9
$PINSBASE
 10
0.0
 20
0.0
 30
0.0
  9
$PLIMCHECK
 70
     0
  9
$PEXTMIN
 10
1.000000000000000E+20
 20
1.000000000000000E+20
 30
1.000000000000000E+20
  9
$PEXTMAX
 10
-1.000000000000000E+20
 20
-1.000000000000000E+20
 30
-1.000000000000000E+20
  9
$PLIMMIN
 10
0.0
 20
0.0
  9
$PLIMMAX
 10
12.0
 20
9.0
  9
$UNITMODE
 70
     0
  9
$VISRETAIN
 70
     1
  9
$PLINEGEN
 70
     0
  9
$PSLTSCALE
 70
     1
  9
$TREEDEPTH
 70
  3020
  9
$CMLSTYLE
  2
Standard
  9
$CMLJUST
 70
     0
  9
$CMLSCALE
 40
1.0
  9
$PROXYGRAPHICS
 70
     1
  9
$MEASUREMENT
 70
     0
  9
$CELWEIGHT
370
    -1
  9
$ENDCAPS
280
     0
  9
$JOINSTYLE
280
     0
  9
$LWDISPLAY
290
     1
  9
$INSUNITS
 70
     0
  9
$HYPERLINKBASE
  1

  9
$STYLESHEET
  1

  9
$XEDIT
290
     1
  9
$CEPSNTYPE
380
     0
  9
$PSTYLEMODE
290
     1
  9
$FINGERPRINTGUID
  2
{49757101-2BAC-7A30-94E5-DC2E0DC0CEA1}
  9
$VERSIONGUID
  2
{FAEB1C32-E019-11D5-929B-00C0DF256EC4}
  9
$EXTNAMES
290
     1
  9
$PSVPSCALE
 40
0.0
  9
$OLESTARTUP
290
     0
  0
ENDSEC
  0
SECTION
  2
CLASSES
  0
CLASS
  1
ACDBDICTIONARYWDFLT
  2
AcDbDictionaryWithDefault
  3
ObjectDBX Classes
 90
        0
280
     0
281
     0
  0
CLASS
  1
VISUALSTYLE
  2
AcDbVisualStyle
  3
ObjectDBX Classes
 90
     4095
280
     0
281
     0
  0
CLASS
  1
MATERIAL
  2
AcDbMaterial
  3
ObjectDBX Classes
 90
     1153
280
     0
281
     0
  0
CLASS
  1
SUN
  2
AcDbSun
  3
SCENEOE
 90
     1024
280
     0
281
     0
  0
CLASS
  1
DICTIONARYVAR
  2
AcDbDictionaryVar
  3
ObjectDBX Classes
 90
        0
280
     0
281
     0
  0
CLASS
  1
ACDBPLACEHOLDER
  2
AcDbPlaceHolder
  3
ObjectDBX Classes
 90
        0
280
     0
281
     0
  0
CLASS
  1
LAYOUT
  2
AcDbLayout
  3
ObjectDBX Classes
 90
        0
280
     0
281
     0
  0
ENDSEC
  0
SECTION
  2
TABLES
  0
TABLE
  2
VPORT
  5
8
330
0
100
AcDbSymbolTable
 70
     1
  0
VPORT
  5
29
330
8
100
AcDbSymbolTableRecord
100
AcDbViewportTableRecord
  2
*Active
 70
     0
 10
0.0
 20
0.0
 11
1.0
 21
1.0
 12
0.0
 22
0.0
 13
0.0
 23
0.0
 14
0.5
 24
0.5
 15
0.5
 25
0.5
 16
0.0
 26
0.0
 36
1.0
 17
420.9449999999997
 27
-295.955882352941
 37
0.0
 40
122.7941176470586
 41
4.776943712574862
 42
50.0
 43
0.0
 44
0.0
 50
0.0
 51
0.0
 71
     0
 72
   100
 73
     1
 74
     3
 75
     0
 76
     0
 77
     0
 78
     0
281
     0
 65
     1
110
0.0
120
0.0
130
0.0
111
1.0
121
0.0
131
0.0
112
0.0
122
1.0
132
0.0
 79
     0
146
0.0
  0
ENDTAB
  0
TABLE
  2
LTYPE
  5
5
330
0
100
AcDbSymbolTable
 70
     1
  0
LTYPE
  5
14
330
5
100
AcDbSymbolTableRecord
100
AcDbLinetypeTableRecord
  2
ByBlock
 70
     0
  3

 72
    65
 73
     0
 40
0.0
  0
LTYPE
  5
15
330
5
100
AcDbSymbolTableRecord
100
AcDbLinetypeTableRecord
  2
ByLayer
 70
     0
  3

 72
    65
 73
     0
 40
0.0
  0
LTYPE
  5
16
330
5
100
AcDbSymbolTableRecord
100
AcDbLinetypeTableRecord
  2
Continuous
 70
     0
  3
Solid line
 72
    65
 73
     0
 40
0.0
  0
ENDTAB
  0
TABLE
  2
LAYER
  5
2
330
0
100
AcDbSymbolTable
 70
     2
  0
LAYER
  5
10
330
2
100
AcDbSymbolTableRecord
100
AcDbLayerTableRecord
  2
0
 70
     0
 62
     7
  6
Continuous
370
    -3
390
F
  0
LAYER
  5
40
330
2
100
AcDbSymbolTableRecord
100
AcDbLayerTableRecord
  2
Layer 1
 70
     0
 62
     7
  6
Continuous
370
    -3
390
F
  0
ENDTAB
  0
TABLE
  2
STYLE
  5
3
330
0
100
AcDbSymbolTable
 70
     1
  0
STYLE
  5
11
330
3
100
AcDbSymbolTableRecord
100
AcDbTextStyleTableRecord
  2
Standard
 70
     0
 40
0.0
 41
1.0
 50
0.0
 71
     0
 42
0.2
  3
txt
  4

  0
ENDTAB
  0
TABLE
  2
VIEW
  5
6
330
0
100
AcDbSymbolTable
 70
     0
  0
ENDTAB
  0
TABLE
  2
UCS
  5
7
330
0
100
AcDbSymbolTable
 70
     0
  0
ENDTAB
  0
TABLE
  2
APPID
  5
9
330
0
100
AcDbSymbolTable
 70
     1
  0
APPID
  5
12
330
9
100
AcDbSymbolTableRecord
100
AcDbRegAppTableRecord
  2
ACAD
 70
     0
  0
ENDTAB
  0
TABLE
  2
DIMSTYLE
  5
A
330
0
100
AcDbSymbolTable
 70
     1
100
AcDbDimStyleTable
  0
DIMSTYLE
105
27
330
A
100
AcDbSymbolTableRecord
100
AcDbDimStyleTableRecord
  2
Standard
 70
     0
178
     0
340
11
  0
ENDTAB
  0
TABLE
  2
BLOCK_RECORD
  5
1
330
0
100
AcDbSymbolTable
 70
     2
  0
BLOCK_RECORD
  5
1F
330
1
100
AcDbSymbolTableRecord
100
AcDbBlockTableRecord
  2
*Model_Space
340
22
  0
BLOCK_RECORD
  5
1B
330
1
100
AcDbSymbolTableRecord
100
AcDbBlockTableRecord
  2
*Paper_Space
340
1E
  0
BLOCK_RECORD
  5
23
330
1
100
AcDbSymbolTableRecord
100
AcDbBlockTableRecord
  2
*Paper_Space0
340
26
  0
BLOCK_RECORD
  5
41
330
1
100
AcDbSymbolTableRecord
100
AcDbBlockTableRecord
  2
block 2
340
0
102
{BLKREFS
331
42
102
}
  0
ENDTAB
  0
ENDSEC
  0
SECTION
  2
BLOCKS
  0
BLOCK
  5
20
330
1F
100
AcDbEntity
  8
0
100
AcDbBlockBegin
  2
*Model_Space
 70
     0
 10
0.0
 20
0.0
 30
0.0
  3
*Model_Space
  1

  0
ENDBLK
  5
21
330
1F
100
AcDbEntity
  8
0
100
AcDbBlockEnd
  0
BLOCK
  5
1C
330
1B
100
AcDbEntity
 67
     1
  8
0
100
AcDbBlockBegin
  2
*Paper_Space
 70
     0
 10
0.0
 20
0.0
 30
0.0
  3
*Paper_Space
  1

  0
ENDBLK
  5
1D
330
1B
100
AcDbEntity
 67
     1
  8
0
100
AcDbBlockEnd
  0
BLOCK
  5
24
330
23
100
AcDbEntity
  8
0
100
AcDbBlockBegin
  2
*Paper_Space0
 70
     0
 10
0.0
 20
0.0
 30
0.0
  3
*Paper_Space0
  1

  0
ENDBLK
  5
25
330
23
100
AcDbEntity
  8
0
100
AcDbBlockEnd
  0
BLOCK
  5
43
330
41
100
AcDbEntity
  8
0
100
AcDbBlockBegin
  2
block 2
 70
     0
 10
0.0
 20
0.0
 30
0.0
  3
block 2
  1

  0
SPLINE
  5
45
330
41
100
AcDbEntity
  8
Layer 1
370
     0
100
AcDbSpline
210
0.0
220
0.0
230
1.0
 70
    11
 71
     3
 72
   101
 73
    97
 74
     0
 42
0.0000000001
 43
0.0000000001
 12
1.0
 22
0.0
 32
0.0
 13
1.0
 23
0.0
 33
0.0
 40
0.0
 40
0.0
 40
0.0
 40
0.0
 40
1.0
 40
1.0
 40
1.0
 40
2.0
 40
2.0
 40
2.0
 40
3.0
 40
3.0
 40
3.0
 40
4.0
 40
4.0
 40
4.0
 40
5.0
 40
5.0
 40
5.0
 40
6.0
 40
6.0
 40
6.0
 40
7.0
 40
7.0
 40
7.0
 40
8.0
 40
8.0
 40
8.0
 40
9.0
 40
9.0
 40
9.0
 40
10.0
 40
10.0
 40
10.0
 40
11.0
 40
11.0
 40
11.0
 40
12.0
 40
12.0
 40
12.0
 40
13.0
 40
13.0
 40
13.0
 40
14.0
 40
14.0
 40
14.0
 40
15.0
 40
15.0
 40
15.0
 40
16.0
 40
16.0
 40
16.0
 40
17.0
 40
17.0
 40
17.0
 40
18.0
 40
18.0
 40
18.0
 40
19.0
 40
19.0
 40
19.0
 40
20.0
 40
20.0
 40
20.0
 40
21.0
 40
21.0
 40
21.0
 40
22.0
 40
22.0
 40
22.0
 40
23.0
 40
23.0
 40
23.0
 40
24.0
 40
24.0
 40
24.0
 40
25.0
 40
25.0
 40
25.0
 40
26.0
 40
26.0
 40
26.0
 40
27.0
 40
27.0
 40
27.0
 40
28.0
 40
28.0
 40
28.0
 40
29.0
 40
29.0
 40
29.0
 40
30.0
 40
30.0
 40
30.0
 40
31.0
 40
31.0
 40
31.0
 40
32.0
 40
32.0
 40
32.0
 40
32.0
 10
701.8831787109375
 20
-294.5390014648438
 30
0.0
 10
698.7298583984375
 20
-294.5390014648438
 30
0.0
 10
697.1536865234375
 20
-296.1806030273438
 30
0.0
 10
697.1536865234375
 20
-299.4647827148438
 30
0.0
 10
697.1536865234375
 20
-299.4647827148438
 30
0.0
 10
697.1536865234375
 20
-307.0067749023438
 30
0.0
 10
697.1536865234375
 20
-307.0067749023438
 30
0.0
 10
697.1536865234375
 20
-313.5751342773438
 30
0.0
 10
695.3441162109375
 20
-316.8593139648438
 30
0.0
 10
691.7288818359375
 20
-316.8593139648438
 30
0.0
 10
688.8343505859375
 20
-316.8593139648438
 30
0.0
 10
687.0784912109375
 20
-315.0546264648438
 30
0.0
 10
686.4583740234375
 20
-311.4462280273438
 30
0.0
 10
686.2503662109375
 20
-310.5184936523438
 30
0.0
 10
686.1488037109375
 20
-307.5809936523438
 30
0.0
 10
686.1488037109375
 20
-302.6307983398438
 30
0.0
 10
686.1488037109375
 20
-302.6307983398438
 30
0.0
 10
686.1488037109375
 20
-271.3856811523438
 30
0.0
 10
686.1488037109375
 20
-271.3856811523438
 30
0.0
 10
686.1488037109375
 20
-253.3427124023438
 30
0.0
 10
676.7445068359375
 20
-244.3192749023438
 30
0.0
 10
657.9388427734375
 20
-244.3192749023438
 30
0.0
 10
649.7747802734375
 20
-244.3192749023438
 30
0.0
 10
642.8255615234375
 20
-246.3871459960938
 30
0.0
 10
637.0911865234375
 20
-250.5189819335938
 30
0.0
 10
631.3558349609375
 20
-254.6532592773438
 30
0.0
 10
628.4886474609375
 20
-259.6132202148438
 30
0.0
 10
628.4886474609375
 20
-265.3988647460938
 30
0.0
 10
628.4886474609375
 20
-268.0873413085938
 30
0.0
 10
629.3919677734375
 20
-270.3588256835938
 30
0.0
 10
631.2005615234375
 20
-272.2191772460938
 30
0.0
 10
633.0072021484375
 20
-274.0790405273438
 30
0.0
 10
635.2552490234375
 20
-275.0087280273438
 30
0.0
 10
637.9437255859375
 20
-275.0087280273438
 30
0.0
 10
640.2152099609375
 20
-275.0087280273438
 30
0.0
 10
642.1019287109375
 20
-274.3388061523438
 30
0.0
 10
643.6009521484375
 20
-272.9940795898438
 30
0.0
 10
645.0980224609375
 20
-271.6522827148438
 30
0.0
 10
645.8480224609375
 20
-269.9472045898438
 30
0.0
 10
645.8480224609375
 20
-267.8788452148438
 30
0.0
 10
645.8480224609375
 20
-265.3988647460938
 30
0.0
 10
645.1243896484375
 20
-263.6430053710938
 30
0.0
 10
643.6781005859375
 20
-262.6088256835938
 30
0.0
 10
642.7484130859375
 20
-261.9891967773438
 30
0.0
 10
642.2835693359375
 20
-261.4730834960938
 30
0.0
 10
642.2835693359375
 20
-261.0590209960938
 30
0.0
 10
642.2835693359375
 20
-259.9232788085938
 30
0.0
 10
643.0579833984375
 20
-258.8383178710938
 30
0.0
 10
644.6087646484375
 20
-257.8041381835938
 30
0.0
 10
648.6380615234375
 20
-255.2221069335938
 30
0.0
 10
652.9788818359375
 20
-253.9291381835938
 30
0.0
 10
657.6282958984375
 20
-253.9291381835938
 30
0.0
 10
662.8988037109375
 20
-253.9291381835938
 30
0.0
 10
667.0062255859375
 20
-255.1449584960938
 30
0.0
 10
669.9505615234375
 20
-257.5717163085938
 30
0.0
 10
672.8958740234375
 20
-260.0009155273438
 30
0.0
 10
674.3685302734375
 20
-263.3329467773438
 30
0.0
 10
674.3685302734375
 20
-267.5692749023438
 30
0.0
 10
674.3685302734375
 20
-272.0131225585938
 30
0.0
 10
673.0511474609375
 20
-275.0624389648438
 30
0.0
 10
670.4163818359375
 20
-276.7138061523438
 30
0.0
 10
667.7806396484375
 20
-278.3681030273438
 30
0.0
 10
662.1234130859375
 20
-279.6591186523438
 30
0.0
 10
653.4437255859375
 20
-280.5888061523438
 30
0.0
 10
647.3450927734375
 20
-281.3134155273438
 30
0.0
 10
643.2913818359375
 20
-281.9071655273438
 30
0.0
 10
641.2757568359375
 20
-282.3720092773438
 30
0.0
 10
639.2611083984375
 20
-282.8368530273438
 30
0.0
 10
636.8587646484375
 20
-283.8446655273438
 30
0.0
 10
634.0687255859375
 20
-285.3934936523438
 30
0.0
 10
626.7298583984375
 20
-289.4247436523438
 30
0.0
 10
623.0638427734375
 20
-295.7274780273438
 30
0.0
 10
623.0638427734375
 20
-304.3036499023438
 30
0.0
 10
623.0638427734375
 20
-311.2284545898438
 30
0.0
 10
625.5677490234375
 20
-316.7577514648438
 30
0.0
 10
630.5814208984375
 20
-320.8886108398438
 30
0.0
 10
635.5921630859375
 20
-325.0204467773438
 30
0.0
 10
642.2835693359375
 20
-327.0888061523438
 30
0.0
 10
650.6536865234375
 20
-327.0888061523438
 30
0.0
 10
661.9154052734375
 20
-327.0888061523438
 30
0.0
 10
670.1829833984375
 20
-323.2138061523438
 30
0.0
 10
675.4534912109375
 20
-315.4638061523438
 30
0.0
 10
677.4154052734375
 20
-322.8026733398438
 30
0.0
 10
682.6341552734375
 20
-326.4686889648438
 30
0.0
 10
691.1087646484375
 20
-326.4686889648438
 30
0.0
 10
701.4398193359375
 20
-326.4686889648438
 30
0.0
 10
706.7103271484375
 20
-321.5087280273438
 30
0.0
 10
706.9183349609375
 20
-311.5888061523438
 30
0.0
 10
706.9183349609375
 20
-311.5888061523438
 30
0.0
 10
706.9183349609375
 20
-302.7538452148438
 30
0.0
 10
706.9183349609375
 20
-302.7538452148438
 30
0.0
 10
706.9183349609375
 20
-302.7538452148438
 30
0.0
 10
706.9183349609375
 20
-301.9794311523438
 30
0.0
 10
706.9183349609375
 20
-301.9794311523438
 30
0.0
 10
706.9183349609375
 20
-297.0184936523438
 30
0.0
 10
705.2396240234375
 20
-294.5390014648438
 30
0.0
 10
701.8831787109375
 20
-294.5390014648438
 30
0.0
  0
HATCH
  5
46
330
41
100
AcDbEntity
  8
Layer 1
 62
     7
100
AcDbHatch
 10
0.0
 20
0.0
 30
0.0
210
0.0
220
0.0
230
1.0
  2
SOLID
 70
     1
 71
     0
 91
        1
 92
        1
 93
        1
 72
     4
 94
        3
 73
     0
 74
     1
 95
      101
 96
       97
 40
0.0
 40
0.0
 40
0.0
 40
0.0
 40
1.0
 40
1.0
 40
1.0
 40
2.0
 40
2.0
 40
2.0
 40
3.0
 40
3.0
 40
3.0
 40
4.0
 40
4.0
 40
4.0
 40
5.0
 40
5.0
 40
5.0
 40
6.0
 40
6.0
 40
6.0
 40
7.0
 40
7.0
 40
7.0
 40
8.0
 40
8.0
 40
8.0
 40
9.0
 40
9.0
 40
9.0
 40
10.0
 40
10.0
 40
10.0
 40
11.0
 40
11.0
 40
11.0
 40
12.0
 40
12.0
 40
12.0
 40
13.0
 40
13.0
 40
13.0
 40
14.0
 40
14.0
 40
14.0
 40
15.0
 40
15.0
 40
15.0
 40
16.0
 40
16.0
 40
16.0
 40
17.0
 40
17.0
 40
17.0
 40
18.0
 40
18.0
 40
18.0
 40
19.0
 40
19.0
 40
19.0
 40
20.0
 40
20.0
 40
20.0
 40
21.0
 40
21.0
 40
21.0
 40
22.0
 40
22.0
 40
22.0
 40
23.0
 40
23.0
 40
23.0
 40
24.0
 40
24.0
 40
24.0
 40
25.0
 40
25.0
 40
25.0
 40
26.0
 40
26.0
 40
26.0
 40
27.0
 40
27.0
 40
27.0
 40
28.0
 40
28.0
 40
28.0
 40
29.0
 40
29.0
 40
29.0
 40
30.0
 40
30.0
 40
30.0
 40
31.0
 40
31.0
 40
31.0
 40
32.0
 40
32.0
 40
32.0
 40
32.0
 10
701.8831787109375
 20
-294.5390014648438
 10
698.7298583984375
 20
-294.5390014648438
 10
697.1536865234375
 20
-296.1806030273438
 10
697.1536865234375
 20
-299.4647827148438
 10
697.1536865234375
 20
-299.4647827148438
 10
697.1536865234375
 20
-307.0067749023438
 10
697.1536865234375
 20
-307.0067749023438
 10
697.1536865234375
 20
-313.5751342773438
 10
695.3441162109375
 20
-316.8593139648438
 10
691.7288818359375
 20
-316.8593139648438
 10
688.8343505859375
 20
-316.8593139648438
 10
687.0784912109375
 20
-315.0546264648438
 10
686.4583740234375
 20
-311.4462280273438
 10
686.2503662109375
 20
-310.5184936523438
 10
686.1488037109375
 20
-307.5809936523438
 10
686.1488037109375
 20
-302.6307983398438
 10
686.1488037109375
 20
-302.6307983398438
 10
686.1488037109375
 20
-271.3856811523438
 10
686.1488037109375
 20
-271.3856811523438
 10
686.1488037109375
 20
-253.3427124023438
 10
676.7445068359375
 20
-244.3192749023438
 10
657.9388427734375
 20
-244.3192749023438
 10
649.7747802734375
 20
-244.3192749023438
 10
642.8255615234375
 20
-246.3871459960938
 10
637.0911865234375
 20
-250.5189819335938
 10
631.3558349609375
 20
-254.6532592773438
 10
628.4886474609375
 20
-259.6132202148438
 10
628.4886474609375
 20
-265.3988647460938
 10
628.4886474609375
 20
-268.0873413085938
 10
629.3919677734375
 20
-270.3588256835938
 10
631.2005615234375
 20
-272.2191772460938
 10
633.0072021484375
 20
-274.0790405273438
 10
635.2552490234375
 20
-275.0087280273438
 10
637.9437255859375
 20
-275.0087280273438
 10
640.2152099609375
 20
-275.0087280273438
 10
642.1019287109375
 20
-274.3388061523438
 10
643.6009521484375
 20
-272.9940795898438
 10
645.0980224609375
 20
-271.6522827148438
 10
645.8480224609375
 20
-269.9472045898438
 10
645.8480224609375
 20
-267.8788452148438
 10
645.8480224609375
 20
-265.3988647460938
 10
645.1243896484375
 20
-263.6430053710938
 10
643.6781005859375
 20
-262.6088256835938
 10
642.7484130859375
 20
-261.9891967773438
 10
642.2835693359375
 20
-261.4730834960938
 10
642.2835693359375
 20
-261.0590209960938
 10
642.2835693359375
 20
-259.9232788085938
 10
643.0579833984375
 20
-258.8383178710938
 10
644.6087646484375
 20
-257.8041381835938
 10
648.6380615234375
 20
-255.2221069335938
 10
652.9788818359375
 20
-253.9291381835938
 10
657.6282958984375
 20
-253.9291381835938
 10
662.8988037109375
 20
-253.9291381835938
 10
667.0062255859375
 20
-255.1449584960938
 10
669.9505615234375
 20
-257.5717163085938
 10
672.8958740234375
 20
-260.0009155273438
 10
674.3685302734375
 20
-263.3329467773438
 10
674.3685302734375
 20
-267.5692749023438
 10
674.3685302734375
 20
-272.0131225585938
 10
673.0511474609375
 20
-275.0624389648438
 10
670.4163818359375
 20
-276.7138061523438
 10
667.7806396484375
 20
-278.3681030273438
 10
662.1234130859375
 20
-279.6591186523438
 10
653.4437255859375
 20
-280.5888061523438
 10
647.3450927734375
 20
-281.3134155273438
 10
643.2913818359375
 20
-281.9071655273438
 10
641.2757568359375
 20
-282.3720092773438
 10
639.2611083984375
 20
-282.8368530273438
 10
636.8587646484375
 20
-283.8446655273438
 10
634.0687255859375
 20
-285.3934936523438
 10
626.7298583984375
 20
-289.4247436523438
 10
623.0638427734375
 20
-295.7274780273438
 10
623.0638427734375
 20
-304.3036499023438
 10
623.0638427734375
 20
-311.2284545898438
 10
625.5677490234375
 20
-316.7577514648438
 10
630.5814208984375
 20
-320.8886108398438
 10
635.5921630859375
 20
-325.0204467773438
 10
642.2835693359375
 20
-327.0888061523438
 10
650.6536865234375
 20
-327.0888061523438
 10
661.9154052734375
 20
-327.0888061523438
 10
670.1829833984375
 20
-323.2138061523438
 10
675.4534912109375
 20
-315.4638061523438
 10
677.4154052734375
 20
-322.8026733398438
 10
682.6341552734375
 20
-326.4686889648438
 10
691.1087646484375
 20
-326.4686889648438
 10
701.4398193359375
 20
-326.4686889648438
 10
706.7103271484375
 20
-321.5087280273438
 10
706.9183349609375
 20
-311.5888061523438
 10
706.9183349609375
 20
-311.5888061523438
 10
706.9183349609375
 20
-302.7538452148438
 10
706.9183349609375
 20
-302.7538452148438
 10
706.9183349609375
 20
-302.7538452148438
 10
706.9183349609375
 20
-301.9794311523438
 10
706.9183349609375
 20
-301.9794311523438
 10
706.9183349609375
 20
-297.0184936523438
 10
705.2396240234375
 20
-294.5390014648438
 10
701.8831787109375
 20
-294.5390014648438
 97
        0
 75
     2
 76
     1
 98
        0
  0
SPLINE
  5
47
330
41
100
AcDbEntity
  8
Layer 1
370
     0
100
AcDbSpline
210
0.0
220
0.0
230
1.0
 70
    11
 71
     3
 72
   188
 73
   184
 74
     0
 42
0.0000000001
 43
0.0000000001
 12
1.0
 22
0.0
 32
0.0
 13
1.0
 23
0.0
 33
0.0
 40
0.0
 40
0.0
 40
0.0
 40
0.0
 40
1.0
 40
1.0
 40
1.0
 40
2.0
 40
2.0
 40
2.0
 40
3.0
 40
3.0
 40
3.0
 40
4.0
 40
4.0
 40
4.0
 40
5.0
 40
5.0
 40
5.0
 40
6.0
 40
6.0
 40
6.0
 40
7.0
 40
7.0
 40
7.0
 40
8.0
 40
8.0
 40
8.0
 40
9.0
 40
9.0
 40
9.0
 40
10.0
 40
10.0
 40
10.0
 40
11.0
 40
11.0
 40
11.0
 40
12.0
 40
12.0
 40
12.0
 40
13.0
 40
13.0
 40
13.0
 40
14.0
 40
14.0
 40
14.0
 40
15.0
 40
15.0
 40
15.0
 40
16.0
 40
16.0
 40
16.0
 40
17.0
 40
17.0
 40
17.0
 40
18.0
 40
18.0
 40
18.0
 40
19.0
 40
19.0
 40
19.0
 40
20.0
 40
20.0
 40
20.0
 40
21.0
 40
21.0
 40
21.0
 40
22.0
 40
22.0
 40
22.0
 40
23.0
 40
23.0
 40
23.0
 40
24.0
 40
24.0
 40
24.0
 40
25.0
 40
25.0
 40
25.0
 40
26.0
 40
26.0
 40
26.0
 40
27.0
 40
27.0
 40
27.0
 40
28.0
 40
28.0
 40
28.0
 40
29.0
 40
29.0
 40
29.0
 40
30.0
 40
30.0
 40
30.0
 40
31.0
 40
31.0
 40
31.0
 40
32.0
 40
32.0
 40
32.0
 40
33.0
 40
33.0
 40
33.0
 40
34.0
 40
34.0
 40
34.0
 40
35.0
 40
35.0
 40
35.0
 40
36.0
 40
36.0
 40
36.0
 40
37.0
 40
37.0
 40
37.0
 40
38.0
 40
38.0
 40
38.0
 40
39.0
 40
39.0
 40
39.0
 40
40.0
 40
40.0
 40
40.0
 40
41.0
 40
41.0
 40
41.0
 40
42.0
 40
42.0
 40
42.0
 40
43.0
 40
43.0
 40
43.0
 40
44.0
 40
44.0
 40
44.0
 40
45.0
 40
45.0
 40
45.0
 40
46.0
 40
46.0
 40
46.0
 40
47.0
 40
47.0
 40
47.0
 40
48.0
 40
48.0
 40
48.0
 40
49.0
 40
49.0
 40
49.0
 40
50.0
 40
50.0
 40
50.0
 40
51.0
 40
51.0
 40
51.0
 40
52.0
 40
52.0
 40
52.0
 40
53.0
 40
53.0
 40
53.0
 40
54.0
 40
54.0
 40
54.0
 40
55.0
 40
55.0
 40
55.0
 40
56.0
 40
56.0
 40
56.0
 40
57.0
 40
57.0
 40
57.0
 40
58.0
 40
58.0
 40
58.0
 40
59.0
 40
59.0
 40
59.0
 40
60.0
 40
60.0
 40
60.0
 40
61.0
 40
61.0
 40
61.0
 40
61.0
 10
581.5550537109375
 20
-314.8436889648438
 30
0.0
 10
580.9349365234375
 20
-314.8436889648438
 30
0.0
 10
579.8734130859375
 20
-314.9745483398438
 30
0.0
 10
578.3773193359375
 20
-315.2313842773438
 30
0.0
 10
576.8782958984375
 20
-315.4911499023438
 30
0.0
 10
575.6644287109375
 20
-315.6190795898438
 30
0.0
 10
574.7347412109375
 20
-315.6190795898438
 30
0.0
 10
572.4603271484375
 20
-315.6190795898438
 30
0.0
 10
571.0657958984375
 20
-313.8632202148438
 30
0.0
 10
570.5491943359375
 20
-310.3485717773438
 30
0.0
 10
570.4456787109375
 20
-309.5233764648438
 30
0.0
 10
570.3948974609375
 20
-306.8886108398438
 30
0.0
 10
570.3948974609375
 20
-302.4442749023438
 30
0.0
 10
570.3948974609375
 20
-302.4442749023438
 30
0.0
 10
570.3948974609375
 20
-272.9940795898438
 30
0.0
 10
570.3948974609375
 20
-272.9940795898438
 30
0.0
 10
570.3948974609375
 20
-267.3124389648438
 30
0.0
 10
569.6702880859375
 20
-262.7133178710938
 30
0.0
 10
568.2249755859375
 20
-259.1991577148438
 30
0.0
 10
566.4661865234375
 20
-254.9633178710938
 30
0.0
 10
563.1097412109375
 20
-251.4247436523438
 30
0.0
 10
558.1497802734375
 20
-248.5814819335938
 30
0.0
 10
553.1898193359375
 20
-245.7406616210938
 30
0.0
 10
547.9193115234375
 20
-244.3192749023438
 30
0.0
 10
542.3392333984375
 20
-244.3192749023438
 30
0.0
 10
532.0052490234375
 20
-244.3192749023438
 30
0.0
 10
523.7396240234375
 20
-248.2474975585938
 30
0.0
 10
517.5394287109375
 20
-256.0990600585938
 30
0.0
 10
517.5394287109375
 20
-256.0990600585938
 30
0.0
 10
517.5394287109375
 20
-251.6840209960938
 30
0.0
 10
517.5394287109375
 20
-251.6840209960938
 30
0.0
 10
517.5394287109375
 20
-248.5307006835938
 30
0.0
 10
516.0404052734375
 20
-246.9540405273438
 30
0.0
 10
513.0443115234375
 20
-246.9540405273438
 30
0.0
 10
512.9407958984375
 20
-246.9540405273438
 30
0.0
 10
511.5452880859375
 20
-247.0848999023438
 30
0.0
 10
508.8597412109375
 20
-247.3417358398438
 30
0.0
 10
507.6195068359375
 20
-247.6005249023438
 30
0.0
 10
506.1712646484375
 20
-247.7289428710938
 30
0.0
 10
504.5198974609375
 20
-247.7289428710938
 30
0.0
 10
504.5198974609375
 20
-247.7289428710938
 30
0.0
 10
498.7845458984375
 20
-247.1088256835938
 30
0.0
 10
498.7845458984375
 20
-247.1088256835938
 30
0.0
 10
498.3704833984375
 20
-247.0072631835938
 30
0.0
 10
497.8548583984375
 20
-246.9540405273438
 30
0.0
 10
497.2347412109375
 20
-246.9540405273438
 30
0.0
 10
492.5843505859375
 20
-246.9540405273438
 30
0.0
 10
490.2601318359375
 20
-248.6591186523438
 30
0.0
 10
490.2601318359375
 20
-252.0692749023438
 30
0.0
 10
490.2601318359375
 20
-255.3773803710938
 30
0.0
 10
492.1536865234375
 20
-257.0292358398438
 30
0.0
 10
495.9437255859375
 20
-257.0292358398438
 30
0.0
 10
496.6800537109375
 20
-257.0292358398438
 30
0.0
 10
497.7581787109375
 20
-256.9008178710938
 30
0.0
 10
499.1790771484375
 20
-256.6415405273438
 30
0.0
 10
500.5989990234375
 20
-256.3847045898438
 30
0.0
 10
501.6790771484375
 20
-256.2538452148438
 30
0.0
 10
502.4154052734375
 20
-256.2538452148438
 30
0.0
 10
504.0980224609375
 20
-256.2538452148438
 30
0.0
 10
505.2825927734375
 20
-256.9008178710938
 30
0.0
 10
505.9681396484375
 20
-258.1913452148438
 30
0.0
 10
506.6507568359375
 20
-259.4848022460938
 30
0.0
 10
507.0989990234375
 20
-261.8871459960938
 30
0.0
 10
507.3099365234375
 20
-265.3988647460938
 30
0.0
 10
507.3099365234375
 20
-265.3988647460938
 30
0.0
 10
507.3099365234375
 20
-270.8241577148438
 30
0.0
 10
507.3099365234375
 20
-270.8241577148438
 30
0.0
 10
507.3099365234375
 20
-270.8241577148438
 30
0.0
 10
507.3099365234375
 20
-289.5790405273438
 30
0.0
 10
507.3099365234375
 20
-289.5790405273438
 30
0.0
 10
507.3099365234375
 20
-289.5790405273438
 30
0.0
 10
507.3099365234375
 20
-306.7841186523438
 30
0.0
 10
507.3099365234375
 20
-306.7841186523438
 30
0.0
 10
507.2034912109375
 20
-312.7782592773438
 30
0.0
 10
505.5736083984375
 20
-315.7743530273438
 30
0.0
 10
502.4154052734375
 20
-315.7743530273438
 30
0.0
 10
501.0462646484375
 20
-315.7743530273438
 30
0.0
 10
499.6517333984375
 20
-315.6190795898438
 30
0.0
 10
498.2327880859375
 20
-315.3095092773438
 30
0.0
 10
496.8109130859375
 20
-314.9989624023438
 30
0.0
 10
495.8372802734375
 20
-314.8436889648438
 30
0.0
 10
495.3118896484375
 20
-314.8436889648438
 30
0.0
 10
491.9427490234375
 20
-314.8436889648438
 30
0.0
 10
490.2601318359375
 20
-316.4979858398438
 30
0.0
 10
490.2601318359375
 20
-319.8036499023438
 30
0.0
 10
490.2601318359375
 20
-323.3182983398438
 30
0.0
 10
492.4300537109375
 20
-325.0741577148438
 30
0.0
 10
496.7698974609375
 20
-325.0741577148438
 30
0.0
 10
497.3900146484375
 20
-325.0741577148438
 30
0.0
 10
499.9710693359375
 20
-324.8153686523438
 30
0.0
 10
504.5198974609375
 20
-324.2987670898438
 30
0.0
 10
508.1351318359375
 20
-323.8876342773438
 30
0.0
 10
511.0296630859375
 20
-323.6786499023438
 30
0.0
 10
513.1995849609375
 20
-323.6786499023438
 30
0.0
 10
515.9896240234375
 20
-323.6786499023438
 30
0.0
 10
518.5208740234375
 20
-323.8339233398438
 30
0.0
 10
520.7943115234375
 20
-324.1444702148438
 30
0.0
 10
525.3402099609375
 20
-324.7636108398438
 30
0.0
 10
528.0267333984375
 20
-325.0741577148438
 30
0.0
 10
528.8548583984375
 20
-325.0741577148438
 30
0.0
 10
532.9866943359375
 20
-325.0741577148438
 30
0.0
 10
535.0550537109375
 20
-323.3954467773438
 30
0.0
 10
535.0550537109375
 20
-320.0360717773438
 30
0.0
 10
535.0550537109375
 20
-316.5761108398438
 30
0.0
 10
533.4515380859375
 20
-314.8436889648438
 30
0.0
 10
530.2493896484375
 20
-314.8436889648438
 30
0.0
 10
529.3197021484375
 20
-314.8436889648438
 30
0.0
 10
528.1302490234375
 20
-315.0253295898438
 30
0.0
 10
526.6849365234375
 20
-315.3866577148438
 30
0.0
 10
525.2366943359375
 20
-315.7499389648438
 30
0.0
 10
524.1009521484375
 20
-315.9286499023438
 30
0.0
 10
523.2747802734375
 20
-315.9286499023438
 30
0.0
 10
521.6204833984375
 20
-315.9286499023438
 30
0.0
 10
520.4847412109375
 20
-315.1034545898438
 30
0.0
 10
519.8646240234375
 20
-313.4491577148438
 30
0.0
 10
519.2445068359375
 20
-311.7977905273438
 30
0.0
 10
518.9349365234375
 20
-308.6972045898438
 30
0.0
 10
518.9349365234375
 20
-304.1493530273438
 30
0.0
 10
518.9349365234375
 20
-304.1493530273438
 30
0.0
 10
518.9349365234375
 20
-283.5341186523438
 30
0.0
 10
518.9349365234375
 20
-283.5341186523438
 30
0.0
 10
518.9349365234375
 20
-273.8222045898438
 30
0.0
 10
520.1702880859375
 20
-266.9491577148438
 30
0.0
 10
522.6400146484375
 20
-262.9188842773438
 30
0.0
 10
526.2415771484375
 20
-257.0292358398438
 30
0.0
 10
532.1605224609375
 20
-254.0839233398438
 30
0.0
 10
540.3968505859375
 20
-254.0839233398438
 30
0.0
 10
544.7181396484375
 20
-254.0839233398438
 30
0.0
 10
548.5784912109375
 20
-255.2733764648438
 30
0.0
 10
551.9759521484375
 20
-257.6488647460938
 30
0.0
 10
555.0618896484375
 20
-259.8192749023438
 30
0.0
 10
557.0697021484375
 20
-262.8681030273438
 30
0.0
 10
557.9974365234375
 20
-266.7938842773438
 30
0.0
 10
558.5101318359375
 20
-268.8622436523438
 30
0.0
 10
558.7698974609375
 20
-272.6337280273438
 30
0.0
 10
558.7698974609375
 20
-278.1083374023438
 30
0.0
 10
558.7698974609375
 20
-278.1083374023438
 30
0.0
 10
558.7698974609375
 20
-289.8895874023438
 30
0.0
 10
558.7698974609375
 20
-289.8895874023438
 30
0.0
 10
558.7698974609375
 20
-289.8895874023438
 30
0.0
 10
558.7698974609375
 20
-299.3436889648438
 30
0.0
 10
558.7698974609375
 20
-299.3436889648438
 30
0.0
 10
558.7698974609375
 20
-299.3436889648438
 30
0.0
 10
558.7698974609375
 20
-307.2489624023438
 30
0.0
 10
558.7698974609375
 20
-307.2489624023438
 30
0.0
 10
558.5570068359375
 20
-312.9335327148438
 30
0.0
 10
557.1878662109375
 20
-315.7743530273438
 30
0.0
 10
554.6595458984375
 20
-315.7743530273438
 30
0.0
 10
554.1322021484375
 20
-315.7743530273438
 30
0.0
 10
552.8675537109375
 20
-315.5682983398438
 30
0.0
 10
550.8675537109375
 20
-315.1542358398438
 30
0.0
 10
549.8138427734375
 20
-314.9481811523438
 30
0.0
 10
548.8665771484375
 20
-314.8436889648438
 30
0.0
 10
548.0238037109375
 20
-314.8436889648438
 30
0.0
 10
544.4398193359375
 20
-314.8436889648438
 30
0.0
 10
542.6497802734375
 20
-316.4472045898438
 30
0.0
 10
542.6497802734375
 20
-319.6493530273438
 30
0.0
 10
542.6497802734375
 20
-323.2675170898438
 30
0.0
 10
544.7152099609375
 20
-325.0741577148438
 30
0.0
 10
548.8499755859375
 20
-325.0741577148438
 30
0.0
 10
549.1595458984375
 20
-325.0741577148438
 30
0.0
 10
551.8968505859375
 20
-324.7636108398438
 30
0.0
 10
557.0648193359375
 20
-324.1444702148438
 30
0.0
 10
558.8206787109375
 20
-323.9384155273438
 30
0.0
 10
561.0413818359375
 20
-323.8339233398438
 30
0.0
 10
563.7298583984375
 20
-323.8339233398438
 30
0.0
 10
566.6214599609375
 20
-323.8339233398438
 30
0.0
 10
569.7210693359375
 20
-324.0419311523438
 30
0.0
 10
573.0296630859375
 20
-324.4540405273438
 30
0.0
 10
576.3353271484375
 20
-324.8661499023438
 30
0.0
 10
578.7113037109375
 20
-325.0741577148438
 30
0.0
 10
580.1595458984375
 20
-325.0741577148438
 30
0.0
 10
581.9154052734375
 20
-325.0741577148438
 30
0.0
 10
583.4144287109375
 20
-324.5556030273438
 30
0.0
 10
584.6546630859375
 20
-323.5243530273438
 30
0.0
 10
585.8948974609375
 20
-322.4921264648438
 30
0.0
 10
586.5150146484375
 20
-321.1991577148438
 30
0.0
 10
586.5150146484375
 20
-319.6493530273438
 30
0.0
 10
586.5150146484375
 20
-318.3075561523438
 30
0.0
 10
586.0228271484375
 20
-317.1688842773438
 30
0.0
 10
585.0423583984375
 20
-316.2391967773438
 30
0.0
 10
584.0589599609375
 20
-315.3095092773438
 30
0.0
 10
582.8968505859375
 20
-314.8436889648438
 30
0.0
 10
581.5550537109375
 20
-314.8436889648438
 30
0.0
  0
HATCH
  5
48
330
41
100
AcDbEntity
  8
Layer 1
 62
     7
100
AcDbHatch
 10
0.0
 20
0.0
 30
0.0
210
0.0
220
0.0
230
1.0
  2
SOLID
 70
     1
 71
     0
 91
        1
 92
        1
 93
        1
 72
     4
 94
        3
 73
     0
 74
     1
 95
      188
 96
      184
 40
0.0
 40
0.0
 40
0.0
 40
0.0
 40
1.0
 40
1.0
 40
1.0
 40
2.0
 40
2.0
 40
2.0
 40
3.0
 40
3.0
 40
3.0
 40
4.0
 40
4.0
 40
4.0
 40
5.0
 40
5.0
 40
5.0
 40
6.0
 40
6.0
 40
6.0
 40
7.0
 40
7.0
 40
7.0
 40
8.0
 40
8.0
 40
8.0
 40
9.0
 40
9.0
 40
9.0
 40
10.0
 40
10.0
 40
10.0
 40
11.0
 40
11.0
 40
11.0
 40
12.0
 40
12.0
 40
12.0
 40
13.0
 40
13.0
 40
13.0
 40
14.0
 40
14.0
 40
14.0
 40
15.0
 40
15.0
 40
15.0
 40
16.0
 40
16.0
 40
16.0
 40
17.0
 40
17.0
 40
17.0
 40
18.0
 40
18.0
 40
18.0
 40
19.0
 40
19.0
 40
19.0
 40
20.0
 40
20.0
 40
20.0
 40
21.0
 40
21.0
 40
21.0
 40
22.0
 40
22.0
 40
22.0
 40
23.0
 40
23.0
 40
23.0
 40
24.0
 40
24.0
 40
24.0
 40
25.0
 40
25.0
 40
25.0
 40
26.0
 40
26.0
 40
26.0
 40
27.0
 40
27.0
 40
27.0
 40
28.0
 40
28.0
 40
28.0
 40
29.0
 40
29.0
 40
29.0
 40
30.0
 40
30.0
 40
30.0
 40
31.0
 40
31.0
 40
31.0
 40
32.0
 40
32.0
 40
32.0
 40
33.0
 40
33.0
 40
33.0
 40
34.0
 40
34.0
 40
34.0
 40
35.0
 40
35.0
 40
35.0
 40
36.0
 40
36.0
 40
36.0
 40
37.0
 40
37.0
 40
37.0
 40
38.0
 40
38.0
 40
38.0
 40
39.0
 40
39.0
 40
39.0
 40
40.0
 40
40.0
 40
40.0
 40
41.0
 40
41.0
 40
41.0
 40
42.0
 40
42.0
 40
42.0
 40
43.0
 40
43.0
 40
43.0
 40
44.0
 40
44.0
 40
44.0
 40
45.0
 40
45.0
 40
45.0
 40
46.0
 40
46.0
 40
46.0
 40
47.0
 40
47.0
 40
47.0
 40
48.0
 40
48.0
 40
48.0
 40
49.0
 40
49.0
 40
49.0
 40
50.0
 40
50.0
 40
50.0
 40
51.0
 40
51.0
 40
51.0
 40
52.0
 40
52.0
 40
52.0
 40
53.0
 40
53.0
 40
53.0
 40
54.0
 40
54.0
 40
54.0
 40
55.0
 40
55.0
 40
55.0
 40
56.0
 40
56.0
 40
56.0
 40
57.0
 40
57.0
 40
57.0
 40
58.0
 40
58.0
 40
58.0
 40
59.0
 40
59.0
 40
59.0
 40
60.0
 40
60.0
 40
60.0
 40
61.0
 40
61.0
 40
61.0
 40
61.0
 10
581.5550537109375
 20
-314.8436889648438
 10
580.9349365234375
 20
-314.8436889648438
 10
579.8734130859375
 20
-314.9745483398438
 10
578.3773193359375
 20
-315.2313842773438
 10
576.8782958984375
 20
-315.4911499023438
 10
575.6644287109375
 20
-315.6190795898438
 10
574.7347412109375
 20
-315.6190795898438
 10
572.4603271484375
 20
-315.6190795898438
 10
571.0657958984375
 20
-313.8632202148438
 10
570.5491943359375
 20
-310.3485717773438
 10
570.4456787109375
 20
-309.5233764648438
 10
570.3948974609375
 20
-306.8886108398438
 10
570.3948974609375
 20
-302.4442749023438
 10
570.3948974609375
 20
-302.4442749023438
 10
570.3948974609375
 20
-272.9940795898438
 10
570.3948974609375
 20
-272.9940795898438
 10
570.3948974609375
 20
-267.3124389648438
 10
569.6702880859375
 20
-262.7133178710938
 10
568.2249755859375
 20
-259.1991577148438
 10
566.4661865234375
 20
-254.9633178710938
 10
563.1097412109375
 20
-251.4247436523438
 10
558.1497802734375
 20
-248.5814819335938
 10
553.1898193359375
 20
-245.7406616210938
 10
547.9193115234375
 20
-244.3192749023438
 10
542.3392333984375
 20
-244.3192749023438
 10
532.0052490234375
 20
-244.3192749023438
 10
523.7396240234375
 20
-248.2474975585938
 10
517.5394287109375
 20
-256.0990600585938
 10
517.5394287109375
 20
-256.0990600585938
 10
517.5394287109375
 20
-251.6840209960938
 10
517.5394287109375
 20
-251.6840209960938
 10
517.5394287109375
 20
-248.5307006835938
 10
516.0404052734375
 20
-246.9540405273438
 10
513.0443115234375
 20
-246.9540405273438
 10
512.9407958984375
 20
-246.9540405273438
 10
511.5452880859375
 20
-247.0848999023438
 10
508.8597412109375
 20
-247.3417358398438
 10
507.6195068359375
 20
-247.6005249023438
 10
506.1712646484375
 20
-247.7289428710938
 10
504.5198974609375
 20
-247.7289428710938
 10
504.5198974609375
 20
-247.7289428710938
 10
498.7845458984375
 20
-247.1088256835938
 10
498.7845458984375
 20
-247.1088256835938
 10
498.3704833984375
 20
-247.0072631835938
 10
497.8548583984375
 20
-246.9540405273438
 10
497.2347412109375
 20
-246.9540405273438
 10
492.5843505859375
 20
-246.9540405273438
 10
490.2601318359375
 20
-248.6591186523438
 10
490.2601318359375
 20
-252.0692749023438
 10
490.2601318359375
 20
-255.3773803710938
 10
492.1536865234375
 20
-257.0292358398438
 10
495.9437255859375
 20
-257.0292358398438
 10
496.6800537109375
 20
-257.0292358398438
 10
497.7581787109375
 20
-256.9008178710938
 10
499.1790771484375
 20
-256.6415405273438
 10
500.5989990234375
 20
-256.3847045898438
 10
501.6790771484375
 20
-256.2538452148438
 10
502.4154052734375
 20
-256.2538452148438
 10
504.0980224609375
 20
-256.2538452148438
 10
505.2825927734375
 20
-256.9008178710938
 10
505.9681396484375
 20
-258.1913452148438
 10
506.6507568359375
 20
-259.4848022460938
 10
507.0989990234375
 20
-261.8871459960938
 10
507.3099365234375
 20
-265.3988647460938
 10
507.3099365234375
 20
-265.3988647460938
 10
507.3099365234375
 20
-270.8241577148438
 10
507.3099365234375
 20
-270.8241577148438
 10
507.3099365234375
 20
-270.8241577148438
 10
507.3099365234375
 20
-289.5790405273438
 10
507.3099365234375
 20
-289.5790405273438
 10
507.3099365234375
 20
-289.5790405273438
 10
507.3099365234375
 20
-306.7841186523438
 10
507.3099365234375
 20
-306.7841186523438
 10
507.2034912109375
 20
-312.7782592773438
 10
505.5736083984375
 20
-315.7743530273438
 10
502.4154052734375
 20
-315.7743530273438
 10
501.0462646484375
 20
-315.7743530273438
 10
499.6517333984375
 20
-315.6190795898438
 10
498.2327880859375
 20
-315.3095092773438
 10
496.8109130859375
 20
-314.9989624023438
 10
495.8372802734375
 20
-314.8436889648438
 10
495.3118896484375
 20
-314.8436889648438
 10
491.9427490234375
 20
-314.8436889648438
 10
490.2601318359375
 20
-316.4979858398438
 10
490.2601318359375
 20
-319.8036499023438
 10
490.2601318359375
 20
-323.3182983398438
 10
492.4300537109375
 20
-325.0741577148438
 10
496.7698974609375
 20
-325.0741577148438
 10
497.3900146484375
 20
-325.0741577148438
 10
499.9710693359375
 20
-324.8153686523438
 10
504.5198974609375
 20
-324.2987670898438
 10
508.1351318359375
 20
-323.8876342773438
 10
511.0296630859375
 20
-323.6786499023438
 10
513.1995849609375
 20
-323.6786499023438
 10
515.9896240234375
 20
-323.6786499023438
 10
518.5208740234375
 20
-323.8339233398438
 10
520.7943115234375
 20
-324.1444702148438
 10
525.3402099609375
 20
-324.7636108398438
 10
528.0267333984375
 20
-325.0741577148438
 10
528.8548583984375
 20
-325.0741577148438
 10
532.9866943359375
 20
-325.0741577148438
 10
535.0550537109375
 20
-323.3954467773438
 10
535.0550537109375
 20
-320.0360717773438
 10
535.0550537109375
 20
-316.5761108398438
 10
533.4515380859375
 20
-314.8436889648438
 10
530.2493896484375
 20
-314.8436889648438
 10
529.3197021484375
 20
-314.8436889648438
 10
528.1302490234375
 20
-315.0253295898438
 10
526.6849365234375
 20
-315.3866577148438
 10
525.2366943359375
 20
-315.7499389648438
 10
524.1009521484375
 20
-315.9286499023438
 10
523.2747802734375
 20
-315.9286499023438
 10
521.6204833984375
 20
-315.9286499023438
 10
520.4847412109375
 20
-315.1034545898438
 10
519.8646240234375
 20
-313.4491577148438
 10
519.2445068359375
 20
-311.7977905273438
 10
518.9349365234375
 20
-308.6972045898438
 10
518.9349365234375
 20
-304.1493530273438
 10
518.9349365234375
 20
-304.1493530273438
 10
518.9349365234375
 20
-283.5341186523438
 10
518.9349365234375
 20
-283.5341186523438
 10
518.9349365234375
 20
-273.8222045898438
 10
520.1702880859375
 20
-266.9491577148438
 10
522.6400146484375
 20
-262.9188842773438
 10
526.2415771484375
 20
-257.0292358398438
 10
532.1605224609375
 20
-254.0839233398438
 10
540.3968505859375
 20
-254.0839233398438
 10
544.7181396484375
 20
-254.0839233398438
 10
548.5784912109375
 20
-255.2733764648438
 10
551.9759521484375
 20
-257.6488647460938
 10
555.0618896484375
 20
-259.8192749023438
 10
557.0697021484375
 20
-262.8681030273438
 10
557.9974365234375
 20
-266.7938842773438
 10
558.5101318359375
 20
-268.8622436523438
 10
558.7698974609375
 20
-272.6337280273438
 10
558.7698974609375
 20
-278.1083374023438
 10
558.7698974609375
 20
-278.1083374023438
 10
558.7698974609375
 20
-289.8895874023438
 10
558.7698974609375
 20
-289.8895874023438
 10
558.7698974609375
 20
-289.8895874023438
 10
558.7698974609375
 20
-299.3436889648438
 10
558.7698974609375
 20
-299.3436889648438
 10
558.7698974609375
 20
-299.3436889648438
 10
558.7698974609375
 20
-307.2489624023438
 10
558.7698974609375
 20
-307.2489624023438
 10
558.5570068359375
 20
-312.9335327148438
 10
557.1878662109375
 20
-315.7743530273438
 10
554.6595458984375
 20
-315.7743530273438
 10
554.1322021484375
 20
-315.7743530273438
 10
552.8675537109375
 20
-315.5682983398438
 10
550.8675537109375
 20
-315.1542358398438
 10
549.8138427734375
 20
-314.9481811523438
 10
548.8665771484375
 20
-314.8436889648438
 10
548.0238037109375
 20
-314.8436889648438
 10
544.4398193359375
 20
-314.8436889648438
 10
542.6497802734375
 20
-316.4472045898438
 10
542.6497802734375
 20
-319.6493530273438
 10
542.6497802734375
 20
-323.2675170898438
 10
544.7152099609375
 20
-325.0741577148438
 10
548.8499755859375
 20
-325.0741577148438
 10
549.1595458984375
 20
-325.0741577148438
 10
551.8968505859375
 20
-324.7636108398438
 10
557.0648193359375
 20
-324.1444702148438
 10
558.8206787109375
 20
-323.9384155273438
 10
561.0413818359375
 20
-323.8339233398438
 10
563.7298583984375
 20
-323.8339233398438
 10
566.6214599609375
 20
-323.8339233398438
 10
569.7210693359375
 20
-324.0419311523438
 10
573.0296630859375
 20
-324.4540405273438
 10
576.3353271484375
 20
-324.8661499023438
 10
578.7113037109375
 20
-325.0741577148438
 10
580.1595458984375
 20
-325.0741577148438
 10
581.9154052734375
 20
-325.0741577148438
 10
583.4144287109375
 20
-324.5556030273438
 10
584.6546630859375
 20
-323.5243530273438
 10
585.8948974609375
 20
-322.4921264648438
 10
586.5150146484375
 20
-321.1991577148438
 10
586.5150146484375
 20
-319.6493530273438
 10
586.5150146484375
 20
-318.3075561523438
 10
586.0228271484375
 20
-317.1688842773438
 10
585.0423583984375
 20
-316.2391967773438
 10
584.0589599609375
 20
-315.3095092773438
 10
582.8968505859375
 20
-314.8436889648438
 10
581.5550537109375
 20
-314.8436889648438
 97
        0
 75
     2
 76
     1
 98
        0
  0
SPLINE
  5
49
330
41
100
AcDbEntity
  8
Layer 1
370
     0
100
AcDbSpline
210
0.0
220
0.0
230
1.0
 70
    11
 71
     3
 72
    65
 73
    61
 74
     0
 42
0.0000000001
 43
0.0000000001
 12
1.0
 22
0.0
 32
0.0
 13
1.0
 23
0.0
 33
0.0
 40
0.0
 40
0.0
 40
0.0
 40
0.0
 40
1.0
 40
1.0
 40
1.0
 40
2.0
 40
2.0
 40
2.0
 40
3.0
 40
3.0
 40
3.0
 40
4.0
 40
4.0
 40
4.0
 40
5.0
 40
5.0
 40
5.0
 40
6.0
 40
6.0
 40
6.0
 40
7.0
 40
7.0
 40
7.0
 40
8.0
 40
8.0
 40
8.0
 40
9.0
 40
9.0
 40
9.0
 40
10.0
 40
10.0
 40
10.0
 40
11.0
 40
11.0
 40
11.0
 40
12.0
 40
12.0
 40
12.0
 40
13.0
 40
13.0
 40
13.0
 40
14.0
 40
14.0
 40
14.0
 40
15.0
 40
15.0
 40
15.0
 40
16.0
 40
16.0
 40
16.0
 40
17.0
 40
17.0
 40
17.0
 40
18.0
 40
18.0
 40
18.0
 40
19.0
 40
19.0
 40
19.0
 40
20.0
 40
20.0
 40
20.0
 40
20.0
 10
452.5784912109375
 20
-244.3192749023438
 30
0.0
 10
441.6243896484375
 20
-244.3192749023438
 30
0.0
 10
432.7386474609375
 20
-248.2474975585938
 30
0.0
 10
425.9193115234375
 20
-256.0990600585938
 30
0.0
 10
419.0989990234375
 20
-263.9530639648438
 30
0.0
 10
415.6888427734375
 20
-274.1825561523438
 30
0.0
 10
415.6888427734375
 20
-286.7890014648438
 30
0.0
 10
415.6888427734375
 20
-299.0868530273438
 30
0.0
 10
418.8909912109375
 20
-308.8768920898438
 30
0.0
 10
425.2991943359375
 20
-316.1610717773438
 30
0.0
 10
431.7044677734375
 20
-323.4462280273438
 30
0.0
 10
440.3343505859375
 20
-327.0888061523438
 30
0.0
 10
451.1839599609375
 20
-327.0888061523438
 30
0.0
 10
459.8636474609375
 20
-327.0888061523438
 30
0.0
 10
467.6136474609375
 20
-324.4784545898438
 30
0.0
 10
474.4339599609375
 20
-319.2616577148438
 30
0.0
 10
481.2542724609375
 20
-314.0448608398438
 30
0.0
 10
484.6634521484375
 20
-308.0770874023438
 30
0.0
 10
484.6634521484375
 20
-301.3593139648438
 30
0.0
 10
484.6634521484375
 20
-297.4325561523438
 30
0.0
 10
482.7503662109375
 20
-295.4696655273438
 30
0.0
 10
478.9290771484375
 20
-295.4696655273438
 30
0.0
 10
476.2406005859375
 20
-295.4696655273438
 30
0.0
 10
474.5355224609375
 20
-296.7089233398438
 30
0.0
 10
473.8138427734375
 20
-299.1893920898438
 30
0.0
 10
473.8138427734375
 20
-299.1893920898438
 30
0.0
 10
472.4193115234375
 20
-303.6845092773438
 30
0.0
 10
472.4193115234375
 20
-303.6845092773438
 30
0.0
 10
471.2806396484375
 20
-307.5077514648438
 30
0.0
 10
468.8275146484375
 20
-310.6591186523438
 30
0.0
 10
465.0560302734375
 20
-313.1386108398438
 30
0.0
 10
461.2835693359375
 20
-315.6190795898438
 30
0.0
 10
457.1243896484375
 20
-316.8593139648438
 30
0.0
 10
452.5784912109375
 20
-316.8593139648438
 30
0.0
 10
445.6546630859375
 20
-316.8593139648438
 30
0.0
 10
439.8685302734375
 20
-314.2772827148438
 30
0.0
 10
435.2191162109375
 20
-309.1093139648438
 30
0.0
 10
430.5687255859375
 20
-303.9432983398438
 30
0.0
 10
428.2435302734375
 20
-297.4833374023438
 30
0.0
 10
428.2435302734375
 20
-289.7333374023438
 30
0.0
 10
428.2435302734375
 20
-288.9081420898438
 30
0.0
 10
428.4495849609375
 20
-288.3153686523438
 30
0.0
 10
428.8636474609375
 20
-287.9520874023438
 30
0.0
 10
429.2757568359375
 20
-287.5907592773438
 30
0.0
 10
430.1546630859375
 20
-287.4091186523438
 30
0.0
 10
431.4993896484375
 20
-287.4091186523438
 30
0.0
 10
431.4993896484375
 20
-287.4091186523438
 30
0.0
 10
480.7884521484375
 20
-287.4091186523438
 30
0.0
 10
480.7884521484375
 20
-287.4091186523438
 30
0.0
 10
483.2689208984375
 20
-287.4091186523438
 30
0.0
 10
484.7659912109375
 20
-286.9706420898438
 30
0.0
 10
485.2835693359375
 20
-286.0917358398438
 30
0.0
 10
485.8001708984375
 20
-285.2147827148438
 30
0.0
 10
486.0589599609375
 20
-282.8124389648438
 30
0.0
 10
486.0589599609375
 20
-278.8837280273438
 30
0.0
 10
486.0589599609375
 20
-268.8622436523438
 30
0.0
 10
482.9056396484375
 20
-260.5941772460938
 30
0.0
 10
476.6038818359375
 20
-254.0839233398438
 30
0.0
 10
470.3001708984375
 20
-247.5741577148438
 30
0.0
 10
462.2904052734375
 20
-244.3192749023438
 30
0.0
 10
452.5784912109375
 20
-244.3192749023438
 30
0.0
  0
HATCH
  5
4A
330
41
100
AcDbEntity
  8
Layer 1
 62
     7
100
AcDbHatch
 10
0.0
 20
0.0
 30
0.0
210
0.0
220
0.0
230
1.0
  2
SOLID
 70
     1
 71
     0
 91
        1
 92
        1
 93
        1
 72
     4
 94
        3
 73
     0
 74
     1
 95
       65
 96
       61
 40
0.0
 40
0.0
 40
0.0
 40
0.0
 40
1.0
 40
1.0
 40
1.0
 40
2.0
 40
2.0
 40
2.0
 40
3.0
 40
3.0
 40
3.0
 40
4.0
 40
4.0
 40
4.0
 40
5.0
 40
5.0
 40
5.0
 40
6.0
 40
6.0
 40
6.0
 40
7.0
 40
7.0
 40
7.0
 40
8.0
 40
8.0
 40
8.0
 40
9.0
 40
9.0
 40
9.0
 40
10.0
 40
10.0
 40
10.0
 40
11.0
 40
11.0
 40
11.0
 40
12.0
 40
12.0
 40
12.0
 40
13.0
 40
13.0
 40
13.0
 40
14.0
 40
14.0
 40
14.0
 40
15.0
 40
15.0
 40
15.0
 40
16.0
 40
16.0
 40
16.0
 40
17.0
 40
17.0
 40
17.0
 40
18.0
 40
18.0
 40
18.0
 40
19.0
 40
19.0
 40
19.0
 40
20.0
 40
20.0
 40
20.0
 40
20.0
 10
452.5784912109375
 20
-244.3192749023438
 10
441.6243896484375
 20
-244.3192749023438
 10
432.7386474609375
 20
-248.2474975585938
 10
425.9193115234375
 20
-256.0990600585938
 10
419.0989990234375
 20
-263.9530639648438
 10
415.6888427734375
 20
-274.1825561523438
 10
415.6888427734375
 20
-286.7890014648438
 10
415.6888427734375
 20
-299.0868530273438
 10
418.8909912109375
 20
-308.8768920898438
 10
425.2991943359375
 20
-316.1610717773438
 10
431.7044677734375
 20
-323.4462280273438
 10
440.3343505859375
 20
-327.0888061523438
 10
451.1839599609375
 20
-327.0888061523438
 10
459.8636474609375
 20
-327.0888061523438
 10
467.6136474609375
 20
-324.4784545898438
 10
474.4339599609375
 20
-319.2616577148438
 10
481.2542724609375
 20
-314.0448608398438
 10
484.6634521484375
 20
-308.0770874023438
 10
484.6634521484375
 20
-301.3593139648438
 10
484.6634521484375
 20
-297.4325561523438
 10
482.7503662109375
 20
-295.4696655273438
 10
478.9290771484375
 20
-295.4696655273438
 10
476.2406005859375
 20
-295.4696655273438
 10
474.5355224609375
 20
-296.7089233398438
 10
473.8138427734375
 20
-299.1893920898438
 10
473.8138427734375
 20
-299.1893920898438
 10
472.4193115234375
 20
-303.6845092773438
 10
472.4193115234375
 20
-303.6845092773438
 10
471.2806396484375
 20
-307.5077514648438
 10
468.8275146484375
 20
-310.6591186523438
 10
465.0560302734375
 20
-313.1386108398438
 10
461.2835693359375
 20
-315.6190795898438
 10
457.1243896484375
 20
-316.8593139648438
 10
452.5784912109375
 20
-316.8593139648438
 10
445.6546630859375
 20
-316.8593139648438
 10
439.8685302734375
 20
-314.2772827148438
 10
435.2191162109375
 20
-309.1093139648438
 10
430.5687255859375
 20
-303.9432983398438
 10
428.2435302734375
 20
-297.4833374023438
 10
428.2435302734375
 20
-289.7333374023438
 10
428.2435302734375
 20
-288.9081420898438
 10
428.4495849609375
 20
-288.3153686523438
 10
428.8636474609375
 20
-287.9520874023438
 10
429.2757568359375
 20
-287.5907592773438
 10
430.1546630859375
 20
-287.4091186523438
 10
431.4993896484375
 20
-287.4091186523438
 10
431.4993896484375
 20
-287.4091186523438
 10
480.7884521484375
 20
-287.4091186523438
 10
480.7884521484375
 20
-287.4091186523438
 10
483.2689208984375
 20
-287.4091186523438
 10
484.7659912109375
 20
-286.9706420898438
 10
485.2835693359375
 20
-286.0917358398438
 10
485.8001708984375
 20
-285.2147827148438
 10
486.0589599609375
 20
-282.8124389648438
 10
486.0589599609375
 20
-278.8837280273438
 10
486.0589599609375
 20
-268.8622436523438
 10
482.9056396484375
 20
-260.5941772460938
 10
476.6038818359375
 20
-254.0839233398438
 10
470.3001708984375
 20
-247.5741577148438
 10
462.2904052734375
 20
-244.3192749023438
 10
452.5784912109375
 20
-244.3192749023438
 97
        0
 75
     2
 76
     1
 98
        0
  0
SPLINE
  5
4B
330
41
100
AcDbEntity
  8
Layer 1
370
     0
100
AcDbSpline
210
0.0
220
0.0
230
1.0
 70
    11
 71
     3
 72
   113
 73
   109
 74
     0
 42
0.0000000001
 43
0.0000000001
 12
1.0
 22
0.0
 32
0.0
 13
1.0
 23
0.0
 33
0.0
 40
0.0
 40
0.0
 40
0.0
 40
0.0
 40
1.0
 40
1.0
 40
1.0
 40
2.0
 40
2.0
 40
2.0
 40
3.0
 40
3.0
 40
3.0
 40
4.0
 40
4.0
 40
4.0
 40
5.0
 40
5.0
 40
5.0
 40
6.0
 40
6.0
 40
6.0
 40
7.0
 40
7.0
 40
7.0
 40
8.0
 40
8.0
 40
8.0
 40
9.0
 40
9.0
 40
9.0
 40
10.0
 40
10.0
 40
10.0
 40
11.0
 40
11.0
 40
11.0
 40
12.0
 40
12.0
 40
12.0
 40
13.0
 40
13.0
 40
13.0
 40
14.0
 40
14.0
 40
14.0
 40
15.0
 40
15.0
 40
15.0
 40
16.0
 40
16.0
 40
16.0
 40
17.0
 40
17.0
 40
17.0
 40
18.0
 40
18.0
 40
18.0
 40
19.0
 40
19.0
 40
19.0
 40
20.0
 40
20.0
 40
20.0
 40
21.0
 40
21.0
 40
21.0
 40
22.0
 40
22.0
 40
22.0
 40
23.0
 40
23.0
 40
23.0
 40
24.0
 40
24.0
 40
24.0
 40
25.0
 40
25.0
 40
25.0
 40
26.0
 40
26.0
 40
26.0
 40
27.0
 40
27.0
 40
27.0
 40
28.0
 40
28.0
 40
28.0
 40
29.0
 40
29.0
 40
29.0
 40
30.0
 40
30.0
 40
30.0
 40
31.0
 40
31.0
 40
31.0
 40
32.0
 40
32.0
 40
32.0
 40
33.0
 40
33.0
 40
33.0
 40
34.0
 40
34.0
 40
34.0
 40
35.0
 40
35.0
 40
35.0
 40
36.0
 40
36.0
 40
36.0
 40
36.0
 10
371.8255615234375
 20
-244.3192749023438
 30
0.0
 10
361.8021240234375
 20
-244.3192749023438
 30
0.0
 10
353.8968505859375
 20
-248.3490600585938
 30
0.0
 10
348.1107177734375
 20
-256.4091186523438
 30
0.0
 10
348.1107177734375
 20
-256.4091186523438
 30
0.0
 10
348.1107177734375
 20
-251.4491577148438
 30
0.0
 10
348.1107177734375
 20
-251.4491577148438
 30
0.0
 10
348.1107177734375
 20
-248.5575561523438
 30
0.0
 10
346.8177490234375
 20
-247.1088256835938
 30
0.0
 10
344.2357177734375
 20
-247.1088256835938
 30
0.0
 10
343.4075927734375
 20
-247.1088256835938
 30
0.0
 10
342.1165771484375
 20
-247.1864624023438
 30
0.0
 10
340.3607177734375
 20
-247.3417358398438
 30
0.0
 10
338.6029052734375
 20
-247.4965209960938
 30
0.0
 10
337.2611083984375
 20
-247.5741577148438
 30
0.0
 10
336.3314208984375
 20
-247.5741577148438
 30
0.0
 10
335.0911865234375
 20
-247.5741577148438
 30
0.0
 10
333.1781005859375
 20
-247.4721069335938
 30
0.0
 10
330.5960693359375
 20
-247.2640991210938
 30
0.0
 10
329.2513427734375
 20
-247.1625366210938
 30
0.0
 10
328.0120849609375
 20
-247.1088256835938
 30
0.0
 10
326.8763427734375
 20
-247.1088256835938
 30
0.0
 10
322.3275146484375
 20
-247.1088256835938
 30
0.0
 10
320.0560302734375
 20
-248.7631225585938
 30
0.0
 10
320.0560302734375
 20
-252.0692749023438
 30
0.0
 10
320.0560302734375
 20
-255.4789428710938
 30
0.0
 10
321.9495849609375
 20
-257.1840209960938
 30
0.0
 10
325.7376708984375
 20
-257.1840209960938
 30
0.0
 10
326.5560302734375
 20
-257.1840209960938
 30
0.0
 10
327.7064208984375
 20
-257.0048217773438
 30
0.0
 10
329.1907958984375
 20
-256.6415405273438
 30
0.0
 10
330.6761474609375
 20
-256.2807006835938
 30
0.0
 10
331.7777099609375
 20
-256.0990600585938
 30
0.0
 10
332.4945068359375
 20
-256.0990600585938
 30
0.0
 10
335.0521240234375
 20
-256.0990600585938
 30
0.0
 10
336.3841552734375
 20
-258.4774780273438
 30
0.0
 10
336.4857177734375
 20
-263.2289428710938
 30
0.0
 10
336.4857177734375
 20
-263.2289428710938
 30
0.0
 10
336.4857177734375
 20
-323.0595092773438
 30
0.0
 10
336.4857177734375
 20
-323.0595092773438
 30
0.0
 10
336.3841552734375
 20
-332.2548217773438
 30
0.0
 10
336.1009521484375
 20
-337.8612670898438
 30
0.0
 10
335.6409912109375
 20
-339.8768920898438
 30
0.0
 10
335.1810302734375
 20
-341.8915405273438
 30
0.0
 10
333.9769287109375
 20
-342.8993530273438
 30
0.0
 10
332.0325927734375
 20
-342.8993530273438
 30
0.0
 10
331.2132568359375
 20
-342.8993530273438
 30
0.0
 10
329.9320068359375
 20
-342.7225952148438
 30
0.0
 10
328.1937255859375
 20
-342.3690795898438
 30
0.0
 10
326.8616943359375
 20
-342.1024780273438
 30
0.0
 10
325.8900146484375
 20
-341.9686889648438
 30
0.0
 10
325.2777099609375
 20
-341.9686889648438
 30
0.0
 10
321.7952880859375
 20
-341.9686889648438
 30
0.0
 10
320.0560302734375
 20
-343.5966186523438
 30
0.0
 10
320.0560302734375
 20
-346.8544311523438
 30
0.0
 10
320.0560302734375
 20
-348.2782592773438
 30
0.0
 10
320.6732177734375
 20
-349.5253295898438
 30
0.0
 10
321.9085693359375
 20
-350.5956420898438
 30
0.0
 10
323.1439208984375
 20
-351.6640014648438
 30
0.0
 10
324.6380615234375
 20
-352.1991577148438
 30
0.0
 10
326.3890380859375
 20
-352.1991577148438
 30
0.0
 10
327.7259521484375
 20
-352.1991577148438
 30
0.0
 10
330.4554443359375
 20
-351.9403686523438
 30
0.0
 10
334.5755615234375
 20
-351.4237670898438
 30
0.0
 10
336.2220458984375
 20
-351.2157592773438
 30
0.0
 10
338.2806396484375
 20
-351.1141967773438
 30
0.0
 10
340.7532958984375
 20
-351.1141967773438
 30
0.0
 10
345.2825927734375
 20
-351.1141967773438
 30
0.0
 10
348.6800537109375
 20
-351.2694702148438
 30
0.0
 10
350.9466552734375
 20
-351.5790405273438
 30
0.0
 10
354.0374755859375
 20
-351.9911499023438
 30
0.0
 10
356.3529052734375
 20
-352.1991577148438
 30
0.0
 10
357.8978271484375
 20
-352.1991577148438
 30
0.0
 10
362.2230224609375
 20
-352.1991577148438
 30
0.0
 10
364.3861083984375
 20
-350.4940795898438
 30
0.0
 10
364.3861083984375
 20
-347.0839233398438
 30
0.0
 10
364.3861083984375
 20
-343.6737670898438
 30
0.0
 10
362.7318115234375
 20
-341.9686889648438
 30
0.0
 10
359.4261474609375
 20
-341.9686889648438
 30
0.0
 10
358.7015380859375
 20
-341.9686889648438
 30
0.0
 10
357.6165771484375
 20
-342.1239624023438
 30
0.0
 10
356.1712646484375
 20
-342.4345092773438
 30
0.0
 10
354.7230224609375
 20
-342.7440795898438
 30
0.0
 10
353.6380615234375
 20
-342.8993530273438
 30
0.0
 10
352.9163818359375
 20
-342.8993530273438
 30
0.0
 10
350.5374755859375
 20
-342.8993530273438
 30
0.0
 10
349.0413818359375
 20
-341.2958374023438
 30
0.0
 10
348.4212646484375
 20
-338.0936889648438
 30
0.0
 10
348.2122802734375
 20
-336.9559936523438
 30
0.0
 10
348.1107177734375
 20
-334.4247436523438
 30
0.0
 10
348.1107177734375
 20
-330.4989624023438
 30
0.0
 10
348.1107177734375
 20
-330.4989624023438
 30
0.0
 10
348.1107177734375
 20
-317.6337280273438
 30
0.0
 10
348.1107177734375
 20
-317.6337280273438
 30
0.0
 10
353.6907958984375
 20
-323.9384155273438
 30
0.0
 10
360.9759521484375
 20
-327.0888061523438
 30
0.0
 10
369.9661865234375
 20
-327.0888061523438
 30
0.0
 10
380.8157958984375
 20
-327.0888061523438
 30
0.0
 10
389.4691162109375
 20
-323.1893920898438
 30
0.0
 10
395.9281005859375
 20
-315.3866577148438
 30
0.0
 10
402.3851318359375
 20
-307.5858764648438
 30
0.0
 10
405.6156005859375
 20
-297.1229858398438
 30
0.0
 10
405.6156005859375
 20
-283.9989624023438
 30
0.0
 10
405.6156005859375
 20
-271.8075561523438
 30
0.0
 10
402.5667724609375
 20
-262.1439819335938
 30
0.0
 10
396.4710693359375
 20
-255.0140991210938
 30
0.0
 10
390.3724365234375
 20
-247.8842163085938
 30
0.0
 10
382.1575927734375
 20
-244.3192749023438
 30
0.0
 10
371.8255615234375
 20
-244.3192749023438
 30
0.0
  0
HATCH
  5
4C
330
41
100
AcDbEntity
  8
Layer 1
 62
     7
100
AcDbHatch
 10
0.0
 20
0.0
 30
0.0
210
0.0
220
0.0
230
1.0
  2
SOLID
 70
     1
 71
     0
 91
        1
 92
        1
 93
        1
 72
     4
 94
        3
 73
     0
 74
     1
 95
      113
 96
      109
 40
0.0
 40
0.0
 40
0.0
 40
0.0
 40
1.0
 40
1.0
 40
1.0
 40
2.0
 40
2.0
 40
2.0
 40
3.0
 40
3.0
 40
3.0
 40
4.0
 40
4.0
 40
4.0
 40
5.0
 40
5.0
 40
5.0
 40
6.0
 40
6.0
 40
6.0
 40
7.0
 40
7.0
 40
7.0
 40
8.0
 40
8.0
 40
8.0
 40
9.0
 40
9.0
 40
9.0
 40
10.0
 40
10.0
 40
10.0
 40
11.0
 40
11.0
 40
11.0
 40
12.0
 40
12.0
 40
12.0
 40
13.0
 40
13.0
 40
13.0
 40
14.0
 40
14.0
 40
14.0
 40
15.0
 40
15.0
 40
15.0
 40
16.0
 40
16.0
 40
16.0
 40
17.0
 40
17.0
 40
17.0
 40
18.0
 40
18.0
 40
18.0
 40
19.0
 40
19.0
 40
19.0
 40
20.0
 40
20.0
 40
20.0
 40
21.0
 40
21.0
 40
21.0
 40
22.0
 40
22.0
 40
22.0
 40
23.0
 40
23.0
 40
23.0
 40
24.0
 40
24.0
 40
24.0
 40
25.0
 40
25.0
 40
25.0
 40
26.0
 40
26.0
 40
26.0
 40
27.0
 40
27.0
 40
27.0
 40
28.0
 40
28.0
 40
28.0
 40
29.0
 40
29.0
 40
29.0
 40
30.0
 40
30.0
 40
30.0
 40
31.0
 40
31.0
 40
31.0
 40
32.0
 40
32.0
 40
32.0
 40
33.0
 40
33.0
 40
33.0
 40
34.0
 40
34.0
 40
34.0
 40
35.0
 40
35.0
 40
35.0
 40
36.0
 40
36.0
 40
36.0
 40
36.0
 10
371.8255615234375
 20
-244.3192749023438
 10
361.8021240234375
 20
-244.3192749023438
 10
353.8968505859375
 20
-248.3490600585938
 10
348.1107177734375
 20
-256.4091186523438
 10
348.1107177734375
 20
-256.4091186523438
 10
348.1107177734375
 20
-251.4491577148438
 10
348.1107177734375
 20
-251.4491577148438
 10
348.1107177734375
 20
-248.5575561523438
 10
346.8177490234375
 20
-247.1088256835938
 10
344.2357177734375
 20
-247.1088256835938
 10
343.4075927734375
 20
-247.1088256835938
 10
342.1165771484375
 20
-247.1864624023438
 10
340.3607177734375
 20
-247.3417358398438
 10
338.6029052734375
 20
-247.4965209960938
 10
337.2611083984375
 20
-247.5741577148438
 10
336.3314208984375
 20
-247.5741577148438
 10
335.0911865234375
 20
-247.5741577148438
 10
333.1781005859375
 20
-247.4721069335938
 10
330.5960693359375
 20
-247.2640991210938
 10
329.2513427734375
 20
-247.1625366210938
 10
328.0120849609375
 20
-247.1088256835938
 10
326.8763427734375
 20
-247.1088256835938
 10
322.3275146484375
 20
-247.1088256835938
 10
320.0560302734375
 20
-248.7631225585938
 10
320.0560302734375
 20
-252.0692749023438
 10
320.0560302734375
 20
-255.4789428710938
 10
321.9495849609375
 20
-257.1840209960938
 10
325.7376708984375
 20
-257.1840209960938
 10
326.5560302734375
 20
-257.1840209960938
 10
327.7064208984375
 20
-257.0048217773438
 10
329.1907958984375
 20
-256.6415405273438
 10
330.6761474609375
 20
-256.2807006835938
 10
331.7777099609375
 20
-256.0990600585938
 10
332.4945068359375
 20
-256.0990600585938
 10
335.0521240234375
 20
-256.0990600585938
 10
336.3841552734375
 20
-258.4774780273438
 10
336.4857177734375
 20
-263.2289428710938
 10
336.4857177734375
 20
-263.2289428710938
 10
336.4857177734375
 20
-323.0595092773438
 10
336.4857177734375
 20
-323.0595092773438
 10
336.3841552734375
 20
-332.2548217773438
 10
336.1009521484375
 20
-337.8612670898438
 10
335.6409912109375
 20
-339.8768920898438
 10
335.1810302734375
 20
-341.8915405273438
 10
333.9769287109375
 20
-342.8993530273438
 10
332.0325927734375
 20
-342.8993530273438
 10
331.2132568359375
 20
-342.8993530273438
 10
329.9320068359375
 20
-342.7225952148438
 10
328.1937255859375
 20
-342.3690795898438
 10
326.8616943359375
 20
-342.1024780273438
 10
325.8900146484375
 20
-341.9686889648438
 10
325.2777099609375
 20
-341.9686889648438
 10
321.7952880859375
 20
-341.9686889648438
 10
320.0560302734375
 20
-343.5966186523438
 10
320.0560302734375
 20
-346.8544311523438
 10
320.0560302734375
 20
-348.2782592773438
 10
320.6732177734375
 20
-349.5253295898438
 10
321.9085693359375
 20
-350.5956420898438
 10
323.1439208984375
 20
-351.6640014648438
 10
324.6380615234375
 20
-352.1991577148438
 10
326.3890380859375
 20
-352.1991577148438
 10
327.7259521484375
 20
-352.1991577148438
 10
330.4554443359375
 20
-351.9403686523438
 10
334.5755615234375
 20
-351.4237670898438
 10
336.2220458984375
 20
-351.2157592773438
 10
338.2806396484375
 20
-351.1141967773438
 10
340.7532958984375
 20
-351.1141967773438
 10
345.2825927734375
 20
-351.1141967773438
 10
348.6800537109375
 20
-351.2694702148438
 10
350.9466552734375
 20
-351.5790405273438
 10
354.0374755859375
 20
-351.9911499023438
 10
356.3529052734375
 20
-352.1991577148438
 10
357.8978271484375
 20
-352.1991577148438
 10
362.2230224609375
 20
-352.1991577148438
 10
364.3861083984375
 20
-350.4940795898438
 10
364.3861083984375
 20
-347.0839233398438
 10
364.3861083984375
 20
-343.6737670898438
 10
362.7318115234375
 20
-341.9686889648438
 10
359.4261474609375
 20
-341.9686889648438
 10
358.7015380859375
 20
-341.9686889648438
 10
357.6165771484375
 20
-342.1239624023438
 10
356.1712646484375
 20
-342.4345092773438
 10
354.7230224609375
 20
-342.7440795898438
 10
353.6380615234375
 20
-342.8993530273438
 10
352.9163818359375
 20
-342.8993530273438
 10
350.5374755859375
 20
-342.8993530273438
 10
349.0413818359375
 20
-341.2958374023438
 10
348.4212646484375
 20
-338.0936889648438
 10
348.2122802734375
 20
-336.9559936523438
 10
348.1107177734375
 20
-334.4247436523438
 10
348.1107177734375
 20
-330.4989624023438
 10
348.1107177734375
 20
-330.4989624023438
 10
348.1107177734375
 20
-317.6337280273438
 10
348.1107177734375
 20
-317.6337280273438
 10
353.6907958984375
 20
-323.9384155273438
 10
360.9759521484375
 20
-327.0888061523438
 10
369.9661865234375
 20
-327.0888061523438
 10
380.8157958984375
 20
-327.0888061523438
 10
389.4691162109375
 20
-323.1893920898438
 10
395.9281005859375
 20
-315.3866577148438
 10
402.3851318359375
 20
-307.5858764648438
 10
405.6156005859375
 20
-297.1229858398438
 10
405.6156005859375
 20
-283.9989624023438
 10
405.6156005859375
 20
-271.8075561523438
 10
402.5667724609375
 20
-262.1439819335938
 10
396.4710693359375
 20
-255.0140991210938
 10
390.3724365234375
 20
-247.8842163085938
 10
382.1575927734375
 20
-244.3192749023438
 10
371.8255615234375
 20
-244.3192749023438
 97
        0
 75
     2
 76
     1
 98
        0
  0
SPLINE
  5
4D
330
41
100
AcDbEntity
  8
Layer 1
370
     0
100
AcDbSpline
210
0.0
220
0.0
230
1.0
 70
    11
 71
     3
 72
    11
 73
     7
 74
     0
 42
0.0000000001
 43
0.0000000001
 12
1.0
 22
0.0
 32
0.0
 13
1.0
 23
0.0
 33
0.0
 40
0.0
 40
0.0
 40
0.0
 40
0.0
 40
1.0
 40
1.0
 40
1.0
 40
2.0
 40
2.0
 40
2.0
 40
2.0
 10
252.46826171875
 20
-322.0729370117188
 30
0.0
 10
252.468017578125
 20
-322.0379028320312
 30
0.0
 10
252.4622802734375
 20
-322.0089111328125
 30
0.0
 10
252.4622802734375
 20
-321.9735717773438
 30
0.0
 10
252.4622802734375
 20
-322.0286865234375
 30
0.0
 10
252.4646606445312
 20
-322.0573120117188
 30
0.0
 10
252.46826171875
 20
-322.0729370117188
 30
0.0
  0
HATCH
  5
4E
330
41
100
AcDbEntity
  8
Layer 1
 62
     7
100
AcDbHatch
 10
0.0
 20
0.0
 30
0.0
210
0.0
220
0.0
230
1.0
  2
SOLID
 70
     1
 71
     0
 91
        1
 92
        1
 93
        1
 72
     4
 94
        3
 73
     0
 74
     1
 95
       11
 96
        7
 40
0.0
 40
0.0
 40
0.0
 40
0.0
 40
1.0
 40
1.0
 40
1.0
 40
2.0
 40
2.0
 40
2.0
 40
2.0
 10
252.46826171875
 20
-322.0729370117188
 10
252.468017578125
 20
-322.0379028320312
 10
252.4622802734375
 20
-322.0089111328125
 10
252.4622802734375
 20
-321.9735717773438
 10
252.4622802734375
 20
-322.0286865234375
 10
252.4646606445312
 20
-322.0573120117188
 10
252.46826171875
 20
-322.0729370117188
 97
        0
 75
     2
 76
     1
 98
        0
  0
SPLINE
  5
4F
330
41
100
AcDbEntity
  8
Layer 1
370
     0
100
AcDbSpline
210
0.0
220
0.0
230
1.0
 70
    11
 71
     3
 72
   125
 73
   121
 74
     0
 42
0.0000000001
 43
0.0000000001
 12
1.0
 22
0.0
 32
0.0
 13
1.0
 23
0.0
 33
0.0
 40
0.0
 40
0.0
 40
0.0
 40
0.0
 40
1.0
 40
1.0
 40
1.0
 40
2.0
 40
2.0
 40
2.0
 40
3.0
 40
3.0
 40
3.0
 40
4.0
 40
4.0
 40
4.0
 40
5.0
 40
5.0
 40
5.0
 40
6.0
 40
6.0
 40
6.0
 40
7.0
 40
7.0
 40
7.0
 40
8.0
 40
8.0
 40
8.0
 40
9.0
 40
9.0
 40
9.0
 40
10.0
 40
10.0
 40
10.0
 40
11.0
 40
11.0
 40
11.0
 40
12.0
 40
12.0
 40
12.0
 40
13.0
 40
13.0
 40
13.0
 40
14.0
 40
14.0
 40
14.0
 40
15.0
 40
15.0
 40
15.0
 40
16.0
 40
16.0
 40
16.0
 40
17.0
 40
17.0
 40
17.0
 40
18.0
 40
18.0
 40
18.0
 40
19.0
 40
19.0
 40
19.0
 40
20.0
 40
20.0
 40
20.0
 40
21.0
 40
21.0
 40
21.0
 40
22.0
 40
22.0
 40
22.0
 40
23.0
 40
23.0
 40
23.0
 40
24.0
 40
24.0
 40
24.0
 40
25.0
 40
25.0
 40
25.0
 40
26.0
 40
26.0
 40
26.0
 40
27.0
 40
27.0
 40
27.0
 40
28.0
 40
28.0
 40
28.0
 40
29.0
 40
29.0
 40
29.0
 40
30.0
 40
30.0
 40
30.0
 40
31.0
 40
31.0
 40
31.0
 40
32.0
 40
32.0
 40
32.0
 40
33.0
 40
33.0
 40
33.0
 40
34.0
 40
34.0
 40
34.0
 40
35.0
 40
35.0
 40
35.0
 40
36.0
 40
36.0
 40
36.0
 40
37.0
 40
37.0
 40
37.0
 40
38.0
 40
38.0
 40
38.0
 40
39.0
 40
39.0
 40
39.0
 40
40.0
 40
40.0
 40
40.0
 40
40.0
 10
290.1273193359375
 20
-280.2792358398438
 30
0.0
 10
290.1273193359375
 20
-280.2792358398438
 30
0.0
 10
281.1370849609375
 20
-279.0390014648438
 30
0.0
 10
281.1370849609375
 20
-279.0390014648438
 30
0.0
 10
272.0433349609375
 20
-277.7997436523438
 30
0.0
 10
267.4974365234375
 20
-273.8729858398438
 30
0.0
 10
267.4974365234375
 20
-267.2592163085938
 30
0.0
 10
267.4974365234375
 20
-263.6430053710938
 30
0.0
 10
269.0980224609375
 20
-260.6205444335938
 30
0.0
 10
272.3021240234375
 20
-258.1913452148438
 30
0.0
 10
275.5042724609375
 20
-255.7645874023438
 30
0.0
 10
279.4827880859375
 20
-254.5492553710938
 30
0.0
 10
284.2376708984375
 20
-254.5492553710938
 30
0.0
 10
288.8870849609375
 20
-254.5492553710938
 30
0.0
 10
292.9417724609375
 20
-255.6605834960938
 30
0.0
 10
296.4046630859375
 20
-257.8817749023438
 30
0.0
 10
299.8656005859375
 20
-260.1049194335938
 30
0.0
 10
301.6478271484375
 20
-262.7640991210938
 30
0.0
 10
301.7523193359375
 20
-265.8641967773438
 30
0.0
 10
301.7523193359375
 20
-265.8641967773438
 30
0.0
 10
301.7523193359375
 20
-270.9789428710938
 30
0.0
 10
301.7523193359375
 20
-270.9789428710938
 30
0.0
 10
301.8538818359375
 20
-274.2880249023438
 30
0.0
 10
303.5325927734375
 20
-275.9384155273438
 30
0.0
 10
306.7894287109375
 20
-275.9384155273438
 30
0.0
 10
310.1468505859375
 20
-275.9384155273438
 30
0.0
 10
311.8275146484375
 20
-273.9774780273438
 30
0.0
 10
311.8275146484375
 20
-270.0492553710938
 30
0.0
 10
311.8275146484375
 20
-268.8090209960938
 30
0.0
 10
311.6966552734375
 20
-267.0023803710938
 30
0.0
 10
311.4398193359375
 20
-264.6239624023438
 30
0.0
 10
311.1810302734375
 20
-262.2479858398438
 30
0.0
 10
311.0521240234375
 20
-260.4389038085938
 30
0.0
 10
311.0521240234375
 20
-259.1991577148438
 30
0.0
 10
311.0521240234375
 20
-257.1332397460938
 30
0.0
 10
311.2239990234375
 20
-255.0673217773438
 30
0.0
 10
311.5677490234375
 20
-252.9989624023438
 30
0.0
 10
311.7396240234375
 20
-250.5189819335938
 30
0.0
 10
311.8275146484375
 20
-248.9691772460938
 30
0.0
 10
311.8275146484375
 20
-248.3490600585938
 30
0.0
 10
311.8275146484375
 20
-245.0433959960938
 30
0.0
 10
310.1224365234375
 20
-243.3890991210938
 30
0.0
 10
306.7122802734375
 20
-243.3890991210938
 30
0.0
 10
303.4036865234375
 20
-243.3890991210938
 30
0.0
 10
301.7523193359375
 20
-245.3021850585938
 30
0.0
 10
301.7523193359375
 20
-249.1239624023438
 30
0.0
 10
301.7523193359375
 20
-249.1239624023438
 30
0.0
 10
301.7523193359375
 20
-249.7440795898438
 30
0.0
 10
301.7523193359375
 20
-249.7440795898438
 30
0.0
 10
297.1165771484375
 20
-246.1283569335938
 30
0.0
 10
291.3499755859375
 20
-244.3192749023438
 30
0.0
 10
284.4505615234375
 20
-244.3192749023438
 30
0.0
 10
275.6956787109375
 20
-244.3192749023438
 30
0.0
 10
268.5892333984375
 20
-246.5663452148438
 30
0.0
 10
263.1302490234375
 20
-251.0614624023438
 30
0.0
 10
257.6712646484375
 20
-255.5565795898438
 30
0.0
 10
254.9417724609375
 20
-261.4223022460938
 30
0.0
 10
254.9417724609375
 20
-268.6542358398438
 30
0.0
 10
254.9417724609375
 20
-276.3016967773438
 30
0.0
 10
257.7318115234375
 20
-281.6493530273438
 30
0.0
 10
263.3118896484375
 20
-284.6962280273438
 30
0.0
 10
268.8919677734375
 20
-287.7450561523438
 30
0.0
 10
277.0032958984375
 20
-289.8388061523438
 30
0.0
 10
287.6468505859375
 20
-290.9735717773438
 30
0.0
 10
298.8070068359375
 20
-292.1122436523438
 30
0.0
 10
304.3870849609375
 20
-296.1932983398438
 30
0.0
 10
304.3870849609375
 20
-303.2186889648438
 30
0.0
 10
304.3870849609375
 20
-307.1473999023438
 30
0.0
 10
302.7327880859375
 20
-310.4022827148438
 30
0.0
 10
299.4271240234375
 20
-312.9843139648438
 30
0.0
 10
296.1185302734375
 20
-315.5682983398438
 30
0.0
 10
291.9339599609375
 20
-316.8593139648438
 30
0.0
 10
286.8724365234375
 20
-316.8593139648438
 30
0.0
 10
279.8441162109375
 20
-316.8593139648438
 30
0.0
 10
274.0579833984375
 20
-315.4638061523438
 30
0.0
 10
269.5120849609375
 20
-312.6737670898438
 30
0.0
 10
264.9642333984375
 20
-309.8837280273438
 30
0.0
 10
262.6390380859375
 20
-306.2684936523438
 30
0.0
 10
262.5374755859375
 20
-301.8241577148438
 30
0.0
 10
262.4329833984375
 20
-297.3817749023438
 30
0.0
 10
262.0960693359375
 20
-294.6434936523438
 30
0.0
 10
261.5296630859375
 20
-293.6083374023438
 30
0.0
 10
260.9603271484375
 20
-292.5770874023438
 30
0.0
 10
259.5921630859375
 20
-292.0595092773438
 30
0.0
 10
257.4222412109375
 20
-292.0595092773438
 30
0.0
 10
254.1136474609375
 20
-292.0595092773438
 30
0.0
 10
252.4622802734375
 20
-293.8681030273438
 30
0.0
 10
252.4622802734375
 20
-297.4833374023438
 30
0.0
 10
252.4622802734375
 20
-298.7235717773438
 30
0.0
 10
252.6683349609375
 20
-300.4286499023438
 30
0.0
 10
253.0823974609375
 20
-302.5985717773438
 30
0.0
 10
253.4935302734375
 20
-304.7694702148438
 30
0.0
 10
253.7025146484375
 20
-307.0936889648438
 30
0.0
 10
253.7025146484375
 20
-309.5741577148438
 30
0.0
 10
253.7025146484375
 20
-311.0223999023438
 30
0.0
 10
253.5980224609375
 20
-312.4677124023438
 30
0.0
 10
253.3919677734375
 20
-313.9140014648438
 30
0.0
 10
252.8190307617188
 20
-319.548583984375
 30
0.0
 10
252.5117797851562
 20
-322.262939453125
 30
0.0
 10
252.46826171875
 20
-322.0729370117188
 30
0.0
 10
252.4998779296875
 20
-326.2389526367188
 30
0.0
 10
254.4053344726562
 20
-328.3290405273438
 30
0.0
 10
258.1976318359375
 20
-328.3290405273438
 30
0.0
 10
261.7093505859375
 20
-328.3290405273438
 30
0.0
 10
263.4671630859375
 20
-326.4686889648438
 30
0.0
 10
263.4671630859375
 20
-322.7489624023438
 30
0.0
 10
263.4671630859375
 20
-321.8192749023438
 30
0.0
 10
263.4671630859375
 20
-320.8378295898438
 30
0.0
 10
263.4671630859375
 20
-319.8036499023438
 30
0.0
 10
269.7523193359375
 20
-324.6600952148438
 30
0.0
 10
277.1702880859375
 20
-327.0888061523438
 30
0.0
 10
285.7220458984375
 20
-327.0888061523438
 30
0.0
 10
294.8909912109375
 20
-327.0888061523438
 30
0.0
 10
302.3089599609375
 20
-324.7880249023438
 30
0.0
 10
307.9769287109375
 20
-320.1913452148438
 30
0.0
 10
313.6439208984375
 20
-315.5946655273438
 30
0.0
 10
316.4769287109375
 20
-309.5741577148438
 30
0.0
 10
316.4769287109375
 20
-302.1337280273438
 30
0.0
 10
316.4769287109375
 20
-289.9423217773438
 30
0.0
 10
307.6927490234375
 20
-282.6571655273438
 30
0.0
 10
290.1273193359375
 20
-280.2792358398438
 30
0.0
  0
HATCH
  5
50
330
41
100
AcDbEntity
  8
Layer 1
 62
     7
100
AcDbHatch
 10
0.0
 20
0.0
 30
0.0
210
0.0
220
0.0
230
1.0
  2
SOLID
 70
     1
 71
     0
 91
        1
 92
        1
 93
        1
 72
     4
 94
        3
 73
     0
 74
     1
 95
      125
 96
      121
 40
0.0
 40
0.0
 40
0.0
 40
0.0
 40
1.0
 40
1.0
 40
1.0
 40
2.0
 40
2.0
 40
2.0
 40
3.0
 40
3.0
 40
3.0
 40
4.0
 40
4.0
 40
4.0
 40
5.0
 40
5.0
 40
5.0
 40
6.0
 40
6.0
 40
6.0
 40
7.0
 40
7.0
 40
7.0
 40
8.0
 40
8.0
 40
8.0
 40
9.0
 40
9.0
 40
9.0
 40
10.0
 40
10.0
 40
10.0
 40
11.0
 40
11.0
 40
11.0
 40
12.0
 40
12.0
 40
12.0
 40
13.0
 40
13.0
 40
13.0
 40
14.0
 40
14.0
 40
14.0
 40
15.0
 40
15.0
 40
15.0
 40
16.0
 40
16.0
 40
16.0
 40
17.0
 40
17.0
 40
17.0
 40
18.0
 40
18.0
 40
18.0
 40
19.0
 40
19.0
 40
19.0
 40
20.0
 40
20.0
 40
20.0
 40
21.0
 40
21.0
 40
21.0
 40
22.0
 40
22.0
 40
22.0
 40
23.0
 40
23.0
 40
23.0
 40
24.0
 40
24.0
 40
24.0
 40
25.0
 40
25.0
 40
25.0
 40
26.0
 40
26.0
 40
26.0
 40
27.0
 40
27.0
 40
27.0
 40
28.0
 40
28.0
 40
28.0
 40
29.0
 40
29.0
 40
29.0
 40
30.0
 40
30.0
 40
30.0
 40
31.0
 40
31.0
 40
31.0
 40
32.0
 40
32.0
 40
32.0
 40
33.0
 40
33.0
 40
33.0
 40
34.0
 40
34.0
 40
34.0
 40
35.0
 40
35.0
 40
35.0
 40
36.0
 40
36.0
 40
36.0
 40
37.0
 40
37.0
 40
37.0
 40
38.0
 40
38.0
 40
38.0
 40
39.0
 40
39.0
 40
39.0
 40
40.0
 40
40.0
 40
40.0
 40
40.0
 10
290.1273193359375
 20
-280.2792358398438
 10
290.1273193359375
 20
-280.2792358398438
 10
281.1370849609375
 20
-279.0390014648438
 10
281.1370849609375
 20
-279.0390014648438
 10
272.0433349609375
 20
-277.7997436523438
 10
267.4974365234375
 20
-273.8729858398438
 10
267.4974365234375
 20
-267.2592163085938
 10
267.4974365234375
 20
-263.6430053710938
 10
269.0980224609375
 20
-260.6205444335938
 10
272.3021240234375
 20
-258.1913452148438
 10
275.5042724609375
 20
-255.7645874023438
 10
279.4827880859375
 20
-254.5492553710938
 10
284.2376708984375
 20
-254.5492553710938
 10
288.8870849609375
 20
-254.5492553710938
 10
292.9417724609375
 20
-255.6605834960938
 10
296.4046630859375
 20
-257.8817749023438
 10
299.8656005859375
 20
-260.1049194335938
 10
301.6478271484375
 20
-262.7640991210938
 10
301.7523193359375
 20
-265.8641967773438
 10
301.7523193359375
 20
-265.8641967773438
 10
301.7523193359375
 20
-270.9789428710938
 10
301.7523193359375
 20
-270.9789428710938
 10
301.8538818359375
 20
-274.2880249023438
 10
303.5325927734375
 20
-275.9384155273438
 10
306.7894287109375
 20
-275.9384155273438
 10
310.1468505859375
 20
-275.9384155273438
 10
311.8275146484375
 20
-273.9774780273438
 10
311.8275146484375
 20
-270.0492553710938
 10
311.8275146484375
 20
-268.8090209960938
 10
311.6966552734375
 20
-267.0023803710938
 10
311.4398193359375
 20
-264.6239624023438
 10
311.1810302734375
 20
-262.2479858398438
 10
311.0521240234375
 20
-260.4389038085938
 10
311.0521240234375
 20
-259.1991577148438
 10
311.0521240234375
 20
-257.1332397460938
 10
311.2239990234375
 20
-255.0673217773438
 10
311.5677490234375
 20
-252.9989624023438
 10
311.7396240234375
 20
-250.5189819335938
 10
311.8275146484375
 20
-248.9691772460938
 10
311.8275146484375
 20
-248.3490600585938
 10
311.8275146484375
 20
-245.0433959960938
 10
310.1224365234375
 20
-243.3890991210938
 10
306.7122802734375
 20
-243.3890991210938
 10
303.4036865234375
 20
-243.3890991210938
 10
301.7523193359375
 20
-245.3021850585938
 10
301.7523193359375
 20
-249.1239624023438
 10
301.7523193359375
 20
-249.1239624023438
 10
301.7523193359375
 20
-249.7440795898438
 10
301.7523193359375
 20
-249.7440795898438
 10
297.1165771484375
 20
-246.1283569335938
 10
291.3499755859375
 20
-244.3192749023438
 10
284.4505615234375
 20
-244.3192749023438
 10
275.6956787109375
 20
-244.3192749023438
 10
268.5892333984375
 20
-246.5663452148438
 10
263.1302490234375
 20
-251.0614624023438
 10
257.6712646484375
 20
-255.5565795898438
 10
254.9417724609375
 20
-261.4223022460938
 10
254.9417724609375
 20
-268.6542358398438
 10
254.9417724609375
 20
-276.3016967773438
 10
257.7318115234375
 20
-281.6493530273438
 10
263.3118896484375
 20
-284.6962280273438
 10
268.8919677734375
 20
-287.7450561523438
 10
277.0032958984375
 20
-289.8388061523438
 10
287.6468505859375
 20
-290.9735717773438
 10
298.8070068359375
 20
-292.1122436523438
 10
304.3870849609375
 20
-296.1932983398438
 10
304.3870849609375
 20
-303.2186889648438
 10
304.3870849609375
 20
-307.1473999023438
 10
302.7327880859375
 20
-310.4022827148438
 10
299.4271240234375
 20
-312.9843139648438
 10
296.1185302734375
 20
-315.5682983398438
 10
291.9339599609375
 20
-316.8593139648438
 10
286.8724365234375
 20
-316.8593139648438
 10
279.8441162109375
 20
-316.8593139648438
 10
274.0579833984375
 20
-315.4638061523438
 10
269.5120849609375
 20
-312.6737670898438
 10
264.9642333984375
 20
-309.8837280273438
 10
262.6390380859375
 20
-306.2684936523438
 10
262.5374755859375
 20
-301.8241577148438
 10
262.4329833984375
 20
-297.3817749023438
 10
262.0960693359375
 20
-294.6434936523438
 10
261.5296630859375
 20
-293.6083374023438
 10
260.9603271484375
 20
-292.5770874023438
 10
259.5921630859375
 20
-292.0595092773438
 10
257.4222412109375
 20
-292.0595092773438
 10
254.1136474609375
 20
-292.0595092773438
 10
252.4622802734375
 20
-293.8681030273438
 10
252.4622802734375
 20
-297.4833374023438
 10
252.4622802734375
 20
-298.7235717773438
 10
252.6683349609375
 20
-300.4286499023438
 10
253.0823974609375
 20
-302.5985717773438
 10
253.4935302734375
 20
-304.7694702148438
 10
253.7025146484375
 20
-307.0936889648438
 10
253.7025146484375
 20
-309.5741577148438
 10
253.7025146484375
 20
-311.0223999023438
 10
253.5980224609375
 20
-312.4677124023438
 10
253.3919677734375
 20
-313.9140014648438
 10
252.8190307617188
 20
-319.548583984375
 10
252.5117797851562
 20
-322.262939453125
 10
252.46826171875
 20
-322.0729370117188
 10
252.4998779296875
 20
-326.2389526367188
 10
254.4053344726562
 20
-328.3290405273438
 10
258.1976318359375
 20
-328.3290405273438
 10
261.7093505859375
 20
-328.3290405273438
 10
263.4671630859375
 20
-326.4686889648438
 10
263.4671630859375
 20
-322.7489624023438
 10
263.4671630859375
 20
-321.8192749023438
 10
263.4671630859375
 20
-320.8378295898438
 10
263.4671630859375
 20
-319.8036499023438
 10
269.7523193359375
 20
-324.6600952148438
 10
277.1702880859375
 20
-327.0888061523438
 10
285.7220458984375
 20
-327.0888061523438
 10
294.8909912109375
 20
-327.0888061523438
 10
302.3089599609375
 20
-324.7880249023438
 10
307.9769287109375
 20
-320.1913452148438
 10
313.6439208984375
 20
-315.5946655273438
 10
316.4769287109375
 20
-309.5741577148438
 10
316.4769287109375
 20
-302.1337280273438
 10
316.4769287109375
 20
-289.9423217773438
 10
307.6927490234375
 20
-282.6571655273438
 10
290.1273193359375
 20
-280.2792358398438
 97
        0
 75
     2
 76
     1
 98
        0
  0
SPLINE
  5
51
330
41
100
AcDbEntity
  8
Layer 1
370
     0
100
AcDbSpline
210
0.0
220
0.0
230
1.0
 70
    11
 71
     3
 72
    65
 73
    61
 74
     0
 42
0.0000000001
 43
0.0000000001
 12
1.0
 22
0.0
 32
0.0
 13
1.0
 23
0.0
 33
0.0
 40
0.0
 40
0.0
 40
0.0
 40
0.0
 40
1.0
 40
1.0
 40
1.0
 40
2.0
 40
2.0
 40
2.0
 40
3.0
 40
3.0
 40
3.0
 40
4.0
 40
4.0
 40
4.0
 40
5.0
 40
5.0
 40
5.0
 40
6.0
 40
6.0
 40
6.0
 40
7.0
 40
7.0
 40
7.0
 40
8.0
 40
8.0
 40
8.0
 40
9.0
 40
9.0
 40
9.0
 40
10.0
 40
10.0
 40
10.0
 40
11.0
 40
11.0
 40
11.0
 40
12.0
 40
12.0
 40
12.0
 40
13.0
 40
13.0
 40
13.0
 40
14.0
 40
14.0
 40
14.0
 40
15.0
 40
15.0
 40
15.0
 40
16.0
 40
16.0
 40
16.0
 40
17.0
 40
17.0
 40
17.0
 40
18.0
 40
18.0
 40
18.0
 40
19.0
 40
19.0
 40
19.0
 40
20.0
 40
20.0
 40
20.0
 40
20.0
 10
208.5970458984375
 20
-244.3192749023438
 30
0.0
 10
197.6429443359375
 20
-244.3192749023438
 30
0.0
 10
188.7572021484375
 20
-248.2474975585938
 30
0.0
 10
181.9378662109375
 20
-256.0990600585938
 30
0.0
 10
175.1175537109375
 20
-263.9530639648438
 30
0.0
 10
171.7073974609375
 20
-274.1825561523438
 30
0.0
 10
171.7073974609375
 20
-286.7890014648438
 30
0.0
 10
171.7073974609375
 20
-299.0868530273438
 30
0.0
 10
174.9095458984375
 20
-308.8768920898438
 30
0.0
 10
181.3177490234375
 20
-316.1610717773438
 30
0.0
 10
187.7230224609375
 20
-323.4462280273438
 30
0.0
 10
196.3529052734375
 20
-327.0888061523438
 30
0.0
 10
207.2025146484375
 20
-327.0888061523438
 30
0.0
 10
215.8822021484375
 20
-327.0888061523438
 30
0.0
 10
223.6322021484375
 20
-324.4784545898438
 30
0.0
 10
230.4525146484375
 20
-319.2616577148438
 30
0.0
 10
237.2728271484375
 20
-314.0448608398438
 30
0.0
 10
240.6820068359375
 20
-308.0770874023438
 30
0.0
 10
240.6820068359375
 20
-301.3593139648438
 30
0.0
 10
240.6820068359375
 20
-297.4325561523438
 30
0.0
 10
238.7689208984375
 20
-295.4696655273438
 30
0.0
 10
234.9476318359375
 20
-295.4696655273438
 30
0.0
 10
232.2591552734375
 20
-295.4696655273438
 30
0.0
 10
230.5540771484375
 20
-296.7089233398438
 30
0.0
 10
229.8323974609375
 20
-299.1893920898438
 30
0.0
 10
229.8323974609375
 20
-299.1893920898438
 30
0.0
 10
228.4378662109375
 20
-303.6845092773438
 30
0.0
 10
228.4378662109375
 20
-303.6845092773438
 30
0.0
 10
227.2991943359375
 20
-307.5077514648438
 30
0.0
 10
224.8460693359375
 20
-310.6591186523438
 30
0.0
 10
221.0745849609375
 20
-313.1386108398438
 30
0.0
 10
217.3021240234375
 20
-315.6190795898438
 30
0.0
 10
213.1429443359375
 20
-316.8593139648438
 30
0.0
 10
208.5970458984375
 20
-316.8593139648438
 30
0.0
 10
201.6732177734375
 20
-316.8593139648438
 30
0.0
 10
195.8870849609375
 20
-314.2772827148438
 30
0.0
 10
191.2376708984375
 20
-309.1093139648438
 30
0.0
 10
186.5872802734375
 20
-303.9432983398438
 30
0.0
 10
184.2620849609375
 20
-297.4833374023438
 30
0.0
 10
184.2620849609375
 20
-289.7333374023438
 30
0.0
 10
184.2620849609375
 20
-288.9081420898438
 30
0.0
 10
184.4681396484375
 20
-288.3153686523438
 30
0.0
 10
184.8822021484375
 20
-287.9520874023438
 30
0.0
 10
185.2943115234375
 20
-287.5907592773438
 30
0.0
 10
186.1732177734375
 20
-287.4091186523438
 30
0.0
 10
187.5179443359375
 20
-287.4091186523438
 30
0.0
 10
187.5179443359375
 20
-287.4091186523438
 30
0.0
 10
236.8070068359375
 20
-287.4091186523438
 30
0.0
 10
236.8070068359375
 20
-287.4091186523438
 30
0.0
 10
239.2874755859375
 20
-287.4091186523438
 30
0.0
 10
240.7845458984375
 20
-286.9706420898438
 30
0.0
 10
241.3021240234375
 20
-286.0917358398438
 30
0.0
 10
241.8187255859375
 20
-285.2147827148438
 30
0.0
 10
242.0775146484375
 20
-282.8124389648438
 30
0.0
 10
242.0775146484375
 20
-278.8837280273438
 30
0.0
 10
242.0775146484375
 20
-268.8622436523438
 30
0.0
 10
238.9241943359375
 20
-260.5941772460938
 30
0.0
 10
232.6224365234375
 20
-254.0839233398438
 30
0.0
 10
226.3187255859375
 20
-247.5741577148438
 30
0.0
 10
218.3089599609375
 20
-244.3192749023438
 30
0.0
 10
208.5970458984375
 20
-244.3192749023438
 30
0.0
  0
HATCH
  5
52
330
41
100
AcDbEntity
  8
Layer 1
 62
     7
100
AcDbHatch
 10
0.0
 20
0.0
 30
0.0
210
0.0
220
0.0
230
1.0
  2
SOLID
 70
     1
 71
     0
 91
        1
 92
        1
 93
        1
 72
     4
 94
        3
 73
     0
 74
     1
 95
       65
 96
       61
 40
0.0
 40
0.0
 40
0.0
 40
0.0
 40
1.0
 40
1.0
 40
1.0
 40
2.0
 40
2.0
 40
2.0
 40
3.0
 40
3.0
 40
3.0
 40
4.0
 40
4.0
 40
4.0
 40
5.0
 40
5.0
 40
5.0
 40
6.0
 40
6.0
 40
6.0
 40
7.0
 40
7.0
 40
7.0
 40
8.0
 40
8.0
 40
8.0
 40
9.0
 40
9.0
 40
9.0
 40
10.0
 40
10.0
 40
10.0
 40
11.0
 40
11.0
 40
11.0
 40
12.0
 40
12.0
 40
12.0
 40
13.0
 40
13.0
 40
13.0
 40
14.0
 40
14.0
 40
14.0
 40
15.0
 40
15.0
 40
15.0
 40
16.0
 40
16.0
 40
16.0
 40
17.0
 40
17.0
 40
17.0
 40
18.0
 40
18.0
 40
18.0
 40
19.0
 40
19.0
 40
19.0
 40
20.0
 40
20.0
 40
20.0
 40
20.0
 10
208.5970458984375
 20
-244.3192749023438
 10
197.6429443359375
 20
-244.3192749023438
 10
188.7572021484375
 20
-248.2474975585938
 10
181.9378662109375
 20
-256.0990600585938
 10
175.1175537109375
 20
-263.9530639648438
 10
171.7073974609375
 20
-274.1825561523438
 10
171.7073974609375
 20
-286.7890014648438
 10
171.7073974609375
 20
-299.0868530273438
 10
174.9095458984375
 20
-308.8768920898438
 10
181.3177490234375
 20
-316.1610717773438
 10
187.7230224609375
 20
-323.4462280273438
 10
196.3529052734375
 20
-327.0888061523438
 10
207.2025146484375
 20
-327.0888061523438
 10
215.8822021484375
 20
-327.0888061523438
 10
223.6322021484375
 20
-324.4784545898438
 10
230.4525146484375
 20
-319.2616577148438
 10
237.2728271484375
 20
-314.0448608398438
 10
240.6820068359375
 20
-308.0770874023438
 10
240.6820068359375
 20
-301.3593139648438
 10
240.6820068359375
 20
-297.4325561523438
 10
238.7689208984375
 20
-295.4696655273438
 10
234.9476318359375
 20
-295.4696655273438
 10
232.2591552734375
 20
-295.4696655273438
 10
230.5540771484375
 20
-296.7089233398438
 10
229.8323974609375
 20
-299.1893920898438
 10
229.8323974609375
 20
-299.1893920898438
 10
228.4378662109375
 20
-303.6845092773438
 10
228.4378662109375
 20
-303.6845092773438
 10
227.2991943359375
 20
-307.5077514648438
 10
224.8460693359375
 20
-310.6591186523438
 10
221.0745849609375
 20
-313.1386108398438
 10
217.3021240234375
 20
-315.6190795898438
 10
213.1429443359375
 20
-316.8593139648438
 10
208.5970458984375
 20
-316.8593139648438
 10
201.6732177734375
 20
-316.8593139648438
 10
195.8870849609375
 20
-314.2772827148438
 10
191.2376708984375
 20
-309.1093139648438
 10
186.5872802734375
 20
-303.9432983398438
 10
184.2620849609375
 20
-297.4833374023438
 10
184.2620849609375
 20
-289.7333374023438
 10
184.2620849609375
 20
-288.9081420898438
 10
184.4681396484375
 20
-288.3153686523438
 10
184.8822021484375
 20
-287.9520874023438
 10
185.2943115234375
 20
-287.5907592773438
 10
186.1732177734375
 20
-287.4091186523438
 10
187.5179443359375
 20
-287.4091186523438
 10
187.5179443359375
 20
-287.4091186523438
 10
236.8070068359375
 20
-287.4091186523438
 10
236.8070068359375
 20
-287.4091186523438
 10
239.2874755859375
 20
-287.4091186523438
 10
240.7845458984375
 20
-286.9706420898438
 10
241.3021240234375
 20
-286.0917358398438
 10
241.8187255859375
 20
-285.2147827148438
 10
242.0775146484375
 20
-282.8124389648438
 10
242.0775146484375
 20
-278.8837280273438
 10
242.0775146484375
 20
-268.8622436523438
 10
238.9241943359375
 20
-260.5941772460938
 10
232.6224365234375
 20
-254.0839233398438
 10
226.3187255859375
 20
-247.5741577148438
 10
218.3089599609375
 20
-244.3192749023438
 10
208.5970458984375
 20
-244.3192749023438
 97
        0
 75
     2
 76
     1
 98
        0
  0
SPLINE
  5
53
330
41
100
AcDbEntity
  8
Layer 1
370
     0
100
AcDbSpline
210
0.0
220
0.0
230
1.0
 70
    11
 71
     3
 72
    29
 73
    25
 74
     0
 42
0.0000000001
 43
0.0000000001
 12
1.0
 22
0.0
 32
0.0
 13
1.0
 23
0.0
 33
0.0
 40
0.0
 40
0.0
 40
0.0
 40
0.0
 40
1.0
 40
1.0
 40
1.0
 40
2.0
 40
2.0
 40
2.0
 40
3.0
 40
3.0
 40
3.0
 40
4.0
 40
4.0
 40
4.0
 40
5.0
 40
5.0
 40
5.0
 40
6.0
 40
6.0
 40
6.0
 40
7.0
 40
7.0
 40
7.0
 40
8.0
 40
8.0
 40
8.0
 40
8.0
 10
145.1331787109375
 20
-297.5595092773438
 30
0.0
 10
142.4447021484375
 20
-297.5595092773438
 30
0.0
 10
140.1732177734375
 20
-298.5155639648438
 30
0.0
 10
138.3128662109375
 20
-300.4266967773438
 30
0.0
 10
136.4534912109375
 20
-302.3397827148438
 30
0.0
 10
135.5228271484375
 20
-304.6386108398438
 30
0.0
 10
135.5228271484375
 20
-307.3241577148438
 30
0.0
 10
135.5228271484375
 20
-310.0126342773438
 30
0.0
 10
136.4534912109375
 20
-312.3104858398438
 30
0.0
 10
138.3128662109375
 20
-314.2216186523438
 30
0.0
 10
140.1732177734375
 20
-316.1327514648438
 30
0.0
 10
142.4447021484375
 20
-317.0888061523438
 30
0.0
 10
145.1331787109375
 20
-317.0888061523438
 30
0.0
 10
147.8187255859375
 20
-317.0888061523438
 30
0.0
 10
150.0931396484375
 20
-316.1327514648438
 30
0.0
 10
151.9534912109375
 20
-314.2216186523438
 30
0.0
 10
153.8128662109375
 20
-312.3104858398438
 30
0.0
 10
154.7435302734375
 20
-310.0126342773438
 30
0.0
 10
154.7435302734375
 20
-307.3241577148438
 30
0.0
 10
154.7435302734375
 20
-304.6386108398438
 30
0.0
 10
153.8128662109375
 20
-302.3397827148438
 30
0.0
 10
151.9534912109375
 20
-300.4266967773438
 30
0.0
 10
150.0931396484375
 20
-298.5155639648438
 30
0.0
 10
147.8187255859375
 20
-297.5595092773438
 30
0.0
 10
145.1331787109375
 20
-297.5595092773438
 30
0.0
  0
HATCH
  5
54
330
41
100
AcDbEntity
  8
Layer 1
 62
     7
100
AcDbHatch
 10
0.0
 20
0.0
 30
0.0
210
0.0
220
0.0
230
1.0
  2
SOLID
 70
     1
 71
     0
 91
        1
 92
        1
 93
        1
 72
     4
 94
        3
 73
     0
 74
     1
 95
       29
 96
       25
 40
0.0
 40
0.0
 40
0.0
 40
0.0
 40
1.0
 40
1.0
 40
1.0
 40
2.0
 40
2.0
 40
2.0
 40
3.0
 40
3.0
 40
3.0
 40
4.0
 40
4.0
 40
4.0
 40
5.0
 40
5.0
 40
5.0
 40
6.0
 40
6.0
 40
6.0
 40
7.0
 40
7.0
 40
7.0
 40
8.0
 40
8.0
 40
8.0
 40
8.0
 10
145.1331787109375
 20
-297.5595092773438
 10
142.4447021484375
 20
-297.5595092773438
 10
140.1732177734375
 20
-298.5155639648438
 10
138.3128662109375
 20
-300.4266967773438
 10
136.4534912109375
 20
-302.3397827148438
 10
135.5228271484375
 20
-304.6386108398438
 10
135.5228271484375
 20
-307.3241577148438
 10
135.5228271484375
 20
-310.0126342773438
 10
136.4534912109375
 20
-312.3104858398438
 10
138.3128662109375
 20
-314.2216186523438
 10
140.1732177734375
 20
-316.1327514648438
 10
142.4447021484375
 20
-317.0888061523438
 10
145.1331787109375
 20
-317.0888061523438
 10
147.8187255859375
 20
-317.0888061523438
 10
150.0931396484375
 20
-316.1327514648438
 10
151.9534912109375
 20
-314.2216186523438
 10
153.8128662109375
 20
-312.3104858398438
 10
154.7435302734375
 20
-310.0126342773438
 10
154.7435302734375
 20
-307.3241577148438
 10
154.7435302734375
 20
-304.6386108398438
 10
153.8128662109375
 20
-302.3397827148438
 10
151.9534912109375
 20
-300.4266967773438
 10
150.0931396484375
 20
-298.5155639648438
 10
147.8187255859375
 20
-297.5595092773438
 10
145.1331787109375
 20
-297.5595092773438
 97
        0
 75
     2
 76
     1
 98
        0
  0
SPLINE
  5
55
330
41
100
AcDbEntity
  8
Layer 1
370
     0
100
AcDbSpline
210
0.0
220
0.0
230
1.0
 70
    11
 71
     3
 72
    29
 73
    25
 74
     0
 42
0.0000000001
 43
0.0000000001
 12
1.0
 22
0.0
 32
0.0
 13
1.0
 23
0.0
 33
0.0
 40
0.0
 40
0.0
 40
0.0
 40
0.0
 40
1.0
 40
1.0
 40
1.0
 40
2.0
 40
2.0
 40
2.0
 40
3.0
 40
3.0
 40
3.0
 40
4.0
 40
4.0
 40
4.0
 40
5.0
 40
5.0
 40
5.0
 40
6.0
 40
6.0
 40
6.0
 40
7.0
 40
7.0
 40
7.0
 40
8.0
 40
8.0
 40
8.0
 40
8.0
 10
145.1331787109375
 20
-253.1688842773438
 30
0.0
 10
142.4447021484375
 20
-253.1688842773438
 30
0.0
 10
140.1732177734375
 20
-254.1259155273438
 30
0.0
 10
138.3128662109375
 20
-256.0365600585938
 30
0.0
 10
136.4534912109375
 20
-257.9496459960938
 30
0.0
 10
135.5228271484375
 20
-260.2479858398438
 30
0.0
 10
135.5228271484375
 20
-262.9340209960938
 30
0.0
 10
135.5228271484375
 20
-265.6224975585938
 30
0.0
 10
136.4534912109375
 20
-267.9208374023438
 30
0.0
 10
138.3128662109375
 20
-269.8314819335938
 30
0.0
 10
140.1732177734375
 20
-271.7450561523438
 30
0.0
 10
142.4447021484375
 20
-272.6991577148438
 30
0.0
 10
145.1331787109375
 20
-272.6991577148438
 30
0.0
 10
147.8187255859375
 20
-272.6991577148438
 30
0.0
 10
150.0931396484375
 20
-271.7450561523438
 30
0.0
 10
151.9534912109375
 20
-269.8314819335938
 30
0.0
 10
153.8128662109375
 20
-267.9208374023438
 30
0.0
 10
154.7435302734375
 20
-265.6224975585938
 30
0.0
 10
154.7435302734375
 20
-262.9340209960938
 30
0.0
 10
154.7435302734375
 20
-260.2479858398438
 30
0.0
 10
153.8128662109375
 20
-257.9496459960938
 30
0.0
 10
151.9534912109375
 20
-256.0365600585938
 30
0.0
 10
150.0931396484375
 20
-254.1259155273438
 30
0.0
 10
147.8187255859375
 20
-253.1688842773438
 30
0.0
 10
145.1331787109375
 20
-253.1688842773438
 30
0.0
  0
HATCH
  5
56
330
41
100
AcDbEntity
  8
Layer 1
 62
     7
100
AcDbHatch
 10
0.0
 20
0.0
 30
0.0
210
0.0
220
0.0
230
1.0
  2
SOLID
 70
     1
 71
     0
 91
        1
 92
        1
 93
        1
 72
     4
 94
        3
 73
     0
 74
     1
 95
       29
 96
       25
 40
0.0
 40
0.0
 40
0.0
 40
0.0
 40
1.0
 40
1.0
 40
1.0
 40
2.0
 40
2.0
 40
2.0
 40
3.0
 40
3.0
 40
3.0
 40
4.0
 40
4.0
 40
4.0
 40
5.0
 40
5.0
 40
5.0
 40
6.0
 40
6.0
 40
6.0
 40
7.0
 40
7.0
 40
7.0
 40
8.0
 40
8.0
 40
8.0
 40
8.0
 10
145.1331787109375
 20
-253.1688842773438
 10
142.4447021484375
 20
-253.1688842773438
 10
140.1732177734375
 20
-254.1259155273438
 10
138.3128662109375
 20
-256.0365600585938
 10
136.4534912109375
 20
-257.9496459960938
 10
135.5228271484375
 20
-260.2479858398438
 10
135.5228271484375
 20
-262.9340209960938
 10
135.5228271484375
 20
-265.6224975585938
 10
136.4534912109375
 20
-267.9208374023438
 10
138.3128662109375
 20
-269.8314819335938
 10
140.1732177734375
 20
-271.7450561523438
 10
142.4447021484375
 20
-272.6991577148438
 10
145.1331787109375
 20
-272.6991577148438
 10
147.8187255859375
 20
-272.6991577148438
 10
150.0931396484375
 20
-271.7450561523438
 10
151.9534912109375
 20
-269.8314819335938
 10
153.8128662109375
 20
-267.9208374023438
 10
154.7435302734375
 20
-265.6224975585938
 10
154.7435302734375
 20
-262.9340209960938
 10
154.7435302734375
 20
-260.2479858398438
 10
153.8128662109375
 20
-257.9496459960938
 10
151.9534912109375
 20
-256.0365600585938
 10
150.0931396484375
 20
-254.1259155273438
 10
147.8187255859375
 20
-253.1688842773438
 10
145.1331787109375
 20
-253.1688842773438
 97
        0
 75
     2
 76
     1
 98
        0
  0
ENDBLK
  5
44
330
41
100
AcDbEntity
  8
0
100
AcDbBlockEnd
  0
ENDSEC
  0
SECTION
  2
ENTITIES
  0
INSERT
  5
42
330
1F
100
AcDbEntity
  8
Layer 1
100
AcDbBlockReference
  2
block 2
 10
0.0
 20
0.0
 30
0.0
  0
ENDSEC
  0
SECTION
  2
OBJECTS
  0
DICTIONARY
  5
C
330
0
100
AcDbDictionary
281
     1
  3
ACAD_GROUP
350
D
  3
ACAD_LAYOUT
350
1A
  3
ACAD_MATERIAL
350
3B
  3
ACAD_MLEADERSTYLE
350
59
  3
ACAD_MLINESTYLE
350
17
  3
ACAD_PLOTSETTINGS
350
19
  3
ACAD_PLOTSTYLENAME
350
E
  3
ACAD_VISUALSTYLE
350
2A
  3
AcDbVariableDictionary
350
57
  0
DICTIONARY
  5
D
102
{ACAD_REACTORS
330
C
102
}
330
C
100
AcDbDictionary
281
     1
  0
DICTIONARY
  5
1A
102
{ACAD_REACTORS
330
C
102
}
330
C
100
AcDbDictionary
281
     1
  3
Layout1
350
1E
  3
Layout2
350
26
  3
Model
350
22
  0
DICTIONARY
  5
3B
102
{ACAD_REACTORS
330
C
102
}
330
C
100
AcDbDictionary
281
     1
  3
ByBlock
350
3D
  3
ByLayer
350
3C
  3
Global
350
3E
  0
DICTIONARY
  5
59
102
{ACAD_REACTORS
330
C
102
}
330
C
100
AcDbDictionary
281
     1
  0
DICTIONARY
  5
17
102
{ACAD_REACTORS
330
C
102
}
330
C
100
AcDbDictionary
281
     1
  3
Standard
350
18
  0
DICTIONARY
  5
19
102
{ACAD_REACTORS
330
C
102
}
330
C
100
AcDbDictionary
281
     1
  0
ACDBDICTIONARYWDFLT
  5
E
102
{ACAD_REACTORS
330
C
102
}
330
C
100
AcDbDictionary
281
     1
  3
Normal
350
F
100
AcDbDictionaryWithDefault
340
F
  0
DICTIONARY
  5
2A
102
{ACAD_REACTORS
330
C
102
}
330
C
100
AcDbDictionary
281
     1
  3
2dWireframe
350
2F
  3
3D Hidden
350
31
  3
3dWireframe
350
30
  3
Basic
350
32
  3
Brighten
350
36
  3
ColorChange
350
3A
  3
Conceptual
350
34
  3
Dim
350
35
  3
Facepattern
350
39
  3
Flat
350
2B
  3
FlatWithEdges
350
2C
  3
Gouraud
350
2D
  3
GouraudWithEdges
350
2E
  3
Linepattern
350
38
  3
Realistic
350
33
  3
Thicken
350
37
  0
DICTIONARY
  5
57
102
{ACAD_REACTORS
330
C
102
}
330
C
100
AcDbDictionary
281
     1
  3
DIMASSOC
350
5A
  3
HIDETEXT
350
5B
  0
LAYOUT
  5
1E
102
{ACAD_REACTORS
330
1A
102
}
330
1A
100
AcDbPlotSettings
  1

  2
none_device
  4

  6

 40
0.0
 41
0.0
 42
0.0
 43
0.0
 44
0.0
 45
0.0
 46
0.0
 47
0.0
 48
0.0
 49
0.0
140
0.0
141
0.0
142
1.0
143
1.0
 70
   688
 72
     0
 73
     0
 74
     5
  7

 75
    16
147
1.0
148
0.0
149
0.0
100
AcDbLayout
  1
Layout1
 70
     1
 71
     1
 10
0.0
 20
0.0
 11
12.0
 21
9.0
 12
0.0
 22
0.0
 32
0.0
 14
1.000000000000000E+20
 24
1.000000000000000E+20
 34
1.000000000000000E+20
 15
-1.000000000000000E+20
 25
-1.000000000000000E+20
 35
-1.000000000000000E+20
146
0.0
 13
0.0
 23
0.0
 33
0.0
 16
1.0
 26
0.0
 36
0.0
 17
0.0
 27
1.0
 37
0.0
 76
     0
330
1B
  0
LAYOUT
  5
26
102
{ACAD_REACTORS
330
1A
102
}
330
1A
100
AcDbPlotSettings
  1

  2
none_device
  4

  6

 40
0.0
 41
0.0
 42
0.0
 43
0.0
 44
0.0
 45
0.0
 46
0.0
 47
0.0
 48
0.0
 49
0.0
140
0.0
141
0.0
142
1.0
143
1.0
 70
   688
 72
     0
 73
     0
 74
     5
  7

 75
    16
147
1.0
148
0.0
149
0.0
100
AcDbLayout
  1
Layout2
 70
     1
 71
     2
 10
0.0
 20
0.0
 11
0.0
 21
0.0
 12
0.0
 22
0.0
 32
0.0
 14
0.0
 24
0.0
 34
0.0
 15
0.0
 25
0.0
 35
0.0
146
0.0
 13
0.0
 23
0.0
 33
0.0
 16
1.0
 26
0.0
 36
0.0
 17
0.0
 27
1.0
 37
0.0
 76
     0
330
23
  0
LAYOUT
  5
22
102
{ACAD_REACTORS
330
1A
102
}
330
1A
100
AcDbPlotSettings
  1

  2
none_device
  4

  6

 40
0.0
 41
0.0
 42
0.0
 43
0.0
 44
0.0
 45
0.0
 46
0.0
 47
0.0
 48
0.0
 49
0.0
140
0.0
141
0.0
142
1.0
143
1.0
 70
  1712
 72
     0
 73
     0
 74
     0
  7

 75
     0
147
1.0
148
0.0
149
0.0
100
AcDbLayout
  1
Model
 70
     1
 71
     0
 10
0.0
 20
0.0
 11
12.0
 21
9.0
 12
0.0
 22
0.0
 32
0.0
 14
1.000000000000000E+20
 24
1.000000000000000E+20
 34
1.000000000000000E+20
 15
-1.000000000000000E+20
 25
-1.000000000000000E+20
 35
-1.000000000000000E+20
146
0.0
 13
0.0
 23
0.0
 33
0.0
 16
1.0
 26
0.0
 36
0.0
 17
0.0
 27
1.0
 37
0.0
 76
     0
330
1F
331
29
  0
MATERIAL
  5
3D
102
{ACAD_REACTORS
330
3B
102
}
102
{ACAD_XDICTIONARY
360
7E
102
}
330
3B
100
AcDbMaterial
  1
ByBlock
  0
MATERIAL
  5
3C
102
{ACAD_REACTORS
330
3B
102
}
102
{ACAD_XDICTIONARY
360
7C
102
}
330
3B
100
AcDbMaterial
  1
ByLayer
  0
MATERIAL
  5
3E
102
{ACAD_REACTORS
330
3B
102
}
102
{ACAD_XDICTIONARY
360
80
102
}
330
3B
100
AcDbMaterial
  1
Global
  0
MLINESTYLE
  5
18
102
{ACAD_REACTORS
330
17
102
}
330
17
100
AcDbMlineStyle
  2
Standard
 70
     0
  3

 62
   256
 51
90.0
 52
90.0
 71
     2
 49
0.5
 62
   256
  6
BYLAYER
 49
-0.5
 62
   256
  6
BYLAYER
  0
ACDBPLACEHOLDER
  5
F
102
{ACAD_REACTORS
330
E
102
}
330
E
  0
VISUALSTYLE
  5
2F
102
{ACAD_REACTORS
330
2A
102
}
102
{ACAD_XDICTIONARY
360
64
102
}
330
2A
100
AcDbVisualStyle
  2
2dWireframe
 70
     4
 71
     0
 72
     2
 73
     0
 90
        0
 40
-0.6
 41
-30.0
 62
     5
 63
     7
 74
     1
 91
        4
 64
     7
 65
   257
 75
     1
175
     1
 42
1.0
 92
        0
 66
   257
 43
1.0
 76
     1
 77
     6
 78
     2
 67
     7
 79
     5
170
     0
171
     0
290
     0
174
     0
 93
        1
 44
0.0
173
     0
291
     0
 45
0.0
1001
ACAD
1000
AcDbSavedByObjectVersion
1070
     0
  0
VISUALSTYLE
  5
31
102
{ACAD_REACTORS
330
2A
102
}
102
{ACAD_XDICTIONARY
360
68
102
}
330
2A
100
AcDbVisualStyle
  2
3D Hidden
 70
     6
 71
     1
 72
     2
 73
     2
 90
        0
 40
-0.6
 41
-30.0
 62
     5
 63
     7
 74
     2
 91
        2
 64
     7
 65
   257
 75
     2
175
     1
 42
40.0
 92
        0
 66
   257
 43
1.0
 76
     1
 77
     6
 78
     2
 67
     7
 79
     3
170
     0
171
     0
290
     0
174
     0
 93
        1
 44
0.0
173
     0
291
     0
 45
0.0
1001
ACAD
1000
AcDbSavedByObjectVersion
1070
     0
  0
VISUALSTYLE
  5
30
102
{ACAD_REACTORS
330
2A
102
}
102
{ACAD_XDICTIONARY
360
66
102
}
330
2A
100
AcDbVisualStyle
  2
3dWireframe
 70
     5
 71
     0
 72
     2
 73
     0
 90
        0
 40
-0.6
 41
-30.0
 62
     5
 63
     7
 74
     1
 91
        4
 64
     7
 65
   257
 75
     1
175
     1
 42
1.0
 92
        0
 66
   257
 43
1.0
 76
     1
 77
     6
 78
     2
 67
     7
 79
     5
170
     0
171
     0
290
     0
174
     0
 93
        1
 44
0.0
173
     0
291
     0
 45
0.0
1001
ACAD
1000
AcDbSavedByObjectVersion
1070
     0
  0
VISUALSTYLE
  5
32
102
{ACAD_REACTORS
330
2A
102
}
102
{ACAD_XDICTIONARY
360
6A
102
}
330
2A
100
AcDbVisualStyle
  2
Basic
 70
     7
 71
     1
 72
     0
 73
     1
 90
        0
 40
-0.6
 41
-30.0
 62
     5
 63
     7
 74
     0
 91
        4
 64
     7
 65
   257
 75
     1
175
     1
 42
1.0
 92
        8
 66
     7
 43
1.0
 76
     1
 77
     6
 78
     2
 67
     7
 79
     5
170
     0
171
     0
290
     0
174
     0
 93
        1
 44
0.0
173
     0
291
     1
 45
0.0
1001
ACAD
1000
AcDbSavedByObjectVersion
1070
     0
  0
VISUALSTYLE
  5
36
102
{ACAD_REACTORS
330
2A
102
}
102
{ACAD_XDICTIONARY
360
72
102
}
330
2A
100
AcDbVisualStyle
  2
Brighten
 70
    12
 71
     2
 72
     2
 73
     0
 90
        0
 40
-0.6
 41
-30.0
 62
     5
 63
     7
 74
     1
 91
        4
 64
     7
 65
   257
 75
     1
175
     1
 42
1.0
 92
        8
 66
     7
 43
1.0
 76
     1
 77
     6
 78
     2
 67
     7
 79
     5
170
     0
171
     0
290
     0
174
     0
 93
        1
 44
50.0
173
     0
291
     1
 45
0.0
1001
ACAD
1000
AcDbSavedByObjectVersion
1070
     0
  0
VISUALSTYLE
  5
3A
102
{ACAD_REACTORS
330
2A
102
}
102
{ACAD_XDICTIONARY
360
7A
102
}
330
2A
100
AcDbVisualStyle
  2
ColorChange
 70
    16
 71
     2
 72
     2
 73
     3
 90
        0
 40
-0.6
 41
-30.0
 62
     5
 63
     8
 74
     1
 91
        4
 64
     7
 65
   257
 75
     1
175
     1
 42
1.0
 92
        8
 66
     8
 43
1.0
 76
     1
 77
     6
 78
     2
 67
     7
 79
     5
170
     0
171
     0
290
     0
174
     0
 93
        1
 44
0.0
173
     0
291
     1
 45
0.0
1001
ACAD
1000
AcDbSavedByObjectVersion
1070
     0
  0
VISUALSTYLE
  5
34
102
{ACAD_REACTORS
330
2A
102
}
102
{ACAD_XDICTIONARY
360
6E
102
}
330
2A
100
AcDbVisualStyle
  2
Conceptual
 70
     9
 71
     3
 72
     2
 73
     0
 90
        0
 40
-0.6
 41
-30.0
 62
     5
 63
     7
 74
     2
 91
        2
 64
     7
 65
   257
 75
     1
175
     1
 42
40.0
 92
        8
 66
     7
 43
1.0
 76
     1
 77
     6
 78
     2
 67
     7
 79
     3
170
     0
171
     0
290
     0
174
     0
 93
        1
 44
0.0
173
     0
291
     0
 45
0.0
1001
ACAD
1000
AcDbSavedByObjectVersion
1070
     0
  0
VISUALSTYLE
  5
35
102
{ACAD_REACTORS
330
2A
102
}
102
{ACAD_XDICTIONARY
360
70
102
}
330
2A
100
AcDbVisualStyle
  2
Dim
 70
    11
 71
     2
 72
     2
 73
     0
 90
        0
 40
-0.6
 41
-30.0
 62
     5
 63
     7
 74
     1
 91
        4
 64
     7
 65
   257
 75
     1
175
     1
 42
1.0
 92
        8
 66
     7
 43
1.0
 76
     1
 77
     6
 78
     2
 67
     7
 79
     5
170
     0
171
     0
290
     0
174
     0
 93
        1
 44
-50.0
173
     0
291
     1
 45
0.0
1001
ACAD
1000
AcDbSavedByObjectVersion
1070
     0
  0
VISUALSTYLE
  5
39
102
{ACAD_REACTORS
330
2A
102
}
102
{ACAD_XDICTIONARY
360
78
102
}
330
2A
100
AcDbVisualStyle
  2
Facepattern
 70
    15
 71
     2
 72
     2
 73
     0
 90
        0
 40
-0.6
 41
-30.0
 62
     5
 63
     7
 74
     1
 91
        4
 64
     7
 65
   257
 75
     1
175
     1
 42
1.0
 92
        8
 66
     7
 43
1.0
 76
     1
 77
     6
 78
     2
 67
     7
 79
     5
170
     0
171
     0
290
     0
174
     0
 93
        1
 44
0.0
173
     0
291
     1
 45
0.0
1001
ACAD
1000
AcDbSavedByObjectVersion
1070
     0
  0
VISUALSTYLE
  5
2B
102
{ACAD_REACTORS
330
2A
102
}
102
{ACAD_XDICTIONARY
360
5C
102
}
330
2A
100
AcDbVisualStyle
  2
Flat
 70
     0
 71
     2
 72
     1
 73
     1
 90
        2
 40
-0.6
 41
30.0
 62
     5
 63
     7
 74
     0
 91
        4
 64
     7
 65
   257
 75
     1
175
     1
 42
1.0
 92
        8
 66
     7
 43
1.0
 76
     1
 77
     6
 78
     2
 67
     7
 79
     5
170
     0
171
     0
290
     0
174
     0
 93
       13
 44
0.0
173
     0
291
     1
 45
0.0
1001
ACAD
1000
AcDbSavedByObjectVersion
1070
     0
  0
VISUALSTYLE
  5
2C
102
{ACAD_REACTORS
330
2A
102
}
102
{ACAD_XDICTIONARY
360
5E
102
}
330
2A
100
AcDbVisualStyle
  2
FlatWithEdges
 70
     1
 71
     2
 72
     1
 73
     1
 90
        2
 40
-0.6
 41
30.0
 62
     5
 63
     7
 74
     1
 91
        4
 64
     7
 65
   257
 75
     1
175
     1
 42
1.0
 92
        0
 66
   257
 43
1.0
 76
     1
 77
     6
 78
     2
 67
     7
 79
     5
170
     0
171
     0
290
     0
174
     0
 93
       13
 44
0.0
173
     0
291
     1
 45
0.0
1001
ACAD
1000
AcDbSavedByObjectVersion
1070
     0
  0
VISUALSTYLE
  5
2D
102
{ACAD_REACTORS
330
2A
102
}
102
{ACAD_XDICTIONARY
360
60
102
}
330
2A
100
AcDbVisualStyle
  2
Gouraud
 70
     2
 71
     2
 72
     2
 73
     1
 90
        2
 40
-0.6
 41
30.0
 62
     5
 63
     7
 74
     0
 91
        4
 64
     7
 65
   257
 75
     1
175
     1
 42
1.0
 92
        0
 66
     7
 43
1.0
 76
     1
 77
     6
 78
     2
 67
     7
 79
     5
170
     0
171
     0
290
     0
174
     0
 93
       13
 44
0.0
173
     0
291
     1
 45
0.0
1001
ACAD
1000
AcDbSavedByObjectVersion
1070
     0
  0
VISUALSTYLE
  5
2E
102
{ACAD_REACTORS
330
2A
102
}
102
{ACAD_XDICTIONARY
360
62
102
}
330
2A
100
AcDbVisualStyle
  2
GouraudWithEdges
 70
     3
 71
     2
 72
     2
 73
     1
 90
        2
 40
-0.6
 41
30.0
 62
     5
 63
     7
 74
     1
 91
        4
 64
     7
 65
   257
 75
     1
175
     1
 42
1.0
 92
        0
 66
   257
 43
1.0
 76
     1
 77
     6
 78
     2
 67
     7
 79
     5
170
     0
171
     0
290
     0
174
     0
 93
       13
 44
0.0
173
     0
291
     1
 45
0.0
1001
ACAD
1000
AcDbSavedByObjectVersion
1070
     0
  0
VISUALSTYLE
  5
38
102
{ACAD_REACTORS
330
2A
102
}
102
{ACAD_XDICTIONARY
360
76
102
}
330
2A
100
AcDbVisualStyle
  2
Linepattern
 70
    14
 71
     2
 72
     2
 73
     0
 90
        0
 40
-0.6
 41
-30.0
 62
     5
 63
     7
 74
     1
 91
        4
 64
     7
 65
   257
 75
     7
175
     7
 42
1.0
 92
        8
 66
     7
 43
1.0
 76
     1
 77
     6
 78
     2
 67
     7
 79
     5
170
     0
171
     0
290
     0
174
     0
 93
        1
 44
0.0
173
     0
291
     1
 45
0.0
1001
ACAD
1000
AcDbSavedByObjectVersion
1070
     0
  0
VISUALSTYLE
  5
33
102
{ACAD_REACTORS
330
2A
102
}
102
{ACAD_XDICTIONARY
360
6C
102
}
330
2A
100
AcDbVisualStyle
  2
Realistic
 70
     8
 71
     2
 72
     2
 73
     0
 90
        0
 40
-0.6
 41
-30.0
 62
     5
 63
     7
 74
     1
 91
        0
 64
     7
 65
   257
 75
     1
175
     1
 42
1.0
 92
        8
 66
     8
 43
1.0
 76
     1
 77
     6
 78
     2
 67
     7
 79
     5
170
     0
171
     0
290
     0
174
     0
 93
       13
 44
0.0
173
     0
291
     0
 45
0.0
1001
ACAD
1000
AcDbSavedByObjectVersion
1070
     0
  0
VISUALSTYLE
  5
37
102
{ACAD_REACTORS
330
2A
102
}
102
{ACAD_XDICTIONARY
360
74
102
}
330
2A
100
AcDbVisualStyle
  2
Thicken
 70
    13
 71
     2
 72
     2
 73
     0
 90
        0
 40
-0.6
 41
-30.0
 62
     5
 63
     7
 74
     1
 91
        4
 64
     7
 65
   257
 75
     1
175
     1
 42
1.0
 92
       12
 66
     7
 43
1.0
 76
     1
 77
     6
 78
     2
 67
     7
 79
     5
170
     0
171
     0
290
     0
174
     0
 93
        1
 44
0.0
173
     0
291
     1
 45
0.0
1001
ACAD
1000
AcDbSavedByObjectVersion
1070
     0
  0
DICTIONARYVAR
  5
5A
102
{ACAD_REACTORS
330
57
102
}
330
57
100
DictionaryVariables
280
     0
  1
2
  0
DICTIONARYVAR
  5
5B
102
{ACAD_REACTORS
330
57
102
}
330
57
100
DictionaryVariables
280
     0
  1
1
  0
DICTIONARY
  5
7E
330
3D
100
AcDbDictionary
280
     1
281
     1
  3
ACAD_XREC_ROUNDTRIP
360
7F
  0
DICTIONARY
  5
7C
330
3C
100
AcDbDictionary
280
     1
281
     1
  3
ACAD_XREC_ROUNDTRIP
360
7D
  0
DICTIONARY
  5
80
330
3E
100
AcDbDictionary
280
     1
281
     1
  3
ACAD_XREC_ROUNDTRIP
360
81
  0
DICTIONARY
  5
64
330
2F
100
AcDbDictionary
280
     1
281
     1
  3
ACAD_XREC_ROUNDTRIP
360
65
  0
DICTIONARY
  5
68
330
31
100
AcDbDictionary
280
     1
281
     1
  3
ACAD_XREC_ROUNDTRIP
360
69
  0
DICTIONARY
  5
66
330
30
100
AcDbDictionary
280
     1
281
     1
  3
ACAD_XREC_ROUNDTRIP
360
67
  0
DICTIONARY
  5
6A
330
32
100
AcDbDictionary
280
     1
281
     1
  3
ACAD_XREC_ROUNDTRIP
360
6B
  0
DICTIONARY
  5
72
330
36
100
AcDbDictionary
280
     1
281
     1
  3
ACAD_XREC_ROUNDTRIP
360
73
  0
DICTIONARY
  5
7A
330
3A
100
AcDbDictionary
280
     1
281
     1
  3
ACAD_XREC_ROUNDTRIP
360
7B
  0
DICTIONARY
  5
6E
330
34
100
AcDbDictionary
280
     1
281
     1
  3
ACAD_XREC_ROUNDTRIP
360
6F
  0
DICTIONARY
  5
70
330
35
100
AcDbDictionary
280
     1
281
     1
  3
ACAD_XREC_ROUNDTRIP
360
71
  0
DICTIONARY
  5
78
330
39
100
AcDbDictionary
280
     1
281
     1
  3
ACAD_XREC_ROUNDTRIP
360
79
  0
DICTIONARY
  5
5C
330
2B
100
AcDbDictionary
280
     1
281
     1
  3
ACAD_XREC_ROUNDTRIP
360
5D
  0
DICTIONARY
  5
5E
330
2C
100
AcDbDictionary
280
     1
281
     1
  3
ACAD_XREC_ROUNDTRIP
360
5F
  0
DICTIONARY
  5
60
330
2D
100
AcDbDictionary
280
     1
281
     1
  3
ACAD_XREC_ROUNDTRIP
360
61
  0
DICTIONARY
  5
62
330
2E
100
AcDbDictionary
280
     1
281
     1
  3
ACAD_XREC_ROUNDTRIP
360
63
  0
DICTIONARY
  5
76
330
38
100
AcDbDictionary
280
     1
281
     1
  3
ACAD_XREC_ROUNDTRIP
360
77
  0
DICTIONARY
  5
6C
330
33
100
AcDbDictionary
280
     1
281
     1
  3
ACAD_XREC_ROUNDTRIP
360
6D
  0
DICTIONARY
  5
74
330
37
100
AcDbDictionary
280
     1
281
     1
  3
ACAD_XREC_ROUNDTRIP
360
75
  0
XRECORD
  5
7F
102
{ACAD_REACTORS
330
7E
102
}
330
7E
100
AcDbXrecord
280
     1
102
MATERIAL
148
0.0
149
0.0
149
0.0
 93
        0
 94
      127
282
     0
 72
     1
 77
     1
171
     1
175
     1
179
     1
273
     0
  0
XRECORD
  5
7D
102
{ACAD_REACTORS
330
7C
102
}
330
7C
100
AcDbXrecord
280
     1
102
MATERIAL
148
0.0
149
0.0
149
0.0
 93
        0
 94
      127
282
     0
 72
     1
 77
     1
171
     1
175
     1
179
     1
273
     0
  0
XRECORD
  5
81
102
{ACAD_REACTORS
330
80
102
}
330
80
100
AcDbXrecord
280
     1
102
MATERIAL
148
0.0
149
0.0
149
0.0
 93
        0
 94
      127
282
     0
 72
     1
 77
     1
171
     1
175
     1
179
     1
273
     0
  0
XRECORD
  5
65
102
{ACAD_REACTORS
330
64
102
}
330
64
100
AcDbXrecord
280
     1
102
RTVSPropertyOp0
 70
     1
102
RTVSPropertyOp1
 70
     1
102
RTVSPropertyOp2
 70
     1
102
RTVSPropertyOp3
 70
     1
102
RTVSPropertyOp4
 70
     1
102
RTVSPropertyOp5
 70
     1
102
RTVSPropertyOp6
 70
     1
102
RTVSPropertyOp7
 70
     1
102
RTVSPropertyOp8
 70
     1
102
RTVSPropertyOp9
 70
     1
102
RTVSPropertyOp10
 70
     1
102
RTVSPropertyOp11
 70
     1
102
RTVSPropertyOp12
 70
     1
102
RTVSPropertyOp13
 70
     1
102
RTVSPropertyOp14
 70
     1
102
RTVSPropertyOp15
 70
     1
102
RTVSPropertyOp16
 70
     1
102
RTVSPropertyOp17
 70
     1
102
RTVSPropertyOp18
 70
     1
102
RTVSPropertyOp19
 70
     1
102
RTVSPropertyOp20
 70
     1
102
RTVSPropertyOp21
 70
     1
102
RTVSPropertyOp22
 70
     1
102
RTVSPropertyOp23
 70
     1
102
RTVSPropertyOp24
 70
     1
102
RTVSPropertyOp25
 70
     1
102
RTVSPropertyOp26
 70
     1
102
RTVSPropertyOp27
 70
     1
102
RTVSPropertyOp28
 70
     1
102
RTVSPropertyOp29
 70
     1
102
RTVSPropertyOp30
 70
     1
102
RTVSPropertyOp31
 70
     1
102
RTVSPropertyOp32
 70
     1
  0
XRECORD
  5
69
102
{ACAD_REACTORS
330
68
102
}
330
68
100
AcDbXrecord
280
     1
102
RTVSPropertyOp0
 70
     1
102
RTVSPropertyOp1
 70
     1
102
RTVSPropertyOp2
 70
     1
102
RTVSPropertyOp3
 70
     1
102
RTVSPropertyOp4
 70
     1
102
RTVSPropertyOp5
 70
     1
102
RTVSPropertyOp6
 70
     1
102
RTVSPropertyOp7
 70
     1
102
RTVSPropertyOp8
 70
     1
102
RTVSPropertyOp9
 70
     1
102
RTVSPropertyOp10
 70
     1
102
RTVSPropertyOp11
 70
     1
102
RTVSPropertyOp12
 70
     1
102
RTVSPropertyOp13
 70
     1
102
RTVSPropertyOp14
 70
     1
102
RTVSPropertyOp15
 70
     1
102
RTVSPropertyOp16
 70
     1
102
RTVSPropertyOp17
 70
     1
102
RTVSPropertyOp18
 70
     1
102
RTVSPropertyOp19
 70
     1
102
RTVSPropertyOp20
 70
     1
102
RTVSPropertyOp21
 70
     1
102
RTVSPropertyOp22
 70
     1
102
RTVSPropertyOp23
 70
     1
102
RTVSPropertyOp24
 70
     1
102
RTVSPropertyOp25
 70
     1
102
RTVSPropertyOp26
 70
     1
102
RTVSPropertyOp27
 70
     1
102
RTVSPropertyOp28
 70
     1
102
RTVSPropertyOp29
 70
     1
102
RTVSPropertyOp30
 70
     1
102
RTVSPropertyOp31
 70
     1
102
RTVSPropertyOp32
 70
     1
  0
XRECORD
  5
67
102
{ACAD_REACTORS
330
66
102
}
330
66
100
AcDbXrecord
280
     1
102
RTVSPropertyOp0
 70
     1
102
RTVSPropertyOp1
 70
     1
102
RTVSPropertyOp2
 70
     1
102
RTVSPropertyOp3
 70
     1
102
RTVSPropertyOp4
 70
     1
102
RTVSPropertyOp5
 70
     1
102
RTVSPropertyOp6
 70
     1
102
RTVSPropertyOp7
 70
     1
102
RTVSPropertyOp8
 70
     1
102
RTVSPropertyOp9
 70
     1
102
RTVSPropertyOp10
 70
     1
102
RTVSPropertyOp11
 70
     1
102
RTVSPropertyOp12
 70
     1
102
RTVSPropertyOp13
 70
     1
102
RTVSPropertyOp14
 70
     1
102
RTVSPropertyOp15
 70
     1
102
RTVSPropertyOp16
 70
     1
102
RTVSPropertyOp17
 70
     1
102
RTVSPropertyOp18
 70
     1
102
RTVSPropertyOp19
 70
     1
102
RTVSPropertyOp20
 70
     1
102
RTVSPropertyOp21
 70
     1
102
RTVSPropertyOp22
 70
     1
102
RTVSPropertyOp23
 70
     1
102
RTVSPropertyOp24
 70
     1
102
RTVSPropertyOp25
 70
     1
102
RTVSPropertyOp26
 70
     1
102
RTVSPropertyOp27
 70
     1
102
RTVSPropertyOp28
 70
     1
102
RTVSPropertyOp29
 70
     1
102
RTVSPropertyOp30
 70
     1
102
RTVSPropertyOp31
 70
     1
102
RTVSPropertyOp32
 70
     1
  0
XRECORD
  5
6B
102
{ACAD_REACTORS
330
6A
102
}
330
6A
100
AcDbXrecord
280
     1
102
RTVSPropertyOp0
 70
     1
102
RTVSPropertyOp1
 70
     1
102
RTVSPropertyOp2
 70
     1
102
RTVSPropertyOp3
 70
     1
102
RTVSPropertyOp4
 70
     1
102
RTVSPropertyOp5
 70
     1
102
RTVSPropertyOp6
 70
     1
102
RTVSPropertyOp7
 70
     1
102
RTVSPropertyOp8
 70
     1
102
RTVSPropertyOp9
 70
     1
102
RTVSPropertyOp10
 70
     1
102
RTVSPropertyOp11
 70
     1
102
RTVSPropertyOp12
 70
     1
102
RTVSPropertyOp13
 70
     1
102
RTVSPropertyOp14
 70
     1
102
RTVSPropertyOp15
 70
     1
102
RTVSPropertyOp16
 70
     1
102
RTVSPropertyOp17
 70
     1
102
RTVSPropertyOp18
 70
     1
102
RTVSPropertyOp19
 70
     1
102
RTVSPropertyOp20
 70
     1
102
RTVSPropertyOp21
 70
     1
102
RTVSPropertyOp22
 70
     1
102
RTVSPropertyOp23
 70
     1
102
RTVSPropertyOp24
 70
     1
102
RTVSPropertyOp25
 70
     1
102
RTVSPropertyOp26
 70
     1
102
RTVSPropertyOp27
 70
     1
102
RTVSPropertyOp28
 70
     1
102
RTVSPropertyOp29
 70
     1
102
RTVSPropertyOp30
 70
     1
102
RTVSPropertyOp31
 70
     1
102
RTVSPropertyOp32
 70
     1
  0
XRECORD
  5
73
102
{ACAD_REACTORS
330
72
102
}
330
72
100
AcDbXrecord
280
     1
102
RTVSPropertyOp0
 70
     1
102
RTVSPropertyOp1
 70
     1
102
RTVSPropertyOp2
 70
     1
102
RTVSPropertyOp3
 70
     1
102
RTVSPropertyOp4
 70
     1
102
RTVSPropertyOp5
 70
     1
102
RTVSPropertyOp6
 70
     1
102
RTVSPropertyOp7
 70
     1
102
RTVSPropertyOp8
 70
     1
102
RTVSPropertyOp9
 70
     1
102
RTVSPropertyOp10
 70
     1
102
RTVSPropertyOp11
 70
     1
102
RTVSPropertyOp12
 70
     1
102
RTVSPropertyOp13
 70
     1
102
RTVSPropertyOp14
 70
     1
102
RTVSPropertyOp15
 70
     1
102
RTVSPropertyOp16
 70
     1
102
RTVSPropertyOp17
 70
     1
102
RTVSPropertyOp18
 70
     1
102
RTVSPropertyOp19
 70
     1
102
RTVSPropertyOp20
 70
     1
102
RTVSPropertyOp21
 70
     1
102
RTVSPropertyOp22
 70
     1
102
RTVSPropertyOp23
 70
     1
102
RTVSPropertyOp24
 70
     1
102
RTVSPropertyOp25
 70
     1
102
RTVSPropertyOp26
 70
     1
102
RTVSPropertyOp27
 70
     1
102
RTVSPropertyOp28
 70
     1
102
RTVSPropertyOp29
 70
     1
102
RTVSPropertyOp30
 70
     1
102
RTVSPropertyOp31
 70
     1
102
RTVSPropertyOp32
 70
     1
  0
XRECORD
  5
7B
102
{ACAD_REACTORS
330
7A
102
}
330
7A
100
AcDbXrecord
280
     1
102
RTVSPropertyOp0
 70
     1
102
RTVSPropertyOp1
 70
     1
102
RTVSPropertyOp2
 70
     1
102
RTVSPropertyOp3
 70
     1
102
RTVSPropertyOp4
 70
     1
102
RTVSPropertyOp5
 70
     1
102
RTVSPropertyOp6
 70
     1
102
RTVSPropertyOp7
 70
     1
102
RTVSPropertyOp8
 70
     1
102
RTVSPropertyOp9
 70
     1
102
RTVSPropertyOp10
 70
     1
102
RTVSPropertyOp11
 70
     1
102
RTVSPropertyOp12
 70
     1
102
RTVSPropertyOp13
 70
     1
102
RTVSPropertyOp14
 70
     1
102
RTVSPropertyOp15
 70
     1
102
RTVSPropertyOp16
 70
     1
102
RTVSPropertyOp17
 70
     1
102
RTVSPropertyOp18
 70
     1
102
RTVSPropertyOp19
 70
     1
102
RTVSPropertyOp20
 70
     1
102
RTVSPropertyOp21
 70
     1
102
RTVSPropertyOp22
 70
     1
102
RTVSPropertyOp23
 70
     1
102
RTVSPropertyOp24
 70
     1
102
RTVSPropertyOp25
 70
     1
102
RTVSPropertyOp26
 70
     1
102
RTVSPropertyOp27
 70
     1
102
RTVSPropertyOp28
 70
     1
102
RTVSPropertyOp29
 70
     1
102
RTVSPropertyOp30
 70
     1
102
RTVSPropertyOp31
 70
     1
102
RTVSPropertyOp32
 70
     1
  0
XRECORD
  5
6F
102
{ACAD_REACTORS
330
6E
102
}
330
6E
100
AcDbXrecord
280
     1
102
RTVSPropertyOp0
 70
     1
102
RTVSPropertyOp1
 70
     1
102
RTVSPropertyOp2
 70
     1
102
RTVSPropertyOp3
 70
     1
102
RTVSPropertyOp4
 70
     1
102
RTVSPropertyOp5
 70
     1
102
RTVSPropertyOp6
 70
     1
102
RTVSPropertyOp7
 70
     1
102
RTVSPropertyOp8
 70
     1
102
RTVSPropertyOp9
 70
     1
102
RTVSPropertyOp10
 70
     1
102
RTVSPropertyOp11
 70
     1
102
RTVSPropertyOp12
 70
     1
102
RTVSPropertyOp13
 70
     1
102
RTVSPropertyOp14
 70
     1
102
RTVSPropertyOp15
 70
     1
102
RTVSPropertyOp16
 70
     1
102
RTVSPropertyOp17
 70
     1
102
RTVSPropertyOp18
 70
     1
102
RTVSPropertyOp19
 70
     1
102
RTVSPropertyOp20
 70
     1
102
RTVSPropertyOp21
 70
     1
102
RTVSPropertyOp22
 70
     1
102
RTVSPropertyOp23
 70
     1
102
RTVSPropertyOp24
 70
     1
102
RTVSPropertyOp25
 70
     1
102
RTVSPropertyOp26
 70
     1
102
RTVSPropertyOp27
 70
     1
102
RTVSPropertyOp28
 70
     1
102
RTVSPropertyOp29
 70
     1
102
RTVSPropertyOp30
 70
     1
102
RTVSPropertyOp31
 70
     1
102
RTVSPropertyOp32
 70
     1
  0
XRECORD
  5
71
102
{ACAD_REACTORS
330
70
102
}
330
70
100
AcDbXrecord
280
     1
102
RTVSPropertyOp0
 70
     1
102
RTVSPropertyOp1
 70
     1
102
RTVSPropertyOp2
 70
     1
102
RTVSPropertyOp3
 70
     1
102
RTVSPropertyOp4
 70
     1
102
RTVSPropertyOp5
 70
     1
102
RTVSPropertyOp6
 70
     1
102
RTVSPropertyOp7
 70
     1
102
RTVSPropertyOp8
 70
     1
102
RTVSPropertyOp9
 70
     1
102
RTVSPropertyOp10
 70
     1
102
RTVSPropertyOp11
 70
     1
102
RTVSPropertyOp12
 70
     1
102
RTVSPropertyOp13
 70
     1
102
RTVSPropertyOp14
 70
     1
102
RTVSPropertyOp15
 70
     1
102
RTVSPropertyOp16
 70
     1
102
RTVSPropertyOp17
 70
     1
102
RTVSPropertyOp18
 70
     1
102
RTVSPropertyOp19
 70
     1
102
RTVSPropertyOp20
 70
     1
102
RTVSPropertyOp21
 70
     1
102
RTVSPropertyOp22
 70
     1
102
RTVSPropertyOp23
 70
     1
102
RTVSPropertyOp24
 70
     1
102
RTVSPropertyOp25
 70
     1
102
RTVSPropertyOp26
 70
     1
102
RTVSPropertyOp27
 70
     1
102
RTVSPropertyOp28
 70
     1
102
RTVSPropertyOp29
 70
     1
102
RTVSPropertyOp30
 70
     1
102
RTVSPropertyOp31
 70
     1
102
RTVSPropertyOp32
 70
     1
  0
XRECORD
  5
79
102
{ACAD_REACTORS
330
78
102
}
330
78
100
AcDbXrecord
280
     1
102
RTVSPropertyOp0
 70
     1
102
RTVSPropertyOp1
 70
     1
102
RTVSPropertyOp2
 70
     1
102
RTVSPropertyOp3
 70
     1
102
RTVSPropertyOp4
 70
     1
102
RTVSPropertyOp5
 70
     1
102
RTVSPropertyOp6
 70
     1
102
RTVSPropertyOp7
 70
     1
102
RTVSPropertyOp8
 70
     1
102
RTVSPropertyOp9
 70
     1
102
RTVSPropertyOp10
 70
     1
102
RTVSPropertyOp11
 70
     1
102
RTVSPropertyOp12
 70
     1
102
RTVSPropertyOp13
 70
     1
102
RTVSPropertyOp14
 70
     1
102
RTVSPropertyOp15
 70
     1
102
RTVSPropertyOp16
 70
     1
102
RTVSPropertyOp17
 70
     1
102
RTVSPropertyOp18
 70
     1
102
RTVSPropertyOp19
 70
     1
102
RTVSPropertyOp20
 70
     1
102
RTVSPropertyOp21
 70
     1
102
RTVSPropertyOp22
 70
     1
102
RTVSPropertyOp23
 70
     1
102
RTVSPropertyOp24
 70
     1
102
RTVSPropertyOp25
 70
     1
102
RTVSPropertyOp26
 70
     1
102
RTVSPropertyOp27
 70
     1
102
RTVSPropertyOp28
 70
     1
102
RTVSPropertyOp29
 70
     1
102
RTVSPropertyOp30
 70
     1
102
RTVSPropertyOp31
 70
     1
102
RTVSPropertyOp32
 70
     1
  0
XRECORD
  5
5D
102
{ACAD_REACTORS
330
5C
102
}
330
5C
100
AcDbXrecord
280
     1
102
RTVSPropertyOp0
 70
     1
102
RTVSPropertyOp1
 70
     1
102
RTVSPropertyOp2
 70
     1
102
RTVSPropertyOp3
 70
     1
102
RTVSPropertyOp4
 70
     1
102
RTVSPropertyOp5
 70
     1
102
RTVSPropertyOp6
 70
     1
102
RTVSPropertyOp7
 70
     1
102
RTVSPropertyOp8
 70
     1
102
RTVSPropertyOp9
 70
     1
102
RTVSPropertyOp10
 70
     1
102
RTVSPropertyOp11
 70
     1
102
RTVSPropertyOp12
 70
     1
102
RTVSPropertyOp13
 70
     1
102
RTVSPropertyOp14
 70
     1
102
RTVSPropertyOp15
 70
     1
102
RTVSPropertyOp16
 70
     1
102
RTVSPropertyOp17
 70
     1
102
RTVSPropertyOp18
 70
     1
102
RTVSPropertyOp19
 70
     1
102
RTVSPropertyOp20
 70
     1
102
RTVSPropertyOp21
 70
     1
102
RTVSPropertyOp22
 70
     1
102
RTVSPropertyOp23
 70
     1
102
RTVSPropertyOp24
 70
     1
102
RTVSPropertyOp25
 70
     1
102
RTVSPropertyOp26
 70
     1
102
RTVSPropertyOp27
 70
     1
102
RTVSPropertyOp28
 70
     1
102
RTVSPropertyOp29
 70
     1
102
RTVSPropertyOp30
 70
     1
102
RTVSPropertyOp31
 70
     1
102
RTVSPropertyOp32
 70
     1
  0
XRECORD
  5
5F
102
{ACAD_REACTORS
330
5E
102
}
330
5E
100
AcDbXrecord
280
     1
102
RTVSPropertyOp0
 70
     1
102
RTVSPropertyOp1
 70
     1
102
RTVSPropertyOp2
 70
     1
102
RTVSPropertyOp3
 70
     1
102
RTVSPropertyOp4
 70
     1
102
RTVSPropertyOp5
 70
     1
102
RTVSPropertyOp6
 70
     1
102
RTVSPropertyOp7
 70
     1
102
RTVSPropertyOp8
 70
     1
102
RTVSPropertyOp9
 70
     1
102
RTVSPropertyOp10
 70
     1
102
RTVSPropertyOp11
 70
     1
102
RTVSPropertyOp12
 70
     1
102
RTVSPropertyOp13
 70
     1
102
RTVSPropertyOp14
 70
     1
102
RTVSPropertyOp15
 70
     1
102
RTVSPropertyOp16
 70
     1
102
RTVSPropertyOp17
 70
     1
102
RTVSPropertyOp18
 70
     1
102
RTVSPropertyOp19
 70
     1
102
RTVSPropertyOp20
 70
     1
102
RTVSPropertyOp21
 70
     1
102
RTVSPropertyOp22
 70
     1
102
RTVSPropertyOp23
 70
     1
102
RTVSPropertyOp24
 70
     1
102
RTVSPropertyOp25
 70
     1
102
RTVSPropertyOp26
 70
     1
102
RTVSPropertyOp27
 70
     1
102
RTVSPropertyOp28
 70
     1
102
RTVSPropertyOp29
 70
     1
102
RTVSPropertyOp30
 70
     1
102
RTVSPropertyOp31
 70
     1
102
RTVSPropertyOp32
 70
     1
  0
XRECORD
  5
61
102
{ACAD_REACTORS
330
60
102
}
330
60
100
AcDbXrecord
280
     1
102
RTVSPropertyOp0
 70
     1
102
RTVSPropertyOp1
 70
     1
102
RTVSPropertyOp2
 70
     1
102
RTVSPropertyOp3
 70
     1
102
RTVSPropertyOp4
 70
     1
102
RTVSPropertyOp5
 70
     1
102
RTVSPropertyOp6
 70
     1
102
RTVSPropertyOp7
 70
     1
102
RTVSPropertyOp8
 70
     1
102
RTVSPropertyOp9
 70
     1
102
RTVSPropertyOp10
 70
     1
102
RTVSPropertyOp11
 70
     1
102
RTVSPropertyOp12
 70
     1
102
RTVSPropertyOp13
 70
     1
102
RTVSPropertyOp14
 70
     1
102
RTVSPropertyOp15
 70
     1
102
RTVSPropertyOp16
 70
     1
102
RTVSPropertyOp17
 70
     1
102
RTVSPropertyOp18
 70
     1
102
RTVSPropertyOp19
 70
     1
102
RTVSPropertyOp20
 70
     1
102
RTVSPropertyOp21
 70
     1
102
RTVSPropertyOp22
 70
     1
102
RTVSPropertyOp23
 70
     1
102
RTVSPropertyOp24
 70
     1
102
RTVSPropertyOp25
 70
     1
102
RTVSPropertyOp26
 70
     1
102
RTVSPropertyOp27
 70
     1
102
RTVSPropertyOp28
 70
     1
102
RTVSPropertyOp29
 70
     1
102
RTVSPropertyOp30
 70
     1
102
RTVSPropertyOp31
 70
     1
102
RTVSPropertyOp32
 70
     1
  0
XRECORD
  5
63
102
{ACAD_REACTORS
330
62
102
}
330
62
100
AcDbXrecord
280
     1
102
RTVSPropertyOp0
 70
     1
102
RTVSPropertyOp1
 70
     1
102
RTVSPropertyOp2
 70
     1
102
RTVSPropertyOp3
 70
     1
102
RTVSPropertyOp4
 70
     1
102
RTVSPropertyOp5
 70
     1
102
RTVSPropertyOp6
 70
     1
102
RTVSPropertyOp7
 70
     1
102
RTVSPropertyOp8
 70
     1
102
RTVSPropertyOp9
 70
     1
102
RTVSPropertyOp10
 70
     1
102
RTVSPropertyOp11
 70
     1
102
RTVSPropertyOp12
 70
     1
102
RTVSPropertyOp13
 70
     1
102
RTVSPropertyOp14
 70
     1
102
RTVSPropertyOp15
 70
     1
102
RTVSPropertyOp16
 70
     1
102
RTVSPropertyOp17
 70
     1
102
RTVSPropertyOp18
 70
     1
102
RTVSPropertyOp19
 70
     1
102
RTVSPropertyOp20
 70
     1
102
RTVSPropertyOp21
 70
     1
102
RTVSPropertyOp22
 70
     1
102
RTVSPropertyOp23
 70
     1
102
RTVSPropertyOp24
 70
     1
102
RTVSPropertyOp25
 70
     1
102
RTVSPropertyOp26
 70
     1
102
RTVSPropertyOp27
 70
     1
102
RTVSPropertyOp28
 70
     1
102
RTVSPropertyOp29
 70
     1
102
RTVSPropertyOp30
 70
     1
102
RTVSPropertyOp31
 70
     1
102
RTVSPropertyOp32
 70
     1
  0
XRECORD
  5
77
102
{ACAD_REACTORS
330
76
102
}
330
76
100
AcDbXrecord
280
     1
102
RTVSPropertyOp0
 70
     1
102
RTVSPropertyOp1
 70
     1
102
RTVSPropertyOp2
 70
     1
102
RTVSPropertyOp3
 70
     1
102
RTVSPropertyOp4
 70
     1
102
RTVSPropertyOp5
 70
     1
102
RTVSPropertyOp6
 70
     1
102
RTVSPropertyOp7
 70
     1
102
RTVSPropertyOp8
 70
     1
102
RTVSPropertyOp9
 70
     1
102
RTVSPropertyOp10
 70
     1
102
RTVSPropertyOp11
 70
     1
102
RTVSPropertyOp12
 70
     1
102
RTVSPropertyOp13
 70
     1
102
RTVSPropertyOp14
 70
     1
102
RTVSPropertyOp15
 70
     1
102
RTVSPropertyOp16
 70
     1
102
RTVSPropertyOp17
 70
     1
102
RTVSPropertyOp18
 70
     1
102
RTVSPropertyOp19
 70
     1
102
RTVSPropertyOp20
 70
     1
102
RTVSPropertyOp21
 70
     1
102
RTVSPropertyOp22
 70
     1
102
RTVSPropertyOp23
 70
     1
102
RTVSPropertyOp24
 70
     1
102
RTVSPropertyOp25
 70
     1
102
RTVSPropertyOp26
 70
     1
102
RTVSPropertyOp27
 70
     1
102
RTVSPropertyOp28
 70
     1
102
RTVSPropertyOp29
 70
     1
102
RTVSPropertyOp30
 70
     1
102
RTVSPropertyOp31
 70
     1
102
RTVSPropertyOp32
 70
     1
  0
XRECORD
  5
6D
102
{ACAD_REACTORS
330
6C
102
}
330
6C
100
AcDbXrecord
280
     1
102
RTVSPropertyOp0
 70
     1
102
RTVSPropertyOp1
 70
     1
102
RTVSPropertyOp2
 70
     1
102
RTVSPropertyOp3
 70
     1
102
RTVSPropertyOp4
 70
     1
102
RTVSPropertyOp5
 70
     1
102
RTVSPropertyOp6
 70
     1
102
RTVSPropertyOp7
 70
     1
102
RTVSPropertyOp8
 70
     1
102
RTVSPropertyOp9
 70
     1
102
RTVSPropertyOp10
 70
     1
102
RTVSPropertyOp11
 70
     1
102
RTVSPropertyOp12
 70
     1
102
RTVSPropertyOp13
 70
     1
102
RTVSPropertyOp14
 70
     1
102
RTVSPropertyOp15
 70
     1
102
RTVSPropertyOp16
 70
     1
102
RTVSPropertyOp17
 70
     1
102
RTVSPropertyOp18
 70
     1
102
RTVSPropertyOp19
 70
     1
102
RTVSPropertyOp20
 70
     1
102
RTVSPropertyOp21
 70
     1
102
RTVSPropertyOp22
 70
     1
102
RTVSPropertyOp23
 70
     1
102
RTVSPropertyOp24
 70
     1
102
RTVSPropertyOp25
 70
     1
102
RTVSPropertyOp26
 70
     1
102
RTVSPropertyOp27
 70
     1
102
RTVSPropertyOp28
 70
     1
102
RTVSPropertyOp29
 70
     1
102
RTVSPropertyOp30
 70
     1
102
RTVSPropertyOp31
 70
     1
102
RTVSPropertyOp32
 70
     1
  0
XRECORD
  5
75
102
{ACAD_REACTORS
330
74
102
}
330
74
100
AcDbXrecord
280
     1
102
RTVSPropertyOp0
 70
     1
102
RTVSPropertyOp1
 70
     1
102
RTVSPropertyOp2
 70
     1
102
RTVSPropertyOp3
 70
     1
102
RTVSPropertyOp4
 70
     1
102
RTVSPropertyOp5
 70
     1
102
RTVSPropertyOp6
 70
     1
102
RTVSPropertyOp7
 70
     1
102
RTVSPropertyOp8
 70
     1
102
RTVSPropertyOp9
 70
     1
102
RTVSPropertyOp10
 70
     1
102
RTVSPropertyOp11
 70
     1
102
RTVSPropertyOp12
 70
     1
102
RTVSPropertyOp13
 70
     1
102
RTVSPropertyOp14
 70
     1
102
RTVSPropertyOp15
 70
     1
102
RTVSPropertyOp16
 70
     1
102
RTVSPropertyOp17
 70
     1
102
RTVSPropertyOp18
 70
     1
102
RTVSPropertyOp19
 70
     1
102
RTVSPropertyOp20
 70
     1
102
RTVSPropertyOp21
 70
     1
102
RTVSPropertyOp22
 70
     1
102
RTVSPropertyOp23
 70
     1
102
RTVSPropertyOp24
 70
     1
102
RTVSPropertyOp25
 70
     1
102
RTVSPropertyOp26
 70
     1
102
RTVSPropertyOp27
 70
     1
102
RTVSPropertyOp28
 70
     1
102
RTVSPropertyOp29
 70
     1
102
RTVSPropertyOp30
 70
     1
102
RTVSPropertyOp31
 70
     1
102
RTVSPropertyOp32
 70
     1
  0
ENDSEC
  0
EOF
