%TF.GenerationSoftware,KiCad,Pcbnew,8.0.3*%
%TF.CreationDate,2024-06-09T22:24:32+02:00*%
%TF.ProjectId,broadcast_clock,62726f61-6463-4617-9374-5f636c6f636b,rev?*%
%TF.SameCoordinates,Original*%
%TF.FileFunction,Paste,Top*%
%TF.FilePolarity,Positive*%
%FSLAX46Y46*%
G04 Gerber Fmt 4.6, Leading zero omitted, Abs format (unit mm)*
G04 Created by KiCad (PCBNEW 8.0.3) date 2024-06-09 22:24:32*
%MOMM*%
%LPD*%
G01*
G04 APERTURE LIST*
G04 Aperture macros list*
%AMRoundRect*
0 Rectangle with rounded corners*
0 $1 Rounding radius*
0 $2 $3 $4 $5 $6 $7 $8 $9 X,Y pos of 4 corners*
0 Add a 4 corners polygon primitive as box body*
4,1,4,$2,$3,$4,$5,$6,$7,$8,$9,$2,$3,0*
0 Add four circle primitives for the rounded corners*
1,1,$1+$1,$2,$3*
1,1,$1+$1,$4,$5*
1,1,$1+$1,$6,$7*
1,1,$1+$1,$8,$9*
0 Add four rect primitives between the rounded corners*
20,1,$1+$1,$2,$3,$4,$5,0*
20,1,$1+$1,$4,$5,$6,$7,0*
20,1,$1+$1,$6,$7,$8,$9,0*
20,1,$1+$1,$8,$9,$2,$3,0*%
G04 Aperture macros list end*
%ADD10RoundRect,0.250000X0.450000X-0.262500X0.450000X0.262500X-0.450000X0.262500X-0.450000X-0.262500X0*%
%ADD11RoundRect,0.250000X-0.475000X0.250000X-0.475000X-0.250000X0.475000X-0.250000X0.475000X0.250000X0*%
%ADD12RoundRect,0.250000X-0.450000X0.262500X-0.450000X-0.262500X0.450000X-0.262500X0.450000X0.262500X0*%
%ADD13RoundRect,0.250000X0.262500X0.450000X-0.262500X0.450000X-0.262500X-0.450000X0.262500X-0.450000X0*%
%ADD14RoundRect,0.243750X0.456250X-0.243750X0.456250X0.243750X-0.456250X0.243750X-0.456250X-0.243750X0*%
%ADD15RoundRect,0.250000X0.250000X0.475000X-0.250000X0.475000X-0.250000X-0.475000X0.250000X-0.475000X0*%
%ADD16RoundRect,0.250000X0.475000X-0.250000X0.475000X0.250000X-0.475000X0.250000X-0.475000X-0.250000X0*%
%ADD17RoundRect,0.250000X-0.262500X-0.450000X0.262500X-0.450000X0.262500X0.450000X-0.262500X0.450000X0*%
%ADD18R,0.700000X1.900000*%
G04 APERTURE END LIST*
D10*
%TO.C,R3*%
X240411000Y-151788500D03*
X240411000Y-149963500D03*
%TD*%
D11*
%TO.C,C2*%
X68199000Y-141036000D03*
X68199000Y-142936000D03*
%TD*%
D12*
%TO.C,R5*%
X238125000Y-149963500D03*
X238125000Y-151788500D03*
%TD*%
D10*
%TO.C,R213*%
X237744000Y-46124500D03*
X237744000Y-44299500D03*
%TD*%
D13*
%TO.C,R7*%
X186840500Y-195326000D03*
X185015500Y-195326000D03*
%TD*%
D12*
%TO.C,R11*%
X240411000Y-36806500D03*
X240411000Y-38631500D03*
%TD*%
D11*
%TO.C,C8*%
X183845200Y-199456000D03*
X183845200Y-201356000D03*
%TD*%
D13*
%TO.C,R10*%
X141780900Y-225348800D03*
X139955900Y-225348800D03*
%TD*%
D14*
%TO.C,D358*%
X135381125Y-30351376D03*
X135381125Y-28476376D03*
%TD*%
D15*
%TO.C,C7*%
X186243000Y-95123000D03*
X184343000Y-95123000D03*
%TD*%
D12*
%TO.C,R1*%
X62484000Y-149811100D03*
X62484000Y-151636100D03*
%TD*%
D11*
%TO.C,C23*%
X139815000Y-116465000D03*
X139815000Y-118365000D03*
%TD*%
D16*
%TO.C,C1*%
X57404000Y-151673600D03*
X57404000Y-149773600D03*
%TD*%
D13*
%TO.C,R8*%
X96924500Y-195326000D03*
X95099500Y-195326000D03*
%TD*%
D16*
%TO.C,C10*%
X107086400Y-91374000D03*
X107086400Y-89474000D03*
%TD*%
D10*
%TO.C,R4*%
X52730400Y-156970100D03*
X52730400Y-155145100D03*
%TD*%
D16*
%TO.C,C6*%
X240385600Y-141818400D03*
X240385600Y-139918400D03*
%TD*%
D11*
%TO.C,C11*%
X138684000Y-229478800D03*
X138684000Y-231378800D03*
%TD*%
D14*
%TO.C,D357*%
X115315125Y-30351376D03*
X115315125Y-28476376D03*
%TD*%
D16*
%TO.C,C4*%
X227533200Y-151724400D03*
X227533200Y-149824400D03*
%TD*%
D14*
%TO.C,D359*%
X155447125Y-30351376D03*
X155447125Y-28476376D03*
%TD*%
D17*
%TO.C,R9*%
X103786300Y-95656400D03*
X105611300Y-95656400D03*
%TD*%
D11*
%TO.C,C22*%
X151015000Y-116465000D03*
X151015000Y-118365000D03*
%TD*%
D16*
%TO.C,C3*%
X238099600Y-141818400D03*
X238099600Y-139918400D03*
%TD*%
D17*
%TO.C,R6*%
X194032500Y-95631000D03*
X195857500Y-95631000D03*
%TD*%
D11*
%TO.C,C9*%
X93929200Y-199456000D03*
X93929200Y-201356000D03*
%TD*%
D14*
%TO.C,D360*%
X175513125Y-30351376D03*
X175513125Y-28476376D03*
%TD*%
D11*
%TO.C,C5*%
X70408800Y-141036000D03*
X70408800Y-142936000D03*
%TD*%
D18*
%TO.C,U15*%
X143510000Y-118814000D03*
X144780000Y-118814000D03*
X146050000Y-118814000D03*
X147320000Y-118814000D03*
%TD*%
M02*
