%TF.GenerationSoftware,KiCad,Pcbnew,8.0.3*%
%TF.CreationDate,2024-06-09T22:24:32+02:00*%
%TF.ProjectId,broadcast_clock,62726f61-6463-4617-9374-5f636c6f636b,rev?*%
%TF.SameCoordinates,Original*%
%TF.FileFunction,Paste,Bot*%
%TF.FilePolarity,Positive*%
%FSLAX46Y46*%
G04 Gerber Fmt 4.6, Leading zero omitted, Abs format (unit mm)*
G04 Created by KiCad (PCBNEW 8.0.3) date 2024-06-09 22:24:32*
%MOMM*%
%LPD*%
G01*
G04 APERTURE LIST*
G04 Aperture macros list*
%AMRoundRect*
0 Rectangle with rounded corners*
0 $1 Rounding radius*
0 $2 $3 $4 $5 $6 $7 $8 $9 X,Y pos of 4 corners*
0 Add a 4 corners polygon primitive as box body*
4,1,4,$2,$3,$4,$5,$6,$7,$8,$9,$2,$3,0*
0 Add four circle primitives for the rounded corners*
1,1,$1+$1,$2,$3*
1,1,$1+$1,$4,$5*
1,1,$1+$1,$6,$7*
1,1,$1+$1,$8,$9*
0 Add four rect primitives between the rounded corners*
20,1,$1+$1,$2,$3,$4,$5,0*
20,1,$1+$1,$4,$5,$6,$7,0*
20,1,$1+$1,$6,$7,$8,$9,0*
20,1,$1+$1,$8,$9,$2,$3,0*%
G04 Aperture macros list end*
%ADD10R,4.000000X14.000000*%
%ADD11R,3.200000X2.000000*%
%ADD12R,2.100000X1.400000*%
%ADD13R,1.200000X1.800000*%
%ADD14RoundRect,0.200000X0.700000X0.200000X-0.700000X0.200000X-0.700000X-0.200000X0.700000X-0.200000X0*%
%ADD15RoundRect,0.250000X0.450000X-0.262500X0.450000X0.262500X-0.450000X0.262500X-0.450000X-0.262500X0*%
%ADD16RoundRect,0.250000X-0.450000X0.262500X-0.450000X-0.262500X0.450000X-0.262500X0.450000X0.262500X0*%
%ADD17R,0.400000X1.100000*%
%ADD18RoundRect,0.375000X0.375000X-0.625000X0.375000X0.625000X-0.375000X0.625000X-0.375000X-0.625000X0*%
%ADD19RoundRect,0.500000X1.400000X-0.500000X1.400000X0.500000X-1.400000X0.500000X-1.400000X-0.500000X0*%
%ADD20RoundRect,0.250000X-0.475000X0.250000X-0.475000X-0.250000X0.475000X-0.250000X0.475000X0.250000X0*%
%ADD21R,2.540000X3.510000*%
%ADD22RoundRect,0.249999X-4.550001X4.150001X-4.550001X-4.150001X4.550001X-4.150001X4.550001X4.150001X0*%
%ADD23R,0.900000X0.900000*%
%ADD24R,0.900000X0.880000*%
%ADD25R,1.500000X0.900000*%
%ADD26RoundRect,0.250000X-1.000000X1.500000X-1.000000X-1.500000X1.000000X-1.500000X1.000000X1.500000X0*%
%ADD27RoundRect,0.250000X-0.250000X-0.475000X0.250000X-0.475000X0.250000X0.475000X-0.250000X0.475000X0*%
%ADD28RoundRect,0.249999X-4.150001X-4.550001X4.150001X-4.550001X4.150001X4.550001X-4.150001X4.550001X0*%
%ADD29RoundRect,0.250000X1.000000X0.650000X-1.000000X0.650000X-1.000000X-0.650000X1.000000X-0.650000X0*%
%ADD30RoundRect,0.250000X0.262500X0.450000X-0.262500X0.450000X-0.262500X-0.450000X0.262500X-0.450000X0*%
%ADD31RoundRect,0.250000X0.250000X0.475000X-0.250000X0.475000X-0.250000X-0.475000X0.250000X-0.475000X0*%
%ADD32RoundRect,0.250000X0.475000X-0.250000X0.475000X0.250000X-0.475000X0.250000X-0.475000X-0.250000X0*%
%ADD33R,1.500000X0.500000*%
%ADD34R,1.016000X3.050000*%
%ADD35RoundRect,0.250000X1.000000X-1.500000X1.000000X1.500000X-1.000000X1.500000X-1.000000X-1.500000X0*%
%ADD36R,1.890000X1.140000*%
G04 APERTURE END LIST*
D10*
%TO.C,L1*%
X76858000Y-252730000D03*
X91798000Y-252730000D03*
%TD*%
D11*
%TO.C,BZ1*%
X255397000Y-39941500D03*
X255397000Y-48958500D03*
%TD*%
D12*
%TO.C,SW2*%
X258804000Y-67473000D03*
X249704000Y-67473000D03*
X258804000Y-71973000D03*
X249704000Y-71973000D03*
%TD*%
%TO.C,SW1*%
X258804000Y-57694000D03*
X249704000Y-57694000D03*
X258804000Y-62194000D03*
X249704000Y-62194000D03*
%TD*%
D13*
%TO.C,L2*%
X47203000Y-45083000D03*
X49063000Y-45083000D03*
%TD*%
D14*
%TO.C,U9*%
X68344000Y-31736000D03*
X68344000Y-32836000D03*
X68344000Y-33936000D03*
X68344000Y-35036000D03*
X68344000Y-36136000D03*
X68344000Y-37236000D03*
X68344000Y-38336000D03*
X68344000Y-39436000D03*
X68344000Y-43236000D03*
X68344000Y-44336000D03*
X68344000Y-45436000D03*
X68344000Y-46536000D03*
X68344000Y-47636000D03*
X68344000Y-48736000D03*
X51544000Y-48736000D03*
X51544000Y-47636000D03*
X51544000Y-46536000D03*
X51544000Y-45436000D03*
X51544000Y-44336000D03*
X51544000Y-43236000D03*
X51544000Y-39436000D03*
X51544000Y-38336000D03*
X51544000Y-37236000D03*
X51544000Y-36136000D03*
X51544000Y-35036000D03*
X51544000Y-33936000D03*
X51544000Y-32836000D03*
X51544000Y-31736000D03*
%TD*%
D15*
%TO.C,R18*%
X221996000Y-43457500D03*
X221996000Y-41632500D03*
%TD*%
D16*
%TO.C,R19*%
X221996000Y-37949500D03*
X221996000Y-39774500D03*
%TD*%
D17*
%TO.C,U6*%
X104640000Y-203265000D03*
X103990000Y-203265000D03*
X103340000Y-203265000D03*
X102690000Y-203265000D03*
X102040000Y-203265000D03*
X101390000Y-203265000D03*
X100740000Y-203265000D03*
X100090000Y-203265000D03*
X99440000Y-203265000D03*
X98790000Y-203265000D03*
X98140000Y-203265000D03*
X97490000Y-203265000D03*
X96840000Y-203265000D03*
X96190000Y-203265000D03*
X96190000Y-197565000D03*
X96840000Y-197565000D03*
X97490000Y-197565000D03*
X98140000Y-197565000D03*
X98790000Y-197565000D03*
X99440000Y-197565000D03*
X100090000Y-197565000D03*
X100740000Y-197565000D03*
X101390000Y-197565000D03*
X102040000Y-197565000D03*
X102690000Y-197565000D03*
X103340000Y-197565000D03*
X103990000Y-197565000D03*
X104640000Y-197565000D03*
%TD*%
D18*
%TO.C,U14*%
X222715000Y-113565000D03*
X220415000Y-113565000D03*
D19*
X220415000Y-107265000D03*
D18*
X218115000Y-113565000D03*
%TD*%
D16*
%TO.C,R15*%
X245872000Y-52681500D03*
X245872000Y-54506500D03*
%TD*%
D20*
%TO.C,C20*%
X42672000Y-190820000D03*
X42672000Y-192720000D03*
%TD*%
D21*
%TO.C,BT1*%
X35104000Y-64770000D03*
X64464000Y-64770000D03*
%TD*%
D22*
%TO.C,C14*%
X38354000Y-204324000D03*
X38354000Y-217824000D03*
%TD*%
D18*
%TO.C,U10*%
X39511000Y-191872000D03*
X37211000Y-191872000D03*
D19*
X37211000Y-185572000D03*
D18*
X34911000Y-191872000D03*
%TD*%
D16*
%TO.C,R14*%
X245872000Y-48998500D03*
X245872000Y-50823500D03*
%TD*%
D23*
%TO.C,U3*%
X236814000Y-39949000D03*
X235414000Y-39949000D03*
X234014000Y-39949000D03*
X236814000Y-41349000D03*
X235414000Y-41349000D03*
X234014000Y-41349000D03*
D24*
X235404000Y-42729000D03*
D23*
X236804000Y-42749000D03*
X234004000Y-42749000D03*
D25*
X242824000Y-33559000D03*
X242824000Y-34829000D03*
X242824000Y-36099000D03*
X242824000Y-37369000D03*
X242824000Y-38639000D03*
X242824000Y-39909000D03*
X242824000Y-41179000D03*
X242824000Y-42449000D03*
X242824000Y-43719000D03*
X242824000Y-44989000D03*
X242824000Y-46259000D03*
X242824000Y-47529000D03*
X242824000Y-48799000D03*
X242824000Y-50069000D03*
X242824000Y-51339000D03*
X242824000Y-52609000D03*
X242824000Y-53879000D03*
X242824000Y-55149000D03*
X242824000Y-56419000D03*
X225044000Y-56419000D03*
X225044000Y-55149000D03*
X225044000Y-53879000D03*
X225044000Y-52609000D03*
X225044000Y-51339000D03*
X225044000Y-50069000D03*
X225044000Y-48799000D03*
X225044000Y-47529000D03*
X225044000Y-46259000D03*
X225044000Y-44989000D03*
X225044000Y-43719000D03*
X225044000Y-42449000D03*
X225044000Y-41179000D03*
X225044000Y-39909000D03*
X225044000Y-38639000D03*
X225044000Y-37369000D03*
X225044000Y-36099000D03*
X225044000Y-34829000D03*
X225044000Y-33559000D03*
%TD*%
D17*
%TO.C,U8*%
X149640000Y-233265000D03*
X148990000Y-233265000D03*
X148340000Y-233265000D03*
X147690000Y-233265000D03*
X147040000Y-233265000D03*
X146390000Y-233265000D03*
X145740000Y-233265000D03*
X145090000Y-233265000D03*
X144440000Y-233265000D03*
X143790000Y-233265000D03*
X143140000Y-233265000D03*
X142490000Y-233265000D03*
X141840000Y-233265000D03*
X141190000Y-233265000D03*
X141190000Y-227565000D03*
X141840000Y-227565000D03*
X142490000Y-227565000D03*
X143140000Y-227565000D03*
X143790000Y-227565000D03*
X144440000Y-227565000D03*
X145090000Y-227565000D03*
X145740000Y-227565000D03*
X146390000Y-227565000D03*
X147040000Y-227565000D03*
X147690000Y-227565000D03*
X148340000Y-227565000D03*
X148990000Y-227565000D03*
X149640000Y-227565000D03*
%TD*%
D26*
%TO.C,C25*%
X102234000Y-252696500D03*
X102234000Y-259196500D03*
%TD*%
D27*
%TO.C,C26*%
X39690000Y-38608000D03*
X41590000Y-38608000D03*
%TD*%
D28*
%TO.C,C28*%
X81642000Y-38100000D03*
X95142000Y-38100000D03*
%TD*%
D15*
%TO.C,R2*%
X221996000Y-54506500D03*
X221996000Y-52681500D03*
%TD*%
D27*
%TO.C,C27*%
X217490000Y-116586000D03*
X219390000Y-116586000D03*
%TD*%
D15*
%TO.C,R21*%
X67564000Y-241450500D03*
X67564000Y-239625500D03*
%TD*%
D29*
%TO.C,D355*%
X64484000Y-240538000D03*
X60484000Y-240538000D03*
%TD*%
D30*
%TO.C,R24*%
X49045500Y-42571000D03*
X47220500Y-42571000D03*
%TD*%
D27*
%TO.C,C32*%
X106421000Y-183465000D03*
X108321000Y-183465000D03*
%TD*%
D31*
%TO.C,C18*%
X49083000Y-47625000D03*
X47183000Y-47625000D03*
%TD*%
D17*
%TO.C,U5*%
X194640000Y-203265000D03*
X193990000Y-203265000D03*
X193340000Y-203265000D03*
X192690000Y-203265000D03*
X192040000Y-203265000D03*
X191390000Y-203265000D03*
X190740000Y-203265000D03*
X190090000Y-203265000D03*
X189440000Y-203265000D03*
X188790000Y-203265000D03*
X188140000Y-203265000D03*
X187490000Y-203265000D03*
X186840000Y-203265000D03*
X186190000Y-203265000D03*
X186190000Y-197565000D03*
X186840000Y-197565000D03*
X187490000Y-197565000D03*
X188140000Y-197565000D03*
X188790000Y-197565000D03*
X189440000Y-197565000D03*
X190090000Y-197565000D03*
X190740000Y-197565000D03*
X191390000Y-197565000D03*
X192040000Y-197565000D03*
X192690000Y-197565000D03*
X193340000Y-197565000D03*
X193990000Y-197565000D03*
X194640000Y-197565000D03*
%TD*%
D32*
%TO.C,C13*%
X245872000Y-36129000D03*
X245872000Y-34229000D03*
%TD*%
D15*
%TO.C,R16*%
X221996000Y-50823500D03*
X221996000Y-48998500D03*
%TD*%
D32*
%TO.C,C12*%
X250317000Y-36129000D03*
X250317000Y-34229000D03*
%TD*%
D27*
%TO.C,C21*%
X36261000Y-194437000D03*
X38161000Y-194437000D03*
%TD*%
D15*
%TO.C,R22*%
X245872000Y-43467500D03*
X245872000Y-41642500D03*
%TD*%
D16*
%TO.C,R13*%
X221996000Y-45315500D03*
X221996000Y-47140500D03*
%TD*%
D27*
%TO.C,C24*%
X102611000Y-183465000D03*
X104511000Y-183465000D03*
%TD*%
%TO.C,C31*%
X221300000Y-116586000D03*
X223200000Y-116586000D03*
%TD*%
D22*
%TO.C,C19*%
X38100000Y-81134000D03*
X38100000Y-94634000D03*
%TD*%
D33*
%TO.C,U1*%
X65615000Y-138615000D03*
X65615000Y-139415000D03*
X65615000Y-140215000D03*
X65615000Y-141015000D03*
X65615000Y-141815000D03*
X65615000Y-142615000D03*
X65615000Y-143415000D03*
X65615000Y-144215000D03*
X65615000Y-145015000D03*
X65615000Y-145815000D03*
X65615000Y-146615000D03*
X65615000Y-147415000D03*
X65615000Y-148215000D03*
X65615000Y-149015000D03*
X65615000Y-149815000D03*
X65615000Y-150615000D03*
X65615000Y-151415000D03*
X65615000Y-152215000D03*
X55215000Y-152215000D03*
X55215000Y-151415000D03*
X55215000Y-150615000D03*
X55215000Y-149815000D03*
X55215000Y-149015000D03*
X55215000Y-148215000D03*
X55215000Y-147415000D03*
X55215000Y-146615000D03*
X55215000Y-145815000D03*
X55215000Y-145015000D03*
X55215000Y-144215000D03*
X55215000Y-143415000D03*
X55215000Y-142615000D03*
X55215000Y-141815000D03*
X55215000Y-141015000D03*
X55215000Y-140215000D03*
X55215000Y-139415000D03*
X55215000Y-138615000D03*
%TD*%
D15*
%TO.C,R12*%
X245872000Y-39789500D03*
X245872000Y-37964500D03*
%TD*%
D16*
%TO.C,R17*%
X221996000Y-34266500D03*
X221996000Y-36091500D03*
%TD*%
D15*
%TO.C,R20*%
X72644000Y-241450500D03*
X72644000Y-239625500D03*
%TD*%
D34*
%TO.C,U11*%
X63398000Y-245770500D03*
X65100000Y-245770500D03*
X66802000Y-245770500D03*
X68504000Y-245770500D03*
X70206000Y-245770500D03*
%TD*%
D33*
%TO.C,U2*%
X235615000Y-138615000D03*
X235615000Y-139415000D03*
X235615000Y-140215000D03*
X235615000Y-141015000D03*
X235615000Y-141815000D03*
X235615000Y-142615000D03*
X235615000Y-143415000D03*
X235615000Y-144215000D03*
X235615000Y-145015000D03*
X235615000Y-145815000D03*
X235615000Y-146615000D03*
X235615000Y-147415000D03*
X235615000Y-148215000D03*
X235615000Y-149015000D03*
X235615000Y-149815000D03*
X235615000Y-150615000D03*
X235615000Y-151415000D03*
X235615000Y-152215000D03*
X225215000Y-152215000D03*
X225215000Y-151415000D03*
X225215000Y-150615000D03*
X225215000Y-149815000D03*
X225215000Y-149015000D03*
X225215000Y-148215000D03*
X225215000Y-147415000D03*
X225215000Y-146615000D03*
X225215000Y-145815000D03*
X225215000Y-145015000D03*
X225215000Y-144215000D03*
X225215000Y-143415000D03*
X225215000Y-142615000D03*
X225215000Y-141815000D03*
X225215000Y-141015000D03*
X225215000Y-140215000D03*
X225215000Y-139415000D03*
X225215000Y-138615000D03*
%TD*%
D18*
%TO.C,U13*%
X107823000Y-180467000D03*
X105523000Y-180467000D03*
D19*
X105523000Y-174167000D03*
D18*
X103223000Y-180467000D03*
%TD*%
D17*
%TO.C,U7*%
X96190000Y-87565000D03*
X96840000Y-87565000D03*
X97490000Y-87565000D03*
X98140000Y-87565000D03*
X98790000Y-87565000D03*
X99440000Y-87565000D03*
X100090000Y-87565000D03*
X100740000Y-87565000D03*
X101390000Y-87565000D03*
X102040000Y-87565000D03*
X102690000Y-87565000D03*
X103340000Y-87565000D03*
X103990000Y-87565000D03*
X104640000Y-87565000D03*
X104640000Y-93265000D03*
X103990000Y-93265000D03*
X103340000Y-93265000D03*
X102690000Y-93265000D03*
X102040000Y-93265000D03*
X101390000Y-93265000D03*
X100740000Y-93265000D03*
X100090000Y-93265000D03*
X99440000Y-93265000D03*
X98790000Y-93265000D03*
X98140000Y-93265000D03*
X97490000Y-93265000D03*
X96840000Y-93265000D03*
X96190000Y-93265000D03*
%TD*%
D32*
%TO.C,C16*%
X70104000Y-241488000D03*
X70104000Y-239588000D03*
%TD*%
D35*
%TO.C,C15*%
X59690000Y-234136000D03*
X59690000Y-227636000D03*
%TD*%
D31*
%TO.C,C17*%
X48956000Y-40005000D03*
X47056000Y-40005000D03*
%TD*%
D17*
%TO.C,U4*%
X186190000Y-87565000D03*
X186840000Y-87565000D03*
X187490000Y-87565000D03*
X188140000Y-87565000D03*
X188790000Y-87565000D03*
X189440000Y-87565000D03*
X190090000Y-87565000D03*
X190740000Y-87565000D03*
X191390000Y-87565000D03*
X192040000Y-87565000D03*
X192690000Y-87565000D03*
X193340000Y-87565000D03*
X193990000Y-87565000D03*
X194640000Y-87565000D03*
X194640000Y-93265000D03*
X193990000Y-93265000D03*
X193340000Y-93265000D03*
X192690000Y-93265000D03*
X192040000Y-93265000D03*
X191390000Y-93265000D03*
X190740000Y-93265000D03*
X190090000Y-93265000D03*
X189440000Y-93265000D03*
X188790000Y-93265000D03*
X188140000Y-93265000D03*
X187490000Y-93265000D03*
X186840000Y-93265000D03*
X186190000Y-93265000D03*
%TD*%
D36*
%TO.C,D356*%
X40640000Y-233494000D03*
X40640000Y-229294000D03*
%TD*%
D18*
%TO.C,U12*%
X41924000Y-36170000D03*
X39624000Y-36170000D03*
D19*
X39624000Y-29870000D03*
D18*
X37324000Y-36170000D03*
%TD*%
M02*
