M48
; DRILL file {KiCad 8.0.3} date 2024-06-09T22:24:02+0200
; FORMAT={-:-/ absolute / inch / decimal}
; #@! TF.CreationDate,2024-06-09T22:24:02+02:00
; #@! TF.GenerationSoftware,Kicad,Pcbnew,8.0.3
; #@! TF.FileFunction,Plated,1,4,PTH
FMAT,2
INCH
; #@! TA.AperFunction,Plated,PTH,ViaDrill
T1C0.0079
; #@! TA.AperFunction,Plated,PTH,ViaDrill
T2C0.0157
; #@! TA.AperFunction,Plated,PTH,ViaDrill
T3C0.0197
; #@! TA.AperFunction,Plated,PTH,ViaDrill
T4C0.0236
; #@! TA.AperFunction,Plated,PTH,ComponentDrill
T5C0.0236
; #@! TA.AperFunction,Plated,PTH,ComponentDrill
T6C0.0256
; #@! TA.AperFunction,Plated,PTH,ComponentDrill
T7C0.0276
; #@! TA.AperFunction,Plated,PTH,ComponentDrill
T8C0.0300
; #@! TA.AperFunction,Plated,PTH,ComponentDrill
T9C0.0315
; #@! TA.AperFunction,Plated,PTH,ComponentDrill
T10C0.0591
; #@! TA.AperFunction,Plated,PTH,ComponentDrill
T11C0.0669
%
G90
G05
T1
X1.33Y-9.53
X1.33Y-9.56
X1.33Y-9.59
X1.33Y-9.62
X1.33Y-9.76
X1.33Y-9.79
X1.33Y-9.82
X1.33Y-9.85
X1.33Y-10.0
X1.33Y-10.03
X1.33Y-10.06
X1.33Y-10.09
X1.385Y-2.55
X1.53Y-1.76
X1.53Y-1.79
X1.55Y-1.725
X1.55Y-1.825
X1.59Y-1.715
X1.59Y-1.835
X1.63Y-1.725
X1.63Y-1.825
X1.645Y-1.755
X1.645Y-1.795
X1.69Y-1.755
X1.69Y-1.795
X1.72Y-1.755
X1.72Y-1.7954
X1.75Y-1.755
X1.75Y-1.795
X1.785Y-1.755
X1.785Y-1.795
X1.815Y-1.74
X1.815Y-1.81
X1.82Y-1.555
X1.82Y-1.585
X1.82Y-1.615
X1.82Y-1.65
X1.82Y-1.685
X1.82Y-1.845
X1.82Y-1.875
X1.82Y-1.905
X1.825Y-1.525
X1.845Y-1.925
X1.8526Y-1.875
X1.8534Y-1.7749
X1.855Y-1.525
X1.87Y-8.69
X1.87Y-8.74
X1.87Y-8.79
X1.88Y-1.925
X1.885Y-1.525
X1.895Y-1.825
X1.915Y-1.525
X1.915Y-1.925
X1.9274Y-1.575
X1.9309Y-1.676
X1.9324Y-1.875
X1.945Y-1.525
X1.945Y-1.925
X1.97Y-1.545
X1.97Y-1.575
X1.97Y-1.61
X1.97Y-1.695
X1.97Y-1.73
X1.97Y-1.82
X1.97Y-1.855
X1.97Y-1.895
X1.975Y-1.925
X1.995Y-1.63
X2.0293Y-1.7888
X2.0293Y-1.8754
X2.0293Y-1.9187
X2.03Y-1.63
X2.065Y-1.63
X2.075Y-1.915
X2.1Y-1.63
X2.105Y-1.915
X2.125Y-1.65
X2.125Y-1.68
X2.125Y-1.71
X2.125Y-1.745
X2.125Y-1.78
X2.125Y-1.82
X2.125Y-1.855
X2.125Y-1.89
X2.1738Y-5.8982
X2.28Y-6.2316
X2.38Y-9.65
X2.42Y-9.76
X2.46Y-5.8981
X2.46Y-5.9699
X2.48Y-9.07
X2.48Y-9.12
X2.48Y-9.17
X2.49Y-9.79
X2.51Y-6.094
X2.53Y-5.9927
X2.5833Y-5.5833
X2.6907Y-1.7888
X3.8124Y-3.4
X3.8383Y-3.38
X3.8639Y-3.36
X3.89Y-3.45
X3.915Y-3.34
X3.992Y-8.17
X4.015Y-8.15
X4.0173Y-8.0026
X4.04Y-8.13
X4.043Y-7.7
X4.065Y-8.11
X4.068Y-7.72
X4.0943Y-7.7651
X4.12Y-7.778
X5.559Y-8.959
X5.61Y-8.959
X5.6356Y-8.9191
X5.65Y-4.67
X5.7635Y-9.1836
X5.789Y-9.223
X5.8Y-4.67
X5.84Y-8.959
X5.8659Y-8.9471
X5.8913Y-8.9593
X7.219Y-3.762
X7.355Y-3.447
X7.3815Y-3.4706
X7.407Y-3.447
X7.4327Y-3.471
X7.485Y-3.865
X7.51Y-3.845
X7.535Y-3.825
X7.56Y-3.805
X7.585Y-3.785
X7.612Y-3.6718
X7.6374Y-7.7781
X7.6375Y-3.7125
X7.6631Y-3.6718
X7.682Y-7.787
X8.765Y-5.835
X8.765Y-5.865
X8.7864Y-5.9616
X8.819Y-5.993
X8.8667Y-5.5833
X8.8667Y-5.8982
X8.91Y-5.8037
X8.9446Y-5.773
X8.98Y-5.74
X9.0Y-2.36
X9.015Y-5.709
X9.0326Y-1.815
X9.05Y-5.678
X9.085Y-5.647
X9.12Y-5.615
X9.155Y-5.495
X9.19Y-5.465
X9.225Y-5.435
X9.275Y-5.457
X9.275Y-5.488
X9.275Y-5.52
X9.275Y-5.615
X9.275Y-5.645
X9.275Y-5.678
X9.275Y-5.709
X9.2762Y-5.8982
X9.2762Y-5.9927
X9.327Y-6.08
X9.375Y-5.9759
X9.38Y-5.867
X9.4Y-5.835
X9.4202Y-5.8037
X9.44Y-5.773
X9.46Y-5.74
X9.465Y-1.5209
X9.465Y-5.9041
X9.5225Y-5.8925
X9.6038Y-1.9712
X9.62Y-1.472
X9.632Y-1.921
X9.68Y-1.4224
X9.68Y-1.567
X9.855Y-1.4224
T2
X1.08Y-7.78
X1.08Y-7.83
X1.08Y-7.88
X1.08Y-7.93
X1.08Y-7.99
X1.08Y-8.05
X1.08Y-8.1
X1.08Y-8.15
X1.08Y-8.2
X1.08Y-8.25
X1.08Y-8.31
X1.08Y-8.36
X1.08Y-8.41
X1.08Y-8.46
X1.08Y-8.51
X1.08Y-8.56
X1.08Y-8.61
X1.08Y-8.66
X1.08Y-8.71
X1.08Y-8.76
X1.08Y-8.81
X1.08Y-8.86
X1.08Y-8.91
X1.08Y-8.96
X1.08Y-9.01
X1.08Y-9.06
X1.08Y-9.11
X1.08Y-9.16
X1.08Y-9.21
X1.08Y-9.26
X1.08Y-9.31
X1.08Y-9.36
X1.08Y-9.41
X1.08Y-9.47
X1.08Y-9.52
X1.08Y-9.57
X1.08Y-9.62
X1.08Y-9.67
X1.08Y-9.72
X1.08Y-9.77
X1.08Y-9.82
X1.08Y-9.87
X1.08Y-9.92
X1.08Y-9.97
X1.08Y-10.02
X1.08Y-10.07
X1.08Y-10.12
X1.08Y-10.17
X1.08Y-10.22
X1.08Y-10.27
X1.08Y-10.32
X1.08Y-10.37
X1.13Y-7.78
X1.13Y-10.37
X1.18Y-7.78
X1.18Y-10.37
X1.23Y-7.78
X1.23Y-10.37
X1.28Y-7.78
X1.28Y-10.37
X1.33Y-7.78
X1.33Y-10.37
X1.365Y-7.405
X1.365Y-7.455
X1.375Y-7.78
X1.38Y-10.37
X1.415Y-7.405
X1.415Y-7.455
X1.43Y-8.46
X1.43Y-8.58
X1.43Y-8.69
X1.43Y-10.37
X1.4644Y-7.405
X1.4644Y-7.455
X1.48Y-10.37
X1.51Y-8.044
X1.515Y-7.405
X1.515Y-7.455
X1.53Y-7.78
X1.53Y-9.26
X1.53Y-9.31
X1.53Y-9.36
X1.53Y-9.41
X1.53Y-9.46
X1.53Y-9.52
X1.53Y-9.57
X1.53Y-9.62
X1.53Y-9.67
X1.53Y-9.72
X1.53Y-9.77
X1.53Y-9.82
X1.53Y-9.87
X1.53Y-9.92
X1.53Y-9.97
X1.53Y-10.02
X1.53Y-10.07
X1.53Y-10.12
X1.53Y-10.17
X1.53Y-10.22
X1.53Y-10.27
X1.53Y-10.32
X1.53Y-10.37
X1.551Y-8.084
X1.565Y-7.405
X1.565Y-7.455
X1.58Y-7.78
X1.58Y-9.26
X1.592Y-8.125
X1.597Y-8.456
X1.597Y-8.576
X1.597Y-8.686
X1.63Y-7.78
X1.63Y-9.26
X1.68Y-7.78
X1.68Y-9.26
X1.73Y-7.78
X1.73Y-9.26
X1.78Y-7.78
X1.78Y-9.26
X1.83Y-7.78
X1.83Y-9.26
X1.8593Y-1.676
X1.88Y-7.78
X1.88Y-9.26
X1.93Y-7.78
X1.93Y-7.83
X1.93Y-7.89
X1.93Y-7.95
X1.93Y-8.0
X1.93Y-8.05
X1.93Y-8.1
X1.93Y-8.2
X1.93Y-8.25
X1.93Y-9.26
X1.9316Y-1.7749
X1.945Y-8.286
X1.9768Y-8.3118
X1.98Y-9.26
X2.0122Y-8.3472
X2.03Y-1.25
X2.03Y-9.26
X2.0475Y-8.3825
X2.076Y-6.1799
X2.08Y-9.26
X2.0829Y-8.4179
X2.1182Y-8.4532
X2.13Y-9.26
X2.1536Y-8.4886
X2.18Y-9.26
X2.1889Y-8.5239
X2.2243Y-8.5593
X2.23Y-9.26
X2.2596Y-8.5946
X2.28Y-5.85
X2.28Y-9.31
X2.28Y-9.36
X2.28Y-9.41
X2.28Y-9.46
X2.28Y-9.52
X2.28Y-9.57
X2.28Y-9.62
X2.28Y-9.67
X2.28Y-9.72
X2.28Y-9.77
X2.28Y-9.82
X2.28Y-9.87
X2.28Y-9.92
X2.28Y-9.97
X2.28Y-10.02
X2.28Y-10.07
X2.28Y-10.12
X2.28Y-10.17
X2.28Y-10.22
X2.28Y-10.27
X2.28Y-10.32
X2.28Y-10.37
X2.295Y-8.63
X2.325Y-3.975
X2.33Y-10.37
X2.3304Y-8.6654
X2.3657Y-8.7007
X2.38Y-10.37
X2.4011Y-8.7361
X2.43Y-10.37
X2.4364Y-8.7714
X2.4718Y-8.8068
X2.48Y-10.37
X2.49Y-6.22
X2.5071Y-8.8421
X2.53Y-10.37
X2.5425Y-8.8775
X2.55Y-6.28
X2.5778Y-8.9128
X2.58Y-10.37
X2.6Y-6.34
X2.6132Y-8.9482
X2.63Y-10.37
X2.6486Y-8.9836
X2.68Y-10.37
X2.6839Y-9.0189
X2.6907Y-1.2494
X2.6907Y-1.2928
X2.7193Y-9.0543
X2.73Y-10.37
X2.7617Y-9.0967
X2.765Y-1.465
X2.78Y-10.37
X2.797Y-9.132
X2.83Y-10.37
X2.8324Y-9.1674
X2.8678Y-9.2028
X2.88Y-10.37
X2.9031Y-9.2381
X2.93Y-10.37
X2.9385Y-9.2735
X2.94Y-4.77
X2.9738Y-9.3088
X2.98Y-10.37
X3.0092Y-9.3442
X3.03Y-10.37
X3.0445Y-9.3795
X3.08Y-10.37
X3.0804Y-9.4154
X3.1157Y-9.4507
X3.13Y-10.37
X3.14Y-4.86
X3.15Y-4.73
X3.1511Y-9.4861
X3.18Y-10.37
X3.1864Y-9.5214
X3.2218Y-9.5568
X3.23Y-10.37
X3.28Y-10.37
X3.285Y-9.57
X3.33Y-10.37
X3.34Y-9.57
X3.36Y-4.69
X3.38Y-10.37
X3.39Y-4.87
X3.39Y-9.57
X3.43Y-10.37
X3.44Y-9.57
X3.48Y-10.37
X3.49Y-9.57
X3.53Y-10.37
X3.54Y-9.57
X3.57Y-4.65
X3.58Y-10.37
X3.59Y-9.57
X3.63Y-10.37
X3.64Y-4.87
X3.64Y-9.57
X3.68Y-10.37
X3.69Y-9.57
X3.7183Y-3.6722
X3.73Y-8.21
X3.73Y-10.37
X3.74Y-9.57
X3.761Y-6.857
X3.78Y-4.61
X3.79Y-3.285
X3.79Y-9.57
X3.79Y-9.62
X3.79Y-9.67
X3.79Y-9.72
X3.79Y-9.77
X3.79Y-9.82
X3.79Y-10.37
X3.795Y-3.52
X3.795Y-3.56
X3.795Y-3.6
X3.795Y-7.85
X3.795Y-7.89
X3.795Y-7.93
X3.81Y-6.91
X3.81Y-7.01
X3.81Y-7.21
X3.8128Y-3.7659
X3.835Y-3.52
X3.835Y-3.56
X3.835Y-3.6
X3.835Y-7.85
X3.835Y-7.89
X3.835Y-7.93
X3.839Y-3.8
X3.85Y-9.82
X3.85Y-10.37
X3.861Y-6.857
X3.865Y-3.825
X3.875Y-3.52
X3.875Y-3.56
X3.875Y-3.6
X3.875Y-7.85
X3.875Y-7.89
X3.875Y-7.93
X3.89Y-3.97
X3.9Y-4.88
X3.9Y-9.82
X3.9Y-10.37
X3.91Y-6.91
X3.91Y-7.01
X3.91Y-7.21
X3.91Y-7.31
X3.915Y-3.52
X3.915Y-3.56
X3.915Y-3.6
X3.915Y-3.87
X3.915Y-7.85
X3.915Y-7.89
X3.915Y-7.93
X3.95Y-9.82
X3.95Y-10.37
X3.955Y-3.52
X3.955Y-3.56
X3.955Y-3.6
X3.955Y-7.85
X3.955Y-7.89
X3.955Y-7.93
X3.961Y-6.857
X3.9917Y-7.5267
X3.995Y-3.52
X3.995Y-3.56
X3.995Y-3.6
X3.995Y-7.85
X3.995Y-7.89
X3.995Y-7.93
X4.0Y-9.82
X4.0Y-10.37
X4.01Y-7.41
X4.035Y-3.52
X4.035Y-3.56
X4.035Y-3.6
X4.035Y-7.85
X4.035Y-7.89
X4.035Y-7.93
X4.05Y-9.82
X4.05Y-10.37
X4.055Y-6.95
X4.055Y-7.0
X4.0639Y-7.105
X4.075Y-3.52
X4.075Y-3.56
X4.075Y-3.6
X4.075Y-7.85
X4.075Y-7.89
X4.075Y-7.93
X4.088Y-4.57
X4.1Y-9.82
X4.1Y-10.37
X4.105Y-6.95
X4.105Y-7.0
X4.1092Y-6.8569
X4.1146Y-7.223
X4.115Y-3.52
X4.115Y-3.56
X4.115Y-3.6
X4.115Y-7.85
X4.115Y-7.89
X4.115Y-7.93
X4.12Y-8.06
X4.12Y-8.21
X4.1202Y-7.41
X4.15Y-9.82
X4.15Y-10.37
X4.1544Y-6.857
X4.1544Y-6.95
X4.1544Y-7.0
X4.1544Y-7.105
X4.17Y-2.11
X4.17Y-2.33
X4.184Y-7.681
X4.19Y-4.88
X4.1998Y-6.8569
X4.2Y-9.82
X4.2Y-10.37
X4.205Y-6.95
X4.205Y-7.0
X4.222Y-9.322
X4.245Y-7.105
X4.245Y-9.245
X4.255Y-6.95
X4.255Y-7.0
X4.255Y-9.82
X4.255Y-9.87
X4.255Y-9.92
X4.255Y-9.97
X4.255Y-10.02
X4.255Y-10.07
X4.255Y-10.12
X4.255Y-10.17
X4.255Y-10.22
X4.255Y-10.27
X4.255Y-10.32
X4.255Y-10.37
X4.2646Y-7.223
X4.298Y-4.53
X4.31Y-7.41
X4.317Y-8.992
X4.36Y-6.857
X4.376Y-9.271
X4.41Y-6.91
X4.41Y-7.01
X4.41Y-7.11
X4.41Y-7.21
X4.41Y-7.41
X4.46Y-6.857
X4.5Y-4.88
X4.51Y-2.825
X4.51Y-3.025
X4.51Y-3.225
X4.51Y-3.425
X4.51Y-4.49
X4.51Y-6.91
X4.51Y-7.01
X4.51Y-7.11
X4.51Y-7.31
X4.51Y-7.41
X4.5254Y-9.2954
X4.55Y-1.475
X4.56Y-6.857
X4.585Y-1.505
X4.61Y-2.14
X4.64Y-2.92
X4.64Y-3.12
X4.64Y-3.32
X4.72Y-4.45
X4.74Y-4.88
X4.75Y-8.77
X4.75Y-8.82
X4.78Y-2.11
X4.78Y-2.33
X4.93Y-4.41
X4.99Y-4.88
X5.015Y-2.14
X5.07Y-8.74
X5.09Y-7.17
X5.24Y-4.88
X5.29Y-7.17
X5.484Y-9.153
X5.49Y-7.17
X5.5037Y-9.2194
X5.56Y-9.03
X5.56Y-9.07
X5.56Y-9.11
X5.584Y-8.77
X5.6Y-9.03
X5.6Y-9.07
X5.6Y-9.11
X5.6356Y-9.3738
X5.64Y-7.18
X5.64Y-9.03
X5.64Y-9.07
X5.64Y-9.11
X5.661Y-9.425
X5.68Y-9.03
X5.68Y-9.07
X5.68Y-9.11
X5.687Y-9.4
X5.712Y-9.374
X5.713Y-8.764
X5.72Y-2.92
X5.72Y-3.13
X5.72Y-3.33
X5.72Y-9.03
X5.72Y-9.07
X5.72Y-9.11
X5.725Y-5.56
X5.725Y-5.875
X5.7378Y-9.347
X5.752Y-8.764
X5.76Y-9.03
X5.76Y-9.07
X5.76Y-9.11
X5.7634Y-8.82
X5.7637Y-9.322
X5.7844Y-6.91
X5.8Y-9.03
X5.8Y-9.07
X5.8Y-9.11
X5.8146Y-8.9
X5.815Y-9.245
X5.82Y-7.07
X5.821Y-6.7911
X5.84Y-9.03
X5.84Y-9.07
X5.84Y-9.11
X5.84Y-9.271
X5.8663Y-9.2954
X5.88Y-9.03
X5.88Y-9.07
X5.88Y-9.11
X5.892Y-9.476
X5.92Y-7.18
X5.93Y-8.87
X5.945Y-2.14
X5.948Y-9.372
X5.97Y-6.91
X5.972Y-9.27
X5.985Y-2.1936
X5.997Y-9.242
X5.998Y-8.993
X6.026Y-9.298
X6.06Y-1.35
X6.06Y-1.83
X6.07Y-8.96
X6.11Y-1.35
X6.11Y-1.83
X6.16Y-1.35
X6.16Y-1.83
X6.16Y-7.18
X6.21Y-1.35
X6.21Y-1.83
X6.23Y-6.77
X6.27Y-1.35
X6.33Y-1.35
X6.36Y-7.18
X6.39Y-1.35
X6.43Y-6.91
X6.57Y-7.18
X6.69Y-6.77
X6.71Y-7.18
X6.83Y-2.92
X6.83Y-3.13
X6.83Y-3.33
X6.87Y-6.91
X7.133Y-4.093
X7.1805Y-4.0455
X7.215Y-4.13
X7.221Y-4.005
X7.2215Y-3.6725
X7.24Y-6.77
X7.27Y-3.448
X7.275Y-4.16
X7.3324Y-3.7374
X7.335Y-3.525
X7.335Y-3.565
X7.335Y-3.605
X7.335Y-7.85
X7.335Y-7.89
X7.335Y-7.93
X7.356Y-3.804
X7.375Y-3.525
X7.375Y-3.565
X7.375Y-3.605
X7.375Y-7.85
X7.375Y-7.89
X7.375Y-7.93
X7.3817Y-3.8856
X7.39Y-4.19
X7.4041Y-3.9131
X7.415Y-3.525
X7.415Y-3.565
X7.415Y-3.605
X7.415Y-7.85
X7.415Y-7.89
X7.415Y-7.93
X7.455Y-3.525
X7.455Y-3.565
X7.455Y-3.605
X7.455Y-7.85
X7.455Y-7.89
X7.455Y-7.93
X7.458Y-3.944
X7.4583Y-3.21
X7.495Y-3.525
X7.495Y-3.565
X7.495Y-3.605
X7.495Y-7.85
X7.495Y-7.89
X7.495Y-7.93
X7.535Y-3.525
X7.535Y-3.565
X7.535Y-3.605
X7.535Y-7.677
X7.535Y-7.85
X7.535Y-7.89
X7.535Y-7.93
X7.535Y-8.191
X7.5606Y-7.65
X7.575Y-3.525
X7.575Y-3.565
X7.575Y-3.605
X7.575Y-7.85
X7.575Y-7.89
X7.575Y-7.93
X7.586Y-7.7
X7.5862Y-8.16
X7.61Y-4.15
X7.612Y-7.726
X7.612Y-8.185
X7.615Y-3.525
X7.615Y-3.565
X7.615Y-3.605
X7.615Y-7.85
X7.615Y-7.89
X7.615Y-7.93
X7.6374Y-8.21
X7.655Y-3.525
X7.655Y-3.565
X7.655Y-3.605
X7.655Y-7.85
X7.655Y-7.89
X7.655Y-7.93
X7.663Y-8.06
X7.69Y-6.77
X7.71Y-4.15
X7.715Y-3.3208
X7.715Y-3.365
X7.715Y-3.41
X7.75Y-8.39
X7.91Y-4.15
X7.91Y-4.51
X8.01Y-4.15
X8.01Y-4.51
X8.01Y-4.61
X8.11Y-4.15
X8.11Y-4.61
X8.11Y-4.71
X8.21Y-4.21
X8.21Y-4.71
X8.26Y-6.77
X8.31Y-4.21
X8.31Y-4.31
X8.41Y-4.21
X8.41Y-4.31
X8.41Y-4.41
X8.51Y-4.41
X8.51Y-4.51
X8.5786Y-4.32
X8.5786Y-4.37
X8.5872Y-4.4711
X8.59Y-6.597
X8.6286Y-4.32
X8.6286Y-4.37
X8.6659Y-6.7198
X8.678Y-4.32
X8.678Y-4.37
X8.7286Y-4.32
X8.7286Y-4.37
X8.74Y-1.3491
X8.74Y-1.421
X8.7786Y-4.32
X8.7786Y-4.37
X8.8Y-6.14
X8.8Y-6.28
X8.8Y-6.41
X8.86Y-1.4212
X8.86Y-1.5712
X8.86Y-6.08
X8.91Y-4.31
X8.91Y-4.41
X8.91Y-4.51
X8.91Y-4.61
X8.91Y-4.71
X8.91Y-4.81
X8.91Y-4.91
X8.93Y-1.88
X8.93Y-2.02
X8.939Y-1.471
X8.94Y-1.41
X8.969Y-1.521
X9.0Y-1.67
X9.01Y-4.41
X9.01Y-4.51
X9.01Y-4.61
X9.01Y-4.71
X9.01Y-4.81
X9.01Y-4.91
X9.01Y-5.01
X9.0326Y-1.35
X9.04Y-7.77
X9.065Y-1.3862
X9.11Y-4.51
X9.11Y-4.61
X9.11Y-4.71
X9.11Y-4.81
X9.11Y-4.91
X9.11Y-5.01
X9.15Y-1.45
X9.15Y-1.53
X9.1639Y-1.8714
X9.17Y-7.57
X9.21Y-4.81
X9.21Y-4.91
X9.21Y-5.11
X9.24Y-7.5
X9.25Y-1.45
X9.31Y-7.44
X9.36Y-1.7441
X9.3874Y-2.01
X9.42Y-1.5712
X9.42Y-1.6212
X9.434Y-1.771
X9.457Y-1.823
X9.481Y-1.672
X9.505Y-1.721
X9.68Y-2.835
X9.741Y-2.0009
X9.8309Y-2.2714
T3
X2.496Y-9.676
X2.563Y-9.676
X2.66Y-9.434
X2.6608Y-9.5061
X2.697Y-9.676
X2.76Y-9.4326
X2.76Y-9.5074
X2.86Y-9.4341
X2.86Y-9.5059
T4
X1.5Y-3.626
X1.5Y-3.7257
X1.5Y-3.826
X1.6Y-9.0273
X1.61Y-9.1927
X2.0495Y-5.583
X2.05Y-5.539
X2.271Y-5.521
X2.271Y-5.583
X2.35Y-9.218
X2.47Y-9.98
X2.47Y-10.05
X2.47Y-10.12
X2.47Y-10.19
X2.5387Y-9.47
X2.55Y-9.98
X2.55Y-10.05
X2.55Y-10.12
X2.55Y-10.19
X2.63Y-9.98
X2.63Y-10.05
X2.63Y-10.12
X2.63Y-10.19
X2.71Y-9.98
X2.71Y-10.05
X2.71Y-10.12
X2.71Y-10.19
X2.79Y-9.98
X2.79Y-10.05
X2.79Y-10.12
X2.79Y-10.19
X2.88Y-1.875
X2.99Y-9.73
X2.99Y-9.95
X2.99Y-10.17
X3.06Y-9.73
X3.06Y-9.95
X3.06Y-10.17
X3.5747Y-9.73
X3.5747Y-9.95
X3.5747Y-10.17
X3.65Y-9.73
X3.65Y-9.95
X3.65Y-10.17
X4.025Y-9.9502
X4.025Y-10.205
X8.6778Y-4.223
X9.0297Y-2.5848
X9.0297Y-2.6513
X9.0297Y-2.7242
X9.19Y-4.655
X9.336Y-5.3049
T5
X1.29Y-8.99
X1.29Y-9.19
T6
X2.88Y-1.285
X2.88Y-1.335
X2.88Y-1.385
X2.88Y-1.435
X2.88Y-1.485
X2.88Y-1.535
T7
X1.475Y-5.725
X1.498Y-5.286
X1.498Y-6.164
X1.5668Y-4.8518
X1.5668Y-6.5982
X1.575Y-5.725
X1.598Y-5.286
X1.598Y-6.164
X1.6668Y-4.8518
X1.6668Y-6.5982
X1.6806Y-4.4271
X1.6806Y-7.0229
X1.775Y-5.725
X1.7806Y-4.4271
X1.7806Y-7.0229
X1.8381Y-4.0167
X1.8381Y-7.4333
X1.875Y-5.725
X1.9381Y-4.0167
X1.9381Y-7.4333
X2.0377Y-3.625
X2.0377Y-7.825
X2.1377Y-3.625
X2.1377Y-7.825
X2.2771Y-3.2563
X2.2771Y-8.1937
X2.2975Y-3.775
X2.2975Y-7.675
X2.3771Y-3.2563
X2.3771Y-8.1937
X2.3975Y-3.775
X2.3975Y-7.675
X2.5538Y-2.9147
X2.5538Y-8.5353
X2.6538Y-2.9147
X2.6538Y-8.5353
X2.8647Y-2.6038
X2.8647Y-8.8462
X2.925Y-4.975
X2.925Y-5.225
X2.925Y-5.475
X2.925Y-5.725
X2.925Y-5.975
X2.925Y-6.225
X2.925Y-6.475
X2.9647Y-2.6038
X2.9647Y-8.8462
X3.025Y-4.975
X3.025Y-5.225
X3.025Y-5.475
X3.025Y-5.725
X3.025Y-5.975
X3.025Y-6.225
X3.025Y-6.475
X3.175Y-4.975
X3.175Y-5.225
X3.175Y-5.475
X3.175Y-5.725
X3.175Y-5.975
X3.175Y-6.225
X3.175Y-6.475
X3.2063Y-2.3271
X3.2063Y-9.1229
X3.275Y-4.975
X3.275Y-5.225
X3.275Y-5.475
X3.275Y-5.725
X3.275Y-5.975
X3.275Y-6.225
X3.275Y-6.475
X3.3063Y-2.3271
X3.3063Y-9.1229
X3.425Y-4.975
X3.425Y-5.225
X3.425Y-5.475
X3.425Y-5.725
X3.425Y-5.975
X3.425Y-6.225
X3.425Y-6.475
X3.525Y-4.975
X3.525Y-5.225
X3.525Y-5.475
X3.525Y-5.725
X3.525Y-5.975
X3.525Y-6.225
X3.525Y-6.475
X3.575Y-2.0877
X3.575Y-9.3623
X3.675Y-2.0877
X3.675Y-4.975
X3.675Y-5.225
X3.675Y-5.475
X3.675Y-5.725
X3.675Y-5.975
X3.675Y-6.225
X3.675Y-6.475
X3.675Y-9.3623
X3.725Y-2.3475
X3.725Y-9.1025
X3.775Y-4.975
X3.775Y-5.225
X3.775Y-5.475
X3.775Y-5.725
X3.775Y-5.975
X3.775Y-6.225
X3.775Y-6.475
X3.825Y-2.3475
X3.825Y-9.1025
X3.925Y-4.975
X3.925Y-5.225
X3.925Y-5.475
X3.925Y-5.725
X3.925Y-5.975
X3.925Y-6.225
X3.925Y-6.475
X3.9667Y-1.8881
X3.9667Y-9.5619
X4.025Y-4.975
X4.025Y-5.225
X4.025Y-5.475
X4.025Y-5.725
X4.025Y-5.975
X4.025Y-6.225
X4.025Y-6.475
X4.0667Y-1.8881
X4.0667Y-9.5619
X4.275Y-4.975
X4.275Y-5.225
X4.275Y-5.475
X4.275Y-5.725
X4.275Y-5.975
X4.275Y-6.225
X4.275Y-6.475
X4.375Y-4.975
X4.375Y-5.225
X4.375Y-5.475
X4.375Y-5.725
X4.375Y-5.975
X4.375Y-6.225
X4.375Y-6.475
X4.3771Y-1.7306
X4.3771Y-9.7194
X4.4771Y-1.7306
X4.4771Y-9.7194
X4.525Y-4.975
X4.525Y-5.225
X4.525Y-5.475
X4.525Y-5.725
X4.525Y-5.975
X4.525Y-6.225
X4.525Y-6.475
X4.625Y-4.975
X4.625Y-5.225
X4.625Y-5.475
X4.625Y-5.725
X4.625Y-5.975
X4.625Y-6.225
X4.625Y-6.475
X4.74Y-2.925
X4.74Y-3.125
X4.74Y-3.325
X4.74Y-3.525
X4.74Y-3.725
X4.74Y-3.925
X4.74Y-4.125
X4.74Y-7.325
X4.74Y-7.525
X4.74Y-7.725
X4.74Y-7.925
X4.74Y-8.125
X4.74Y-8.325
X4.74Y-8.525
X4.775Y-4.975
X4.775Y-5.225
X4.775Y-5.475
X4.775Y-5.725
X4.775Y-5.975
X4.775Y-6.225
X4.775Y-6.475
X4.8018Y-1.6168
X4.8018Y-9.8332
X4.83Y-2.925
X4.83Y-3.125
X4.83Y-3.325
X4.83Y-3.525
X4.83Y-3.725
X4.83Y-3.925
X4.83Y-4.125
X4.83Y-7.325
X4.83Y-7.525
X4.83Y-7.725
X4.83Y-7.925
X4.83Y-8.125
X4.83Y-8.325
X4.83Y-8.525
X4.875Y-4.975
X4.875Y-5.225
X4.875Y-5.475
X4.875Y-5.725
X4.875Y-5.975
X4.875Y-6.225
X4.875Y-6.475
X4.9018Y-1.6168
X4.9018Y-9.8332
X4.94Y-2.925
X4.94Y-3.125
X4.94Y-3.325
X4.94Y-3.525
X4.94Y-3.725
X4.94Y-3.925
X4.94Y-4.125
X4.94Y-7.325
X4.94Y-7.525
X4.94Y-7.725
X4.94Y-7.925
X4.94Y-8.125
X4.94Y-8.325
X4.94Y-8.525
X5.025Y-4.975
X5.025Y-5.225
X5.025Y-5.475
X5.025Y-5.725
X5.025Y-5.975
X5.025Y-6.225
X5.025Y-6.475
X5.03Y-2.925
X5.03Y-3.125
X5.03Y-3.325
X5.03Y-3.525
X5.03Y-3.725
X5.03Y-3.925
X5.03Y-4.125
X5.03Y-7.325
X5.03Y-7.525
X5.03Y-7.725
X5.03Y-7.925
X5.03Y-8.125
X5.03Y-8.325
X5.03Y-8.525
X5.125Y-4.975
X5.125Y-5.225
X5.125Y-5.475
X5.125Y-5.725
X5.125Y-5.975
X5.125Y-6.225
X5.125Y-6.475
X5.14Y-2.925
X5.14Y-3.125
X5.14Y-3.325
X5.14Y-3.525
X5.14Y-3.725
X5.14Y-3.925
X5.14Y-4.125
X5.14Y-7.325
X5.14Y-7.525
X5.14Y-7.725
X5.14Y-7.925
X5.14Y-8.125
X5.14Y-8.325
X5.14Y-8.525
X5.23Y-2.925
X5.23Y-3.125
X5.23Y-3.325
X5.23Y-3.525
X5.23Y-3.725
X5.23Y-3.925
X5.23Y-4.125
X5.23Y-7.325
X5.23Y-7.525
X5.23Y-7.725
X5.23Y-7.925
X5.23Y-8.125
X5.23Y-8.325
X5.23Y-8.525
X5.236Y-1.548
X5.236Y-9.902
X5.275Y-4.975
X5.275Y-5.225
X5.275Y-5.475
X5.275Y-5.725
X5.275Y-5.975
X5.275Y-6.225
X5.275Y-6.475
X5.336Y-1.548
X5.336Y-9.902
X5.34Y-2.925
X5.34Y-3.125
X5.34Y-3.325
X5.34Y-3.525
X5.34Y-3.725
X5.34Y-3.925
X5.34Y-4.125
X5.34Y-7.325
X5.34Y-7.525
X5.34Y-7.725
X5.34Y-7.925
X5.34Y-8.125
X5.34Y-8.325
X5.34Y-8.525
X5.375Y-4.975
X5.375Y-5.225
X5.375Y-5.475
X5.375Y-5.725
X5.375Y-5.975
X5.375Y-6.225
X5.375Y-6.475
X5.43Y-2.925
X5.43Y-3.125
X5.43Y-3.325
X5.43Y-3.525
X5.43Y-3.725
X5.43Y-3.925
X5.43Y-4.125
X5.43Y-7.325
X5.43Y-7.525
X5.43Y-7.725
X5.43Y-7.925
X5.43Y-8.125
X5.43Y-8.325
X5.43Y-8.525
X5.54Y-2.925
X5.54Y-3.125
X5.54Y-3.325
X5.54Y-3.525
X5.54Y-3.725
X5.54Y-3.925
X5.54Y-4.125
X5.54Y-7.325
X5.54Y-7.525
X5.54Y-7.725
X5.54Y-7.925
X5.54Y-8.125
X5.54Y-8.325
X5.54Y-8.525
X5.63Y-2.925
X5.63Y-3.125
X5.63Y-3.325
X5.63Y-3.525
X5.63Y-3.725
X5.63Y-3.925
X5.63Y-4.125
X5.63Y-7.325
X5.63Y-7.525
X5.63Y-7.725
X5.63Y-7.925
X5.63Y-8.125
X5.63Y-8.325
X5.63Y-8.525
X5.675Y-1.525
X5.675Y-1.825
X5.675Y-5.425
X5.675Y-6.025
X5.675Y-9.625
X5.675Y-9.925
X5.775Y-1.525
X5.775Y-1.825
X5.775Y-5.425
X5.775Y-6.025
X5.775Y-9.625
X5.775Y-9.925
X5.82Y-2.925
X5.82Y-3.125
X5.82Y-3.325
X5.82Y-3.525
X5.82Y-3.725
X5.82Y-3.925
X5.82Y-4.125
X5.82Y-7.325
X5.82Y-7.525
X5.82Y-7.725
X5.82Y-7.925
X5.82Y-8.125
X5.82Y-8.325
X5.82Y-8.525
X5.91Y-2.925
X5.91Y-3.125
X5.91Y-3.325
X5.91Y-3.525
X5.91Y-3.725
X5.91Y-3.925
X5.91Y-4.125
X5.91Y-7.325
X5.91Y-7.525
X5.91Y-7.725
X5.91Y-7.925
X5.91Y-8.125
X5.91Y-8.325
X5.91Y-8.525
X6.02Y-2.925
X6.02Y-3.125
X6.02Y-3.325
X6.02Y-3.525
X6.02Y-3.725
X6.02Y-3.925
X6.02Y-4.125
X6.02Y-7.325
X6.02Y-7.525
X6.02Y-7.725
X6.02Y-7.925
X6.02Y-8.125
X6.02Y-8.325
X6.02Y-8.525
X6.075Y-4.975
X6.075Y-5.225
X6.075Y-5.475
X6.075Y-5.725
X6.075Y-5.975
X6.075Y-6.225
X6.075Y-6.475
X6.11Y-2.925
X6.11Y-3.125
X6.11Y-3.325
X6.11Y-3.525
X6.11Y-3.725
X6.11Y-3.925
X6.11Y-4.125
X6.11Y-7.325
X6.11Y-7.525
X6.11Y-7.725
X6.11Y-7.925
X6.11Y-8.125
X6.11Y-8.325
X6.11Y-8.525
X6.114Y-1.548
X6.114Y-9.902
X6.175Y-4.975
X6.175Y-5.225
X6.175Y-5.475
X6.175Y-5.725
X6.175Y-5.975
X6.175Y-6.225
X6.175Y-6.475
X6.214Y-1.548
X6.214Y-9.902
X6.22Y-2.925
X6.22Y-3.125
X6.22Y-3.325
X6.22Y-3.525
X6.22Y-3.725
X6.22Y-3.925
X6.22Y-4.125
X6.22Y-7.325
X6.22Y-7.525
X6.22Y-7.725
X6.22Y-7.925
X6.22Y-8.125
X6.22Y-8.325
X6.22Y-8.525
X6.31Y-2.925
X6.31Y-3.125
X6.31Y-3.325
X6.31Y-3.525
X6.31Y-3.725
X6.31Y-3.925
X6.31Y-4.125
X6.31Y-7.325
X6.31Y-7.525
X6.31Y-7.725
X6.31Y-7.925
X6.31Y-8.125
X6.31Y-8.325
X6.31Y-8.525
X6.325Y-4.975
X6.325Y-5.225
X6.325Y-5.475
X6.325Y-5.725
X6.325Y-5.975
X6.325Y-6.225
X6.325Y-6.475
X6.42Y-2.925
X6.42Y-3.125
X6.42Y-3.325
X6.42Y-3.525
X6.42Y-3.725
X6.42Y-3.925
X6.42Y-4.125
X6.42Y-7.325
X6.42Y-7.525
X6.42Y-7.725
X6.42Y-7.925
X6.42Y-8.125
X6.42Y-8.325
X6.42Y-8.525
X6.425Y-4.975
X6.425Y-5.225
X6.425Y-5.475
X6.425Y-5.725
X6.425Y-5.975
X6.425Y-6.225
X6.425Y-6.475
X6.51Y-2.925
X6.51Y-3.125
X6.51Y-3.325
X6.51Y-3.525
X6.51Y-3.725
X6.51Y-3.925
X6.51Y-4.125
X6.51Y-7.325
X6.51Y-7.525
X6.51Y-7.725
X6.51Y-7.925
X6.51Y-8.125
X6.51Y-8.325
X6.51Y-8.525
X6.5482Y-1.6168
X6.5482Y-9.8332
X6.575Y-4.975
X6.575Y-5.225
X6.575Y-5.475
X6.575Y-5.725
X6.575Y-5.975
X6.575Y-6.225
X6.575Y-6.475
X6.62Y-2.925
X6.62Y-3.125
X6.62Y-3.325
X6.62Y-3.525
X6.62Y-3.725
X6.62Y-3.925
X6.62Y-4.125
X6.62Y-7.325
X6.62Y-7.525
X6.62Y-7.725
X6.62Y-7.925
X6.62Y-8.125
X6.62Y-8.325
X6.62Y-8.525
X6.6482Y-1.6168
X6.6482Y-9.8332
X6.675Y-4.975
X6.675Y-5.225
X6.675Y-5.475
X6.675Y-5.725
X6.675Y-5.975
X6.675Y-6.225
X6.675Y-6.475
X6.71Y-2.925
X6.71Y-3.125
X6.71Y-3.325
X6.71Y-3.525
X6.71Y-3.725
X6.71Y-3.925
X6.71Y-4.125
X6.71Y-7.325
X6.71Y-7.525
X6.71Y-7.725
X6.71Y-7.925
X6.71Y-8.125
X6.71Y-8.325
X6.71Y-8.525
X6.825Y-4.975
X6.825Y-5.225
X6.825Y-5.475
X6.825Y-5.725
X6.825Y-5.975
X6.825Y-6.225
X6.825Y-6.475
X6.925Y-4.975
X6.925Y-5.225
X6.925Y-5.475
X6.925Y-5.725
X6.925Y-5.975
X6.925Y-6.225
X6.925Y-6.475
X6.9729Y-1.7306
X6.9729Y-9.7194
X7.0729Y-1.7306
X7.0729Y-9.7194
X7.075Y-4.975
X7.075Y-5.225
X7.075Y-5.475
X7.075Y-5.725
X7.075Y-5.975
X7.075Y-6.225
X7.075Y-6.475
X7.175Y-4.975
X7.175Y-5.225
X7.175Y-5.475
X7.175Y-5.725
X7.175Y-5.975
X7.175Y-6.225
X7.175Y-6.475
X7.3833Y-1.8881
X7.3833Y-9.5619
X7.425Y-4.975
X7.425Y-5.225
X7.425Y-5.475
X7.425Y-5.725
X7.425Y-5.975
X7.425Y-6.225
X7.425Y-6.475
X7.4833Y-1.8881
X7.4833Y-9.5619
X7.525Y-4.975
X7.525Y-5.225
X7.525Y-5.475
X7.525Y-5.725
X7.525Y-5.975
X7.525Y-6.225
X7.525Y-6.475
X7.625Y-2.3475
X7.625Y-9.1025
X7.675Y-4.975
X7.675Y-5.225
X7.675Y-5.475
X7.675Y-5.725
X7.675Y-5.975
X7.675Y-6.225
X7.675Y-6.475
X7.725Y-2.3475
X7.725Y-9.1025
X7.775Y-2.0877
X7.775Y-4.975
X7.775Y-5.225
X7.775Y-5.475
X7.775Y-5.725
X7.775Y-5.975
X7.775Y-6.225
X7.775Y-6.475
X7.775Y-9.3623
X7.875Y-2.0877
X7.875Y-9.3623
X7.925Y-4.975
X7.925Y-5.225
X7.925Y-5.475
X7.925Y-5.725
X7.925Y-5.975
X7.925Y-6.225
X7.925Y-6.475
X8.025Y-4.975
X8.025Y-5.225
X8.025Y-5.475
X8.025Y-5.725
X8.025Y-5.975
X8.025Y-6.225
X8.025Y-6.475
X8.1437Y-2.3271
X8.1437Y-9.1229
X8.175Y-4.975
X8.175Y-5.225
X8.175Y-5.475
X8.175Y-5.725
X8.175Y-5.975
X8.175Y-6.225
X8.175Y-6.475
X8.2437Y-2.3271
X8.2437Y-9.1229
X8.275Y-4.975
X8.275Y-5.225
X8.275Y-5.475
X8.275Y-5.725
X8.275Y-5.975
X8.275Y-6.225
X8.275Y-6.475
X8.425Y-4.975
X8.425Y-5.225
X8.425Y-5.475
X8.425Y-5.725
X8.425Y-5.975
X8.425Y-6.225
X8.425Y-6.475
X8.4853Y-2.6038
X8.4853Y-8.8462
X8.525Y-4.975
X8.525Y-5.225
X8.525Y-5.475
X8.525Y-5.725
X8.525Y-5.975
X8.525Y-6.225
X8.525Y-6.475
X8.5853Y-2.6038
X8.5853Y-8.8462
X8.7962Y-2.9147
X8.7962Y-8.5353
X8.8962Y-2.9147
X8.8962Y-8.5353
X9.0525Y-3.775
X9.0525Y-7.675
X9.0729Y-3.2563
X9.0729Y-8.1937
X9.1525Y-3.775
X9.1525Y-7.675
X9.1729Y-3.2563
X9.1729Y-8.1937
X9.3123Y-3.625
X9.3123Y-7.825
X9.4123Y-3.625
X9.4123Y-7.825
X9.5119Y-4.0167
X9.5119Y-7.4333
X9.575Y-5.725
X9.6119Y-4.0167
X9.6119Y-7.4333
X9.6694Y-4.4271
X9.6694Y-7.0229
X9.675Y-5.725
X9.7694Y-4.4271
X9.7694Y-7.0229
X9.7832Y-4.8518
X9.7832Y-6.5982
X9.852Y-5.286
X9.852Y-6.164
X9.875Y-5.725
X9.8832Y-4.8518
X9.8832Y-6.5982
X9.952Y-5.286
X9.952Y-6.164
X9.975Y-5.725
T8
X8.485Y-1.605
X8.485Y-1.705
X8.485Y-1.805
X8.485Y-1.905
T10
X1.59Y-1.775
T11
X1.49Y-1.675
X1.49Y-1.875
X1.69Y-1.675
X1.69Y-1.875
T9
G00X1.7427Y-8.8995
M15
G01X1.7427Y-8.9467
M16
G05
G00X1.8687Y-8.8995
M15
G01X1.8687Y-8.9467
M16
G05
G00X2.0773Y-8.8995
M15
G01X2.0773Y-8.9467
M16
G05
M30
