%TF.GenerationSoftware,KiCad,Pcbnew,8.0.2-1*%
%TF.CreationDate,2024-06-04T17:42:53+02:00*%
%TF.ProjectId,broadcast_clock,62726f61-6463-4617-9374-5f636c6f636b,rev?*%
%TF.SameCoordinates,Original*%
%TF.FileFunction,Legend,Top*%
%TF.FilePolarity,Positive*%
%FSLAX46Y46*%
G04 Gerber Fmt 4.6, Leading zero omitted, Abs format (unit mm)*
G04 Created by KiCad (PCBNEW 8.0.2-1) date 2024-06-04 17:42:53*
%MOMM*%
%LPD*%
G01*
G04 APERTURE LIST*
%ADD10C,0.153000*%
%ADD11C,0.120000*%
%ADD12C,0.500000*%
G04 APERTURE END LIST*
D10*
X240244333Y-148892263D02*
X239911000Y-148416072D01*
X239672905Y-148892263D02*
X239672905Y-147892263D01*
X239672905Y-147892263D02*
X240053857Y-147892263D01*
X240053857Y-147892263D02*
X240149095Y-147939882D01*
X240149095Y-147939882D02*
X240196714Y-147987501D01*
X240196714Y-147987501D02*
X240244333Y-148082739D01*
X240244333Y-148082739D02*
X240244333Y-148225596D01*
X240244333Y-148225596D02*
X240196714Y-148320834D01*
X240196714Y-148320834D02*
X240149095Y-148368453D01*
X240149095Y-148368453D02*
X240053857Y-148416072D01*
X240053857Y-148416072D02*
X239672905Y-148416072D01*
X240577667Y-147892263D02*
X241196714Y-147892263D01*
X241196714Y-147892263D02*
X240863381Y-148273215D01*
X240863381Y-148273215D02*
X241006238Y-148273215D01*
X241006238Y-148273215D02*
X241101476Y-148320834D01*
X241101476Y-148320834D02*
X241149095Y-148368453D01*
X241149095Y-148368453D02*
X241196714Y-148463691D01*
X241196714Y-148463691D02*
X241196714Y-148701786D01*
X241196714Y-148701786D02*
X241149095Y-148797024D01*
X241149095Y-148797024D02*
X241101476Y-148844644D01*
X241101476Y-148844644D02*
X241006238Y-148892263D01*
X241006238Y-148892263D02*
X240720524Y-148892263D01*
X240720524Y-148892263D02*
X240625286Y-148844644D01*
X240625286Y-148844644D02*
X240577667Y-148797024D01*
X68032333Y-139805424D02*
X67984714Y-139853044D01*
X67984714Y-139853044D02*
X67841857Y-139900663D01*
X67841857Y-139900663D02*
X67746619Y-139900663D01*
X67746619Y-139900663D02*
X67603762Y-139853044D01*
X67603762Y-139853044D02*
X67508524Y-139757805D01*
X67508524Y-139757805D02*
X67460905Y-139662567D01*
X67460905Y-139662567D02*
X67413286Y-139472091D01*
X67413286Y-139472091D02*
X67413286Y-139329234D01*
X67413286Y-139329234D02*
X67460905Y-139138758D01*
X67460905Y-139138758D02*
X67508524Y-139043520D01*
X67508524Y-139043520D02*
X67603762Y-138948282D01*
X67603762Y-138948282D02*
X67746619Y-138900663D01*
X67746619Y-138900663D02*
X67841857Y-138900663D01*
X67841857Y-138900663D02*
X67984714Y-138948282D01*
X67984714Y-138948282D02*
X68032333Y-138995901D01*
X68413286Y-138995901D02*
X68460905Y-138948282D01*
X68460905Y-138948282D02*
X68556143Y-138900663D01*
X68556143Y-138900663D02*
X68794238Y-138900663D01*
X68794238Y-138900663D02*
X68889476Y-138948282D01*
X68889476Y-138948282D02*
X68937095Y-138995901D01*
X68937095Y-138995901D02*
X68984714Y-139091139D01*
X68984714Y-139091139D02*
X68984714Y-139186377D01*
X68984714Y-139186377D02*
X68937095Y-139329234D01*
X68937095Y-139329234D02*
X68365667Y-139900663D01*
X68365667Y-139900663D02*
X68984714Y-139900663D01*
X237958333Y-148841463D02*
X237625000Y-148365272D01*
X237386905Y-148841463D02*
X237386905Y-147841463D01*
X237386905Y-147841463D02*
X237767857Y-147841463D01*
X237767857Y-147841463D02*
X237863095Y-147889082D01*
X237863095Y-147889082D02*
X237910714Y-147936701D01*
X237910714Y-147936701D02*
X237958333Y-148031939D01*
X237958333Y-148031939D02*
X237958333Y-148174796D01*
X237958333Y-148174796D02*
X237910714Y-148270034D01*
X237910714Y-148270034D02*
X237863095Y-148317653D01*
X237863095Y-148317653D02*
X237767857Y-148365272D01*
X237767857Y-148365272D02*
X237386905Y-148365272D01*
X238863095Y-147841463D02*
X238386905Y-147841463D01*
X238386905Y-147841463D02*
X238339286Y-148317653D01*
X238339286Y-148317653D02*
X238386905Y-148270034D01*
X238386905Y-148270034D02*
X238482143Y-148222415D01*
X238482143Y-148222415D02*
X238720238Y-148222415D01*
X238720238Y-148222415D02*
X238815476Y-148270034D01*
X238815476Y-148270034D02*
X238863095Y-148317653D01*
X238863095Y-148317653D02*
X238910714Y-148412891D01*
X238910714Y-148412891D02*
X238910714Y-148650986D01*
X238910714Y-148650986D02*
X238863095Y-148746224D01*
X238863095Y-148746224D02*
X238815476Y-148793844D01*
X238815476Y-148793844D02*
X238720238Y-148841463D01*
X238720238Y-148841463D02*
X238482143Y-148841463D01*
X238482143Y-148841463D02*
X238386905Y-148793844D01*
X238386905Y-148793844D02*
X238339286Y-148746224D01*
X236624952Y-43177463D02*
X236291619Y-42701272D01*
X236053524Y-43177463D02*
X236053524Y-42177463D01*
X236053524Y-42177463D02*
X236434476Y-42177463D01*
X236434476Y-42177463D02*
X236529714Y-42225082D01*
X236529714Y-42225082D02*
X236577333Y-42272701D01*
X236577333Y-42272701D02*
X236624952Y-42367939D01*
X236624952Y-42367939D02*
X236624952Y-42510796D01*
X236624952Y-42510796D02*
X236577333Y-42606034D01*
X236577333Y-42606034D02*
X236529714Y-42653653D01*
X236529714Y-42653653D02*
X236434476Y-42701272D01*
X236434476Y-42701272D02*
X236053524Y-42701272D01*
X237005905Y-42272701D02*
X237053524Y-42225082D01*
X237053524Y-42225082D02*
X237148762Y-42177463D01*
X237148762Y-42177463D02*
X237386857Y-42177463D01*
X237386857Y-42177463D02*
X237482095Y-42225082D01*
X237482095Y-42225082D02*
X237529714Y-42272701D01*
X237529714Y-42272701D02*
X237577333Y-42367939D01*
X237577333Y-42367939D02*
X237577333Y-42463177D01*
X237577333Y-42463177D02*
X237529714Y-42606034D01*
X237529714Y-42606034D02*
X236958286Y-43177463D01*
X236958286Y-43177463D02*
X237577333Y-43177463D01*
X238529714Y-43177463D02*
X237958286Y-43177463D01*
X238244000Y-43177463D02*
X238244000Y-42177463D01*
X238244000Y-42177463D02*
X238148762Y-42320320D01*
X238148762Y-42320320D02*
X238053524Y-42415558D01*
X238053524Y-42415558D02*
X237958286Y-42463177D01*
X238863048Y-42177463D02*
X239482095Y-42177463D01*
X239482095Y-42177463D02*
X239148762Y-42558415D01*
X239148762Y-42558415D02*
X239291619Y-42558415D01*
X239291619Y-42558415D02*
X239386857Y-42606034D01*
X239386857Y-42606034D02*
X239434476Y-42653653D01*
X239434476Y-42653653D02*
X239482095Y-42748891D01*
X239482095Y-42748891D02*
X239482095Y-42986986D01*
X239482095Y-42986986D02*
X239434476Y-43082224D01*
X239434476Y-43082224D02*
X239386857Y-43129844D01*
X239386857Y-43129844D02*
X239291619Y-43177463D01*
X239291619Y-43177463D02*
X239005905Y-43177463D01*
X239005905Y-43177463D02*
X238910667Y-43129844D01*
X238910667Y-43129844D02*
X238863048Y-43082224D01*
X185761333Y-194002663D02*
X185428000Y-193526472D01*
X185189905Y-194002663D02*
X185189905Y-193002663D01*
X185189905Y-193002663D02*
X185570857Y-193002663D01*
X185570857Y-193002663D02*
X185666095Y-193050282D01*
X185666095Y-193050282D02*
X185713714Y-193097901D01*
X185713714Y-193097901D02*
X185761333Y-193193139D01*
X185761333Y-193193139D02*
X185761333Y-193335996D01*
X185761333Y-193335996D02*
X185713714Y-193431234D01*
X185713714Y-193431234D02*
X185666095Y-193478853D01*
X185666095Y-193478853D02*
X185570857Y-193526472D01*
X185570857Y-193526472D02*
X185189905Y-193526472D01*
X186094667Y-193002663D02*
X186761333Y-193002663D01*
X186761333Y-193002663D02*
X186332762Y-194002663D01*
X239768142Y-35760663D02*
X239434809Y-35284472D01*
X239196714Y-35760663D02*
X239196714Y-34760663D01*
X239196714Y-34760663D02*
X239577666Y-34760663D01*
X239577666Y-34760663D02*
X239672904Y-34808282D01*
X239672904Y-34808282D02*
X239720523Y-34855901D01*
X239720523Y-34855901D02*
X239768142Y-34951139D01*
X239768142Y-34951139D02*
X239768142Y-35093996D01*
X239768142Y-35093996D02*
X239720523Y-35189234D01*
X239720523Y-35189234D02*
X239672904Y-35236853D01*
X239672904Y-35236853D02*
X239577666Y-35284472D01*
X239577666Y-35284472D02*
X239196714Y-35284472D01*
X240720523Y-35760663D02*
X240149095Y-35760663D01*
X240434809Y-35760663D02*
X240434809Y-34760663D01*
X240434809Y-34760663D02*
X240339571Y-34903520D01*
X240339571Y-34903520D02*
X240244333Y-34998758D01*
X240244333Y-34998758D02*
X240149095Y-35046377D01*
X241672904Y-35760663D02*
X241101476Y-35760663D01*
X241387190Y-35760663D02*
X241387190Y-34760663D01*
X241387190Y-34760663D02*
X241291952Y-34903520D01*
X241291952Y-34903520D02*
X241196714Y-34998758D01*
X241196714Y-34998758D02*
X241101476Y-35046377D01*
X183678533Y-198327024D02*
X183630914Y-198374644D01*
X183630914Y-198374644D02*
X183488057Y-198422263D01*
X183488057Y-198422263D02*
X183392819Y-198422263D01*
X183392819Y-198422263D02*
X183249962Y-198374644D01*
X183249962Y-198374644D02*
X183154724Y-198279405D01*
X183154724Y-198279405D02*
X183107105Y-198184167D01*
X183107105Y-198184167D02*
X183059486Y-197993691D01*
X183059486Y-197993691D02*
X183059486Y-197850834D01*
X183059486Y-197850834D02*
X183107105Y-197660358D01*
X183107105Y-197660358D02*
X183154724Y-197565120D01*
X183154724Y-197565120D02*
X183249962Y-197469882D01*
X183249962Y-197469882D02*
X183392819Y-197422263D01*
X183392819Y-197422263D02*
X183488057Y-197422263D01*
X183488057Y-197422263D02*
X183630914Y-197469882D01*
X183630914Y-197469882D02*
X183678533Y-197517501D01*
X184249962Y-197850834D02*
X184154724Y-197803215D01*
X184154724Y-197803215D02*
X184107105Y-197755596D01*
X184107105Y-197755596D02*
X184059486Y-197660358D01*
X184059486Y-197660358D02*
X184059486Y-197612739D01*
X184059486Y-197612739D02*
X184107105Y-197517501D01*
X184107105Y-197517501D02*
X184154724Y-197469882D01*
X184154724Y-197469882D02*
X184249962Y-197422263D01*
X184249962Y-197422263D02*
X184440438Y-197422263D01*
X184440438Y-197422263D02*
X184535676Y-197469882D01*
X184535676Y-197469882D02*
X184583295Y-197517501D01*
X184583295Y-197517501D02*
X184630914Y-197612739D01*
X184630914Y-197612739D02*
X184630914Y-197660358D01*
X184630914Y-197660358D02*
X184583295Y-197755596D01*
X184583295Y-197755596D02*
X184535676Y-197803215D01*
X184535676Y-197803215D02*
X184440438Y-197850834D01*
X184440438Y-197850834D02*
X184249962Y-197850834D01*
X184249962Y-197850834D02*
X184154724Y-197898453D01*
X184154724Y-197898453D02*
X184107105Y-197946072D01*
X184107105Y-197946072D02*
X184059486Y-198041310D01*
X184059486Y-198041310D02*
X184059486Y-198231786D01*
X184059486Y-198231786D02*
X184107105Y-198327024D01*
X184107105Y-198327024D02*
X184154724Y-198374644D01*
X184154724Y-198374644D02*
X184249962Y-198422263D01*
X184249962Y-198422263D02*
X184440438Y-198422263D01*
X184440438Y-198422263D02*
X184535676Y-198374644D01*
X184535676Y-198374644D02*
X184583295Y-198327024D01*
X184583295Y-198327024D02*
X184630914Y-198231786D01*
X184630914Y-198231786D02*
X184630914Y-198041310D01*
X184630914Y-198041310D02*
X184583295Y-197946072D01*
X184583295Y-197946072D02*
X184535676Y-197898453D01*
X184535676Y-197898453D02*
X184440438Y-197850834D01*
X140276342Y-224076263D02*
X139943009Y-223600072D01*
X139704914Y-224076263D02*
X139704914Y-223076263D01*
X139704914Y-223076263D02*
X140085866Y-223076263D01*
X140085866Y-223076263D02*
X140181104Y-223123882D01*
X140181104Y-223123882D02*
X140228723Y-223171501D01*
X140228723Y-223171501D02*
X140276342Y-223266739D01*
X140276342Y-223266739D02*
X140276342Y-223409596D01*
X140276342Y-223409596D02*
X140228723Y-223504834D01*
X140228723Y-223504834D02*
X140181104Y-223552453D01*
X140181104Y-223552453D02*
X140085866Y-223600072D01*
X140085866Y-223600072D02*
X139704914Y-223600072D01*
X141228723Y-224076263D02*
X140657295Y-224076263D01*
X140943009Y-224076263D02*
X140943009Y-223076263D01*
X140943009Y-223076263D02*
X140847771Y-223219120D01*
X140847771Y-223219120D02*
X140752533Y-223314358D01*
X140752533Y-223314358D02*
X140657295Y-223361977D01*
X141847771Y-223076263D02*
X141943009Y-223076263D01*
X141943009Y-223076263D02*
X142038247Y-223123882D01*
X142038247Y-223123882D02*
X142085866Y-223171501D01*
X142085866Y-223171501D02*
X142133485Y-223266739D01*
X142133485Y-223266739D02*
X142181104Y-223457215D01*
X142181104Y-223457215D02*
X142181104Y-223695310D01*
X142181104Y-223695310D02*
X142133485Y-223885786D01*
X142133485Y-223885786D02*
X142085866Y-223981024D01*
X142085866Y-223981024D02*
X142038247Y-224028644D01*
X142038247Y-224028644D02*
X141943009Y-224076263D01*
X141943009Y-224076263D02*
X141847771Y-224076263D01*
X141847771Y-224076263D02*
X141752533Y-224028644D01*
X141752533Y-224028644D02*
X141704914Y-223981024D01*
X141704914Y-223981024D02*
X141657295Y-223885786D01*
X141657295Y-223885786D02*
X141609676Y-223695310D01*
X141609676Y-223695310D02*
X141609676Y-223457215D01*
X141609676Y-223457215D02*
X141657295Y-223266739D01*
X141657295Y-223266739D02*
X141704914Y-223171501D01*
X141704914Y-223171501D02*
X141752533Y-223123882D01*
X141752533Y-223123882D02*
X141847771Y-223076263D01*
X133691524Y-32727538D02*
X133691524Y-31727538D01*
X133691524Y-31727538D02*
X133929619Y-31727538D01*
X133929619Y-31727538D02*
X134072476Y-31775157D01*
X134072476Y-31775157D02*
X134167714Y-31870395D01*
X134167714Y-31870395D02*
X134215333Y-31965633D01*
X134215333Y-31965633D02*
X134262952Y-32156109D01*
X134262952Y-32156109D02*
X134262952Y-32298966D01*
X134262952Y-32298966D02*
X134215333Y-32489442D01*
X134215333Y-32489442D02*
X134167714Y-32584680D01*
X134167714Y-32584680D02*
X134072476Y-32679919D01*
X134072476Y-32679919D02*
X133929619Y-32727538D01*
X133929619Y-32727538D02*
X133691524Y-32727538D01*
X134596286Y-31727538D02*
X135215333Y-31727538D01*
X135215333Y-31727538D02*
X134882000Y-32108490D01*
X134882000Y-32108490D02*
X135024857Y-32108490D01*
X135024857Y-32108490D02*
X135120095Y-32156109D01*
X135120095Y-32156109D02*
X135167714Y-32203728D01*
X135167714Y-32203728D02*
X135215333Y-32298966D01*
X135215333Y-32298966D02*
X135215333Y-32537061D01*
X135215333Y-32537061D02*
X135167714Y-32632299D01*
X135167714Y-32632299D02*
X135120095Y-32679919D01*
X135120095Y-32679919D02*
X135024857Y-32727538D01*
X135024857Y-32727538D02*
X134739143Y-32727538D01*
X134739143Y-32727538D02*
X134643905Y-32679919D01*
X134643905Y-32679919D02*
X134596286Y-32632299D01*
X136120095Y-31727538D02*
X135643905Y-31727538D01*
X135643905Y-31727538D02*
X135596286Y-32203728D01*
X135596286Y-32203728D02*
X135643905Y-32156109D01*
X135643905Y-32156109D02*
X135739143Y-32108490D01*
X135739143Y-32108490D02*
X135977238Y-32108490D01*
X135977238Y-32108490D02*
X136072476Y-32156109D01*
X136072476Y-32156109D02*
X136120095Y-32203728D01*
X136120095Y-32203728D02*
X136167714Y-32298966D01*
X136167714Y-32298966D02*
X136167714Y-32537061D01*
X136167714Y-32537061D02*
X136120095Y-32632299D01*
X136120095Y-32632299D02*
X136072476Y-32679919D01*
X136072476Y-32679919D02*
X135977238Y-32727538D01*
X135977238Y-32727538D02*
X135739143Y-32727538D01*
X135739143Y-32727538D02*
X135643905Y-32679919D01*
X135643905Y-32679919D02*
X135596286Y-32632299D01*
X136739143Y-32156109D02*
X136643905Y-32108490D01*
X136643905Y-32108490D02*
X136596286Y-32060871D01*
X136596286Y-32060871D02*
X136548667Y-31965633D01*
X136548667Y-31965633D02*
X136548667Y-31918014D01*
X136548667Y-31918014D02*
X136596286Y-31822776D01*
X136596286Y-31822776D02*
X136643905Y-31775157D01*
X136643905Y-31775157D02*
X136739143Y-31727538D01*
X136739143Y-31727538D02*
X136929619Y-31727538D01*
X136929619Y-31727538D02*
X137024857Y-31775157D01*
X137024857Y-31775157D02*
X137072476Y-31822776D01*
X137072476Y-31822776D02*
X137120095Y-31918014D01*
X137120095Y-31918014D02*
X137120095Y-31965633D01*
X137120095Y-31965633D02*
X137072476Y-32060871D01*
X137072476Y-32060871D02*
X137024857Y-32108490D01*
X137024857Y-32108490D02*
X136929619Y-32156109D01*
X136929619Y-32156109D02*
X136739143Y-32156109D01*
X136739143Y-32156109D02*
X136643905Y-32203728D01*
X136643905Y-32203728D02*
X136596286Y-32251347D01*
X136596286Y-32251347D02*
X136548667Y-32346585D01*
X136548667Y-32346585D02*
X136548667Y-32537061D01*
X136548667Y-32537061D02*
X136596286Y-32632299D01*
X136596286Y-32632299D02*
X136643905Y-32679919D01*
X136643905Y-32679919D02*
X136739143Y-32727538D01*
X136739143Y-32727538D02*
X136929619Y-32727538D01*
X136929619Y-32727538D02*
X137024857Y-32679919D01*
X137024857Y-32679919D02*
X137072476Y-32632299D01*
X137072476Y-32632299D02*
X137120095Y-32537061D01*
X137120095Y-32537061D02*
X137120095Y-32346585D01*
X137120095Y-32346585D02*
X137072476Y-32251347D01*
X137072476Y-32251347D02*
X137024857Y-32203728D01*
X137024857Y-32203728D02*
X136929619Y-32156109D01*
X182985424Y-95289666D02*
X183033044Y-95337285D01*
X183033044Y-95337285D02*
X183080663Y-95480142D01*
X183080663Y-95480142D02*
X183080663Y-95575380D01*
X183080663Y-95575380D02*
X183033044Y-95718237D01*
X183033044Y-95718237D02*
X182937805Y-95813475D01*
X182937805Y-95813475D02*
X182842567Y-95861094D01*
X182842567Y-95861094D02*
X182652091Y-95908713D01*
X182652091Y-95908713D02*
X182509234Y-95908713D01*
X182509234Y-95908713D02*
X182318758Y-95861094D01*
X182318758Y-95861094D02*
X182223520Y-95813475D01*
X182223520Y-95813475D02*
X182128282Y-95718237D01*
X182128282Y-95718237D02*
X182080663Y-95575380D01*
X182080663Y-95575380D02*
X182080663Y-95480142D01*
X182080663Y-95480142D02*
X182128282Y-95337285D01*
X182128282Y-95337285D02*
X182175901Y-95289666D01*
X182080663Y-94956332D02*
X182080663Y-94289666D01*
X182080663Y-94289666D02*
X183080663Y-94718237D01*
X52563733Y-148638263D02*
X52230400Y-148162072D01*
X51992305Y-148638263D02*
X51992305Y-147638263D01*
X51992305Y-147638263D02*
X52373257Y-147638263D01*
X52373257Y-147638263D02*
X52468495Y-147685882D01*
X52468495Y-147685882D02*
X52516114Y-147733501D01*
X52516114Y-147733501D02*
X52563733Y-147828739D01*
X52563733Y-147828739D02*
X52563733Y-147971596D01*
X52563733Y-147971596D02*
X52516114Y-148066834D01*
X52516114Y-148066834D02*
X52468495Y-148114453D01*
X52468495Y-148114453D02*
X52373257Y-148162072D01*
X52373257Y-148162072D02*
X51992305Y-148162072D01*
X53516114Y-148638263D02*
X52944686Y-148638263D01*
X53230400Y-148638263D02*
X53230400Y-147638263D01*
X53230400Y-147638263D02*
X53135162Y-147781120D01*
X53135162Y-147781120D02*
X53039924Y-147876358D01*
X53039924Y-147876358D02*
X52944686Y-147923977D01*
X139158742Y-115269024D02*
X139111123Y-115316644D01*
X139111123Y-115316644D02*
X138968266Y-115364263D01*
X138968266Y-115364263D02*
X138873028Y-115364263D01*
X138873028Y-115364263D02*
X138730171Y-115316644D01*
X138730171Y-115316644D02*
X138634933Y-115221405D01*
X138634933Y-115221405D02*
X138587314Y-115126167D01*
X138587314Y-115126167D02*
X138539695Y-114935691D01*
X138539695Y-114935691D02*
X138539695Y-114792834D01*
X138539695Y-114792834D02*
X138587314Y-114602358D01*
X138587314Y-114602358D02*
X138634933Y-114507120D01*
X138634933Y-114507120D02*
X138730171Y-114411882D01*
X138730171Y-114411882D02*
X138873028Y-114364263D01*
X138873028Y-114364263D02*
X138968266Y-114364263D01*
X138968266Y-114364263D02*
X139111123Y-114411882D01*
X139111123Y-114411882D02*
X139158742Y-114459501D01*
X139539695Y-114459501D02*
X139587314Y-114411882D01*
X139587314Y-114411882D02*
X139682552Y-114364263D01*
X139682552Y-114364263D02*
X139920647Y-114364263D01*
X139920647Y-114364263D02*
X140015885Y-114411882D01*
X140015885Y-114411882D02*
X140063504Y-114459501D01*
X140063504Y-114459501D02*
X140111123Y-114554739D01*
X140111123Y-114554739D02*
X140111123Y-114649977D01*
X140111123Y-114649977D02*
X140063504Y-114792834D01*
X140063504Y-114792834D02*
X139492076Y-115364263D01*
X139492076Y-115364263D02*
X140111123Y-115364263D01*
X140444457Y-114364263D02*
X141063504Y-114364263D01*
X141063504Y-114364263D02*
X140730171Y-114745215D01*
X140730171Y-114745215D02*
X140873028Y-114745215D01*
X140873028Y-114745215D02*
X140968266Y-114792834D01*
X140968266Y-114792834D02*
X141015885Y-114840453D01*
X141015885Y-114840453D02*
X141063504Y-114935691D01*
X141063504Y-114935691D02*
X141063504Y-115173786D01*
X141063504Y-115173786D02*
X141015885Y-115269024D01*
X141015885Y-115269024D02*
X140968266Y-115316644D01*
X140968266Y-115316644D02*
X140873028Y-115364263D01*
X140873028Y-115364263D02*
X140587314Y-115364263D01*
X140587314Y-115364263D02*
X140492076Y-115316644D01*
X140492076Y-115316644D02*
X140444457Y-115269024D01*
X57237333Y-148543024D02*
X57189714Y-148590644D01*
X57189714Y-148590644D02*
X57046857Y-148638263D01*
X57046857Y-148638263D02*
X56951619Y-148638263D01*
X56951619Y-148638263D02*
X56808762Y-148590644D01*
X56808762Y-148590644D02*
X56713524Y-148495405D01*
X56713524Y-148495405D02*
X56665905Y-148400167D01*
X56665905Y-148400167D02*
X56618286Y-148209691D01*
X56618286Y-148209691D02*
X56618286Y-148066834D01*
X56618286Y-148066834D02*
X56665905Y-147876358D01*
X56665905Y-147876358D02*
X56713524Y-147781120D01*
X56713524Y-147781120D02*
X56808762Y-147685882D01*
X56808762Y-147685882D02*
X56951619Y-147638263D01*
X56951619Y-147638263D02*
X57046857Y-147638263D01*
X57046857Y-147638263D02*
X57189714Y-147685882D01*
X57189714Y-147685882D02*
X57237333Y-147733501D01*
X58189714Y-148638263D02*
X57618286Y-148638263D01*
X57904000Y-148638263D02*
X57904000Y-147638263D01*
X57904000Y-147638263D02*
X57808762Y-147781120D01*
X57808762Y-147781120D02*
X57713524Y-147876358D01*
X57713524Y-147876358D02*
X57618286Y-147923977D01*
X95845333Y-194129663D02*
X95512000Y-193653472D01*
X95273905Y-194129663D02*
X95273905Y-193129663D01*
X95273905Y-193129663D02*
X95654857Y-193129663D01*
X95654857Y-193129663D02*
X95750095Y-193177282D01*
X95750095Y-193177282D02*
X95797714Y-193224901D01*
X95797714Y-193224901D02*
X95845333Y-193320139D01*
X95845333Y-193320139D02*
X95845333Y-193462996D01*
X95845333Y-193462996D02*
X95797714Y-193558234D01*
X95797714Y-193558234D02*
X95750095Y-193605853D01*
X95750095Y-193605853D02*
X95654857Y-193653472D01*
X95654857Y-193653472D02*
X95273905Y-193653472D01*
X96416762Y-193558234D02*
X96321524Y-193510615D01*
X96321524Y-193510615D02*
X96273905Y-193462996D01*
X96273905Y-193462996D02*
X96226286Y-193367758D01*
X96226286Y-193367758D02*
X96226286Y-193320139D01*
X96226286Y-193320139D02*
X96273905Y-193224901D01*
X96273905Y-193224901D02*
X96321524Y-193177282D01*
X96321524Y-193177282D02*
X96416762Y-193129663D01*
X96416762Y-193129663D02*
X96607238Y-193129663D01*
X96607238Y-193129663D02*
X96702476Y-193177282D01*
X96702476Y-193177282D02*
X96750095Y-193224901D01*
X96750095Y-193224901D02*
X96797714Y-193320139D01*
X96797714Y-193320139D02*
X96797714Y-193367758D01*
X96797714Y-193367758D02*
X96750095Y-193462996D01*
X96750095Y-193462996D02*
X96702476Y-193510615D01*
X96702476Y-193510615D02*
X96607238Y-193558234D01*
X96607238Y-193558234D02*
X96416762Y-193558234D01*
X96416762Y-193558234D02*
X96321524Y-193605853D01*
X96321524Y-193605853D02*
X96273905Y-193653472D01*
X96273905Y-193653472D02*
X96226286Y-193748710D01*
X96226286Y-193748710D02*
X96226286Y-193939186D01*
X96226286Y-193939186D02*
X96273905Y-194034424D01*
X96273905Y-194034424D02*
X96321524Y-194082044D01*
X96321524Y-194082044D02*
X96416762Y-194129663D01*
X96416762Y-194129663D02*
X96607238Y-194129663D01*
X96607238Y-194129663D02*
X96702476Y-194082044D01*
X96702476Y-194082044D02*
X96750095Y-194034424D01*
X96750095Y-194034424D02*
X96797714Y-193939186D01*
X96797714Y-193939186D02*
X96797714Y-193748710D01*
X96797714Y-193748710D02*
X96750095Y-193653472D01*
X96750095Y-193653472D02*
X96702476Y-193605853D01*
X96702476Y-193605853D02*
X96607238Y-193558234D01*
X106443542Y-88294224D02*
X106395923Y-88341844D01*
X106395923Y-88341844D02*
X106253066Y-88389463D01*
X106253066Y-88389463D02*
X106157828Y-88389463D01*
X106157828Y-88389463D02*
X106014971Y-88341844D01*
X106014971Y-88341844D02*
X105919733Y-88246605D01*
X105919733Y-88246605D02*
X105872114Y-88151367D01*
X105872114Y-88151367D02*
X105824495Y-87960891D01*
X105824495Y-87960891D02*
X105824495Y-87818034D01*
X105824495Y-87818034D02*
X105872114Y-87627558D01*
X105872114Y-87627558D02*
X105919733Y-87532320D01*
X105919733Y-87532320D02*
X106014971Y-87437082D01*
X106014971Y-87437082D02*
X106157828Y-87389463D01*
X106157828Y-87389463D02*
X106253066Y-87389463D01*
X106253066Y-87389463D02*
X106395923Y-87437082D01*
X106395923Y-87437082D02*
X106443542Y-87484701D01*
X107395923Y-88389463D02*
X106824495Y-88389463D01*
X107110209Y-88389463D02*
X107110209Y-87389463D01*
X107110209Y-87389463D02*
X107014971Y-87532320D01*
X107014971Y-87532320D02*
X106919733Y-87627558D01*
X106919733Y-87627558D02*
X106824495Y-87675177D01*
X108014971Y-87389463D02*
X108110209Y-87389463D01*
X108110209Y-87389463D02*
X108205447Y-87437082D01*
X108205447Y-87437082D02*
X108253066Y-87484701D01*
X108253066Y-87484701D02*
X108300685Y-87579939D01*
X108300685Y-87579939D02*
X108348304Y-87770415D01*
X108348304Y-87770415D02*
X108348304Y-88008510D01*
X108348304Y-88008510D02*
X108300685Y-88198986D01*
X108300685Y-88198986D02*
X108253066Y-88294224D01*
X108253066Y-88294224D02*
X108205447Y-88341844D01*
X108205447Y-88341844D02*
X108110209Y-88389463D01*
X108110209Y-88389463D02*
X108014971Y-88389463D01*
X108014971Y-88389463D02*
X107919733Y-88341844D01*
X107919733Y-88341844D02*
X107872114Y-88294224D01*
X107872114Y-88294224D02*
X107824495Y-88198986D01*
X107824495Y-88198986D02*
X107776876Y-88008510D01*
X107776876Y-88008510D02*
X107776876Y-87770415D01*
X107776876Y-87770415D02*
X107824495Y-87579939D01*
X107824495Y-87579939D02*
X107872114Y-87484701D01*
X107872114Y-87484701D02*
X107919733Y-87437082D01*
X107919733Y-87437082D02*
X108014971Y-87389463D01*
X52589133Y-154048463D02*
X52255800Y-153572272D01*
X52017705Y-154048463D02*
X52017705Y-153048463D01*
X52017705Y-153048463D02*
X52398657Y-153048463D01*
X52398657Y-153048463D02*
X52493895Y-153096082D01*
X52493895Y-153096082D02*
X52541514Y-153143701D01*
X52541514Y-153143701D02*
X52589133Y-153238939D01*
X52589133Y-153238939D02*
X52589133Y-153381796D01*
X52589133Y-153381796D02*
X52541514Y-153477034D01*
X52541514Y-153477034D02*
X52493895Y-153524653D01*
X52493895Y-153524653D02*
X52398657Y-153572272D01*
X52398657Y-153572272D02*
X52017705Y-153572272D01*
X53446276Y-153381796D02*
X53446276Y-154048463D01*
X53208181Y-153000844D02*
X52970086Y-153715129D01*
X52970086Y-153715129D02*
X53589133Y-153715129D01*
X240218933Y-138738624D02*
X240171314Y-138786244D01*
X240171314Y-138786244D02*
X240028457Y-138833863D01*
X240028457Y-138833863D02*
X239933219Y-138833863D01*
X239933219Y-138833863D02*
X239790362Y-138786244D01*
X239790362Y-138786244D02*
X239695124Y-138691005D01*
X239695124Y-138691005D02*
X239647505Y-138595767D01*
X239647505Y-138595767D02*
X239599886Y-138405291D01*
X239599886Y-138405291D02*
X239599886Y-138262434D01*
X239599886Y-138262434D02*
X239647505Y-138071958D01*
X239647505Y-138071958D02*
X239695124Y-137976720D01*
X239695124Y-137976720D02*
X239790362Y-137881482D01*
X239790362Y-137881482D02*
X239933219Y-137833863D01*
X239933219Y-137833863D02*
X240028457Y-137833863D01*
X240028457Y-137833863D02*
X240171314Y-137881482D01*
X240171314Y-137881482D02*
X240218933Y-137929101D01*
X241076076Y-137833863D02*
X240885600Y-137833863D01*
X240885600Y-137833863D02*
X240790362Y-137881482D01*
X240790362Y-137881482D02*
X240742743Y-137929101D01*
X240742743Y-137929101D02*
X240647505Y-138071958D01*
X240647505Y-138071958D02*
X240599886Y-138262434D01*
X240599886Y-138262434D02*
X240599886Y-138643386D01*
X240599886Y-138643386D02*
X240647505Y-138738624D01*
X240647505Y-138738624D02*
X240695124Y-138786244D01*
X240695124Y-138786244D02*
X240790362Y-138833863D01*
X240790362Y-138833863D02*
X240980838Y-138833863D01*
X240980838Y-138833863D02*
X241076076Y-138786244D01*
X241076076Y-138786244D02*
X241123695Y-138738624D01*
X241123695Y-138738624D02*
X241171314Y-138643386D01*
X241171314Y-138643386D02*
X241171314Y-138405291D01*
X241171314Y-138405291D02*
X241123695Y-138310053D01*
X241123695Y-138310053D02*
X241076076Y-138262434D01*
X241076076Y-138262434D02*
X240980838Y-138214815D01*
X240980838Y-138214815D02*
X240790362Y-138214815D01*
X240790362Y-138214815D02*
X240695124Y-138262434D01*
X240695124Y-138262434D02*
X240647505Y-138310053D01*
X240647505Y-138310053D02*
X240599886Y-138405291D01*
X138041142Y-228349824D02*
X137993523Y-228397444D01*
X137993523Y-228397444D02*
X137850666Y-228445063D01*
X137850666Y-228445063D02*
X137755428Y-228445063D01*
X137755428Y-228445063D02*
X137612571Y-228397444D01*
X137612571Y-228397444D02*
X137517333Y-228302205D01*
X137517333Y-228302205D02*
X137469714Y-228206967D01*
X137469714Y-228206967D02*
X137422095Y-228016491D01*
X137422095Y-228016491D02*
X137422095Y-227873634D01*
X137422095Y-227873634D02*
X137469714Y-227683158D01*
X137469714Y-227683158D02*
X137517333Y-227587920D01*
X137517333Y-227587920D02*
X137612571Y-227492682D01*
X137612571Y-227492682D02*
X137755428Y-227445063D01*
X137755428Y-227445063D02*
X137850666Y-227445063D01*
X137850666Y-227445063D02*
X137993523Y-227492682D01*
X137993523Y-227492682D02*
X138041142Y-227540301D01*
X138993523Y-228445063D02*
X138422095Y-228445063D01*
X138707809Y-228445063D02*
X138707809Y-227445063D01*
X138707809Y-227445063D02*
X138612571Y-227587920D01*
X138612571Y-227587920D02*
X138517333Y-227683158D01*
X138517333Y-227683158D02*
X138422095Y-227730777D01*
X139945904Y-228445063D02*
X139374476Y-228445063D01*
X139660190Y-228445063D02*
X139660190Y-227445063D01*
X139660190Y-227445063D02*
X139564952Y-227587920D01*
X139564952Y-227587920D02*
X139469714Y-227683158D01*
X139469714Y-227683158D02*
X139374476Y-227730777D01*
X113625524Y-32727538D02*
X113625524Y-31727538D01*
X113625524Y-31727538D02*
X113863619Y-31727538D01*
X113863619Y-31727538D02*
X114006476Y-31775157D01*
X114006476Y-31775157D02*
X114101714Y-31870395D01*
X114101714Y-31870395D02*
X114149333Y-31965633D01*
X114149333Y-31965633D02*
X114196952Y-32156109D01*
X114196952Y-32156109D02*
X114196952Y-32298966D01*
X114196952Y-32298966D02*
X114149333Y-32489442D01*
X114149333Y-32489442D02*
X114101714Y-32584680D01*
X114101714Y-32584680D02*
X114006476Y-32679919D01*
X114006476Y-32679919D02*
X113863619Y-32727538D01*
X113863619Y-32727538D02*
X113625524Y-32727538D01*
X114530286Y-31727538D02*
X115149333Y-31727538D01*
X115149333Y-31727538D02*
X114816000Y-32108490D01*
X114816000Y-32108490D02*
X114958857Y-32108490D01*
X114958857Y-32108490D02*
X115054095Y-32156109D01*
X115054095Y-32156109D02*
X115101714Y-32203728D01*
X115101714Y-32203728D02*
X115149333Y-32298966D01*
X115149333Y-32298966D02*
X115149333Y-32537061D01*
X115149333Y-32537061D02*
X115101714Y-32632299D01*
X115101714Y-32632299D02*
X115054095Y-32679919D01*
X115054095Y-32679919D02*
X114958857Y-32727538D01*
X114958857Y-32727538D02*
X114673143Y-32727538D01*
X114673143Y-32727538D02*
X114577905Y-32679919D01*
X114577905Y-32679919D02*
X114530286Y-32632299D01*
X116054095Y-31727538D02*
X115577905Y-31727538D01*
X115577905Y-31727538D02*
X115530286Y-32203728D01*
X115530286Y-32203728D02*
X115577905Y-32156109D01*
X115577905Y-32156109D02*
X115673143Y-32108490D01*
X115673143Y-32108490D02*
X115911238Y-32108490D01*
X115911238Y-32108490D02*
X116006476Y-32156109D01*
X116006476Y-32156109D02*
X116054095Y-32203728D01*
X116054095Y-32203728D02*
X116101714Y-32298966D01*
X116101714Y-32298966D02*
X116101714Y-32537061D01*
X116101714Y-32537061D02*
X116054095Y-32632299D01*
X116054095Y-32632299D02*
X116006476Y-32679919D01*
X116006476Y-32679919D02*
X115911238Y-32727538D01*
X115911238Y-32727538D02*
X115673143Y-32727538D01*
X115673143Y-32727538D02*
X115577905Y-32679919D01*
X115577905Y-32679919D02*
X115530286Y-32632299D01*
X116435048Y-31727538D02*
X117101714Y-31727538D01*
X117101714Y-31727538D02*
X116673143Y-32727538D01*
X227366533Y-148593824D02*
X227318914Y-148641444D01*
X227318914Y-148641444D02*
X227176057Y-148689063D01*
X227176057Y-148689063D02*
X227080819Y-148689063D01*
X227080819Y-148689063D02*
X226937962Y-148641444D01*
X226937962Y-148641444D02*
X226842724Y-148546205D01*
X226842724Y-148546205D02*
X226795105Y-148450967D01*
X226795105Y-148450967D02*
X226747486Y-148260491D01*
X226747486Y-148260491D02*
X226747486Y-148117634D01*
X226747486Y-148117634D02*
X226795105Y-147927158D01*
X226795105Y-147927158D02*
X226842724Y-147831920D01*
X226842724Y-147831920D02*
X226937962Y-147736682D01*
X226937962Y-147736682D02*
X227080819Y-147689063D01*
X227080819Y-147689063D02*
X227176057Y-147689063D01*
X227176057Y-147689063D02*
X227318914Y-147736682D01*
X227318914Y-147736682D02*
X227366533Y-147784301D01*
X228223676Y-148022396D02*
X228223676Y-148689063D01*
X227985581Y-147641444D02*
X227747486Y-148355729D01*
X227747486Y-148355729D02*
X228366533Y-148355729D01*
X153757524Y-32727538D02*
X153757524Y-31727538D01*
X153757524Y-31727538D02*
X153995619Y-31727538D01*
X153995619Y-31727538D02*
X154138476Y-31775157D01*
X154138476Y-31775157D02*
X154233714Y-31870395D01*
X154233714Y-31870395D02*
X154281333Y-31965633D01*
X154281333Y-31965633D02*
X154328952Y-32156109D01*
X154328952Y-32156109D02*
X154328952Y-32298966D01*
X154328952Y-32298966D02*
X154281333Y-32489442D01*
X154281333Y-32489442D02*
X154233714Y-32584680D01*
X154233714Y-32584680D02*
X154138476Y-32679919D01*
X154138476Y-32679919D02*
X153995619Y-32727538D01*
X153995619Y-32727538D02*
X153757524Y-32727538D01*
X154662286Y-31727538D02*
X155281333Y-31727538D01*
X155281333Y-31727538D02*
X154948000Y-32108490D01*
X154948000Y-32108490D02*
X155090857Y-32108490D01*
X155090857Y-32108490D02*
X155186095Y-32156109D01*
X155186095Y-32156109D02*
X155233714Y-32203728D01*
X155233714Y-32203728D02*
X155281333Y-32298966D01*
X155281333Y-32298966D02*
X155281333Y-32537061D01*
X155281333Y-32537061D02*
X155233714Y-32632299D01*
X155233714Y-32632299D02*
X155186095Y-32679919D01*
X155186095Y-32679919D02*
X155090857Y-32727538D01*
X155090857Y-32727538D02*
X154805143Y-32727538D01*
X154805143Y-32727538D02*
X154709905Y-32679919D01*
X154709905Y-32679919D02*
X154662286Y-32632299D01*
X156186095Y-31727538D02*
X155709905Y-31727538D01*
X155709905Y-31727538D02*
X155662286Y-32203728D01*
X155662286Y-32203728D02*
X155709905Y-32156109D01*
X155709905Y-32156109D02*
X155805143Y-32108490D01*
X155805143Y-32108490D02*
X156043238Y-32108490D01*
X156043238Y-32108490D02*
X156138476Y-32156109D01*
X156138476Y-32156109D02*
X156186095Y-32203728D01*
X156186095Y-32203728D02*
X156233714Y-32298966D01*
X156233714Y-32298966D02*
X156233714Y-32537061D01*
X156233714Y-32537061D02*
X156186095Y-32632299D01*
X156186095Y-32632299D02*
X156138476Y-32679919D01*
X156138476Y-32679919D02*
X156043238Y-32727538D01*
X156043238Y-32727538D02*
X155805143Y-32727538D01*
X155805143Y-32727538D02*
X155709905Y-32679919D01*
X155709905Y-32679919D02*
X155662286Y-32632299D01*
X156709905Y-32727538D02*
X156900381Y-32727538D01*
X156900381Y-32727538D02*
X156995619Y-32679919D01*
X156995619Y-32679919D02*
X157043238Y-32632299D01*
X157043238Y-32632299D02*
X157138476Y-32489442D01*
X157138476Y-32489442D02*
X157186095Y-32298966D01*
X157186095Y-32298966D02*
X157186095Y-31918014D01*
X157186095Y-31918014D02*
X157138476Y-31822776D01*
X157138476Y-31822776D02*
X157090857Y-31775157D01*
X157090857Y-31775157D02*
X156995619Y-31727538D01*
X156995619Y-31727538D02*
X156805143Y-31727538D01*
X156805143Y-31727538D02*
X156709905Y-31775157D01*
X156709905Y-31775157D02*
X156662286Y-31822776D01*
X156662286Y-31822776D02*
X156614667Y-31918014D01*
X156614667Y-31918014D02*
X156614667Y-32156109D01*
X156614667Y-32156109D02*
X156662286Y-32251347D01*
X156662286Y-32251347D02*
X156709905Y-32298966D01*
X156709905Y-32298966D02*
X156805143Y-32346585D01*
X156805143Y-32346585D02*
X156995619Y-32346585D01*
X156995619Y-32346585D02*
X157090857Y-32298966D01*
X157090857Y-32298966D02*
X157138476Y-32251347D01*
X157138476Y-32251347D02*
X157186095Y-32156109D01*
X104532133Y-97838263D02*
X104198800Y-97362072D01*
X103960705Y-97838263D02*
X103960705Y-96838263D01*
X103960705Y-96838263D02*
X104341657Y-96838263D01*
X104341657Y-96838263D02*
X104436895Y-96885882D01*
X104436895Y-96885882D02*
X104484514Y-96933501D01*
X104484514Y-96933501D02*
X104532133Y-97028739D01*
X104532133Y-97028739D02*
X104532133Y-97171596D01*
X104532133Y-97171596D02*
X104484514Y-97266834D01*
X104484514Y-97266834D02*
X104436895Y-97314453D01*
X104436895Y-97314453D02*
X104341657Y-97362072D01*
X104341657Y-97362072D02*
X103960705Y-97362072D01*
X105008324Y-97838263D02*
X105198800Y-97838263D01*
X105198800Y-97838263D02*
X105294038Y-97790644D01*
X105294038Y-97790644D02*
X105341657Y-97743024D01*
X105341657Y-97743024D02*
X105436895Y-97600167D01*
X105436895Y-97600167D02*
X105484514Y-97409691D01*
X105484514Y-97409691D02*
X105484514Y-97028739D01*
X105484514Y-97028739D02*
X105436895Y-96933501D01*
X105436895Y-96933501D02*
X105389276Y-96885882D01*
X105389276Y-96885882D02*
X105294038Y-96838263D01*
X105294038Y-96838263D02*
X105103562Y-96838263D01*
X105103562Y-96838263D02*
X105008324Y-96885882D01*
X105008324Y-96885882D02*
X104960705Y-96933501D01*
X104960705Y-96933501D02*
X104913086Y-97028739D01*
X104913086Y-97028739D02*
X104913086Y-97266834D01*
X104913086Y-97266834D02*
X104960705Y-97362072D01*
X104960705Y-97362072D02*
X105008324Y-97409691D01*
X105008324Y-97409691D02*
X105103562Y-97457310D01*
X105103562Y-97457310D02*
X105294038Y-97457310D01*
X105294038Y-97457310D02*
X105389276Y-97409691D01*
X105389276Y-97409691D02*
X105436895Y-97362072D01*
X105436895Y-97362072D02*
X105484514Y-97266834D01*
X150360142Y-115294424D02*
X150312523Y-115342044D01*
X150312523Y-115342044D02*
X150169666Y-115389663D01*
X150169666Y-115389663D02*
X150074428Y-115389663D01*
X150074428Y-115389663D02*
X149931571Y-115342044D01*
X149931571Y-115342044D02*
X149836333Y-115246805D01*
X149836333Y-115246805D02*
X149788714Y-115151567D01*
X149788714Y-115151567D02*
X149741095Y-114961091D01*
X149741095Y-114961091D02*
X149741095Y-114818234D01*
X149741095Y-114818234D02*
X149788714Y-114627758D01*
X149788714Y-114627758D02*
X149836333Y-114532520D01*
X149836333Y-114532520D02*
X149931571Y-114437282D01*
X149931571Y-114437282D02*
X150074428Y-114389663D01*
X150074428Y-114389663D02*
X150169666Y-114389663D01*
X150169666Y-114389663D02*
X150312523Y-114437282D01*
X150312523Y-114437282D02*
X150360142Y-114484901D01*
X150741095Y-114484901D02*
X150788714Y-114437282D01*
X150788714Y-114437282D02*
X150883952Y-114389663D01*
X150883952Y-114389663D02*
X151122047Y-114389663D01*
X151122047Y-114389663D02*
X151217285Y-114437282D01*
X151217285Y-114437282D02*
X151264904Y-114484901D01*
X151264904Y-114484901D02*
X151312523Y-114580139D01*
X151312523Y-114580139D02*
X151312523Y-114675377D01*
X151312523Y-114675377D02*
X151264904Y-114818234D01*
X151264904Y-114818234D02*
X150693476Y-115389663D01*
X150693476Y-115389663D02*
X151312523Y-115389663D01*
X151693476Y-114484901D02*
X151741095Y-114437282D01*
X151741095Y-114437282D02*
X151836333Y-114389663D01*
X151836333Y-114389663D02*
X152074428Y-114389663D01*
X152074428Y-114389663D02*
X152169666Y-114437282D01*
X152169666Y-114437282D02*
X152217285Y-114484901D01*
X152217285Y-114484901D02*
X152264904Y-114580139D01*
X152264904Y-114580139D02*
X152264904Y-114675377D01*
X152264904Y-114675377D02*
X152217285Y-114818234D01*
X152217285Y-114818234D02*
X151645857Y-115389663D01*
X151645857Y-115389663D02*
X152264904Y-115389663D01*
X237932933Y-138713224D02*
X237885314Y-138760844D01*
X237885314Y-138760844D02*
X237742457Y-138808463D01*
X237742457Y-138808463D02*
X237647219Y-138808463D01*
X237647219Y-138808463D02*
X237504362Y-138760844D01*
X237504362Y-138760844D02*
X237409124Y-138665605D01*
X237409124Y-138665605D02*
X237361505Y-138570367D01*
X237361505Y-138570367D02*
X237313886Y-138379891D01*
X237313886Y-138379891D02*
X237313886Y-138237034D01*
X237313886Y-138237034D02*
X237361505Y-138046558D01*
X237361505Y-138046558D02*
X237409124Y-137951320D01*
X237409124Y-137951320D02*
X237504362Y-137856082D01*
X237504362Y-137856082D02*
X237647219Y-137808463D01*
X237647219Y-137808463D02*
X237742457Y-137808463D01*
X237742457Y-137808463D02*
X237885314Y-137856082D01*
X237885314Y-137856082D02*
X237932933Y-137903701D01*
X238266267Y-137808463D02*
X238885314Y-137808463D01*
X238885314Y-137808463D02*
X238551981Y-138189415D01*
X238551981Y-138189415D02*
X238694838Y-138189415D01*
X238694838Y-138189415D02*
X238790076Y-138237034D01*
X238790076Y-138237034D02*
X238837695Y-138284653D01*
X238837695Y-138284653D02*
X238885314Y-138379891D01*
X238885314Y-138379891D02*
X238885314Y-138617986D01*
X238885314Y-138617986D02*
X238837695Y-138713224D01*
X238837695Y-138713224D02*
X238790076Y-138760844D01*
X238790076Y-138760844D02*
X238694838Y-138808463D01*
X238694838Y-138808463D02*
X238409124Y-138808463D01*
X238409124Y-138808463D02*
X238313886Y-138760844D01*
X238313886Y-138760844D02*
X238266267Y-138713224D01*
X194905333Y-97990663D02*
X194572000Y-97514472D01*
X194333905Y-97990663D02*
X194333905Y-96990663D01*
X194333905Y-96990663D02*
X194714857Y-96990663D01*
X194714857Y-96990663D02*
X194810095Y-97038282D01*
X194810095Y-97038282D02*
X194857714Y-97085901D01*
X194857714Y-97085901D02*
X194905333Y-97181139D01*
X194905333Y-97181139D02*
X194905333Y-97323996D01*
X194905333Y-97323996D02*
X194857714Y-97419234D01*
X194857714Y-97419234D02*
X194810095Y-97466853D01*
X194810095Y-97466853D02*
X194714857Y-97514472D01*
X194714857Y-97514472D02*
X194333905Y-97514472D01*
X195762476Y-96990663D02*
X195572000Y-96990663D01*
X195572000Y-96990663D02*
X195476762Y-97038282D01*
X195476762Y-97038282D02*
X195429143Y-97085901D01*
X195429143Y-97085901D02*
X195333905Y-97228758D01*
X195333905Y-97228758D02*
X195286286Y-97419234D01*
X195286286Y-97419234D02*
X195286286Y-97800186D01*
X195286286Y-97800186D02*
X195333905Y-97895424D01*
X195333905Y-97895424D02*
X195381524Y-97943044D01*
X195381524Y-97943044D02*
X195476762Y-97990663D01*
X195476762Y-97990663D02*
X195667238Y-97990663D01*
X195667238Y-97990663D02*
X195762476Y-97943044D01*
X195762476Y-97943044D02*
X195810095Y-97895424D01*
X195810095Y-97895424D02*
X195857714Y-97800186D01*
X195857714Y-97800186D02*
X195857714Y-97562091D01*
X195857714Y-97562091D02*
X195810095Y-97466853D01*
X195810095Y-97466853D02*
X195762476Y-97419234D01*
X195762476Y-97419234D02*
X195667238Y-97371615D01*
X195667238Y-97371615D02*
X195476762Y-97371615D01*
X195476762Y-97371615D02*
X195381524Y-97419234D01*
X195381524Y-97419234D02*
X195333905Y-97466853D01*
X195333905Y-97466853D02*
X195286286Y-97562091D01*
X93762533Y-198327024D02*
X93714914Y-198374644D01*
X93714914Y-198374644D02*
X93572057Y-198422263D01*
X93572057Y-198422263D02*
X93476819Y-198422263D01*
X93476819Y-198422263D02*
X93333962Y-198374644D01*
X93333962Y-198374644D02*
X93238724Y-198279405D01*
X93238724Y-198279405D02*
X93191105Y-198184167D01*
X93191105Y-198184167D02*
X93143486Y-197993691D01*
X93143486Y-197993691D02*
X93143486Y-197850834D01*
X93143486Y-197850834D02*
X93191105Y-197660358D01*
X93191105Y-197660358D02*
X93238724Y-197565120D01*
X93238724Y-197565120D02*
X93333962Y-197469882D01*
X93333962Y-197469882D02*
X93476819Y-197422263D01*
X93476819Y-197422263D02*
X93572057Y-197422263D01*
X93572057Y-197422263D02*
X93714914Y-197469882D01*
X93714914Y-197469882D02*
X93762533Y-197517501D01*
X94238724Y-198422263D02*
X94429200Y-198422263D01*
X94429200Y-198422263D02*
X94524438Y-198374644D01*
X94524438Y-198374644D02*
X94572057Y-198327024D01*
X94572057Y-198327024D02*
X94667295Y-198184167D01*
X94667295Y-198184167D02*
X94714914Y-197993691D01*
X94714914Y-197993691D02*
X94714914Y-197612739D01*
X94714914Y-197612739D02*
X94667295Y-197517501D01*
X94667295Y-197517501D02*
X94619676Y-197469882D01*
X94619676Y-197469882D02*
X94524438Y-197422263D01*
X94524438Y-197422263D02*
X94333962Y-197422263D01*
X94333962Y-197422263D02*
X94238724Y-197469882D01*
X94238724Y-197469882D02*
X94191105Y-197517501D01*
X94191105Y-197517501D02*
X94143486Y-197612739D01*
X94143486Y-197612739D02*
X94143486Y-197850834D01*
X94143486Y-197850834D02*
X94191105Y-197946072D01*
X94191105Y-197946072D02*
X94238724Y-197993691D01*
X94238724Y-197993691D02*
X94333962Y-198041310D01*
X94333962Y-198041310D02*
X94524438Y-198041310D01*
X94524438Y-198041310D02*
X94619676Y-197993691D01*
X94619676Y-197993691D02*
X94667295Y-197946072D01*
X94667295Y-197946072D02*
X94714914Y-197850834D01*
X173823524Y-32727538D02*
X173823524Y-31727538D01*
X173823524Y-31727538D02*
X174061619Y-31727538D01*
X174061619Y-31727538D02*
X174204476Y-31775157D01*
X174204476Y-31775157D02*
X174299714Y-31870395D01*
X174299714Y-31870395D02*
X174347333Y-31965633D01*
X174347333Y-31965633D02*
X174394952Y-32156109D01*
X174394952Y-32156109D02*
X174394952Y-32298966D01*
X174394952Y-32298966D02*
X174347333Y-32489442D01*
X174347333Y-32489442D02*
X174299714Y-32584680D01*
X174299714Y-32584680D02*
X174204476Y-32679919D01*
X174204476Y-32679919D02*
X174061619Y-32727538D01*
X174061619Y-32727538D02*
X173823524Y-32727538D01*
X174728286Y-31727538D02*
X175347333Y-31727538D01*
X175347333Y-31727538D02*
X175014000Y-32108490D01*
X175014000Y-32108490D02*
X175156857Y-32108490D01*
X175156857Y-32108490D02*
X175252095Y-32156109D01*
X175252095Y-32156109D02*
X175299714Y-32203728D01*
X175299714Y-32203728D02*
X175347333Y-32298966D01*
X175347333Y-32298966D02*
X175347333Y-32537061D01*
X175347333Y-32537061D02*
X175299714Y-32632299D01*
X175299714Y-32632299D02*
X175252095Y-32679919D01*
X175252095Y-32679919D02*
X175156857Y-32727538D01*
X175156857Y-32727538D02*
X174871143Y-32727538D01*
X174871143Y-32727538D02*
X174775905Y-32679919D01*
X174775905Y-32679919D02*
X174728286Y-32632299D01*
X176204476Y-31727538D02*
X176014000Y-31727538D01*
X176014000Y-31727538D02*
X175918762Y-31775157D01*
X175918762Y-31775157D02*
X175871143Y-31822776D01*
X175871143Y-31822776D02*
X175775905Y-31965633D01*
X175775905Y-31965633D02*
X175728286Y-32156109D01*
X175728286Y-32156109D02*
X175728286Y-32537061D01*
X175728286Y-32537061D02*
X175775905Y-32632299D01*
X175775905Y-32632299D02*
X175823524Y-32679919D01*
X175823524Y-32679919D02*
X175918762Y-32727538D01*
X175918762Y-32727538D02*
X176109238Y-32727538D01*
X176109238Y-32727538D02*
X176204476Y-32679919D01*
X176204476Y-32679919D02*
X176252095Y-32632299D01*
X176252095Y-32632299D02*
X176299714Y-32537061D01*
X176299714Y-32537061D02*
X176299714Y-32298966D01*
X176299714Y-32298966D02*
X176252095Y-32203728D01*
X176252095Y-32203728D02*
X176204476Y-32156109D01*
X176204476Y-32156109D02*
X176109238Y-32108490D01*
X176109238Y-32108490D02*
X175918762Y-32108490D01*
X175918762Y-32108490D02*
X175823524Y-32156109D01*
X175823524Y-32156109D02*
X175775905Y-32203728D01*
X175775905Y-32203728D02*
X175728286Y-32298966D01*
X176918762Y-31727538D02*
X177014000Y-31727538D01*
X177014000Y-31727538D02*
X177109238Y-31775157D01*
X177109238Y-31775157D02*
X177156857Y-31822776D01*
X177156857Y-31822776D02*
X177204476Y-31918014D01*
X177204476Y-31918014D02*
X177252095Y-32108490D01*
X177252095Y-32108490D02*
X177252095Y-32346585D01*
X177252095Y-32346585D02*
X177204476Y-32537061D01*
X177204476Y-32537061D02*
X177156857Y-32632299D01*
X177156857Y-32632299D02*
X177109238Y-32679919D01*
X177109238Y-32679919D02*
X177014000Y-32727538D01*
X177014000Y-32727538D02*
X176918762Y-32727538D01*
X176918762Y-32727538D02*
X176823524Y-32679919D01*
X176823524Y-32679919D02*
X176775905Y-32632299D01*
X176775905Y-32632299D02*
X176728286Y-32537061D01*
X176728286Y-32537061D02*
X176680667Y-32346585D01*
X176680667Y-32346585D02*
X176680667Y-32108490D01*
X176680667Y-32108490D02*
X176728286Y-31918014D01*
X176728286Y-31918014D02*
X176775905Y-31822776D01*
X176775905Y-31822776D02*
X176823524Y-31775157D01*
X176823524Y-31775157D02*
X176918762Y-31727538D01*
X70242133Y-139805424D02*
X70194514Y-139853044D01*
X70194514Y-139853044D02*
X70051657Y-139900663D01*
X70051657Y-139900663D02*
X69956419Y-139900663D01*
X69956419Y-139900663D02*
X69813562Y-139853044D01*
X69813562Y-139853044D02*
X69718324Y-139757805D01*
X69718324Y-139757805D02*
X69670705Y-139662567D01*
X69670705Y-139662567D02*
X69623086Y-139472091D01*
X69623086Y-139472091D02*
X69623086Y-139329234D01*
X69623086Y-139329234D02*
X69670705Y-139138758D01*
X69670705Y-139138758D02*
X69718324Y-139043520D01*
X69718324Y-139043520D02*
X69813562Y-138948282D01*
X69813562Y-138948282D02*
X69956419Y-138900663D01*
X69956419Y-138900663D02*
X70051657Y-138900663D01*
X70051657Y-138900663D02*
X70194514Y-138948282D01*
X70194514Y-138948282D02*
X70242133Y-138995901D01*
X71146895Y-138900663D02*
X70670705Y-138900663D01*
X70670705Y-138900663D02*
X70623086Y-139376853D01*
X70623086Y-139376853D02*
X70670705Y-139329234D01*
X70670705Y-139329234D02*
X70765943Y-139281615D01*
X70765943Y-139281615D02*
X71004038Y-139281615D01*
X71004038Y-139281615D02*
X71099276Y-139329234D01*
X71099276Y-139329234D02*
X71146895Y-139376853D01*
X71146895Y-139376853D02*
X71194514Y-139472091D01*
X71194514Y-139472091D02*
X71194514Y-139710186D01*
X71194514Y-139710186D02*
X71146895Y-139805424D01*
X71146895Y-139805424D02*
X71099276Y-139853044D01*
X71099276Y-139853044D02*
X71004038Y-139900663D01*
X71004038Y-139900663D02*
X70765943Y-139900663D01*
X70765943Y-139900663D02*
X70670705Y-139853044D01*
X70670705Y-139853044D02*
X70623086Y-139805424D01*
X144176905Y-114262663D02*
X144176905Y-115072186D01*
X144176905Y-115072186D02*
X144224524Y-115167424D01*
X144224524Y-115167424D02*
X144272143Y-115215044D01*
X144272143Y-115215044D02*
X144367381Y-115262663D01*
X144367381Y-115262663D02*
X144557857Y-115262663D01*
X144557857Y-115262663D02*
X144653095Y-115215044D01*
X144653095Y-115215044D02*
X144700714Y-115167424D01*
X144700714Y-115167424D02*
X144748333Y-115072186D01*
X144748333Y-115072186D02*
X144748333Y-114262663D01*
X145748333Y-115262663D02*
X145176905Y-115262663D01*
X145462619Y-115262663D02*
X145462619Y-114262663D01*
X145462619Y-114262663D02*
X145367381Y-114405520D01*
X145367381Y-114405520D02*
X145272143Y-114500758D01*
X145272143Y-114500758D02*
X145176905Y-114548377D01*
X146653095Y-114262663D02*
X146176905Y-114262663D01*
X146176905Y-114262663D02*
X146129286Y-114738853D01*
X146129286Y-114738853D02*
X146176905Y-114691234D01*
X146176905Y-114691234D02*
X146272143Y-114643615D01*
X146272143Y-114643615D02*
X146510238Y-114643615D01*
X146510238Y-114643615D02*
X146605476Y-114691234D01*
X146605476Y-114691234D02*
X146653095Y-114738853D01*
X146653095Y-114738853D02*
X146700714Y-114834091D01*
X146700714Y-114834091D02*
X146700714Y-115072186D01*
X146700714Y-115072186D02*
X146653095Y-115167424D01*
X146653095Y-115167424D02*
X146605476Y-115215044D01*
X146605476Y-115215044D02*
X146510238Y-115262663D01*
X146510238Y-115262663D02*
X146272143Y-115262663D01*
X146272143Y-115262663D02*
X146176905Y-115215044D01*
X146176905Y-115215044D02*
X146129286Y-115167424D01*
D11*
%TO.C,D225*%
X125059000Y-210219000D02*
X125059000Y-210375000D01*
X125059000Y-212535000D02*
X125059000Y-212691000D01*
X125059000Y-210219484D02*
G75*
G02*
X128291335Y-210376392I1560000J-1235517D01*
G01*
X125578039Y-210375000D02*
G75*
G02*
X127660130Y-210375163I1040961J-1080000D01*
G01*
X127660130Y-212534837D02*
G75*
G02*
X125578039Y-212535000I-1041130J1079837D01*
G01*
X128291335Y-212533608D02*
G75*
G02*
X125059000Y-212690516I-1672335J1078609D01*
G01*
%TO.C,D254*%
X147411000Y-215299000D02*
X147411000Y-215455000D01*
X147411000Y-217615000D02*
X147411000Y-217771000D01*
X147411000Y-215299484D02*
G75*
G02*
X150643335Y-215456392I1560000J-1235517D01*
G01*
X147930039Y-215455000D02*
G75*
G02*
X150012130Y-215455163I1040961J-1080000D01*
G01*
X150012130Y-217614837D02*
G75*
G02*
X147930039Y-217615000I-1041130J1079837D01*
G01*
X150643335Y-217613608D02*
G75*
G02*
X147411000Y-217770516I-1672335J1078609D01*
G01*
%TO.C,D103*%
X98405000Y-137520000D02*
X98405000Y-140610000D01*
X98405000Y-137520170D02*
G75*
G02*
X103955000Y-139065462I2560000J-1544830D01*
G01*
X103955000Y-139064538D02*
G75*
G02*
X98405000Y-140609830I-2990000J-462D01*
G01*
X103465000Y-139065000D02*
G75*
G02*
X98465000Y-139065000I-2500000J0D01*
G01*
X98465000Y-139065000D02*
G75*
G02*
X103465000Y-139065000I2500000J0D01*
G01*
%TO.C,D54*%
X80150069Y-57564067D02*
X80150069Y-60654067D01*
X80150069Y-57564237D02*
G75*
G02*
X85700069Y-59109529I2560000J-1544830D01*
G01*
X85700069Y-59108605D02*
G75*
G02*
X80150069Y-60653897I-2990000J-462D01*
G01*
X85210069Y-59109067D02*
G75*
G02*
X80210069Y-59109067I-2500000J0D01*
G01*
X80210069Y-59109067D02*
G75*
G02*
X85210069Y-59109067I2500000J0D01*
G01*
%TO.C,D169*%
X172065000Y-156570000D02*
X172065000Y-159660000D01*
X172065000Y-156570170D02*
G75*
G02*
X177615000Y-158115462I2560000J-1544830D01*
G01*
X177615000Y-158114538D02*
G75*
G02*
X172065000Y-159659830I-2990000J-462D01*
G01*
X177125000Y-158115000D02*
G75*
G02*
X172125000Y-158115000I-2500000J0D01*
G01*
X172125000Y-158115000D02*
G75*
G02*
X177125000Y-158115000I2500000J0D01*
G01*
%TO.C,D45*%
X36175000Y-143870000D02*
X36175000Y-146960000D01*
X36175000Y-143870170D02*
G75*
G02*
X41725000Y-145415462I2560000J-1544830D01*
G01*
X41725000Y-145414538D02*
G75*
G02*
X36175000Y-146959830I-2990000J-462D01*
G01*
X41235000Y-145415000D02*
G75*
G02*
X36235000Y-145415000I-2500000J0D01*
G01*
X36235000Y-145415000D02*
G75*
G02*
X41235000Y-145415000I2500000J0D01*
G01*
%TO.C,D65*%
X192385000Y-229658476D02*
X192385000Y-232748476D01*
X192385000Y-229658646D02*
G75*
G02*
X197935000Y-231203938I2560000J-1544830D01*
G01*
X197935000Y-231203014D02*
G75*
G02*
X192385000Y-232748306I-2990000J-462D01*
G01*
X197445000Y-231203476D02*
G75*
G02*
X192445000Y-231203476I-2500000J0D01*
G01*
X192445000Y-231203476D02*
G75*
G02*
X197445000Y-231203476I2500000J0D01*
G01*
%TO.C,D30*%
X142855000Y-250550000D02*
X142855000Y-253640000D01*
X142855000Y-250550170D02*
G75*
G02*
X148405000Y-252095462I2560000J-1544830D01*
G01*
X148405000Y-252094538D02*
G75*
G02*
X142855000Y-253639830I-2990000J-462D01*
G01*
X147915000Y-252095000D02*
G75*
G02*
X142915000Y-252095000I-2500000J0D01*
G01*
X142915000Y-252095000D02*
G75*
G02*
X147915000Y-252095000I2500000J0D01*
G01*
%TO.C,D128*%
X119995000Y-162920000D02*
X119995000Y-166010000D01*
X119995000Y-162920170D02*
G75*
G02*
X125545000Y-164465462I2560000J-1544830D01*
G01*
X125545000Y-164464538D02*
G75*
G02*
X119995000Y-166009830I-2990000J-462D01*
G01*
X125055000Y-164465000D02*
G75*
G02*
X120055000Y-164465000I-2500000J0D01*
G01*
X120055000Y-164465000D02*
G75*
G02*
X125055000Y-164465000I2500000J0D01*
G01*
%TO.C,D109*%
X107295000Y-131170000D02*
X107295000Y-134260000D01*
X107295000Y-131170170D02*
G75*
G02*
X112845000Y-132715462I2560000J-1544830D01*
G01*
X112845000Y-132714538D02*
G75*
G02*
X107295000Y-134259830I-2990000J-462D01*
G01*
X112355000Y-132715000D02*
G75*
G02*
X107355000Y-132715000I-2500000J0D01*
G01*
X107355000Y-132715000D02*
G75*
G02*
X112355000Y-132715000I2500000J0D01*
G01*
%TO.C,D353*%
X142855000Y-136250000D02*
X142855000Y-139340000D01*
X142855000Y-136250170D02*
G75*
G02*
X148405000Y-137795462I2560000J-1544830D01*
G01*
X148405000Y-137794538D02*
G75*
G02*
X142855000Y-139339830I-2990000J-462D01*
G01*
X147915000Y-137795000D02*
G75*
G02*
X142915000Y-137795000I-2500000J0D01*
G01*
X142915000Y-137795000D02*
G75*
G02*
X147915000Y-137795000I2500000J0D01*
G01*
%TO.C,D85*%
X79355000Y-156570000D02*
X79355000Y-159660000D01*
X79355000Y-156570170D02*
G75*
G02*
X84905000Y-158115462I2560000J-1544830D01*
G01*
X84905000Y-158114538D02*
G75*
G02*
X79355000Y-159659830I-2990000J-462D01*
G01*
X84415000Y-158115000D02*
G75*
G02*
X79415000Y-158115000I-2500000J0D01*
G01*
X79415000Y-158115000D02*
G75*
G02*
X84415000Y-158115000I2500000J0D01*
G01*
%TO.C,D238*%
X135219000Y-205139000D02*
X135219000Y-205295000D01*
X135219000Y-207455000D02*
X135219000Y-207611000D01*
X135219000Y-205139484D02*
G75*
G02*
X138451335Y-205296392I1560000J-1235517D01*
G01*
X135738039Y-205295000D02*
G75*
G02*
X137820130Y-205295163I1040961J-1080000D01*
G01*
X137820130Y-207454837D02*
G75*
G02*
X135738039Y-207455000I-1041130J1079837D01*
G01*
X138451335Y-207453608D02*
G75*
G02*
X135219000Y-207610516I-1672335J1078609D01*
G01*
%TO.C,D26*%
X186245665Y-241327029D02*
X186245665Y-244417029D01*
X186245665Y-241327199D02*
G75*
G02*
X191795665Y-242872491I2560000J-1544830D01*
G01*
X191795665Y-242871567D02*
G75*
G02*
X186245665Y-244416859I-2990000J-462D01*
G01*
X191305665Y-242872029D02*
G75*
G02*
X186305665Y-242872029I-2500000J0D01*
G01*
X186305665Y-242872029D02*
G75*
G02*
X191305665Y-242872029I2500000J0D01*
G01*
%TO.C,D112*%
X107295000Y-150220000D02*
X107295000Y-153310000D01*
X107295000Y-150220170D02*
G75*
G02*
X112845000Y-151765462I2560000J-1544830D01*
G01*
X112845000Y-151764538D02*
G75*
G02*
X107295000Y-153309830I-2990000J-462D01*
G01*
X112355000Y-151765000D02*
G75*
G02*
X107355000Y-151765000I-2500000J0D01*
G01*
X107355000Y-151765000D02*
G75*
G02*
X112355000Y-151765000I2500000J0D01*
G01*
%TO.C,D340*%
X162651000Y-78139000D02*
X162651000Y-78295000D01*
X162651000Y-80455000D02*
X162651000Y-80611000D01*
X162651000Y-78139484D02*
G75*
G02*
X165883335Y-78296392I1560000J-1235517D01*
G01*
X163170039Y-78295000D02*
G75*
G02*
X165252130Y-78295163I1040961J-1080000D01*
G01*
X165252130Y-80454837D02*
G75*
G02*
X163170039Y-80455000I-1041130J1079837D01*
G01*
X165883335Y-80453608D02*
G75*
G02*
X162651000Y-80610516I-1672335J1078609D01*
G01*
%TO.C,D293*%
X125059000Y-88299000D02*
X125059000Y-88455000D01*
X125059000Y-90615000D02*
X125059000Y-90771000D01*
X125059000Y-88299484D02*
G75*
G02*
X128291335Y-88456392I1560000J-1235517D01*
G01*
X125578039Y-88455000D02*
G75*
G02*
X127660130Y-88455163I1040961J-1080000D01*
G01*
X127660130Y-90614837D02*
G75*
G02*
X125578039Y-90615000I-1041130J1079837D01*
G01*
X128291335Y-90613608D02*
G75*
G02*
X125059000Y-90770516I-1672335J1078609D01*
G01*
%TO.C,D110*%
X107295000Y-137520000D02*
X107295000Y-140610000D01*
X107295000Y-137520170D02*
G75*
G02*
X112845000Y-139065462I2560000J-1544830D01*
G01*
X112845000Y-139064538D02*
G75*
G02*
X107295000Y-140609830I-2990000J-462D01*
G01*
X112355000Y-139065000D02*
G75*
G02*
X107355000Y-139065000I-2500000J0D01*
G01*
X107355000Y-139065000D02*
G75*
G02*
X112355000Y-139065000I2500000J0D01*
G01*
%TO.C,D99*%
X92055000Y-156570000D02*
X92055000Y-159660000D01*
X92055000Y-156570170D02*
G75*
G02*
X97605000Y-158115462I2560000J-1544830D01*
G01*
X97605000Y-158114538D02*
G75*
G02*
X92055000Y-159659830I-2990000J-462D01*
G01*
X97115000Y-158115000D02*
G75*
G02*
X92115000Y-158115000I-2500000J0D01*
G01*
X92115000Y-158115000D02*
G75*
G02*
X97115000Y-158115000I2500000J0D01*
G01*
%TO.C,D199*%
X206355000Y-124820000D02*
X206355000Y-127910000D01*
X206355000Y-124820170D02*
G75*
G02*
X211905000Y-126365462I2560000J-1544830D01*
G01*
X211905000Y-126364538D02*
G75*
G02*
X206355000Y-127909830I-2990000J-462D01*
G01*
X211415000Y-126365000D02*
G75*
G02*
X206415000Y-126365000I-2500000J0D01*
G01*
X206415000Y-126365000D02*
G75*
G02*
X211415000Y-126365000I2500000J0D01*
G01*
%TO.C,D177*%
X178415000Y-162920000D02*
X178415000Y-166010000D01*
X178415000Y-162920170D02*
G75*
G02*
X183965000Y-164465462I2560000J-1544830D01*
G01*
X183965000Y-164464538D02*
G75*
G02*
X178415000Y-166009830I-2990000J-462D01*
G01*
X183475000Y-164465000D02*
G75*
G02*
X178475000Y-164465000I-2500000J0D01*
G01*
X178475000Y-164465000D02*
G75*
G02*
X183475000Y-164465000I2500000J0D01*
G01*
%TO.C,D111*%
X107295000Y-143870000D02*
X107295000Y-146960000D01*
X107295000Y-143870170D02*
G75*
G02*
X112845000Y-145415462I2560000J-1544830D01*
G01*
X112845000Y-145414538D02*
G75*
G02*
X107295000Y-146959830I-2990000J-462D01*
G01*
X112355000Y-145415000D02*
G75*
G02*
X107355000Y-145415000I-2500000J0D01*
G01*
X107355000Y-145415000D02*
G75*
G02*
X112355000Y-145415000I2500000J0D01*
G01*
%TO.C,D1*%
X154006096Y-37774404D02*
X154006096Y-40864404D01*
X154006096Y-37774574D02*
G75*
G02*
X159556096Y-39319866I2560000J-1544830D01*
G01*
X159556096Y-39318942D02*
G75*
G02*
X154006096Y-40864234I-2990000J-462D01*
G01*
X159066096Y-39319404D02*
G75*
G02*
X154066096Y-39319404I-2500000J0D01*
G01*
X154066096Y-39319404D02*
G75*
G02*
X159066096Y-39319404I2500000J0D01*
G01*
%TO.C,R3*%
X239676000Y-151103064D02*
X239676000Y-150648936D01*
X241146000Y-151103064D02*
X241146000Y-150648936D01*
%TO.C,D138*%
X132695000Y-137520000D02*
X132695000Y-140610000D01*
X132695000Y-137520170D02*
G75*
G02*
X138245000Y-139065462I2560000J-1544830D01*
G01*
X138245000Y-139064538D02*
G75*
G02*
X132695000Y-140609830I-2990000J-462D01*
G01*
X137755000Y-139065000D02*
G75*
G02*
X132755000Y-139065000I-2500000J0D01*
G01*
X132755000Y-139065000D02*
G75*
G02*
X137755000Y-139065000I2500000J0D01*
G01*
%TO.C,D139*%
X132695000Y-143870000D02*
X132695000Y-146960000D01*
X132695000Y-143870170D02*
G75*
G02*
X138245000Y-145415462I2560000J-1544830D01*
G01*
X138245000Y-145414538D02*
G75*
G02*
X132695000Y-146959830I-2990000J-462D01*
G01*
X137755000Y-145415000D02*
G75*
G02*
X132755000Y-145415000I-2500000J0D01*
G01*
X132755000Y-145415000D02*
G75*
G02*
X137755000Y-145415000I2500000J0D01*
G01*
%TO.C,D82*%
X79355000Y-137520000D02*
X79355000Y-140610000D01*
X79355000Y-137520170D02*
G75*
G02*
X84905000Y-139065462I2560000J-1544830D01*
G01*
X84905000Y-139064538D02*
G75*
G02*
X79355000Y-140609830I-2990000J-462D01*
G01*
X84415000Y-139065000D02*
G75*
G02*
X79415000Y-139065000I-2500000J0D01*
G01*
X79415000Y-139065000D02*
G75*
G02*
X84415000Y-139065000I2500000J0D01*
G01*
%TO.C,D327*%
X152491000Y-83219000D02*
X152491000Y-83375000D01*
X152491000Y-85535000D02*
X152491000Y-85691000D01*
X152491000Y-83219484D02*
G75*
G02*
X155723335Y-83376392I1560000J-1235517D01*
G01*
X153010039Y-83375000D02*
G75*
G02*
X155092130Y-83375163I1040961J-1080000D01*
G01*
X155092130Y-85534837D02*
G75*
G02*
X153010039Y-85535000I-1041130J1079837D01*
G01*
X155723335Y-85533608D02*
G75*
G02*
X152491000Y-85690516I-1672335J1078609D01*
G01*
%TO.C,D41*%
X45397971Y-187260665D02*
X45397971Y-190350665D01*
X45397971Y-187260835D02*
G75*
G02*
X50947971Y-188806127I2560000J-1544830D01*
G01*
X50947971Y-188805203D02*
G75*
G02*
X45397971Y-190350495I-2990000J-462D01*
G01*
X50457971Y-188805665D02*
G75*
G02*
X45457971Y-188805665I-2500000J0D01*
G01*
X45457971Y-188805665D02*
G75*
G02*
X50457971Y-188805665I2500000J0D01*
G01*
%TO.C,D309*%
X135219000Y-98459000D02*
X135219000Y-98615000D01*
X135219000Y-100775000D02*
X135219000Y-100931000D01*
X135219000Y-98459484D02*
G75*
G02*
X138451335Y-98616392I1560000J-1235517D01*
G01*
X135738039Y-98615000D02*
G75*
G02*
X137820130Y-98615163I1040961J-1080000D01*
G01*
X137820130Y-100774837D02*
G75*
G02*
X135738039Y-100775000I-1041130J1079837D01*
G01*
X138451335Y-100773608D02*
G75*
G02*
X135219000Y-100930516I-1672335J1078609D01*
G01*
%TO.C,D141*%
X132695000Y-156570000D02*
X132695000Y-159660000D01*
X132695000Y-156570170D02*
G75*
G02*
X138245000Y-158115462I2560000J-1544830D01*
G01*
X138245000Y-158114538D02*
G75*
G02*
X132695000Y-159659830I-2990000J-462D01*
G01*
X137755000Y-158115000D02*
G75*
G02*
X132755000Y-158115000I-2500000J0D01*
G01*
X132755000Y-158115000D02*
G75*
G02*
X137755000Y-158115000I2500000J0D01*
G01*
%TO.C,D303*%
X130139000Y-103539000D02*
X130139000Y-103695000D01*
X130139000Y-105855000D02*
X130139000Y-106011000D01*
X130139000Y-103539484D02*
G75*
G02*
X133371335Y-103696392I1560000J-1235517D01*
G01*
X130658039Y-103695000D02*
G75*
G02*
X132740130Y-103695163I1040961J-1080000D01*
G01*
X132740130Y-105854837D02*
G75*
G02*
X130658039Y-105855000I-1041130J1079837D01*
G01*
X133371335Y-105853608D02*
G75*
G02*
X130139000Y-106010516I-1672335J1078609D01*
G01*
%TO.C,D283*%
X119979000Y-73059000D02*
X119979000Y-73215000D01*
X119979000Y-75375000D02*
X119979000Y-75531000D01*
X119979000Y-73059484D02*
G75*
G02*
X123211335Y-73216392I1560000J-1235517D01*
G01*
X120498039Y-73215000D02*
G75*
G02*
X122580130Y-73215163I1040961J-1080000D01*
G01*
X122580130Y-75374837D02*
G75*
G02*
X120498039Y-75375000I-1041130J1079837D01*
G01*
X123211335Y-75373608D02*
G75*
G02*
X119979000Y-75530516I-1672335J1078609D01*
G01*
%TO.C,D219*%
X119979000Y-215299000D02*
X119979000Y-215455000D01*
X119979000Y-217615000D02*
X119979000Y-217771000D01*
X119979000Y-215299484D02*
G75*
G02*
X123211335Y-215456392I1560000J-1235517D01*
G01*
X120498039Y-215455000D02*
G75*
G02*
X122580130Y-215455163I1040961J-1080000D01*
G01*
X122580130Y-217614837D02*
G75*
G02*
X120498039Y-217615000I-1041130J1079837D01*
G01*
X123211335Y-217613608D02*
G75*
G02*
X119979000Y-217770516I-1672335J1078609D01*
G01*
%TO.C,D58*%
X120674981Y-39521214D02*
X120674981Y-42611214D01*
X120674981Y-39521384D02*
G75*
G02*
X126224981Y-41066676I2560000J-1544830D01*
G01*
X126224981Y-41065752D02*
G75*
G02*
X120674981Y-42611044I-2990000J-462D01*
G01*
X125734981Y-41066214D02*
G75*
G02*
X120734981Y-41066214I-2500000J0D01*
G01*
X120734981Y-41066214D02*
G75*
G02*
X125734981Y-41066214I2500000J0D01*
G01*
%TO.C,D39*%
X56549067Y-206574931D02*
X56549067Y-209664931D01*
X56549067Y-206575101D02*
G75*
G02*
X62099067Y-208120393I2560000J-1544830D01*
G01*
X62099067Y-208119469D02*
G75*
G02*
X56549067Y-209664761I-2990000J-462D01*
G01*
X61609067Y-208119931D02*
G75*
G02*
X56609067Y-208119931I-2500000J0D01*
G01*
X56609067Y-208119931D02*
G75*
G02*
X61609067Y-208119931I2500000J0D01*
G01*
%TO.C,D143*%
X153015000Y-124820000D02*
X153015000Y-127910000D01*
X153015000Y-124820170D02*
G75*
G02*
X158565000Y-126365462I2560000J-1544830D01*
G01*
X158565000Y-126364538D02*
G75*
G02*
X153015000Y-127909830I-2990000J-462D01*
G01*
X158075000Y-126365000D02*
G75*
G02*
X153075000Y-126365000I-2500000J0D01*
G01*
X153075000Y-126365000D02*
G75*
G02*
X158075000Y-126365000I2500000J0D01*
G01*
%TO.C,D28*%
X165035019Y-248218786D02*
X165035019Y-251308786D01*
X165035019Y-248218956D02*
G75*
G02*
X170585019Y-249764248I2560000J-1544830D01*
G01*
X170585019Y-249763324D02*
G75*
G02*
X165035019Y-251308616I-2990000J-462D01*
G01*
X170095019Y-249763786D02*
G75*
G02*
X165095019Y-249763786I-2500000J0D01*
G01*
X165095019Y-249763786D02*
G75*
G02*
X170095019Y-249763786I2500000J0D01*
G01*
%TO.C,D291*%
X125059000Y-78139000D02*
X125059000Y-78295000D01*
X125059000Y-80455000D02*
X125059000Y-80611000D01*
X125059000Y-78139484D02*
G75*
G02*
X128291335Y-78296392I1560000J-1235517D01*
G01*
X125578039Y-78295000D02*
G75*
G02*
X127660130Y-78295163I1040961J-1080000D01*
G01*
X127660130Y-80454837D02*
G75*
G02*
X125578039Y-80455000I-1041130J1079837D01*
G01*
X128291335Y-80453608D02*
G75*
G02*
X125059000Y-80610516I-1672335J1078609D01*
G01*
%TO.C,D265*%
X157571000Y-200059000D02*
X157571000Y-200215000D01*
X157571000Y-202375000D02*
X157571000Y-202531000D01*
X157571000Y-200059484D02*
G75*
G02*
X160803335Y-200216392I1560000J-1235517D01*
G01*
X158090039Y-200215000D02*
G75*
G02*
X160172130Y-200215163I1040961J-1080000D01*
G01*
X160172130Y-202374837D02*
G75*
G02*
X158090039Y-202375000I-1041130J1079837D01*
G01*
X160803335Y-202373608D02*
G75*
G02*
X157571000Y-202530516I-1672335J1078609D01*
G01*
%TO.C,D120*%
X113645000Y-156570000D02*
X113645000Y-159660000D01*
X113645000Y-156570170D02*
G75*
G02*
X119195000Y-158115462I2560000J-1544830D01*
G01*
X119195000Y-158114538D02*
G75*
G02*
X113645000Y-159659830I-2990000J-462D01*
G01*
X118705000Y-158115000D02*
G75*
G02*
X113705000Y-158115000I-2500000J0D01*
G01*
X113705000Y-158115000D02*
G75*
G02*
X118705000Y-158115000I2500000J0D01*
G01*
%TO.C,D36*%
X80150069Y-230175933D02*
X80150069Y-233265933D01*
X80150069Y-230176103D02*
G75*
G02*
X85700069Y-231721395I2560000J-1544830D01*
G01*
X85700069Y-231720471D02*
G75*
G02*
X80150069Y-233265763I-2990000J-462D01*
G01*
X85210069Y-231720933D02*
G75*
G02*
X80210069Y-231720933I-2500000J0D01*
G01*
X80210069Y-231720933D02*
G75*
G02*
X85210069Y-231720933I2500000J0D01*
G01*
%TO.C,D324*%
X147411000Y-103539000D02*
X147411000Y-103695000D01*
X147411000Y-105855000D02*
X147411000Y-106011000D01*
X147411000Y-103539484D02*
G75*
G02*
X150643335Y-103696392I1560000J-1235517D01*
G01*
X147930039Y-103695000D02*
G75*
G02*
X150012130Y-103695163I1040961J-1080000D01*
G01*
X150012130Y-105854837D02*
G75*
G02*
X147930039Y-105855000I-1041130J1079837D01*
G01*
X150643335Y-105853608D02*
G75*
G02*
X147411000Y-106010516I-1672335J1078609D01*
G01*
%TO.C,D94*%
X92055000Y-124820000D02*
X92055000Y-127910000D01*
X92055000Y-124820170D02*
G75*
G02*
X97605000Y-126365462I2560000J-1544830D01*
G01*
X97605000Y-126364538D02*
G75*
G02*
X92055000Y-127909830I-2990000J-462D01*
G01*
X97115000Y-126365000D02*
G75*
G02*
X92115000Y-126365000I-2500000J0D01*
G01*
X92115000Y-126365000D02*
G75*
G02*
X97115000Y-126365000I2500000J0D01*
G01*
%TO.C,D80*%
X79355000Y-124820000D02*
X79355000Y-127910000D01*
X79355000Y-124820170D02*
G75*
G02*
X84905000Y-126365462I2560000J-1544830D01*
G01*
X84905000Y-126364538D02*
G75*
G02*
X79355000Y-127909830I-2990000J-462D01*
G01*
X84415000Y-126365000D02*
G75*
G02*
X79415000Y-126365000I-2500000J0D01*
G01*
X79415000Y-126365000D02*
G75*
G02*
X84415000Y-126365000I2500000J0D01*
G01*
%TO.C,D117*%
X113645000Y-137520000D02*
X113645000Y-140610000D01*
X113645000Y-137520170D02*
G75*
G02*
X119195000Y-139065462I2560000J-1544830D01*
G01*
X119195000Y-139064538D02*
G75*
G02*
X113645000Y-140609830I-2990000J-462D01*
G01*
X118705000Y-139065000D02*
G75*
G02*
X113705000Y-139065000I-2500000J0D01*
G01*
X113705000Y-139065000D02*
G75*
G02*
X118705000Y-139065000I2500000J0D01*
G01*
%TO.C,D276*%
X167731000Y-184819000D02*
X167731000Y-184975000D01*
X167731000Y-187135000D02*
X167731000Y-187291000D01*
X167731000Y-184819484D02*
G75*
G02*
X170963335Y-184976392I1560000J-1235517D01*
G01*
X168250039Y-184975000D02*
G75*
G02*
X170332130Y-184975163I1040961J-1080000D01*
G01*
X170332130Y-187134837D02*
G75*
G02*
X168250039Y-187135000I-1041130J1079837D01*
G01*
X170963335Y-187133608D02*
G75*
G02*
X167731000Y-187290516I-1672335J1078609D01*
G01*
%TO.C,C2*%
X67464000Y-141724748D02*
X67464000Y-142247252D01*
X68934000Y-141724748D02*
X68934000Y-142247252D01*
%TO.C,D126*%
X119995000Y-150220000D02*
X119995000Y-153310000D01*
X119995000Y-150220170D02*
G75*
G02*
X125545000Y-151765462I2560000J-1544830D01*
G01*
X125545000Y-151764538D02*
G75*
G02*
X119995000Y-153309830I-2990000J-462D01*
G01*
X125055000Y-151765000D02*
G75*
G02*
X120055000Y-151765000I-2500000J0D01*
G01*
X120055000Y-151765000D02*
G75*
G02*
X125055000Y-151765000I2500000J0D01*
G01*
%TO.C,D278*%
X167731000Y-194979000D02*
X167731000Y-195135000D01*
X167731000Y-197295000D02*
X167731000Y-197451000D01*
X167731000Y-194979484D02*
G75*
G02*
X170963335Y-195136392I1560000J-1235517D01*
G01*
X168250039Y-195135000D02*
G75*
G02*
X170332130Y-195135163I1040961J-1080000D01*
G01*
X170332130Y-197294837D02*
G75*
G02*
X168250039Y-197295000I-1041130J1079837D01*
G01*
X170963335Y-197293608D02*
G75*
G02*
X167731000Y-197450516I-1672335J1078609D01*
G01*
%TO.C,D284*%
X119979000Y-78139000D02*
X119979000Y-78295000D01*
X119979000Y-80455000D02*
X119979000Y-80611000D01*
X119979000Y-78139484D02*
G75*
G02*
X123211335Y-78296392I1560000J-1235517D01*
G01*
X120498039Y-78295000D02*
G75*
G02*
X122580130Y-78295163I1040961J-1080000D01*
G01*
X122580130Y-80454837D02*
G75*
G02*
X120498039Y-80455000I-1041130J1079837D01*
G01*
X123211335Y-80453608D02*
G75*
G02*
X119979000Y-80610516I-1672335J1078609D01*
G01*
%TO.C,D46*%
X36759404Y-132718904D02*
X36759404Y-135808904D01*
X36759404Y-132719074D02*
G75*
G02*
X42309404Y-134264366I2560000J-1544830D01*
G01*
X42309404Y-134263442D02*
G75*
G02*
X36759404Y-135808734I-2990000J-462D01*
G01*
X41819404Y-134263904D02*
G75*
G02*
X36819404Y-134263904I-2500000J0D01*
G01*
X36819404Y-134263904D02*
G75*
G02*
X41819404Y-134263904I2500000J0D01*
G01*
%TO.C,D83*%
X79355000Y-143870000D02*
X79355000Y-146960000D01*
X79355000Y-143870170D02*
G75*
G02*
X84905000Y-145415462I2560000J-1544830D01*
G01*
X84905000Y-145414538D02*
G75*
G02*
X79355000Y-146959830I-2990000J-462D01*
G01*
X84415000Y-145415000D02*
G75*
G02*
X79415000Y-145415000I-2500000J0D01*
G01*
X79415000Y-145415000D02*
G75*
G02*
X84415000Y-145415000I2500000J0D01*
G01*
%TO.C,D172*%
X178415000Y-131170000D02*
X178415000Y-134260000D01*
X178415000Y-131170170D02*
G75*
G02*
X183965000Y-132715462I2560000J-1544830D01*
G01*
X183965000Y-132714538D02*
G75*
G02*
X178415000Y-134259830I-2990000J-462D01*
G01*
X183475000Y-132715000D02*
G75*
G02*
X178475000Y-132715000I-2500000J0D01*
G01*
X178475000Y-132715000D02*
G75*
G02*
X183475000Y-132715000I2500000J0D01*
G01*
%TO.C,D286*%
X119979000Y-88299000D02*
X119979000Y-88455000D01*
X119979000Y-90615000D02*
X119979000Y-90771000D01*
X119979000Y-88299484D02*
G75*
G02*
X123211335Y-88456392I1560000J-1235517D01*
G01*
X120498039Y-88455000D02*
G75*
G02*
X122580130Y-88455163I1040961J-1080000D01*
G01*
X122580130Y-90614837D02*
G75*
G02*
X120498039Y-90615000I-1041130J1079837D01*
G01*
X123211335Y-90613608D02*
G75*
G02*
X119979000Y-90770516I-1672335J1078609D01*
G01*
%TO.C,D318*%
X147411000Y-73059000D02*
X147411000Y-73215000D01*
X147411000Y-75375000D02*
X147411000Y-75531000D01*
X147411000Y-73059484D02*
G75*
G02*
X150643335Y-73216392I1560000J-1235517D01*
G01*
X147930039Y-73215000D02*
G75*
G02*
X150012130Y-73215163I1040961J-1080000D01*
G01*
X150012130Y-75374837D02*
G75*
G02*
X147930039Y-75375000I-1041130J1079837D01*
G01*
X150643335Y-75373608D02*
G75*
G02*
X147411000Y-75530516I-1672335J1078609D01*
G01*
%TO.C,D4*%
X186245665Y-46412971D02*
X186245665Y-49502971D01*
X186245665Y-46413141D02*
G75*
G02*
X191795665Y-47958433I2560000J-1544830D01*
G01*
X191795665Y-47957509D02*
G75*
G02*
X186245665Y-49502801I-2990000J-462D01*
G01*
X191305665Y-47957971D02*
G75*
G02*
X186305665Y-47957971I-2500000J0D01*
G01*
X186305665Y-47957971D02*
G75*
G02*
X191305665Y-47957971I2500000J0D01*
G01*
%TO.C,D333*%
X157571000Y-78139000D02*
X157571000Y-78295000D01*
X157571000Y-80455000D02*
X157571000Y-80611000D01*
X157571000Y-78139484D02*
G75*
G02*
X160803335Y-78296392I1560000J-1235517D01*
G01*
X158090039Y-78295000D02*
G75*
G02*
X160172130Y-78295163I1040961J-1080000D01*
G01*
X160172130Y-80454837D02*
G75*
G02*
X158090039Y-80455000I-1041130J1079837D01*
G01*
X160803335Y-80453608D02*
G75*
G02*
X157571000Y-80610516I-1672335J1078609D01*
G01*
%TO.C,D313*%
X140299000Y-83219000D02*
X140299000Y-83375000D01*
X140299000Y-85535000D02*
X140299000Y-85691000D01*
X140299000Y-83219484D02*
G75*
G02*
X143531335Y-83376392I1560000J-1235517D01*
G01*
X140818039Y-83375000D02*
G75*
G02*
X142900130Y-83375163I1040961J-1080000D01*
G01*
X142900130Y-85534837D02*
G75*
G02*
X140818039Y-85535000I-1041130J1079837D01*
G01*
X143531335Y-85533608D02*
G75*
G02*
X140299000Y-85690516I-1672335J1078609D01*
G01*
%TO.C,D40*%
X50467410Y-197210000D02*
X50467410Y-200300000D01*
X50467410Y-197210170D02*
G75*
G02*
X56017410Y-198755462I2560000J-1544830D01*
G01*
X56017410Y-198754538D02*
G75*
G02*
X50467410Y-200299830I-2990000J-462D01*
G01*
X55527410Y-198755000D02*
G75*
G02*
X50527410Y-198755000I-2500000J0D01*
G01*
X50527410Y-198755000D02*
G75*
G02*
X55527410Y-198755000I2500000J0D01*
G01*
%TO.C,D215*%
X119979000Y-194979000D02*
X119979000Y-195135000D01*
X119979000Y-197295000D02*
X119979000Y-197451000D01*
X119979000Y-194979484D02*
G75*
G02*
X123211335Y-195136392I1560000J-1235517D01*
G01*
X120498039Y-195135000D02*
G75*
G02*
X122580130Y-195135163I1040961J-1080000D01*
G01*
X122580130Y-197294837D02*
G75*
G02*
X120498039Y-197295000I-1041130J1079837D01*
G01*
X123211335Y-197293608D02*
G75*
G02*
X119979000Y-197450516I-1672335J1078609D01*
G01*
%TO.C,R5*%
X237390000Y-150648936D02*
X237390000Y-151103064D01*
X238860000Y-150648936D02*
X238860000Y-151103064D01*
%TO.C,D348*%
X167731000Y-83219000D02*
X167731000Y-83375000D01*
X167731000Y-85535000D02*
X167731000Y-85691000D01*
X167731000Y-83219484D02*
G75*
G02*
X170963335Y-83376392I1560000J-1235517D01*
G01*
X168250039Y-83375000D02*
G75*
G02*
X170332130Y-83375163I1040961J-1080000D01*
G01*
X170332130Y-85534837D02*
G75*
G02*
X168250039Y-85535000I-1041130J1079837D01*
G01*
X170963335Y-85533608D02*
G75*
G02*
X167731000Y-85690516I-1672335J1078609D01*
G01*
%TO.C,R213*%
X237009000Y-45439064D02*
X237009000Y-44984936D01*
X238479000Y-45439064D02*
X238479000Y-44984936D01*
%TO.C,D192*%
X200005000Y-124820000D02*
X200005000Y-127910000D01*
X200005000Y-124820170D02*
G75*
G02*
X205555000Y-126365462I2560000J-1544830D01*
G01*
X205555000Y-126364538D02*
G75*
G02*
X200005000Y-127909830I-2990000J-462D01*
G01*
X205065000Y-126365000D02*
G75*
G02*
X200065000Y-126365000I-2500000J0D01*
G01*
X200065000Y-126365000D02*
G75*
G02*
X205065000Y-126365000I2500000J0D01*
G01*
%TO.C,D79*%
X73005000Y-162920000D02*
X73005000Y-166010000D01*
X73005000Y-162920170D02*
G75*
G02*
X78555000Y-164465462I2560000J-1544830D01*
G01*
X78555000Y-164464538D02*
G75*
G02*
X73005000Y-166009830I-2990000J-462D01*
G01*
X78065000Y-164465000D02*
G75*
G02*
X73065000Y-164465000I-2500000J0D01*
G01*
X73065000Y-164465000D02*
G75*
G02*
X78065000Y-164465000I2500000J0D01*
G01*
%TO.C,D29*%
X154006096Y-249965596D02*
X154006096Y-253055596D01*
X154006096Y-249965766D02*
G75*
G02*
X159556096Y-251511058I2560000J-1544830D01*
G01*
X159556096Y-251510134D02*
G75*
G02*
X154006096Y-253055426I-2990000J-462D01*
G01*
X159066096Y-251510596D02*
G75*
G02*
X154066096Y-251510596I-2500000J0D01*
G01*
X154066096Y-251510596D02*
G75*
G02*
X159066096Y-251510596I2500000J0D01*
G01*
%TO.C,D114*%
X107295000Y-162920000D02*
X107295000Y-166010000D01*
X107295000Y-162920170D02*
G75*
G02*
X112845000Y-164465462I2560000J-1544830D01*
G01*
X112845000Y-164464538D02*
G75*
G02*
X107295000Y-166009830I-2990000J-462D01*
G01*
X112355000Y-164465000D02*
G75*
G02*
X107355000Y-164465000I-2500000J0D01*
G01*
X107355000Y-164465000D02*
G75*
G02*
X112355000Y-164465000I2500000J0D01*
G01*
%TO.C,D345*%
X162651000Y-103539000D02*
X162651000Y-103695000D01*
X162651000Y-105855000D02*
X162651000Y-106011000D01*
X162651000Y-103539484D02*
G75*
G02*
X165883335Y-103696392I1560000J-1235517D01*
G01*
X163170039Y-103695000D02*
G75*
G02*
X165252130Y-103695163I1040961J-1080000D01*
G01*
X165252130Y-105854837D02*
G75*
G02*
X163170039Y-105855000I-1041130J1079837D01*
G01*
X165883335Y-105853608D02*
G75*
G02*
X162651000Y-106010516I-1672335J1078609D01*
G01*
%TO.C,D205*%
X206355000Y-162920000D02*
X206355000Y-166010000D01*
X206355000Y-162920170D02*
G75*
G02*
X211905000Y-164465462I2560000J-1544830D01*
G01*
X211905000Y-164464538D02*
G75*
G02*
X206355000Y-166009830I-2990000J-462D01*
G01*
X211415000Y-164465000D02*
G75*
G02*
X206415000Y-164465000I-2500000J0D01*
G01*
X206415000Y-164465000D02*
G75*
G02*
X211415000Y-164465000I2500000J0D01*
G01*
%TO.C,D20*%
X235242590Y-197210000D02*
X235242590Y-200300000D01*
X235242590Y-197210170D02*
G75*
G02*
X240792590Y-198755462I2560000J-1544830D01*
G01*
X240792590Y-198754538D02*
G75*
G02*
X235242590Y-200299830I-2990000J-462D01*
G01*
X240302590Y-198755000D02*
G75*
G02*
X235302590Y-198755000I-2500000J0D01*
G01*
X235302590Y-198755000D02*
G75*
G02*
X240302590Y-198755000I2500000J0D01*
G01*
%TO.C,D136*%
X132695000Y-124820000D02*
X132695000Y-127910000D01*
X132695000Y-124820170D02*
G75*
G02*
X138245000Y-126365462I2560000J-1544830D01*
G01*
X138245000Y-126364538D02*
G75*
G02*
X132695000Y-127909830I-2990000J-462D01*
G01*
X137755000Y-126365000D02*
G75*
G02*
X132755000Y-126365000I-2500000J0D01*
G01*
X132755000Y-126365000D02*
G75*
G02*
X137755000Y-126365000I2500000J0D01*
G01*
%TO.C,D239*%
X135219000Y-210219000D02*
X135219000Y-210375000D01*
X135219000Y-212535000D02*
X135219000Y-212691000D01*
X135219000Y-210219484D02*
G75*
G02*
X138451335Y-210376392I1560000J-1235517D01*
G01*
X135738039Y-210375000D02*
G75*
G02*
X137820130Y-210375163I1040961J-1080000D01*
G01*
X137820130Y-212534837D02*
G75*
G02*
X135738039Y-212535000I-1041130J1079837D01*
G01*
X138451335Y-212533608D02*
G75*
G02*
X135219000Y-212690516I-1672335J1078609D01*
G01*
%TO.C,D305*%
X135219000Y-78139000D02*
X135219000Y-78295000D01*
X135219000Y-80455000D02*
X135219000Y-80611000D01*
X135219000Y-78139484D02*
G75*
G02*
X138451335Y-78296392I1560000J-1235517D01*
G01*
X135738039Y-78295000D02*
G75*
G02*
X137820130Y-78295163I1040961J-1080000D01*
G01*
X137820130Y-80454837D02*
G75*
G02*
X135738039Y-80455000I-1041130J1079837D01*
G01*
X138451335Y-80453608D02*
G75*
G02*
X135219000Y-80610516I-1672335J1078609D01*
G01*
%TO.C,D91*%
X85705000Y-150220000D02*
X85705000Y-153310000D01*
X85705000Y-150220170D02*
G75*
G02*
X91255000Y-151765462I2560000J-1544830D01*
G01*
X91255000Y-151764538D02*
G75*
G02*
X85705000Y-153309830I-2990000J-462D01*
G01*
X90765000Y-151765000D02*
G75*
G02*
X85765000Y-151765000I-2500000J0D01*
G01*
X85765000Y-151765000D02*
G75*
G02*
X90765000Y-151765000I2500000J0D01*
G01*
%TO.C,D163*%
X165715000Y-162920000D02*
X165715000Y-166010000D01*
X165715000Y-162920170D02*
G75*
G02*
X171265000Y-164465462I2560000J-1544830D01*
G01*
X171265000Y-164464538D02*
G75*
G02*
X165715000Y-166009830I-2990000J-462D01*
G01*
X170775000Y-164465000D02*
G75*
G02*
X165775000Y-164465000I-2500000J0D01*
G01*
X165775000Y-164465000D02*
G75*
G02*
X170775000Y-164465000I2500000J0D01*
G01*
%TO.C,R7*%
X186155064Y-194591000D02*
X185700936Y-194591000D01*
X186155064Y-196061000D02*
X185700936Y-196061000D01*
%TO.C,D227*%
X130139000Y-184819000D02*
X130139000Y-184975000D01*
X130139000Y-187135000D02*
X130139000Y-187291000D01*
X130139000Y-184819484D02*
G75*
G02*
X133371335Y-184976392I1560000J-1235517D01*
G01*
X130658039Y-184975000D02*
G75*
G02*
X132740130Y-184975163I1040961J-1080000D01*
G01*
X132740130Y-187134837D02*
G75*
G02*
X130658039Y-187135000I-1041130J1079837D01*
G01*
X133371335Y-187133608D02*
G75*
G02*
X130139000Y-187290516I-1672335J1078609D01*
G01*
%TO.C,D263*%
X157571000Y-189899000D02*
X157571000Y-190055000D01*
X157571000Y-192215000D02*
X157571000Y-192371000D01*
X157571000Y-189899484D02*
G75*
G02*
X160803335Y-190056392I1560000J-1235517D01*
G01*
X158090039Y-190055000D02*
G75*
G02*
X160172130Y-190055163I1040961J-1080000D01*
G01*
X160172130Y-192214837D02*
G75*
G02*
X158090039Y-192215000I-1041130J1079837D01*
G01*
X160803335Y-192213608D02*
G75*
G02*
X157571000Y-192370516I-1672335J1078609D01*
G01*
%TO.C,D338*%
X157571000Y-103539000D02*
X157571000Y-103695000D01*
X157571000Y-105855000D02*
X157571000Y-106011000D01*
X157571000Y-103539484D02*
G75*
G02*
X160803335Y-103696392I1560000J-1235517D01*
G01*
X158090039Y-103695000D02*
G75*
G02*
X160172130Y-103695163I1040961J-1080000D01*
G01*
X160172130Y-105854837D02*
G75*
G02*
X158090039Y-105855000I-1041130J1079837D01*
G01*
X160803335Y-105853608D02*
G75*
G02*
X157571000Y-106010516I-1672335J1078609D01*
G01*
%TO.C,D9*%
X229160933Y-81165069D02*
X229160933Y-84255069D01*
X229160933Y-81165239D02*
G75*
G02*
X234710933Y-82710531I2560000J-1544830D01*
G01*
X234710933Y-82709607D02*
G75*
G02*
X229160933Y-84254899I-2990000J-462D01*
G01*
X234220933Y-82710069D02*
G75*
G02*
X229220933Y-82710069I-2500000J0D01*
G01*
X229220933Y-82710069D02*
G75*
G02*
X234220933Y-82710069I2500000J0D01*
G01*
%TO.C,D69*%
X43795000Y-143870000D02*
X43795000Y-146960000D01*
X43795000Y-143870170D02*
G75*
G02*
X49345000Y-145415462I2560000J-1544830D01*
G01*
X49345000Y-145414538D02*
G75*
G02*
X43795000Y-146959830I-2990000J-462D01*
G01*
X48855000Y-145415000D02*
G75*
G02*
X43855000Y-145415000I-2500000J0D01*
G01*
X43855000Y-145415000D02*
G75*
G02*
X48855000Y-145415000I2500000J0D01*
G01*
%TO.C,D214*%
X119979000Y-189899000D02*
X119979000Y-190055000D01*
X119979000Y-192215000D02*
X119979000Y-192371000D01*
X119979000Y-189899484D02*
G75*
G02*
X123211335Y-190056392I1560000J-1235517D01*
G01*
X120498039Y-190055000D02*
G75*
G02*
X122580130Y-190055163I1040961J-1080000D01*
G01*
X122580130Y-192214837D02*
G75*
G02*
X120498039Y-192215000I-1041130J1079837D01*
G01*
X123211335Y-192213608D02*
G75*
G02*
X119979000Y-192370516I-1672335J1078609D01*
G01*
%TO.C,D10*%
X235242590Y-90530000D02*
X235242590Y-93620000D01*
X235242590Y-90530170D02*
G75*
G02*
X240792590Y-92075462I2560000J-1544830D01*
G01*
X240792590Y-92074538D02*
G75*
G02*
X235242590Y-93619830I-2990000J-462D01*
G01*
X240302590Y-92075000D02*
G75*
G02*
X235302590Y-92075000I-2500000J0D01*
G01*
X235302590Y-92075000D02*
G75*
G02*
X240302590Y-92075000I2500000J0D01*
G01*
%TO.C,D191*%
X193655000Y-162920000D02*
X193655000Y-166010000D01*
X193655000Y-162920170D02*
G75*
G02*
X199205000Y-164465462I2560000J-1544830D01*
G01*
X199205000Y-164464538D02*
G75*
G02*
X193655000Y-166009830I-2990000J-462D01*
G01*
X198715000Y-164465000D02*
G75*
G02*
X193715000Y-164465000I-2500000J0D01*
G01*
X193715000Y-164465000D02*
G75*
G02*
X198715000Y-164465000I2500000J0D01*
G01*
%TO.C,D22*%
X222133690Y-215252853D02*
X222133690Y-218342853D01*
X222133690Y-215253023D02*
G75*
G02*
X227683690Y-216798315I2560000J-1544830D01*
G01*
X227683690Y-216797391D02*
G75*
G02*
X222133690Y-218342683I-2990000J-462D01*
G01*
X227193690Y-216797853D02*
G75*
G02*
X222193690Y-216797853I-2500000J0D01*
G01*
X222193690Y-216797853D02*
G75*
G02*
X227193690Y-216797853I2500000J0D01*
G01*
%TO.C,D343*%
X162651000Y-93379000D02*
X162651000Y-93535000D01*
X162651000Y-95695000D02*
X162651000Y-95851000D01*
X162651000Y-93379484D02*
G75*
G02*
X165883335Y-93536392I1560000J-1235517D01*
G01*
X163170039Y-93535000D02*
G75*
G02*
X165252130Y-93535163I1040961J-1080000D01*
G01*
X165252130Y-95694837D02*
G75*
G02*
X163170039Y-95695000I-1041130J1079837D01*
G01*
X165883335Y-95693608D02*
G75*
G02*
X162651000Y-95850516I-1672335J1078609D01*
G01*
%TO.C,D66*%
X142855000Y-242930000D02*
X142855000Y-246020000D01*
X142855000Y-242930170D02*
G75*
G02*
X148405000Y-244475462I2560000J-1544830D01*
G01*
X148405000Y-244474538D02*
G75*
G02*
X142855000Y-246019830I-2990000J-462D01*
G01*
X147915000Y-244475000D02*
G75*
G02*
X142915000Y-244475000I-2500000J0D01*
G01*
X142915000Y-244475000D02*
G75*
G02*
X147915000Y-244475000I2500000J0D01*
G01*
%TO.C,D231*%
X130139000Y-205139000D02*
X130139000Y-205295000D01*
X130139000Y-207455000D02*
X130139000Y-207611000D01*
X130139000Y-205139484D02*
G75*
G02*
X133371335Y-205296392I1560000J-1235517D01*
G01*
X130658039Y-205295000D02*
G75*
G02*
X132740130Y-205295163I1040961J-1080000D01*
G01*
X132740130Y-207454837D02*
G75*
G02*
X130658039Y-207455000I-1041130J1079837D01*
G01*
X133371335Y-207453608D02*
G75*
G02*
X130139000Y-207610516I-1672335J1078609D01*
G01*
%TO.C,D116*%
X113645000Y-131170000D02*
X113645000Y-134260000D01*
X113645000Y-131170170D02*
G75*
G02*
X119195000Y-132715462I2560000J-1544830D01*
G01*
X119195000Y-132714538D02*
G75*
G02*
X113645000Y-134259830I-2990000J-462D01*
G01*
X118705000Y-132715000D02*
G75*
G02*
X113705000Y-132715000I-2500000J0D01*
G01*
X113705000Y-132715000D02*
G75*
G02*
X118705000Y-132715000I2500000J0D01*
G01*
%TO.C,D268*%
X157571000Y-215299000D02*
X157571000Y-215455000D01*
X157571000Y-217615000D02*
X157571000Y-217771000D01*
X157571000Y-215299484D02*
G75*
G02*
X160803335Y-215456392I1560000J-1235517D01*
G01*
X158090039Y-215455000D02*
G75*
G02*
X160172130Y-215455163I1040961J-1080000D01*
G01*
X160172130Y-217614837D02*
G75*
G02*
X158090039Y-217615000I-1041130J1079837D01*
G01*
X160803335Y-217613608D02*
G75*
G02*
X157571000Y-217770516I-1672335J1078609D01*
G01*
%TO.C,D255*%
X152491000Y-184819000D02*
X152491000Y-184975000D01*
X152491000Y-187135000D02*
X152491000Y-187291000D01*
X152491000Y-184819484D02*
G75*
G02*
X155723335Y-184976392I1560000J-1235517D01*
G01*
X153010039Y-184975000D02*
G75*
G02*
X155092130Y-184975163I1040961J-1080000D01*
G01*
X155092130Y-187134837D02*
G75*
G02*
X153010039Y-187135000I-1041130J1079837D01*
G01*
X155723335Y-187133608D02*
G75*
G02*
X152491000Y-187290516I-1672335J1078609D01*
G01*
%TO.C,D256*%
X152491000Y-189899000D02*
X152491000Y-190055000D01*
X152491000Y-192215000D02*
X152491000Y-192371000D01*
X152491000Y-189899484D02*
G75*
G02*
X155723335Y-190056392I1560000J-1235517D01*
G01*
X153010039Y-190055000D02*
G75*
G02*
X155092130Y-190055163I1040961J-1080000D01*
G01*
X155092130Y-192214837D02*
G75*
G02*
X153010039Y-192215000I-1041130J1079837D01*
G01*
X155723335Y-192213608D02*
G75*
G02*
X152491000Y-192370516I-1672335J1078609D01*
G01*
%TO.C,D27*%
X175820933Y-245328709D02*
X175820933Y-248418709D01*
X175820933Y-245328879D02*
G75*
G02*
X181370933Y-246874171I2560000J-1544830D01*
G01*
X181370933Y-246873247D02*
G75*
G02*
X175820933Y-248418539I-2990000J-462D01*
G01*
X180880933Y-246873709D02*
G75*
G02*
X175880933Y-246873709I-2500000J0D01*
G01*
X175880933Y-246873709D02*
G75*
G02*
X180880933Y-246873709I2500000J0D01*
G01*
%TO.C,D182*%
X187305000Y-150220000D02*
X187305000Y-153310000D01*
X187305000Y-150220170D02*
G75*
G02*
X192855000Y-151765462I2560000J-1544830D01*
G01*
X192855000Y-151764538D02*
G75*
G02*
X187305000Y-153309830I-2990000J-462D01*
G01*
X192365000Y-151765000D02*
G75*
G02*
X187365000Y-151765000I-2500000J0D01*
G01*
X187365000Y-151765000D02*
G75*
G02*
X192365000Y-151765000I2500000J0D01*
G01*
%TO.C,R11*%
X239676000Y-37491936D02*
X239676000Y-37946064D01*
X241146000Y-37491936D02*
X241146000Y-37946064D01*
%TO.C,D38*%
X63576310Y-215252853D02*
X63576310Y-218342853D01*
X63576310Y-215253023D02*
G75*
G02*
X69126310Y-216798315I2560000J-1544830D01*
G01*
X69126310Y-216797391D02*
G75*
G02*
X63576310Y-218342683I-2990000J-462D01*
G01*
X68636310Y-216797853D02*
G75*
G02*
X63636310Y-216797853I-2500000J0D01*
G01*
X63636310Y-216797853D02*
G75*
G02*
X68636310Y-216797853I2500000J0D01*
G01*
%TO.C,D171*%
X178415000Y-124820000D02*
X178415000Y-127910000D01*
X178415000Y-124820170D02*
G75*
G02*
X183965000Y-126365462I2560000J-1544830D01*
G01*
X183965000Y-126364538D02*
G75*
G02*
X178415000Y-127909830I-2990000J-462D01*
G01*
X183475000Y-126365000D02*
G75*
G02*
X178475000Y-126365000I-2500000J0D01*
G01*
X178475000Y-126365000D02*
G75*
G02*
X183475000Y-126365000I2500000J0D01*
G01*
%TO.C,D151*%
X159365000Y-131170000D02*
X159365000Y-134260000D01*
X159365000Y-131170170D02*
G75*
G02*
X164915000Y-132715462I2560000J-1544830D01*
G01*
X164915000Y-132714538D02*
G75*
G02*
X159365000Y-134259830I-2990000J-462D01*
G01*
X164425000Y-132715000D02*
G75*
G02*
X159425000Y-132715000I-2500000J0D01*
G01*
X159425000Y-132715000D02*
G75*
G02*
X164425000Y-132715000I2500000J0D01*
G01*
%TO.C,D52*%
X63576310Y-72487147D02*
X63576310Y-75577147D01*
X63576310Y-72487317D02*
G75*
G02*
X69126310Y-74032609I2560000J-1544830D01*
G01*
X69126310Y-74031685D02*
G75*
G02*
X63576310Y-75576977I-2990000J-462D01*
G01*
X68636310Y-74032147D02*
G75*
G02*
X63636310Y-74032147I-2500000J0D01*
G01*
X63636310Y-74032147D02*
G75*
G02*
X68636310Y-74032147I2500000J0D01*
G01*
%TO.C,D145*%
X153015000Y-137520000D02*
X153015000Y-140610000D01*
X153015000Y-137520170D02*
G75*
G02*
X158565000Y-139065462I2560000J-1544830D01*
G01*
X158565000Y-139064538D02*
G75*
G02*
X153015000Y-140609830I-2990000J-462D01*
G01*
X158075000Y-139065000D02*
G75*
G02*
X153075000Y-139065000I-2500000J0D01*
G01*
X153075000Y-139065000D02*
G75*
G02*
X158075000Y-139065000I2500000J0D01*
G01*
%TO.C,D47*%
X38506214Y-121689981D02*
X38506214Y-124779981D01*
X38506214Y-121690151D02*
G75*
G02*
X44056214Y-123235443I2560000J-1544830D01*
G01*
X44056214Y-123234519D02*
G75*
G02*
X38506214Y-124779811I-2990000J-462D01*
G01*
X43566214Y-123234981D02*
G75*
G02*
X38566214Y-123234981I-2500000J0D01*
G01*
X38566214Y-123234981D02*
G75*
G02*
X43566214Y-123234981I2500000J0D01*
G01*
%TO.C,C8*%
X183110200Y-200144748D02*
X183110200Y-200667252D01*
X184580200Y-200144748D02*
X184580200Y-200667252D01*
%TO.C,D281*%
X167731000Y-210219000D02*
X167731000Y-210375000D01*
X167731000Y-212535000D02*
X167731000Y-212691000D01*
X167731000Y-210219484D02*
G75*
G02*
X170963335Y-210376392I1560000J-1235517D01*
G01*
X168250039Y-210375000D02*
G75*
G02*
X170332130Y-210375163I1040961J-1080000D01*
G01*
X170332130Y-212534837D02*
G75*
G02*
X168250039Y-212535000I-1041130J1079837D01*
G01*
X170963335Y-212533608D02*
G75*
G02*
X167731000Y-212690516I-1672335J1078609D01*
G01*
%TO.C,D208*%
X212705000Y-137520000D02*
X212705000Y-140610000D01*
X212705000Y-137520170D02*
G75*
G02*
X218255000Y-139065462I2560000J-1544830D01*
G01*
X218255000Y-139064538D02*
G75*
G02*
X212705000Y-140609830I-2990000J-462D01*
G01*
X217765000Y-139065000D02*
G75*
G02*
X212765000Y-139065000I-2500000J0D01*
G01*
X212765000Y-139065000D02*
G75*
G02*
X217765000Y-139065000I2500000J0D01*
G01*
%TO.C,D274*%
X162651000Y-210219000D02*
X162651000Y-210375000D01*
X162651000Y-212535000D02*
X162651000Y-212691000D01*
X162651000Y-210219484D02*
G75*
G02*
X165883335Y-210376392I1560000J-1235517D01*
G01*
X163170039Y-210375000D02*
G75*
G02*
X165252130Y-210375163I1040961J-1080000D01*
G01*
X165252130Y-212534837D02*
G75*
G02*
X163170039Y-212535000I-1041130J1079837D01*
G01*
X165883335Y-212533608D02*
G75*
G02*
X162651000Y-212690516I-1672335J1078609D01*
G01*
%TO.C,D326*%
X152491000Y-78139000D02*
X152491000Y-78295000D01*
X152491000Y-80455000D02*
X152491000Y-80611000D01*
X152491000Y-78139484D02*
G75*
G02*
X155723335Y-78296392I1560000J-1235517D01*
G01*
X153010039Y-78295000D02*
G75*
G02*
X155092130Y-78295163I1040961J-1080000D01*
G01*
X155092130Y-80454837D02*
G75*
G02*
X153010039Y-80455000I-1041130J1079837D01*
G01*
X155723335Y-80453608D02*
G75*
G02*
X152491000Y-80610516I-1672335J1078609D01*
G01*
%TO.C,D213*%
X119979000Y-184819000D02*
X119979000Y-184975000D01*
X119979000Y-187135000D02*
X119979000Y-187291000D01*
X119979000Y-184819484D02*
G75*
G02*
X123211335Y-184976392I1560000J-1235517D01*
G01*
X120498039Y-184975000D02*
G75*
G02*
X122580130Y-184975163I1040961J-1080000D01*
G01*
X122580130Y-187134837D02*
G75*
G02*
X120498039Y-187135000I-1041130J1079837D01*
G01*
X123211335Y-187133608D02*
G75*
G02*
X119979000Y-187290516I-1672335J1078609D01*
G01*
%TO.C,D351*%
X167731000Y-98459000D02*
X167731000Y-98615000D01*
X167731000Y-100775000D02*
X167731000Y-100931000D01*
X167731000Y-98459484D02*
G75*
G02*
X170963335Y-98616392I1560000J-1235517D01*
G01*
X168250039Y-98615000D02*
G75*
G02*
X170332130Y-98615163I1040961J-1080000D01*
G01*
X170332130Y-100774837D02*
G75*
G02*
X168250039Y-100775000I-1041130J1079837D01*
G01*
X170963335Y-100773608D02*
G75*
G02*
X167731000Y-100930516I-1672335J1078609D01*
G01*
%TO.C,D308*%
X135219000Y-93379000D02*
X135219000Y-93535000D01*
X135219000Y-95695000D02*
X135219000Y-95851000D01*
X135219000Y-93379484D02*
G75*
G02*
X138451335Y-93536392I1560000J-1235517D01*
G01*
X135738039Y-93535000D02*
G75*
G02*
X137820130Y-93535163I1040961J-1080000D01*
G01*
X137820130Y-95694837D02*
G75*
G02*
X135738039Y-95695000I-1041130J1079837D01*
G01*
X138451335Y-95693608D02*
G75*
G02*
X135219000Y-95850516I-1672335J1078609D01*
G01*
%TO.C,D198*%
X200005000Y-162920000D02*
X200005000Y-166010000D01*
X200005000Y-162920170D02*
G75*
G02*
X205555000Y-164465462I2560000J-1544830D01*
G01*
X205555000Y-164464538D02*
G75*
G02*
X200005000Y-166009830I-2990000J-462D01*
G01*
X205065000Y-164465000D02*
G75*
G02*
X200065000Y-164465000I-2500000J0D01*
G01*
X200065000Y-164465000D02*
G75*
G02*
X205065000Y-164465000I2500000J0D01*
G01*
%TO.C,D258*%
X152491000Y-200059000D02*
X152491000Y-200215000D01*
X152491000Y-202375000D02*
X152491000Y-202531000D01*
X152491000Y-200059484D02*
G75*
G02*
X155723335Y-200216392I1560000J-1235517D01*
G01*
X153010039Y-200215000D02*
G75*
G02*
X155092130Y-200215163I1040961J-1080000D01*
G01*
X155092130Y-202374837D02*
G75*
G02*
X153010039Y-202375000I-1041130J1079837D01*
G01*
X155723335Y-202373608D02*
G75*
G02*
X152491000Y-202530516I-1672335J1078609D01*
G01*
%TO.C,D174*%
X178415000Y-143870000D02*
X178415000Y-146960000D01*
X178415000Y-143870170D02*
G75*
G02*
X183965000Y-145415462I2560000J-1544830D01*
G01*
X183965000Y-145414538D02*
G75*
G02*
X178415000Y-146959830I-2990000J-462D01*
G01*
X183475000Y-145415000D02*
G75*
G02*
X178475000Y-145415000I-2500000J0D01*
G01*
X178475000Y-145415000D02*
G75*
G02*
X183475000Y-145415000I2500000J0D01*
G01*
%TO.C,R10*%
X141095464Y-224613800D02*
X140641336Y-224613800D01*
X141095464Y-226083800D02*
X140641336Y-226083800D01*
%TO.C,D137*%
X132695000Y-131170000D02*
X132695000Y-134260000D01*
X132695000Y-131170170D02*
G75*
G02*
X138245000Y-132715462I2560000J-1544830D01*
G01*
X138245000Y-132714538D02*
G75*
G02*
X132695000Y-134259830I-2990000J-462D01*
G01*
X137755000Y-132715000D02*
G75*
G02*
X132755000Y-132715000I-2500000J0D01*
G01*
X132755000Y-132715000D02*
G75*
G02*
X137755000Y-132715000I2500000J0D01*
G01*
%TO.C,D311*%
X140299000Y-73059000D02*
X140299000Y-73215000D01*
X140299000Y-75375000D02*
X140299000Y-75531000D01*
X140299000Y-73059484D02*
G75*
G02*
X143531335Y-73216392I1560000J-1235517D01*
G01*
X140818039Y-73215000D02*
G75*
G02*
X142900130Y-73215163I1040961J-1080000D01*
G01*
X142900130Y-75374837D02*
G75*
G02*
X140818039Y-75375000I-1041130J1079837D01*
G01*
X143531335Y-75373608D02*
G75*
G02*
X140299000Y-75530516I-1672335J1078609D01*
G01*
%TO.C,D130*%
X126345000Y-131170000D02*
X126345000Y-134260000D01*
X126345000Y-131170170D02*
G75*
G02*
X131895000Y-132715462I2560000J-1544830D01*
G01*
X131895000Y-132714538D02*
G75*
G02*
X126345000Y-134259830I-2990000J-462D01*
G01*
X131405000Y-132715000D02*
G75*
G02*
X126405000Y-132715000I-2500000J0D01*
G01*
X126405000Y-132715000D02*
G75*
G02*
X131405000Y-132715000I2500000J0D01*
G01*
%TO.C,D297*%
X130139000Y-73059000D02*
X130139000Y-73215000D01*
X130139000Y-75375000D02*
X130139000Y-75531000D01*
X130139000Y-73059484D02*
G75*
G02*
X133371335Y-73216392I1560000J-1235517D01*
G01*
X130658039Y-73215000D02*
G75*
G02*
X132740130Y-73215163I1040961J-1080000D01*
G01*
X132740130Y-75374837D02*
G75*
G02*
X130658039Y-75375000I-1041130J1079837D01*
G01*
X133371335Y-75373608D02*
G75*
G02*
X130139000Y-75530516I-1672335J1078609D01*
G01*
%TO.C,D176*%
X178415000Y-156570000D02*
X178415000Y-159660000D01*
X178415000Y-156570170D02*
G75*
G02*
X183965000Y-158115462I2560000J-1544830D01*
G01*
X183965000Y-158114538D02*
G75*
G02*
X178415000Y-159659830I-2990000J-462D01*
G01*
X183475000Y-158115000D02*
G75*
G02*
X178475000Y-158115000I-2500000J0D01*
G01*
X178475000Y-158115000D02*
G75*
G02*
X183475000Y-158115000I2500000J0D01*
G01*
%TO.C,D92*%
X85705000Y-156570000D02*
X85705000Y-159660000D01*
X85705000Y-156570170D02*
G75*
G02*
X91255000Y-158115462I2560000J-1544830D01*
G01*
X91255000Y-158114538D02*
G75*
G02*
X85705000Y-159659830I-2990000J-462D01*
G01*
X90765000Y-158115000D02*
G75*
G02*
X85765000Y-158115000I-2500000J0D01*
G01*
X85765000Y-158115000D02*
G75*
G02*
X90765000Y-158115000I2500000J0D01*
G01*
%TO.C,D75*%
X73005000Y-137520000D02*
X73005000Y-140610000D01*
X73005000Y-137520170D02*
G75*
G02*
X78555000Y-139065462I2560000J-1544830D01*
G01*
X78555000Y-139064538D02*
G75*
G02*
X73005000Y-140609830I-2990000J-462D01*
G01*
X78065000Y-139065000D02*
G75*
G02*
X73065000Y-139065000I-2500000J0D01*
G01*
X73065000Y-139065000D02*
G75*
G02*
X78065000Y-139065000I2500000J0D01*
G01*
%TO.C,D358*%
X134421125Y-28413876D02*
X134421125Y-31098876D01*
X134421125Y-31098876D02*
X136341125Y-31098876D01*
X136341125Y-31098876D02*
X136341125Y-28413876D01*
%TO.C,D317*%
X140299000Y-103539000D02*
X140299000Y-103695000D01*
X140299000Y-105855000D02*
X140299000Y-106011000D01*
X140299000Y-103539484D02*
G75*
G02*
X143531335Y-103696392I1560000J-1235517D01*
G01*
X140818039Y-103695000D02*
G75*
G02*
X142900130Y-103695163I1040961J-1080000D01*
G01*
X142900130Y-105854837D02*
G75*
G02*
X140818039Y-105855000I-1041130J1079837D01*
G01*
X143531335Y-105853608D02*
G75*
G02*
X140299000Y-106010516I-1672335J1078609D01*
G01*
%TO.C,C7*%
X185554252Y-94388000D02*
X185031748Y-94388000D01*
X185554252Y-95858000D02*
X185031748Y-95858000D01*
%TO.C,D140*%
X132695000Y-150220000D02*
X132695000Y-153310000D01*
X132695000Y-150220170D02*
G75*
G02*
X138245000Y-151765462I2560000J-1544830D01*
G01*
X138245000Y-151764538D02*
G75*
G02*
X132695000Y-153309830I-2990000J-462D01*
G01*
X137755000Y-151765000D02*
G75*
G02*
X132755000Y-151765000I-2500000J0D01*
G01*
X132755000Y-151765000D02*
G75*
G02*
X137755000Y-151765000I2500000J0D01*
G01*
%TO.C,D21*%
X229160933Y-206574931D02*
X229160933Y-209664931D01*
X229160933Y-206575101D02*
G75*
G02*
X234710933Y-208120393I2560000J-1544830D01*
G01*
X234710933Y-208119469D02*
G75*
G02*
X229160933Y-209664761I-2990000J-462D01*
G01*
X234220933Y-208119931D02*
G75*
G02*
X229220933Y-208119931I-2500000J0D01*
G01*
X229220933Y-208119931D02*
G75*
G02*
X234220933Y-208119931I2500000J0D01*
G01*
%TO.C,D118*%
X113645000Y-143870000D02*
X113645000Y-146960000D01*
X113645000Y-143870170D02*
G75*
G02*
X119195000Y-145415462I2560000J-1544830D01*
G01*
X119195000Y-145414538D02*
G75*
G02*
X113645000Y-146959830I-2990000J-462D01*
G01*
X118705000Y-145415000D02*
G75*
G02*
X113705000Y-145415000I-2500000J0D01*
G01*
X113705000Y-145415000D02*
G75*
G02*
X118705000Y-145415000I2500000J0D01*
G01*
%TO.C,D127*%
X119995000Y-156570000D02*
X119995000Y-159660000D01*
X119995000Y-156570170D02*
G75*
G02*
X125545000Y-158115462I2560000J-1544830D01*
G01*
X125545000Y-158114538D02*
G75*
G02*
X119995000Y-159659830I-2990000J-462D01*
G01*
X125055000Y-158115000D02*
G75*
G02*
X120055000Y-158115000I-2500000J0D01*
G01*
X120055000Y-158115000D02*
G75*
G02*
X125055000Y-158115000I2500000J0D01*
G01*
%TO.C,D289*%
X119979000Y-103539000D02*
X119979000Y-103695000D01*
X119979000Y-105855000D02*
X119979000Y-106011000D01*
X119979000Y-103539484D02*
G75*
G02*
X123211335Y-103696392I1560000J-1235517D01*
G01*
X120498039Y-103695000D02*
G75*
G02*
X122580130Y-103695163I1040961J-1080000D01*
G01*
X122580130Y-105854837D02*
G75*
G02*
X120498039Y-105855000I-1041130J1079837D01*
G01*
X123211335Y-105853608D02*
G75*
G02*
X119979000Y-106010516I-1672335J1078609D01*
G01*
%TO.C,D155*%
X159365000Y-156570000D02*
X159365000Y-159660000D01*
X159365000Y-156570170D02*
G75*
G02*
X164915000Y-158115462I2560000J-1544830D01*
G01*
X164915000Y-158114538D02*
G75*
G02*
X159365000Y-159659830I-2990000J-462D01*
G01*
X164425000Y-158115000D02*
G75*
G02*
X159425000Y-158115000I-2500000J0D01*
G01*
X159425000Y-158115000D02*
G75*
G02*
X164425000Y-158115000I2500000J0D01*
G01*
%TO.C,D298*%
X130139000Y-78139000D02*
X130139000Y-78295000D01*
X130139000Y-80455000D02*
X130139000Y-80611000D01*
X130139000Y-78139484D02*
G75*
G02*
X133371335Y-78296392I1560000J-1235517D01*
G01*
X130658039Y-78295000D02*
G75*
G02*
X132740130Y-78295163I1040961J-1080000D01*
G01*
X132740130Y-80454837D02*
G75*
G02*
X130658039Y-80455000I-1041130J1079837D01*
G01*
X133371335Y-80453608D02*
G75*
G02*
X130139000Y-80610516I-1672335J1078609D01*
G01*
%TO.C,D229*%
X130139000Y-194979000D02*
X130139000Y-195135000D01*
X130139000Y-197295000D02*
X130139000Y-197451000D01*
X130139000Y-194979484D02*
G75*
G02*
X133371335Y-195136392I1560000J-1235517D01*
G01*
X130658039Y-195135000D02*
G75*
G02*
X132740130Y-195135163I1040961J-1080000D01*
G01*
X132740130Y-197294837D02*
G75*
G02*
X130658039Y-197295000I-1041130J1079837D01*
G01*
X133371335Y-197293608D02*
G75*
G02*
X130139000Y-197450516I-1672335J1078609D01*
G01*
%TO.C,D195*%
X200005000Y-143870000D02*
X200005000Y-146960000D01*
X200005000Y-143870170D02*
G75*
G02*
X205555000Y-145415462I2560000J-1544830D01*
G01*
X205555000Y-145414538D02*
G75*
G02*
X200005000Y-146959830I-2990000J-462D01*
G01*
X205065000Y-145415000D02*
G75*
G02*
X200065000Y-145415000I-2500000J0D01*
G01*
X200065000Y-145415000D02*
G75*
G02*
X205065000Y-145415000I2500000J0D01*
G01*
%TO.C,D153*%
X159365000Y-143870000D02*
X159365000Y-146960000D01*
X159365000Y-143870170D02*
G75*
G02*
X164915000Y-145415462I2560000J-1544830D01*
G01*
X164915000Y-145414538D02*
G75*
G02*
X159365000Y-146959830I-2990000J-462D01*
G01*
X164425000Y-145415000D02*
G75*
G02*
X159425000Y-145415000I-2500000J0D01*
G01*
X159425000Y-145415000D02*
G75*
G02*
X164425000Y-145415000I2500000J0D01*
G01*
%TO.C,D287*%
X119979000Y-93379000D02*
X119979000Y-93535000D01*
X119979000Y-95695000D02*
X119979000Y-95851000D01*
X119979000Y-93379484D02*
G75*
G02*
X123211335Y-93536392I1560000J-1235517D01*
G01*
X120498039Y-93535000D02*
G75*
G02*
X122580130Y-93535163I1040961J-1080000D01*
G01*
X122580130Y-95694837D02*
G75*
G02*
X120498039Y-95695000I-1041130J1079837D01*
G01*
X123211335Y-95693608D02*
G75*
G02*
X119979000Y-95850516I-1672335J1078609D01*
G01*
%TO.C,D218*%
X119979000Y-210219000D02*
X119979000Y-210375000D01*
X119979000Y-212535000D02*
X119979000Y-212691000D01*
X119979000Y-210219484D02*
G75*
G02*
X123211335Y-210376392I1560000J-1235517D01*
G01*
X120498039Y-210375000D02*
G75*
G02*
X122580130Y-210375163I1040961J-1080000D01*
G01*
X122580130Y-212534837D02*
G75*
G02*
X120498039Y-212535000I-1041130J1079837D01*
G01*
X123211335Y-212533608D02*
G75*
G02*
X119979000Y-212690516I-1672335J1078609D01*
G01*
%TO.C,D55*%
X89515000Y-51482410D02*
X89515000Y-54572410D01*
X89515000Y-51482580D02*
G75*
G02*
X95065000Y-53027872I2560000J-1544830D01*
G01*
X95065000Y-53026948D02*
G75*
G02*
X89515000Y-54572240I-2990000J-462D01*
G01*
X94575000Y-53027410D02*
G75*
G02*
X89575000Y-53027410I-2500000J0D01*
G01*
X89575000Y-53027410D02*
G75*
G02*
X94575000Y-53027410I2500000J0D01*
G01*
%TO.C,D32*%
X120674981Y-248218786D02*
X120674981Y-251308786D01*
X120674981Y-248218956D02*
G75*
G02*
X126224981Y-249764248I2560000J-1544830D01*
G01*
X126224981Y-249763324D02*
G75*
G02*
X120674981Y-251308616I-2990000J-462D01*
G01*
X125734981Y-249763786D02*
G75*
G02*
X120734981Y-249763786I-2500000J0D01*
G01*
X120734981Y-249763786D02*
G75*
G02*
X125734981Y-249763786I2500000J0D01*
G01*
%TO.C,D349*%
X167731000Y-88299000D02*
X167731000Y-88455000D01*
X167731000Y-90615000D02*
X167731000Y-90771000D01*
X167731000Y-88299484D02*
G75*
G02*
X170963335Y-88456392I1560000J-1235517D01*
G01*
X168250039Y-88455000D02*
G75*
G02*
X170332130Y-88455163I1040961J-1080000D01*
G01*
X170332130Y-90614837D02*
G75*
G02*
X168250039Y-90615000I-1041130J1079837D01*
G01*
X170963335Y-90613608D02*
G75*
G02*
X167731000Y-90770516I-1672335J1078609D01*
G01*
%TO.C,D285*%
X119979000Y-83219000D02*
X119979000Y-83375000D01*
X119979000Y-85535000D02*
X119979000Y-85691000D01*
X119979000Y-83219484D02*
G75*
G02*
X123211335Y-83376392I1560000J-1235517D01*
G01*
X120498039Y-83375000D02*
G75*
G02*
X122580130Y-83375163I1040961J-1080000D01*
G01*
X122580130Y-85534837D02*
G75*
G02*
X120498039Y-85535000I-1041130J1079837D01*
G01*
X123211335Y-85533608D02*
G75*
G02*
X119979000Y-85690516I-1672335J1078609D01*
G01*
%TO.C,D315*%
X140299000Y-93379000D02*
X140299000Y-93535000D01*
X140299000Y-95695000D02*
X140299000Y-95851000D01*
X140299000Y-93379484D02*
G75*
G02*
X143531335Y-93536392I1560000J-1235517D01*
G01*
X140818039Y-93535000D02*
G75*
G02*
X142900130Y-93535163I1040961J-1080000D01*
G01*
X142900130Y-95694837D02*
G75*
G02*
X140818039Y-95695000I-1041130J1079837D01*
G01*
X143531335Y-95693608D02*
G75*
G02*
X140299000Y-95850516I-1672335J1078609D01*
G01*
%TO.C,D101*%
X98405000Y-124820000D02*
X98405000Y-127910000D01*
X98405000Y-124820170D02*
G75*
G02*
X103955000Y-126365462I2560000J-1544830D01*
G01*
X103955000Y-126364538D02*
G75*
G02*
X98405000Y-127909830I-2990000J-462D01*
G01*
X103465000Y-126365000D02*
G75*
G02*
X98465000Y-126365000I-2500000J0D01*
G01*
X98465000Y-126365000D02*
G75*
G02*
X103465000Y-126365000I2500000J0D01*
G01*
%TO.C,D299*%
X130139000Y-83219000D02*
X130139000Y-83375000D01*
X130139000Y-85535000D02*
X130139000Y-85691000D01*
X130139000Y-83219484D02*
G75*
G02*
X133371335Y-83376392I1560000J-1235517D01*
G01*
X130658039Y-83375000D02*
G75*
G02*
X132740130Y-83375163I1040961J-1080000D01*
G01*
X132740130Y-85534837D02*
G75*
G02*
X130658039Y-85535000I-1041130J1079837D01*
G01*
X133371335Y-85533608D02*
G75*
G02*
X130139000Y-85690516I-1672335J1078609D01*
G01*
%TO.C,D354*%
X142855000Y-151490000D02*
X142855000Y-154580000D01*
X142855000Y-151490170D02*
G75*
G02*
X148405000Y-153035462I2560000J-1544830D01*
G01*
X148405000Y-153034538D02*
G75*
G02*
X142855000Y-154579830I-2990000J-462D01*
G01*
X147915000Y-153035000D02*
G75*
G02*
X142915000Y-153035000I-2500000J0D01*
G01*
X142915000Y-153035000D02*
G75*
G02*
X147915000Y-153035000I2500000J0D01*
G01*
%TO.C,D51*%
X56549067Y-81165069D02*
X56549067Y-84255069D01*
X56549067Y-81165239D02*
G75*
G02*
X62099067Y-82710531I2560000J-1544830D01*
G01*
X62099067Y-82709607D02*
G75*
G02*
X56549067Y-84254899I-2990000J-462D01*
G01*
X61609067Y-82710069D02*
G75*
G02*
X56609067Y-82710069I-2500000J0D01*
G01*
X56609067Y-82710069D02*
G75*
G02*
X61609067Y-82710069I2500000J0D01*
G01*
%TO.C,D193*%
X200005000Y-131170000D02*
X200005000Y-134260000D01*
X200005000Y-131170170D02*
G75*
G02*
X205555000Y-132715462I2560000J-1544830D01*
G01*
X205555000Y-132714538D02*
G75*
G02*
X200005000Y-134259830I-2990000J-462D01*
G01*
X205065000Y-132715000D02*
G75*
G02*
X200065000Y-132715000I-2500000J0D01*
G01*
X200065000Y-132715000D02*
G75*
G02*
X205065000Y-132715000I2500000J0D01*
G01*
%TO.C,D250*%
X147411000Y-194979000D02*
X147411000Y-195135000D01*
X147411000Y-197295000D02*
X147411000Y-197451000D01*
X147411000Y-194979484D02*
G75*
G02*
X150643335Y-195136392I1560000J-1235517D01*
G01*
X147930039Y-195135000D02*
G75*
G02*
X150012130Y-195135163I1040961J-1080000D01*
G01*
X150012130Y-197294837D02*
G75*
G02*
X147930039Y-197295000I-1041130J1079837D01*
G01*
X150643335Y-197293608D02*
G75*
G02*
X147411000Y-197450516I-1672335J1078609D01*
G01*
%TO.C,D95*%
X92055000Y-131170000D02*
X92055000Y-134260000D01*
X92055000Y-131170170D02*
G75*
G02*
X97605000Y-132715462I2560000J-1544830D01*
G01*
X97605000Y-132714538D02*
G75*
G02*
X92055000Y-134259830I-2990000J-462D01*
G01*
X97115000Y-132715000D02*
G75*
G02*
X92115000Y-132715000I-2500000J0D01*
G01*
X92115000Y-132715000D02*
G75*
G02*
X97115000Y-132715000I2500000J0D01*
G01*
%TO.C,D48*%
X41396291Y-110904067D02*
X41396291Y-113994067D01*
X41396291Y-110904237D02*
G75*
G02*
X46946291Y-112449529I2560000J-1544830D01*
G01*
X46946291Y-112448605D02*
G75*
G02*
X41396291Y-113993897I-2990000J-462D01*
G01*
X46456291Y-112449067D02*
G75*
G02*
X41456291Y-112449067I-2500000J0D01*
G01*
X41456291Y-112449067D02*
G75*
G02*
X46456291Y-112449067I2500000J0D01*
G01*
%TO.C,D76*%
X73005000Y-143870000D02*
X73005000Y-146960000D01*
X73005000Y-143870170D02*
G75*
G02*
X78555000Y-145415462I2560000J-1544830D01*
G01*
X78555000Y-145414538D02*
G75*
G02*
X73005000Y-146959830I-2990000J-462D01*
G01*
X78065000Y-145415000D02*
G75*
G02*
X73065000Y-145415000I-2500000J0D01*
G01*
X73065000Y-145415000D02*
G75*
G02*
X78065000Y-145415000I2500000J0D01*
G01*
%TO.C,D339*%
X162651000Y-73059000D02*
X162651000Y-73215000D01*
X162651000Y-75375000D02*
X162651000Y-75531000D01*
X162651000Y-73059484D02*
G75*
G02*
X165883335Y-73216392I1560000J-1235517D01*
G01*
X163170039Y-73215000D02*
G75*
G02*
X165252130Y-73215163I1040961J-1080000D01*
G01*
X165252130Y-75374837D02*
G75*
G02*
X163170039Y-75375000I-1041130J1079837D01*
G01*
X165883335Y-75373608D02*
G75*
G02*
X162651000Y-75530516I-1672335J1078609D01*
G01*
%TO.C,D165*%
X172065000Y-131170000D02*
X172065000Y-134260000D01*
X172065000Y-131170170D02*
G75*
G02*
X177615000Y-132715462I2560000J-1544830D01*
G01*
X177615000Y-132714538D02*
G75*
G02*
X172065000Y-134259830I-2990000J-462D01*
G01*
X177125000Y-132715000D02*
G75*
G02*
X172125000Y-132715000I-2500000J0D01*
G01*
X172125000Y-132715000D02*
G75*
G02*
X177125000Y-132715000I2500000J0D01*
G01*
%TO.C,D331*%
X152491000Y-103539000D02*
X152491000Y-103695000D01*
X152491000Y-105855000D02*
X152491000Y-106011000D01*
X152491000Y-103539484D02*
G75*
G02*
X155723335Y-103696392I1560000J-1235517D01*
G01*
X153010039Y-103695000D02*
G75*
G02*
X155092130Y-103695163I1040961J-1080000D01*
G01*
X155092130Y-105854837D02*
G75*
G02*
X153010039Y-105855000I-1041130J1079837D01*
G01*
X155723335Y-105853608D02*
G75*
G02*
X152491000Y-106010516I-1672335J1078609D01*
G01*
%TO.C,D23*%
X214237853Y-223148690D02*
X214237853Y-226238690D01*
X214237853Y-223148860D02*
G75*
G02*
X219787853Y-224694152I2560000J-1544830D01*
G01*
X219787853Y-224693228D02*
G75*
G02*
X214237853Y-226238520I-2990000J-462D01*
G01*
X219297853Y-224693690D02*
G75*
G02*
X214297853Y-224693690I-2500000J0D01*
G01*
X214297853Y-224693690D02*
G75*
G02*
X219297853Y-224693690I2500000J0D01*
G01*
%TO.C,D236*%
X135219000Y-194979000D02*
X135219000Y-195135000D01*
X135219000Y-197295000D02*
X135219000Y-197451000D01*
X135219000Y-194979484D02*
G75*
G02*
X138451335Y-195136392I1560000J-1235517D01*
G01*
X135738039Y-195135000D02*
G75*
G02*
X137820130Y-195135163I1040961J-1080000D01*
G01*
X137820130Y-197294837D02*
G75*
G02*
X135738039Y-197295000I-1041130J1079837D01*
G01*
X138451335Y-197293608D02*
G75*
G02*
X135219000Y-197450516I-1672335J1078609D01*
G01*
%TO.C,D68*%
X57066524Y-193400000D02*
X57066524Y-196490000D01*
X57066524Y-193400170D02*
G75*
G02*
X62616524Y-194945462I2560000J-1544830D01*
G01*
X62616524Y-194944538D02*
G75*
G02*
X57066524Y-196489830I-2990000J-462D01*
G01*
X62126524Y-194945000D02*
G75*
G02*
X57126524Y-194945000I-2500000J0D01*
G01*
X57126524Y-194945000D02*
G75*
G02*
X62126524Y-194945000I2500000J0D01*
G01*
%TO.C,D245*%
X140299000Y-205139000D02*
X140299000Y-205295000D01*
X140299000Y-207455000D02*
X140299000Y-207611000D01*
X140299000Y-205139484D02*
G75*
G02*
X143531335Y-205296392I1560000J-1235517D01*
G01*
X140818039Y-205295000D02*
G75*
G02*
X142900130Y-205295163I1040961J-1080000D01*
G01*
X142900130Y-207454837D02*
G75*
G02*
X140818039Y-207455000I-1041130J1079837D01*
G01*
X143531335Y-207453608D02*
G75*
G02*
X140299000Y-207610516I-1672335J1078609D01*
G01*
%TO.C,D129*%
X126345000Y-124820000D02*
X126345000Y-127910000D01*
X126345000Y-124820170D02*
G75*
G02*
X131895000Y-126365462I2560000J-1544830D01*
G01*
X131895000Y-126364538D02*
G75*
G02*
X126345000Y-127909830I-2990000J-462D01*
G01*
X131405000Y-126365000D02*
G75*
G02*
X126405000Y-126365000I-2500000J0D01*
G01*
X126405000Y-126365000D02*
G75*
G02*
X131405000Y-126365000I2500000J0D01*
G01*
%TO.C,D282*%
X167731000Y-215299000D02*
X167731000Y-215455000D01*
X167731000Y-217615000D02*
X167731000Y-217771000D01*
X167731000Y-215299484D02*
G75*
G02*
X170963335Y-215456392I1560000J-1235517D01*
G01*
X168250039Y-215455000D02*
G75*
G02*
X170332130Y-215455163I1040961J-1080000D01*
G01*
X170332130Y-217614837D02*
G75*
G02*
X168250039Y-217615000I-1041130J1079837D01*
G01*
X170963335Y-217613608D02*
G75*
G02*
X167731000Y-217770516I-1672335J1078609D01*
G01*
%TO.C,D212*%
X212705000Y-162920000D02*
X212705000Y-166010000D01*
X212705000Y-162920170D02*
G75*
G02*
X218255000Y-164465462I2560000J-1544830D01*
G01*
X218255000Y-164464538D02*
G75*
G02*
X212705000Y-166009830I-2990000J-462D01*
G01*
X217765000Y-164465000D02*
G75*
G02*
X212765000Y-164465000I-2500000J0D01*
G01*
X212765000Y-164465000D02*
G75*
G02*
X217765000Y-164465000I2500000J0D01*
G01*
%TO.C,D98*%
X92055000Y-150220000D02*
X92055000Y-153310000D01*
X92055000Y-150220170D02*
G75*
G02*
X97605000Y-151765462I2560000J-1544830D01*
G01*
X97605000Y-151764538D02*
G75*
G02*
X92055000Y-153309830I-2990000J-462D01*
G01*
X97115000Y-151765000D02*
G75*
G02*
X92115000Y-151765000I-2500000J0D01*
G01*
X92115000Y-151765000D02*
G75*
G02*
X97115000Y-151765000I2500000J0D01*
G01*
%TO.C,D11*%
X240312029Y-100479335D02*
X240312029Y-103569335D01*
X240312029Y-100479505D02*
G75*
G02*
X245862029Y-102024797I2560000J-1544830D01*
G01*
X245862029Y-102023873D02*
G75*
G02*
X240312029Y-103569165I-2990000J-462D01*
G01*
X245372029Y-102024335D02*
G75*
G02*
X240372029Y-102024335I-2500000J0D01*
G01*
X240372029Y-102024335D02*
G75*
G02*
X245372029Y-102024335I2500000J0D01*
G01*
%TO.C,D72*%
X142855000Y-44810000D02*
X142855000Y-47900000D01*
X142855000Y-44810170D02*
G75*
G02*
X148405000Y-46355462I2560000J-1544830D01*
G01*
X148405000Y-46354538D02*
G75*
G02*
X142855000Y-47899830I-2990000J-462D01*
G01*
X147915000Y-46355000D02*
G75*
G02*
X142915000Y-46355000I-2500000J0D01*
G01*
X142915000Y-46355000D02*
G75*
G02*
X147915000Y-46355000I2500000J0D01*
G01*
%TO.C,D5*%
X196195000Y-51482410D02*
X196195000Y-54572410D01*
X196195000Y-51482580D02*
G75*
G02*
X201745000Y-53027872I2560000J-1544830D01*
G01*
X201745000Y-53026948D02*
G75*
G02*
X196195000Y-54572240I-2990000J-462D01*
G01*
X201255000Y-53027410D02*
G75*
G02*
X196255000Y-53027410I-2500000J0D01*
G01*
X196255000Y-53027410D02*
G75*
G02*
X201255000Y-53027410I2500000J0D01*
G01*
%TO.C,D164*%
X172065000Y-124820000D02*
X172065000Y-127910000D01*
X172065000Y-124820170D02*
G75*
G02*
X177615000Y-126365462I2560000J-1544830D01*
G01*
X177615000Y-126364538D02*
G75*
G02*
X172065000Y-127909830I-2990000J-462D01*
G01*
X177125000Y-126365000D02*
G75*
G02*
X172125000Y-126365000I-2500000J0D01*
G01*
X172125000Y-126365000D02*
G75*
G02*
X177125000Y-126365000I2500000J0D01*
G01*
%TO.C,D161*%
X165715000Y-150220000D02*
X165715000Y-153310000D01*
X165715000Y-150220170D02*
G75*
G02*
X171265000Y-151765462I2560000J-1544830D01*
G01*
X171265000Y-151764538D02*
G75*
G02*
X165715000Y-153309830I-2990000J-462D01*
G01*
X170775000Y-151765000D02*
G75*
G02*
X165775000Y-151765000I-2500000J0D01*
G01*
X165775000Y-151765000D02*
G75*
G02*
X170775000Y-151765000I2500000J0D01*
G01*
%TO.C,D190*%
X193655000Y-156570000D02*
X193655000Y-159660000D01*
X193655000Y-156570170D02*
G75*
G02*
X199205000Y-158115462I2560000J-1544830D01*
G01*
X199205000Y-158114538D02*
G75*
G02*
X193655000Y-159659830I-2990000J-462D01*
G01*
X198715000Y-158115000D02*
G75*
G02*
X193715000Y-158115000I-2500000J0D01*
G01*
X193715000Y-158115000D02*
G75*
G02*
X198715000Y-158115000I2500000J0D01*
G01*
%TO.C,D240*%
X135219000Y-215299000D02*
X135219000Y-215455000D01*
X135219000Y-217615000D02*
X135219000Y-217771000D01*
X135219000Y-215299484D02*
G75*
G02*
X138451335Y-215456392I1560000J-1235517D01*
G01*
X135738039Y-215455000D02*
G75*
G02*
X137820130Y-215455163I1040961J-1080000D01*
G01*
X137820130Y-217614837D02*
G75*
G02*
X135738039Y-217615000I-1041130J1079837D01*
G01*
X138451335Y-217613608D02*
G75*
G02*
X135219000Y-217770516I-1672335J1078609D01*
G01*
%TO.C,D248*%
X147411000Y-184819000D02*
X147411000Y-184975000D01*
X147411000Y-187135000D02*
X147411000Y-187291000D01*
X147411000Y-184819484D02*
G75*
G02*
X150643335Y-184976392I1560000J-1235517D01*
G01*
X147930039Y-184975000D02*
G75*
G02*
X150012130Y-184975163I1040961J-1080000D01*
G01*
X150012130Y-187134837D02*
G75*
G02*
X147930039Y-187135000I-1041130J1079837D01*
G01*
X150643335Y-187133608D02*
G75*
G02*
X147411000Y-187290516I-1672335J1078609D01*
G01*
%TO.C,D102*%
X98405000Y-131170000D02*
X98405000Y-134260000D01*
X98405000Y-131170170D02*
G75*
G02*
X103955000Y-132715462I2560000J-1544830D01*
G01*
X103955000Y-132714538D02*
G75*
G02*
X98405000Y-134259830I-2990000J-462D01*
G01*
X103465000Y-132715000D02*
G75*
G02*
X98465000Y-132715000I-2500000J0D01*
G01*
X98465000Y-132715000D02*
G75*
G02*
X103465000Y-132715000I2500000J0D01*
G01*
%TO.C,D31*%
X131703904Y-249965596D02*
X131703904Y-253055596D01*
X131703904Y-249965766D02*
G75*
G02*
X137253904Y-251511058I2560000J-1544830D01*
G01*
X137253904Y-251510134D02*
G75*
G02*
X131703904Y-253055426I-2990000J-462D01*
G01*
X136763904Y-251510596D02*
G75*
G02*
X131763904Y-251510596I-2500000J0D01*
G01*
X131763904Y-251510596D02*
G75*
G02*
X136763904Y-251510596I2500000J0D01*
G01*
%TO.C,D226*%
X125059000Y-215299000D02*
X125059000Y-215455000D01*
X125059000Y-217615000D02*
X125059000Y-217771000D01*
X125059000Y-215299484D02*
G75*
G02*
X128291335Y-215456392I1560000J-1235517D01*
G01*
X125578039Y-215455000D02*
G75*
G02*
X127660130Y-215455163I1040961J-1080000D01*
G01*
X127660130Y-217614837D02*
G75*
G02*
X125578039Y-217615000I-1041130J1079837D01*
G01*
X128291335Y-217613608D02*
G75*
G02*
X125059000Y-217770516I-1672335J1078609D01*
G01*
%TO.C,R1*%
X51995400Y-150496536D02*
X51995400Y-150950664D01*
X53465400Y-150496536D02*
X53465400Y-150950664D01*
%TO.C,D168*%
X172065000Y-150220000D02*
X172065000Y-153310000D01*
X172065000Y-150220170D02*
G75*
G02*
X177615000Y-151765462I2560000J-1544830D01*
G01*
X177615000Y-151764538D02*
G75*
G02*
X172065000Y-153309830I-2990000J-462D01*
G01*
X177125000Y-151765000D02*
G75*
G02*
X172125000Y-151765000I-2500000J0D01*
G01*
X172125000Y-151765000D02*
G75*
G02*
X177125000Y-151765000I2500000J0D01*
G01*
%TO.C,D271*%
X162651000Y-194979000D02*
X162651000Y-195135000D01*
X162651000Y-197295000D02*
X162651000Y-197451000D01*
X162651000Y-194979484D02*
G75*
G02*
X165883335Y-195136392I1560000J-1235517D01*
G01*
X163170039Y-195135000D02*
G75*
G02*
X165252130Y-195135163I1040961J-1080000D01*
G01*
X165252130Y-197294837D02*
G75*
G02*
X163170039Y-197295000I-1041130J1079837D01*
G01*
X165883335Y-197293608D02*
G75*
G02*
X162651000Y-197450516I-1672335J1078609D01*
G01*
%TO.C,D67*%
X93325000Y-229658476D02*
X93325000Y-232748476D01*
X93325000Y-229658646D02*
G75*
G02*
X98875000Y-231203938I2560000J-1544830D01*
G01*
X98875000Y-231203014D02*
G75*
G02*
X93325000Y-232748306I-2990000J-462D01*
G01*
X98385000Y-231203476D02*
G75*
G02*
X93385000Y-231203476I-2500000J0D01*
G01*
X93385000Y-231203476D02*
G75*
G02*
X98385000Y-231203476I2500000J0D01*
G01*
%TO.C,C23*%
X139080000Y-117153748D02*
X139080000Y-117676252D01*
X140550000Y-117153748D02*
X140550000Y-117676252D01*
%TO.C,D202*%
X206355000Y-143870000D02*
X206355000Y-146960000D01*
X206355000Y-143870170D02*
G75*
G02*
X211905000Y-145415462I2560000J-1544830D01*
G01*
X211905000Y-145414538D02*
G75*
G02*
X206355000Y-146959830I-2990000J-462D01*
G01*
X211415000Y-145415000D02*
G75*
G02*
X206415000Y-145415000I-2500000J0D01*
G01*
X206415000Y-145415000D02*
G75*
G02*
X211415000Y-145415000I2500000J0D01*
G01*
%TO.C,D189*%
X193655000Y-150220000D02*
X193655000Y-153310000D01*
X193655000Y-150220170D02*
G75*
G02*
X199205000Y-151765462I2560000J-1544830D01*
G01*
X199205000Y-151764538D02*
G75*
G02*
X193655000Y-153309830I-2990000J-462D01*
G01*
X198715000Y-151765000D02*
G75*
G02*
X193715000Y-151765000I-2500000J0D01*
G01*
X193715000Y-151765000D02*
G75*
G02*
X198715000Y-151765000I2500000J0D01*
G01*
%TO.C,D160*%
X165715000Y-143870000D02*
X165715000Y-146960000D01*
X165715000Y-143870170D02*
G75*
G02*
X171265000Y-145415462I2560000J-1544830D01*
G01*
X171265000Y-145414538D02*
G75*
G02*
X165715000Y-146959830I-2990000J-462D01*
G01*
X170775000Y-145415000D02*
G75*
G02*
X165775000Y-145415000I-2500000J0D01*
G01*
X165775000Y-145415000D02*
G75*
G02*
X170775000Y-145415000I2500000J0D01*
G01*
%TO.C,D337*%
X157571000Y-98459000D02*
X157571000Y-98615000D01*
X157571000Y-100775000D02*
X157571000Y-100931000D01*
X157571000Y-98459484D02*
G75*
G02*
X160803335Y-98616392I1560000J-1235517D01*
G01*
X158090039Y-98615000D02*
G75*
G02*
X160172130Y-98615163I1040961J-1080000D01*
G01*
X160172130Y-100774837D02*
G75*
G02*
X158090039Y-100775000I-1041130J1079837D01*
G01*
X160803335Y-100773608D02*
G75*
G02*
X157571000Y-100930516I-1672335J1078609D01*
G01*
%TO.C,D133*%
X126345000Y-150220000D02*
X126345000Y-153310000D01*
X126345000Y-150220170D02*
G75*
G02*
X131895000Y-151765462I2560000J-1544830D01*
G01*
X131895000Y-151764538D02*
G75*
G02*
X126345000Y-153309830I-2990000J-462D01*
G01*
X131405000Y-151765000D02*
G75*
G02*
X126405000Y-151765000I-2500000J0D01*
G01*
X126405000Y-151765000D02*
G75*
G02*
X131405000Y-151765000I2500000J0D01*
G01*
%TO.C,C1*%
X56669000Y-150984852D02*
X56669000Y-150462348D01*
X58139000Y-150984852D02*
X58139000Y-150462348D01*
%TO.C,D322*%
X147411000Y-93379000D02*
X147411000Y-93535000D01*
X147411000Y-95695000D02*
X147411000Y-95851000D01*
X147411000Y-93379484D02*
G75*
G02*
X150643335Y-93536392I1560000J-1235517D01*
G01*
X147930039Y-93535000D02*
G75*
G02*
X150012130Y-93535163I1040961J-1080000D01*
G01*
X150012130Y-95694837D02*
G75*
G02*
X147930039Y-95695000I-1041130J1079837D01*
G01*
X150643335Y-95693608D02*
G75*
G02*
X147411000Y-95850516I-1672335J1078609D01*
G01*
%TO.C,D131*%
X126345000Y-137520000D02*
X126345000Y-140610000D01*
X126345000Y-137520170D02*
G75*
G02*
X131895000Y-139065462I2560000J-1544830D01*
G01*
X131895000Y-139064538D02*
G75*
G02*
X126345000Y-140609830I-2990000J-462D01*
G01*
X131405000Y-139065000D02*
G75*
G02*
X126405000Y-139065000I-2500000J0D01*
G01*
X126405000Y-139065000D02*
G75*
G02*
X131405000Y-139065000I2500000J0D01*
G01*
%TO.C,D104*%
X98405000Y-143870000D02*
X98405000Y-146960000D01*
X98405000Y-143870170D02*
G75*
G02*
X103955000Y-145415462I2560000J-1544830D01*
G01*
X103955000Y-145414538D02*
G75*
G02*
X98405000Y-146959830I-2990000J-462D01*
G01*
X103465000Y-145415000D02*
G75*
G02*
X98465000Y-145415000I-2500000J0D01*
G01*
X98465000Y-145415000D02*
G75*
G02*
X103465000Y-145415000I2500000J0D01*
G01*
%TO.C,D335*%
X157571000Y-88299000D02*
X157571000Y-88455000D01*
X157571000Y-90615000D02*
X157571000Y-90771000D01*
X157571000Y-88299484D02*
G75*
G02*
X160803335Y-88456392I1560000J-1235517D01*
G01*
X158090039Y-88455000D02*
G75*
G02*
X160172130Y-88455163I1040961J-1080000D01*
G01*
X160172130Y-90614837D02*
G75*
G02*
X158090039Y-90615000I-1041130J1079837D01*
G01*
X160803335Y-90613608D02*
G75*
G02*
X157571000Y-90770516I-1672335J1078609D01*
G01*
%TO.C,D86*%
X79355000Y-162920000D02*
X79355000Y-166010000D01*
X79355000Y-162920170D02*
G75*
G02*
X84905000Y-164465462I2560000J-1544830D01*
G01*
X84905000Y-164464538D02*
G75*
G02*
X79355000Y-166009830I-2990000J-462D01*
G01*
X84415000Y-164465000D02*
G75*
G02*
X79415000Y-164465000I-2500000J0D01*
G01*
X79415000Y-164465000D02*
G75*
G02*
X84415000Y-164465000I2500000J0D01*
G01*
%TO.C,D230*%
X130139000Y-200059000D02*
X130139000Y-200215000D01*
X130139000Y-202375000D02*
X130139000Y-202531000D01*
X130139000Y-200059484D02*
G75*
G02*
X133371335Y-200216392I1560000J-1235517D01*
G01*
X130658039Y-200215000D02*
G75*
G02*
X132740130Y-200215163I1040961J-1080000D01*
G01*
X132740130Y-202374837D02*
G75*
G02*
X130658039Y-202375000I-1041130J1079837D01*
G01*
X133371335Y-202373608D02*
G75*
G02*
X130139000Y-202530516I-1672335J1078609D01*
G01*
%TO.C,D159*%
X165715000Y-137520000D02*
X165715000Y-140610000D01*
X165715000Y-137520170D02*
G75*
G02*
X171265000Y-139065462I2560000J-1544830D01*
G01*
X171265000Y-139064538D02*
G75*
G02*
X165715000Y-140609830I-2990000J-462D01*
G01*
X170775000Y-139065000D02*
G75*
G02*
X165775000Y-139065000I-2500000J0D01*
G01*
X165775000Y-139065000D02*
G75*
G02*
X170775000Y-139065000I2500000J0D01*
G01*
%TO.C,D290*%
X125059000Y-73059000D02*
X125059000Y-73215000D01*
X125059000Y-75375000D02*
X125059000Y-75531000D01*
X125059000Y-73059484D02*
G75*
G02*
X128291335Y-73216392I1560000J-1235517D01*
G01*
X125578039Y-73215000D02*
G75*
G02*
X127660130Y-73215163I1040961J-1080000D01*
G01*
X127660130Y-75374837D02*
G75*
G02*
X125578039Y-75375000I-1041130J1079837D01*
G01*
X128291335Y-75373608D02*
G75*
G02*
X125059000Y-75530516I-1672335J1078609D01*
G01*
%TO.C,R8*%
X96239064Y-194591000D02*
X95784936Y-194591000D01*
X96239064Y-196061000D02*
X95784936Y-196061000D01*
%TO.C,D106*%
X98405000Y-156570000D02*
X98405000Y-159660000D01*
X98405000Y-156570170D02*
G75*
G02*
X103955000Y-158115462I2560000J-1544830D01*
G01*
X103955000Y-158114538D02*
G75*
G02*
X98405000Y-159659830I-2990000J-462D01*
G01*
X103465000Y-158115000D02*
G75*
G02*
X98465000Y-158115000I-2500000J0D01*
G01*
X98465000Y-158115000D02*
G75*
G02*
X103465000Y-158115000I2500000J0D01*
G01*
%TO.C,D196*%
X200005000Y-150220000D02*
X200005000Y-153310000D01*
X200005000Y-150220170D02*
G75*
G02*
X205555000Y-151765462I2560000J-1544830D01*
G01*
X205555000Y-151764538D02*
G75*
G02*
X200005000Y-153309830I-2990000J-462D01*
G01*
X205065000Y-151765000D02*
G75*
G02*
X200065000Y-151765000I-2500000J0D01*
G01*
X200065000Y-151765000D02*
G75*
G02*
X205065000Y-151765000I2500000J0D01*
G01*
%TO.C,D157*%
X165715000Y-124820000D02*
X165715000Y-127910000D01*
X165715000Y-124820170D02*
G75*
G02*
X171265000Y-126365462I2560000J-1544830D01*
G01*
X171265000Y-126364538D02*
G75*
G02*
X165715000Y-127909830I-2990000J-462D01*
G01*
X170775000Y-126365000D02*
G75*
G02*
X165775000Y-126365000I-2500000J0D01*
G01*
X165775000Y-126365000D02*
G75*
G02*
X170775000Y-126365000I2500000J0D01*
G01*
%TO.C,C10*%
X106351400Y-90685252D02*
X106351400Y-90162748D01*
X107821400Y-90685252D02*
X107821400Y-90162748D01*
%TO.C,D49*%
X45397971Y-100479335D02*
X45397971Y-103569335D01*
X45397971Y-100479505D02*
G75*
G02*
X50947971Y-102024797I2560000J-1544830D01*
G01*
X50947971Y-102023873D02*
G75*
G02*
X45397971Y-103569165I-2990000J-462D01*
G01*
X50457971Y-102024335D02*
G75*
G02*
X45457971Y-102024335I-2500000J0D01*
G01*
X45457971Y-102024335D02*
G75*
G02*
X50457971Y-102024335I2500000J0D01*
G01*
%TO.C,R4*%
X51995400Y-156284664D02*
X51995400Y-155830536D01*
X53465400Y-156284664D02*
X53465400Y-155830536D01*
%TO.C,D44*%
X36759404Y-155021096D02*
X36759404Y-158111096D01*
X36759404Y-155021266D02*
G75*
G02*
X42309404Y-156566558I2560000J-1544830D01*
G01*
X42309404Y-156565634D02*
G75*
G02*
X36759404Y-158110926I-2990000J-462D01*
G01*
X41819404Y-156566096D02*
G75*
G02*
X36819404Y-156566096I-2500000J0D01*
G01*
X36819404Y-156566096D02*
G75*
G02*
X41819404Y-156566096I2500000J0D01*
G01*
%TO.C,D6*%
X205559931Y-57564067D02*
X205559931Y-60654067D01*
X205559931Y-57564237D02*
G75*
G02*
X211109931Y-59109529I2560000J-1544830D01*
G01*
X211109931Y-59108605D02*
G75*
G02*
X205559931Y-60653897I-2990000J-462D01*
G01*
X210619931Y-59109067D02*
G75*
G02*
X205619931Y-59109067I-2500000J0D01*
G01*
X205619931Y-59109067D02*
G75*
G02*
X210619931Y-59109067I2500000J0D01*
G01*
%TO.C,C6*%
X239650600Y-141129652D02*
X239650600Y-140607148D01*
X241120600Y-141129652D02*
X241120600Y-140607148D01*
%TO.C,D7*%
X214237853Y-64591310D02*
X214237853Y-67681310D01*
X214237853Y-64591480D02*
G75*
G02*
X219787853Y-66136772I2560000J-1544830D01*
G01*
X219787853Y-66135848D02*
G75*
G02*
X214237853Y-67681140I-2990000J-462D01*
G01*
X219297853Y-66136310D02*
G75*
G02*
X214297853Y-66136310I-2500000J0D01*
G01*
X214297853Y-66136310D02*
G75*
G02*
X219297853Y-66136310I2500000J0D01*
G01*
%TO.C,D181*%
X187305000Y-143870000D02*
X187305000Y-146960000D01*
X187305000Y-143870170D02*
G75*
G02*
X192855000Y-145415462I2560000J-1544830D01*
G01*
X192855000Y-145414538D02*
G75*
G02*
X187305000Y-146959830I-2990000J-462D01*
G01*
X192365000Y-145415000D02*
G75*
G02*
X187365000Y-145415000I-2500000J0D01*
G01*
X187365000Y-145415000D02*
G75*
G02*
X192365000Y-145415000I2500000J0D01*
G01*
%TO.C,D217*%
X119979000Y-205139000D02*
X119979000Y-205295000D01*
X119979000Y-207455000D02*
X119979000Y-207611000D01*
X119979000Y-205139484D02*
G75*
G02*
X123211335Y-205296392I1560000J-1235517D01*
G01*
X120498039Y-205295000D02*
G75*
G02*
X122580130Y-205295163I1040961J-1080000D01*
G01*
X122580130Y-207454837D02*
G75*
G02*
X120498039Y-207455000I-1041130J1079837D01*
G01*
X123211335Y-207453608D02*
G75*
G02*
X119979000Y-207610516I-1672335J1078609D01*
G01*
%TO.C,D232*%
X130139000Y-210219000D02*
X130139000Y-210375000D01*
X130139000Y-212535000D02*
X130139000Y-212691000D01*
X130139000Y-210219484D02*
G75*
G02*
X133371335Y-210376392I1560000J-1235517D01*
G01*
X130658039Y-210375000D02*
G75*
G02*
X132740130Y-210375163I1040961J-1080000D01*
G01*
X132740130Y-212534837D02*
G75*
G02*
X130658039Y-212535000I-1041130J1079837D01*
G01*
X133371335Y-212533608D02*
G75*
G02*
X130139000Y-212690516I-1672335J1078609D01*
G01*
%TO.C,D43*%
X38506214Y-166050019D02*
X38506214Y-169140019D01*
X38506214Y-166050189D02*
G75*
G02*
X44056214Y-167595481I2560000J-1544830D01*
G01*
X44056214Y-167594557D02*
G75*
G02*
X38506214Y-169139849I-2990000J-462D01*
G01*
X43566214Y-167595019D02*
G75*
G02*
X38566214Y-167595019I-2500000J0D01*
G01*
X38566214Y-167595019D02*
G75*
G02*
X43566214Y-167595019I2500000J0D01*
G01*
%TO.C,D206*%
X212705000Y-124820000D02*
X212705000Y-127910000D01*
X212705000Y-124820170D02*
G75*
G02*
X218255000Y-126365462I2560000J-1544830D01*
G01*
X218255000Y-126364538D02*
G75*
G02*
X212705000Y-127909830I-2990000J-462D01*
G01*
X217765000Y-126365000D02*
G75*
G02*
X212765000Y-126365000I-2500000J0D01*
G01*
X212765000Y-126365000D02*
G75*
G02*
X217765000Y-126365000I2500000J0D01*
G01*
%TO.C,D275*%
X162651000Y-215299000D02*
X162651000Y-215455000D01*
X162651000Y-217615000D02*
X162651000Y-217771000D01*
X162651000Y-215299484D02*
G75*
G02*
X165883335Y-215456392I1560000J-1235517D01*
G01*
X163170039Y-215455000D02*
G75*
G02*
X165252130Y-215455163I1040961J-1080000D01*
G01*
X165252130Y-217614837D02*
G75*
G02*
X163170039Y-217615000I-1041130J1079837D01*
G01*
X165883335Y-217613608D02*
G75*
G02*
X162651000Y-217770516I-1672335J1078609D01*
G01*
%TO.C,C11*%
X137949000Y-230167548D02*
X137949000Y-230690052D01*
X139419000Y-230167548D02*
X139419000Y-230690052D01*
%TO.C,D14*%
X248950596Y-132718904D02*
X248950596Y-135808904D01*
X248950596Y-132719074D02*
G75*
G02*
X254500596Y-134264366I2560000J-1544830D01*
G01*
X254500596Y-134263442D02*
G75*
G02*
X248950596Y-135808734I-2990000J-462D01*
G01*
X254010596Y-134263904D02*
G75*
G02*
X249010596Y-134263904I-2500000J0D01*
G01*
X249010596Y-134263904D02*
G75*
G02*
X254010596Y-134263904I2500000J0D01*
G01*
%TO.C,D249*%
X147411000Y-189899000D02*
X147411000Y-190055000D01*
X147411000Y-192215000D02*
X147411000Y-192371000D01*
X147411000Y-189899484D02*
G75*
G02*
X150643335Y-190056392I1560000J-1235517D01*
G01*
X147930039Y-190055000D02*
G75*
G02*
X150012130Y-190055163I1040961J-1080000D01*
G01*
X150012130Y-192214837D02*
G75*
G02*
X147930039Y-192215000I-1041130J1079837D01*
G01*
X150643335Y-192213608D02*
G75*
G02*
X147411000Y-192370516I-1672335J1078609D01*
G01*
%TO.C,D148*%
X153015000Y-156570000D02*
X153015000Y-159660000D01*
X153015000Y-156570170D02*
G75*
G02*
X158565000Y-158115462I2560000J-1544830D01*
G01*
X158565000Y-158114538D02*
G75*
G02*
X153015000Y-159659830I-2990000J-462D01*
G01*
X158075000Y-158115000D02*
G75*
G02*
X153075000Y-158115000I-2500000J0D01*
G01*
X153075000Y-158115000D02*
G75*
G02*
X158075000Y-158115000I2500000J0D01*
G01*
%TO.C,D2*%
X165035019Y-39521214D02*
X165035019Y-42611214D01*
X165035019Y-39521384D02*
G75*
G02*
X170585019Y-41066676I2560000J-1544830D01*
G01*
X170585019Y-41065752D02*
G75*
G02*
X165035019Y-42611044I-2990000J-462D01*
G01*
X170095019Y-41066214D02*
G75*
G02*
X165095019Y-41066214I-2500000J0D01*
G01*
X165095019Y-41066214D02*
G75*
G02*
X170095019Y-41066214I2500000J0D01*
G01*
%TO.C,D180*%
X187305000Y-137520000D02*
X187305000Y-140610000D01*
X187305000Y-137520170D02*
G75*
G02*
X192855000Y-139065462I2560000J-1544830D01*
G01*
X192855000Y-139064538D02*
G75*
G02*
X187305000Y-140609830I-2990000J-462D01*
G01*
X192365000Y-139065000D02*
G75*
G02*
X187365000Y-139065000I-2500000J0D01*
G01*
X187365000Y-139065000D02*
G75*
G02*
X192365000Y-139065000I2500000J0D01*
G01*
%TO.C,D210*%
X212705000Y-150220000D02*
X212705000Y-153310000D01*
X212705000Y-150220170D02*
G75*
G02*
X218255000Y-151765462I2560000J-1544830D01*
G01*
X218255000Y-151764538D02*
G75*
G02*
X212705000Y-153309830I-2990000J-462D01*
G01*
X217765000Y-151765000D02*
G75*
G02*
X212765000Y-151765000I-2500000J0D01*
G01*
X212765000Y-151765000D02*
G75*
G02*
X217765000Y-151765000I2500000J0D01*
G01*
%TO.C,D222*%
X125059000Y-194979000D02*
X125059000Y-195135000D01*
X125059000Y-197295000D02*
X125059000Y-197451000D01*
X125059000Y-194979484D02*
G75*
G02*
X128291335Y-195136392I1560000J-1235517D01*
G01*
X125578039Y-195135000D02*
G75*
G02*
X127660130Y-195135163I1040961J-1080000D01*
G01*
X127660130Y-197294837D02*
G75*
G02*
X125578039Y-197295000I-1041130J1079837D01*
G01*
X128291335Y-197293608D02*
G75*
G02*
X125059000Y-197450516I-1672335J1078609D01*
G01*
%TO.C,D175*%
X178415000Y-150220000D02*
X178415000Y-153310000D01*
X178415000Y-150220170D02*
G75*
G02*
X183965000Y-151765462I2560000J-1544830D01*
G01*
X183965000Y-151764538D02*
G75*
G02*
X178415000Y-153309830I-2990000J-462D01*
G01*
X183475000Y-151765000D02*
G75*
G02*
X178475000Y-151765000I-2500000J0D01*
G01*
X178475000Y-151765000D02*
G75*
G02*
X183475000Y-151765000I2500000J0D01*
G01*
%TO.C,D17*%
X247203786Y-166050019D02*
X247203786Y-169140019D01*
X247203786Y-166050189D02*
G75*
G02*
X252753786Y-167595481I2560000J-1544830D01*
G01*
X252753786Y-167594557D02*
G75*
G02*
X247203786Y-169139849I-2990000J-462D01*
G01*
X252263786Y-167595019D02*
G75*
G02*
X247263786Y-167595019I-2500000J0D01*
G01*
X247263786Y-167595019D02*
G75*
G02*
X252263786Y-167595019I2500000J0D01*
G01*
%TO.C,D264*%
X157571000Y-194979000D02*
X157571000Y-195135000D01*
X157571000Y-197295000D02*
X157571000Y-197451000D01*
X157571000Y-194979484D02*
G75*
G02*
X160803335Y-195136392I1560000J-1235517D01*
G01*
X158090039Y-195135000D02*
G75*
G02*
X160172130Y-195135163I1040961J-1080000D01*
G01*
X160172130Y-197294837D02*
G75*
G02*
X158090039Y-197295000I-1041130J1079837D01*
G01*
X160803335Y-197293608D02*
G75*
G02*
X157571000Y-197450516I-1672335J1078609D01*
G01*
%TO.C,D269*%
X162651000Y-184819000D02*
X162651000Y-184975000D01*
X162651000Y-187135000D02*
X162651000Y-187291000D01*
X162651000Y-184819484D02*
G75*
G02*
X165883335Y-184976392I1560000J-1235517D01*
G01*
X163170039Y-184975000D02*
G75*
G02*
X165252130Y-184975163I1040961J-1080000D01*
G01*
X165252130Y-187134837D02*
G75*
G02*
X163170039Y-187135000I-1041130J1079837D01*
G01*
X165883335Y-187133608D02*
G75*
G02*
X162651000Y-187290516I-1672335J1078609D01*
G01*
%TO.C,D201*%
X206355000Y-137520000D02*
X206355000Y-140610000D01*
X206355000Y-137520170D02*
G75*
G02*
X211905000Y-139065462I2560000J-1544830D01*
G01*
X211905000Y-139064538D02*
G75*
G02*
X206355000Y-140609830I-2990000J-462D01*
G01*
X211415000Y-139065000D02*
G75*
G02*
X206415000Y-139065000I-2500000J0D01*
G01*
X206415000Y-139065000D02*
G75*
G02*
X211415000Y-139065000I2500000J0D01*
G01*
%TO.C,D300*%
X130139000Y-88299000D02*
X130139000Y-88455000D01*
X130139000Y-90615000D02*
X130139000Y-90771000D01*
X130139000Y-88299484D02*
G75*
G02*
X133371335Y-88456392I1560000J-1235517D01*
G01*
X130658039Y-88455000D02*
G75*
G02*
X132740130Y-88455163I1040961J-1080000D01*
G01*
X132740130Y-90614837D02*
G75*
G02*
X130658039Y-90615000I-1041130J1079837D01*
G01*
X133371335Y-90613608D02*
G75*
G02*
X130139000Y-90770516I-1672335J1078609D01*
G01*
%TO.C,D252*%
X147411000Y-205139000D02*
X147411000Y-205295000D01*
X147411000Y-207455000D02*
X147411000Y-207611000D01*
X147411000Y-205139484D02*
G75*
G02*
X150643335Y-205296392I1560000J-1235517D01*
G01*
X147930039Y-205295000D02*
G75*
G02*
X150012130Y-205295163I1040961J-1080000D01*
G01*
X150012130Y-207454837D02*
G75*
G02*
X147930039Y-207455000I-1041130J1079837D01*
G01*
X150643335Y-207453608D02*
G75*
G02*
X147411000Y-207610516I-1672335J1078609D01*
G01*
%TO.C,D154*%
X159365000Y-150220000D02*
X159365000Y-153310000D01*
X159365000Y-150220170D02*
G75*
G02*
X164915000Y-151765462I2560000J-1544830D01*
G01*
X164915000Y-151764538D02*
G75*
G02*
X159365000Y-153309830I-2990000J-462D01*
G01*
X164425000Y-151765000D02*
G75*
G02*
X159425000Y-151765000I-2500000J0D01*
G01*
X159425000Y-151765000D02*
G75*
G02*
X164425000Y-151765000I2500000J0D01*
G01*
%TO.C,D207*%
X212705000Y-131170000D02*
X212705000Y-134260000D01*
X212705000Y-131170170D02*
G75*
G02*
X218255000Y-132715462I2560000J-1544830D01*
G01*
X218255000Y-132714538D02*
G75*
G02*
X212705000Y-134259830I-2990000J-462D01*
G01*
X217765000Y-132715000D02*
G75*
G02*
X212765000Y-132715000I-2500000J0D01*
G01*
X212765000Y-132715000D02*
G75*
G02*
X217765000Y-132715000I2500000J0D01*
G01*
%TO.C,D253*%
X147411000Y-210219000D02*
X147411000Y-210375000D01*
X147411000Y-212535000D02*
X147411000Y-212691000D01*
X147411000Y-210219484D02*
G75*
G02*
X150643335Y-210376392I1560000J-1235517D01*
G01*
X147930039Y-210375000D02*
G75*
G02*
X150012130Y-210375163I1040961J-1080000D01*
G01*
X150012130Y-212534837D02*
G75*
G02*
X147930039Y-212535000I-1041130J1079837D01*
G01*
X150643335Y-212533608D02*
G75*
G02*
X147411000Y-212690516I-1672335J1078609D01*
G01*
%TO.C,D33*%
X109889067Y-245328709D02*
X109889067Y-248418709D01*
X109889067Y-245328879D02*
G75*
G02*
X115439067Y-246874171I2560000J-1544830D01*
G01*
X115439067Y-246873247D02*
G75*
G02*
X109889067Y-248418539I-2990000J-462D01*
G01*
X114949067Y-246873709D02*
G75*
G02*
X109949067Y-246873709I-2500000J0D01*
G01*
X109949067Y-246873709D02*
G75*
G02*
X114949067Y-246873709I2500000J0D01*
G01*
%TO.C,D224*%
X125059000Y-205139000D02*
X125059000Y-205295000D01*
X125059000Y-207455000D02*
X125059000Y-207611000D01*
X125059000Y-205139484D02*
G75*
G02*
X128291335Y-205296392I1560000J-1235517D01*
G01*
X125578039Y-205295000D02*
G75*
G02*
X127660130Y-205295163I1040961J-1080000D01*
G01*
X127660130Y-207454837D02*
G75*
G02*
X125578039Y-207455000I-1041130J1079837D01*
G01*
X128291335Y-207453608D02*
G75*
G02*
X125059000Y-207610516I-1672335J1078609D01*
G01*
%TO.C,D15*%
X249535000Y-143870000D02*
X249535000Y-146960000D01*
X249535000Y-143870170D02*
G75*
G02*
X255085000Y-145415462I2560000J-1544830D01*
G01*
X255085000Y-145414538D02*
G75*
G02*
X249535000Y-146959830I-2990000J-462D01*
G01*
X254595000Y-145415000D02*
G75*
G02*
X249595000Y-145415000I-2500000J0D01*
G01*
X249595000Y-145415000D02*
G75*
G02*
X254595000Y-145415000I2500000J0D01*
G01*
%TO.C,D150*%
X159365000Y-124820000D02*
X159365000Y-127910000D01*
X159365000Y-124820170D02*
G75*
G02*
X164915000Y-126365462I2560000J-1544830D01*
G01*
X164915000Y-126364538D02*
G75*
G02*
X159365000Y-127909830I-2990000J-462D01*
G01*
X164425000Y-126365000D02*
G75*
G02*
X159425000Y-126365000I-2500000J0D01*
G01*
X159425000Y-126365000D02*
G75*
G02*
X164425000Y-126365000I2500000J0D01*
G01*
%TO.C,D123*%
X119995000Y-131170000D02*
X119995000Y-134260000D01*
X119995000Y-131170170D02*
G75*
G02*
X125545000Y-132715462I2560000J-1544830D01*
G01*
X125545000Y-132714538D02*
G75*
G02*
X119995000Y-134259830I-2990000J-462D01*
G01*
X125055000Y-132715000D02*
G75*
G02*
X120055000Y-132715000I-2500000J0D01*
G01*
X120055000Y-132715000D02*
G75*
G02*
X125055000Y-132715000I2500000J0D01*
G01*
%TO.C,D70*%
X57066524Y-94340000D02*
X57066524Y-97430000D01*
X57066524Y-94340170D02*
G75*
G02*
X62616524Y-95885462I2560000J-1544830D01*
G01*
X62616524Y-95884538D02*
G75*
G02*
X57066524Y-97429830I-2990000J-462D01*
G01*
X62126524Y-95885000D02*
G75*
G02*
X57126524Y-95885000I-2500000J0D01*
G01*
X57126524Y-95885000D02*
G75*
G02*
X62126524Y-95885000I2500000J0D01*
G01*
%TO.C,D170*%
X172065000Y-162920000D02*
X172065000Y-166010000D01*
X172065000Y-162920170D02*
G75*
G02*
X177615000Y-164465462I2560000J-1544830D01*
G01*
X177615000Y-164464538D02*
G75*
G02*
X172065000Y-166009830I-2990000J-462D01*
G01*
X177125000Y-164465000D02*
G75*
G02*
X172125000Y-164465000I-2500000J0D01*
G01*
X172125000Y-164465000D02*
G75*
G02*
X177125000Y-164465000I2500000J0D01*
G01*
%TO.C,D34*%
X99464335Y-241327029D02*
X99464335Y-244417029D01*
X99464335Y-241327199D02*
G75*
G02*
X105014335Y-242872491I2560000J-1544830D01*
G01*
X105014335Y-242871567D02*
G75*
G02*
X99464335Y-244416859I-2990000J-462D01*
G01*
X104524335Y-242872029D02*
G75*
G02*
X99524335Y-242872029I-2500000J0D01*
G01*
X99524335Y-242872029D02*
G75*
G02*
X104524335Y-242872029I2500000J0D01*
G01*
%TO.C,D234*%
X135219000Y-184819000D02*
X135219000Y-184975000D01*
X135219000Y-187135000D02*
X135219000Y-187291000D01*
X135219000Y-184819484D02*
G75*
G02*
X138451335Y-184976392I1560000J-1235517D01*
G01*
X135738039Y-184975000D02*
G75*
G02*
X137820130Y-184975163I1040961J-1080000D01*
G01*
X137820130Y-187134837D02*
G75*
G02*
X135738039Y-187135000I-1041130J1079837D01*
G01*
X138451335Y-187133608D02*
G75*
G02*
X135219000Y-187290516I-1672335J1078609D01*
G01*
%TO.C,D247*%
X140299000Y-215299000D02*
X140299000Y-215455000D01*
X140299000Y-217615000D02*
X140299000Y-217771000D01*
X140299000Y-215299484D02*
G75*
G02*
X143531335Y-215456392I1560000J-1235517D01*
G01*
X140818039Y-215455000D02*
G75*
G02*
X142900130Y-215455163I1040961J-1080000D01*
G01*
X142900130Y-217614837D02*
G75*
G02*
X140818039Y-217615000I-1041130J1079837D01*
G01*
X143531335Y-217613608D02*
G75*
G02*
X140299000Y-217770516I-1672335J1078609D01*
G01*
%TO.C,D325*%
X152491000Y-73059000D02*
X152491000Y-73215000D01*
X152491000Y-75375000D02*
X152491000Y-75531000D01*
X152491000Y-73059484D02*
G75*
G02*
X155723335Y-73216392I1560000J-1235517D01*
G01*
X153010039Y-73215000D02*
G75*
G02*
X155092130Y-73215163I1040961J-1080000D01*
G01*
X155092130Y-75374837D02*
G75*
G02*
X153010039Y-75375000I-1041130J1079837D01*
G01*
X155723335Y-75373608D02*
G75*
G02*
X152491000Y-75530516I-1672335J1078609D01*
G01*
%TO.C,D288*%
X119979000Y-98459000D02*
X119979000Y-98615000D01*
X119979000Y-100775000D02*
X119979000Y-100931000D01*
X119979000Y-98459484D02*
G75*
G02*
X123211335Y-98616392I1560000J-1235517D01*
G01*
X120498039Y-98615000D02*
G75*
G02*
X122580130Y-98615163I1040961J-1080000D01*
G01*
X122580130Y-100774837D02*
G75*
G02*
X120498039Y-100775000I-1041130J1079837D01*
G01*
X123211335Y-100773608D02*
G75*
G02*
X119979000Y-100930516I-1672335J1078609D01*
G01*
%TO.C,D162*%
X165715000Y-156570000D02*
X165715000Y-159660000D01*
X165715000Y-156570170D02*
G75*
G02*
X171265000Y-158115462I2560000J-1544830D01*
G01*
X171265000Y-158114538D02*
G75*
G02*
X165715000Y-159659830I-2990000J-462D01*
G01*
X170775000Y-158115000D02*
G75*
G02*
X165775000Y-158115000I-2500000J0D01*
G01*
X165775000Y-158115000D02*
G75*
G02*
X170775000Y-158115000I2500000J0D01*
G01*
%TO.C,D124*%
X119995000Y-137520000D02*
X119995000Y-140610000D01*
X119995000Y-137520170D02*
G75*
G02*
X125545000Y-139065462I2560000J-1544830D01*
G01*
X125545000Y-139064538D02*
G75*
G02*
X119995000Y-140609830I-2990000J-462D01*
G01*
X125055000Y-139065000D02*
G75*
G02*
X120055000Y-139065000I-2500000J0D01*
G01*
X120055000Y-139065000D02*
G75*
G02*
X125055000Y-139065000I2500000J0D01*
G01*
%TO.C,D135*%
X126345000Y-162920000D02*
X126345000Y-166010000D01*
X126345000Y-162920170D02*
G75*
G02*
X131895000Y-164465462I2560000J-1544830D01*
G01*
X131895000Y-164464538D02*
G75*
G02*
X126345000Y-166009830I-2990000J-462D01*
G01*
X131405000Y-164465000D02*
G75*
G02*
X126405000Y-164465000I-2500000J0D01*
G01*
X126405000Y-164465000D02*
G75*
G02*
X131405000Y-164465000I2500000J0D01*
G01*
%TO.C,D228*%
X130139000Y-189899000D02*
X130139000Y-190055000D01*
X130139000Y-192215000D02*
X130139000Y-192371000D01*
X130139000Y-189899484D02*
G75*
G02*
X133371335Y-190056392I1560000J-1235517D01*
G01*
X130658039Y-190055000D02*
G75*
G02*
X132740130Y-190055163I1040961J-1080000D01*
G01*
X132740130Y-192214837D02*
G75*
G02*
X130658039Y-192215000I-1041130J1079837D01*
G01*
X133371335Y-192213608D02*
G75*
G02*
X130139000Y-192370516I-1672335J1078609D01*
G01*
%TO.C,D96*%
X92055000Y-137520000D02*
X92055000Y-140610000D01*
X92055000Y-137520170D02*
G75*
G02*
X97605000Y-139065462I2560000J-1544830D01*
G01*
X97605000Y-139064538D02*
G75*
G02*
X92055000Y-140609830I-2990000J-462D01*
G01*
X97115000Y-139065000D02*
G75*
G02*
X92115000Y-139065000I-2500000J0D01*
G01*
X92115000Y-139065000D02*
G75*
G02*
X97115000Y-139065000I2500000J0D01*
G01*
%TO.C,D187*%
X193655000Y-137520000D02*
X193655000Y-140610000D01*
X193655000Y-137520170D02*
G75*
G02*
X199205000Y-139065462I2560000J-1544830D01*
G01*
X199205000Y-139064538D02*
G75*
G02*
X193655000Y-140609830I-2990000J-462D01*
G01*
X198715000Y-139065000D02*
G75*
G02*
X193715000Y-139065000I-2500000J0D01*
G01*
X193715000Y-139065000D02*
G75*
G02*
X198715000Y-139065000I2500000J0D01*
G01*
%TO.C,D350*%
X167731000Y-93379000D02*
X167731000Y-93535000D01*
X167731000Y-95695000D02*
X167731000Y-95851000D01*
X167731000Y-93379484D02*
G75*
G02*
X170963335Y-93536392I1560000J-1235517D01*
G01*
X168250039Y-93535000D02*
G75*
G02*
X170332130Y-93535163I1040961J-1080000D01*
G01*
X170332130Y-95694837D02*
G75*
G02*
X168250039Y-95695000I-1041130J1079837D01*
G01*
X170963335Y-95693608D02*
G75*
G02*
X167731000Y-95850516I-1672335J1078609D01*
G01*
%TO.C,D357*%
X114355125Y-28413876D02*
X114355125Y-31098876D01*
X114355125Y-31098876D02*
X116275125Y-31098876D01*
X116275125Y-31098876D02*
X116275125Y-28413876D01*
%TO.C,D334*%
X157571000Y-83219000D02*
X157571000Y-83375000D01*
X157571000Y-85535000D02*
X157571000Y-85691000D01*
X157571000Y-83219484D02*
G75*
G02*
X160803335Y-83376392I1560000J-1235517D01*
G01*
X158090039Y-83375000D02*
G75*
G02*
X160172130Y-83375163I1040961J-1080000D01*
G01*
X160172130Y-85534837D02*
G75*
G02*
X158090039Y-85535000I-1041130J1079837D01*
G01*
X160803335Y-85533608D02*
G75*
G02*
X157571000Y-85690516I-1672335J1078609D01*
G01*
%TO.C,C4*%
X226798200Y-151035652D02*
X226798200Y-150513148D01*
X228268200Y-151035652D02*
X228268200Y-150513148D01*
%TO.C,D320*%
X147411000Y-83219000D02*
X147411000Y-83375000D01*
X147411000Y-85535000D02*
X147411000Y-85691000D01*
X147411000Y-83219484D02*
G75*
G02*
X150643335Y-83376392I1560000J-1235517D01*
G01*
X147930039Y-83375000D02*
G75*
G02*
X150012130Y-83375163I1040961J-1080000D01*
G01*
X150012130Y-85534837D02*
G75*
G02*
X147930039Y-85535000I-1041130J1079837D01*
G01*
X150643335Y-85533608D02*
G75*
G02*
X147411000Y-85690516I-1672335J1078609D01*
G01*
%TO.C,D64*%
X228643476Y-193400000D02*
X228643476Y-196490000D01*
X228643476Y-193400170D02*
G75*
G02*
X234193476Y-194945462I2560000J-1544830D01*
G01*
X234193476Y-194944538D02*
G75*
G02*
X228643476Y-196489830I-2990000J-462D01*
G01*
X233703476Y-194945000D02*
G75*
G02*
X228703476Y-194945000I-2500000J0D01*
G01*
X228703476Y-194945000D02*
G75*
G02*
X233703476Y-194945000I2500000J0D01*
G01*
%TO.C,D259*%
X152491000Y-205139000D02*
X152491000Y-205295000D01*
X152491000Y-207455000D02*
X152491000Y-207611000D01*
X152491000Y-205139484D02*
G75*
G02*
X155723335Y-205296392I1560000J-1235517D01*
G01*
X153010039Y-205295000D02*
G75*
G02*
X155092130Y-205295163I1040961J-1080000D01*
G01*
X155092130Y-207454837D02*
G75*
G02*
X153010039Y-207455000I-1041130J1079837D01*
G01*
X155723335Y-207453608D02*
G75*
G02*
X152491000Y-207610516I-1672335J1078609D01*
G01*
%TO.C,D37*%
X71472147Y-223148690D02*
X71472147Y-226238690D01*
X71472147Y-223148860D02*
G75*
G02*
X77022147Y-224694152I2560000J-1544830D01*
G01*
X77022147Y-224693228D02*
G75*
G02*
X71472147Y-226238520I-2990000J-462D01*
G01*
X76532147Y-224693690D02*
G75*
G02*
X71532147Y-224693690I-2500000J0D01*
G01*
X71532147Y-224693690D02*
G75*
G02*
X76532147Y-224693690I2500000J0D01*
G01*
%TO.C,D93*%
X85705000Y-162920000D02*
X85705000Y-166010000D01*
X85705000Y-162920170D02*
G75*
G02*
X91255000Y-164465462I2560000J-1544830D01*
G01*
X91255000Y-164464538D02*
G75*
G02*
X85705000Y-166009830I-2990000J-462D01*
G01*
X90765000Y-164465000D02*
G75*
G02*
X85765000Y-164465000I-2500000J0D01*
G01*
X85765000Y-164465000D02*
G75*
G02*
X90765000Y-164465000I2500000J0D01*
G01*
%TO.C,D18*%
X244313709Y-176835933D02*
X244313709Y-179925933D01*
X244313709Y-176836103D02*
G75*
G02*
X249863709Y-178381395I2560000J-1544830D01*
G01*
X249863709Y-178380471D02*
G75*
G02*
X244313709Y-179925763I-2990000J-462D01*
G01*
X249373709Y-178380933D02*
G75*
G02*
X244373709Y-178380933I-2500000J0D01*
G01*
X244373709Y-178380933D02*
G75*
G02*
X249373709Y-178380933I2500000J0D01*
G01*
%TO.C,D292*%
X125059000Y-83219000D02*
X125059000Y-83375000D01*
X125059000Y-85535000D02*
X125059000Y-85691000D01*
X125059000Y-83219484D02*
G75*
G02*
X128291335Y-83376392I1560000J-1235517D01*
G01*
X125578039Y-83375000D02*
G75*
G02*
X127660130Y-83375163I1040961J-1080000D01*
G01*
X127660130Y-85534837D02*
G75*
G02*
X125578039Y-85535000I-1041130J1079837D01*
G01*
X128291335Y-85533608D02*
G75*
G02*
X125059000Y-85690516I-1672335J1078609D01*
G01*
%TO.C,D152*%
X159365000Y-137520000D02*
X159365000Y-140610000D01*
X159365000Y-137520170D02*
G75*
G02*
X164915000Y-139065462I2560000J-1544830D01*
G01*
X164915000Y-139064538D02*
G75*
G02*
X159365000Y-140609830I-2990000J-462D01*
G01*
X164425000Y-139065000D02*
G75*
G02*
X159425000Y-139065000I-2500000J0D01*
G01*
X159425000Y-139065000D02*
G75*
G02*
X164425000Y-139065000I2500000J0D01*
G01*
%TO.C,D167*%
X172065000Y-143870000D02*
X172065000Y-146960000D01*
X172065000Y-143870170D02*
G75*
G02*
X177615000Y-145415462I2560000J-1544830D01*
G01*
X177615000Y-145414538D02*
G75*
G02*
X172065000Y-146959830I-2990000J-462D01*
G01*
X177125000Y-145415000D02*
G75*
G02*
X172125000Y-145415000I-2500000J0D01*
G01*
X172125000Y-145415000D02*
G75*
G02*
X177125000Y-145415000I2500000J0D01*
G01*
%TO.C,D216*%
X119979000Y-200059000D02*
X119979000Y-200215000D01*
X119979000Y-202375000D02*
X119979000Y-202531000D01*
X119979000Y-200059484D02*
G75*
G02*
X123211335Y-200216392I1560000J-1235517D01*
G01*
X120498039Y-200215000D02*
G75*
G02*
X122580130Y-200215163I1040961J-1080000D01*
G01*
X122580130Y-202374837D02*
G75*
G02*
X120498039Y-202375000I-1041130J1079837D01*
G01*
X123211335Y-202373608D02*
G75*
G02*
X119979000Y-202530516I-1672335J1078609D01*
G01*
%TO.C,D267*%
X157571000Y-210219000D02*
X157571000Y-210375000D01*
X157571000Y-212535000D02*
X157571000Y-212691000D01*
X157571000Y-210219484D02*
G75*
G02*
X160803335Y-210376392I1560000J-1235517D01*
G01*
X158090039Y-210375000D02*
G75*
G02*
X160172130Y-210375163I1040961J-1080000D01*
G01*
X160172130Y-212534837D02*
G75*
G02*
X158090039Y-212535000I-1041130J1079837D01*
G01*
X160803335Y-212533608D02*
G75*
G02*
X157571000Y-212690516I-1672335J1078609D01*
G01*
%TO.C,D211*%
X212705000Y-156570000D02*
X212705000Y-159660000D01*
X212705000Y-156570170D02*
G75*
G02*
X218255000Y-158115462I2560000J-1544830D01*
G01*
X218255000Y-158114538D02*
G75*
G02*
X212705000Y-159659830I-2990000J-462D01*
G01*
X217765000Y-158115000D02*
G75*
G02*
X212765000Y-158115000I-2500000J0D01*
G01*
X212765000Y-158115000D02*
G75*
G02*
X217765000Y-158115000I2500000J0D01*
G01*
%TO.C,D3*%
X175820933Y-42411291D02*
X175820933Y-45501291D01*
X175820933Y-42411461D02*
G75*
G02*
X181370933Y-43956753I2560000J-1544830D01*
G01*
X181370933Y-43955829D02*
G75*
G02*
X175820933Y-45501121I-2990000J-462D01*
G01*
X180880933Y-43956291D02*
G75*
G02*
X175880933Y-43956291I-2500000J0D01*
G01*
X175880933Y-43956291D02*
G75*
G02*
X180880933Y-43956291I2500000J0D01*
G01*
%TO.C,D220*%
X125059000Y-184819000D02*
X125059000Y-184975000D01*
X125059000Y-187135000D02*
X125059000Y-187291000D01*
X125059000Y-184819484D02*
G75*
G02*
X128291335Y-184976392I1560000J-1235517D01*
G01*
X125578039Y-184975000D02*
G75*
G02*
X127660130Y-184975163I1040961J-1080000D01*
G01*
X127660130Y-187134837D02*
G75*
G02*
X125578039Y-187135000I-1041130J1079837D01*
G01*
X128291335Y-187133608D02*
G75*
G02*
X125059000Y-187290516I-1672335J1078609D01*
G01*
%TO.C,D78*%
X73005000Y-156570000D02*
X73005000Y-159660000D01*
X73005000Y-156570170D02*
G75*
G02*
X78555000Y-158115462I2560000J-1544830D01*
G01*
X78555000Y-158114538D02*
G75*
G02*
X73005000Y-159659830I-2990000J-462D01*
G01*
X78065000Y-158115000D02*
G75*
G02*
X73065000Y-158115000I-2500000J0D01*
G01*
X73065000Y-158115000D02*
G75*
G02*
X78065000Y-158115000I2500000J0D01*
G01*
%TO.C,D301*%
X130139000Y-93379000D02*
X130139000Y-93535000D01*
X130139000Y-95695000D02*
X130139000Y-95851000D01*
X130139000Y-93379484D02*
G75*
G02*
X133371335Y-93536392I1560000J-1235517D01*
G01*
X130658039Y-93535000D02*
G75*
G02*
X132740130Y-93535163I1040961J-1080000D01*
G01*
X132740130Y-95694837D02*
G75*
G02*
X130658039Y-95695000I-1041130J1079837D01*
G01*
X133371335Y-95693608D02*
G75*
G02*
X130139000Y-95850516I-1672335J1078609D01*
G01*
%TO.C,D304*%
X135219000Y-73059000D02*
X135219000Y-73215000D01*
X135219000Y-75375000D02*
X135219000Y-75531000D01*
X135219000Y-73059484D02*
G75*
G02*
X138451335Y-73216392I1560000J-1235517D01*
G01*
X135738039Y-73215000D02*
G75*
G02*
X137820130Y-73215163I1040961J-1080000D01*
G01*
X137820130Y-75374837D02*
G75*
G02*
X135738039Y-75375000I-1041130J1079837D01*
G01*
X138451335Y-75373608D02*
G75*
G02*
X135219000Y-75530516I-1672335J1078609D01*
G01*
%TO.C,D347*%
X167731000Y-78139000D02*
X167731000Y-78295000D01*
X167731000Y-80455000D02*
X167731000Y-80611000D01*
X167731000Y-78139484D02*
G75*
G02*
X170963335Y-78296392I1560000J-1235517D01*
G01*
X168250039Y-78295000D02*
G75*
G02*
X170332130Y-78295163I1040961J-1080000D01*
G01*
X170332130Y-80454837D02*
G75*
G02*
X168250039Y-80455000I-1041130J1079837D01*
G01*
X170963335Y-80453608D02*
G75*
G02*
X167731000Y-80610516I-1672335J1078609D01*
G01*
%TO.C,D233*%
X130139000Y-215299000D02*
X130139000Y-215455000D01*
X130139000Y-217615000D02*
X130139000Y-217771000D01*
X130139000Y-215299484D02*
G75*
G02*
X133371335Y-215456392I1560000J-1235517D01*
G01*
X130658039Y-215455000D02*
G75*
G02*
X132740130Y-215455163I1040961J-1080000D01*
G01*
X132740130Y-217614837D02*
G75*
G02*
X130658039Y-217615000I-1041130J1079837D01*
G01*
X133371335Y-217613608D02*
G75*
G02*
X130139000Y-217770516I-1672335J1078609D01*
G01*
%TO.C,D223*%
X125059000Y-200059000D02*
X125059000Y-200215000D01*
X125059000Y-202375000D02*
X125059000Y-202531000D01*
X125059000Y-200059484D02*
G75*
G02*
X128291335Y-200216392I1560000J-1235517D01*
G01*
X125578039Y-200215000D02*
G75*
G02*
X127660130Y-200215163I1040961J-1080000D01*
G01*
X127660130Y-202374837D02*
G75*
G02*
X125578039Y-202375000I-1041130J1079837D01*
G01*
X128291335Y-202373608D02*
G75*
G02*
X125059000Y-202530516I-1672335J1078609D01*
G01*
%TO.C,D359*%
X154487125Y-28413876D02*
X154487125Y-31098876D01*
X154487125Y-31098876D02*
X156407125Y-31098876D01*
X156407125Y-31098876D02*
X156407125Y-28413876D01*
%TO.C,R9*%
X104471736Y-94921400D02*
X104925864Y-94921400D01*
X104471736Y-96391400D02*
X104925864Y-96391400D01*
%TO.C,D296*%
X125059000Y-103539000D02*
X125059000Y-103695000D01*
X125059000Y-105855000D02*
X125059000Y-106011000D01*
X125059000Y-103539484D02*
G75*
G02*
X128291335Y-103696392I1560000J-1235517D01*
G01*
X125578039Y-103695000D02*
G75*
G02*
X127660130Y-103695163I1040961J-1080000D01*
G01*
X127660130Y-105854837D02*
G75*
G02*
X125578039Y-105855000I-1041130J1079837D01*
G01*
X128291335Y-105853608D02*
G75*
G02*
X125059000Y-106010516I-1672335J1078609D01*
G01*
%TO.C,D280*%
X167731000Y-205139000D02*
X167731000Y-205295000D01*
X167731000Y-207455000D02*
X167731000Y-207611000D01*
X167731000Y-205139484D02*
G75*
G02*
X170963335Y-205296392I1560000J-1235517D01*
G01*
X168250039Y-205295000D02*
G75*
G02*
X170332130Y-205295163I1040961J-1080000D01*
G01*
X170332130Y-207454837D02*
G75*
G02*
X168250039Y-207455000I-1041130J1079837D01*
G01*
X170963335Y-207453608D02*
G75*
G02*
X167731000Y-207610516I-1672335J1078609D01*
G01*
%TO.C,D346*%
X167731000Y-73059000D02*
X167731000Y-73215000D01*
X167731000Y-75375000D02*
X167731000Y-75531000D01*
X167731000Y-73059484D02*
G75*
G02*
X170963335Y-73216392I1560000J-1235517D01*
G01*
X168250039Y-73215000D02*
G75*
G02*
X170332130Y-73215163I1040961J-1080000D01*
G01*
X170332130Y-75374837D02*
G75*
G02*
X168250039Y-75375000I-1041130J1079837D01*
G01*
X170963335Y-75373608D02*
G75*
G02*
X167731000Y-75530516I-1672335J1078609D01*
G01*
%TO.C,D306*%
X135219000Y-83219000D02*
X135219000Y-83375000D01*
X135219000Y-85535000D02*
X135219000Y-85691000D01*
X135219000Y-83219484D02*
G75*
G02*
X138451335Y-83376392I1560000J-1235517D01*
G01*
X135738039Y-83375000D02*
G75*
G02*
X137820130Y-83375163I1040961J-1080000D01*
G01*
X137820130Y-85534837D02*
G75*
G02*
X135738039Y-85535000I-1041130J1079837D01*
G01*
X138451335Y-85533608D02*
G75*
G02*
X135219000Y-85690516I-1672335J1078609D01*
G01*
%TO.C,D35*%
X89515000Y-236257590D02*
X89515000Y-239347590D01*
X89515000Y-236257760D02*
G75*
G02*
X95065000Y-237803052I2560000J-1544830D01*
G01*
X95065000Y-237802128D02*
G75*
G02*
X89515000Y-239347420I-2990000J-462D01*
G01*
X94575000Y-237802590D02*
G75*
G02*
X89575000Y-237802590I-2500000J0D01*
G01*
X89575000Y-237802590D02*
G75*
G02*
X94575000Y-237802590I2500000J0D01*
G01*
%TO.C,D119*%
X113645000Y-150220000D02*
X113645000Y-153310000D01*
X113645000Y-150220170D02*
G75*
G02*
X119195000Y-151765462I2560000J-1544830D01*
G01*
X119195000Y-151764538D02*
G75*
G02*
X113645000Y-153309830I-2990000J-462D01*
G01*
X118705000Y-151765000D02*
G75*
G02*
X113705000Y-151765000I-2500000J0D01*
G01*
X113705000Y-151765000D02*
G75*
G02*
X118705000Y-151765000I2500000J0D01*
G01*
%TO.C,D203*%
X206355000Y-150220000D02*
X206355000Y-153310000D01*
X206355000Y-150220170D02*
G75*
G02*
X211905000Y-151765462I2560000J-1544830D01*
G01*
X211905000Y-151764538D02*
G75*
G02*
X206355000Y-153309830I-2990000J-462D01*
G01*
X211415000Y-151765000D02*
G75*
G02*
X206415000Y-151765000I-2500000J0D01*
G01*
X206415000Y-151765000D02*
G75*
G02*
X211415000Y-151765000I2500000J0D01*
G01*
%TO.C,D178*%
X187305000Y-124820000D02*
X187305000Y-127910000D01*
X187305000Y-124820170D02*
G75*
G02*
X192855000Y-126365462I2560000J-1544830D01*
G01*
X192855000Y-126364538D02*
G75*
G02*
X187305000Y-127909830I-2990000J-462D01*
G01*
X192365000Y-126365000D02*
G75*
G02*
X187365000Y-126365000I-2500000J0D01*
G01*
X187365000Y-126365000D02*
G75*
G02*
X192365000Y-126365000I2500000J0D01*
G01*
%TO.C,D185*%
X193655000Y-124820000D02*
X193655000Y-127910000D01*
X193655000Y-124820170D02*
G75*
G02*
X199205000Y-126365462I2560000J-1544830D01*
G01*
X199205000Y-126364538D02*
G75*
G02*
X193655000Y-127909830I-2990000J-462D01*
G01*
X198715000Y-126365000D02*
G75*
G02*
X193715000Y-126365000I-2500000J0D01*
G01*
X193715000Y-126365000D02*
G75*
G02*
X198715000Y-126365000I2500000J0D01*
G01*
%TO.C,D261*%
X152491000Y-215299000D02*
X152491000Y-215455000D01*
X152491000Y-217615000D02*
X152491000Y-217771000D01*
X152491000Y-215299484D02*
G75*
G02*
X155723335Y-215456392I1560000J-1235517D01*
G01*
X153010039Y-215455000D02*
G75*
G02*
X155092130Y-215455163I1040961J-1080000D01*
G01*
X155092130Y-217614837D02*
G75*
G02*
X153010039Y-217615000I-1041130J1079837D01*
G01*
X155723335Y-217613608D02*
G75*
G02*
X152491000Y-217770516I-1672335J1078609D01*
G01*
%TO.C,C22*%
X150280000Y-117153748D02*
X150280000Y-117676252D01*
X151750000Y-117153748D02*
X151750000Y-117676252D01*
%TO.C,D179*%
X187305000Y-131170000D02*
X187305000Y-134260000D01*
X187305000Y-131170170D02*
G75*
G02*
X192855000Y-132715462I2560000J-1544830D01*
G01*
X192855000Y-132714538D02*
G75*
G02*
X187305000Y-134259830I-2990000J-462D01*
G01*
X192365000Y-132715000D02*
G75*
G02*
X187365000Y-132715000I-2500000J0D01*
G01*
X187365000Y-132715000D02*
G75*
G02*
X192365000Y-132715000I2500000J0D01*
G01*
%TO.C,D312*%
X140299000Y-78139000D02*
X140299000Y-78295000D01*
X140299000Y-80455000D02*
X140299000Y-80611000D01*
X140299000Y-78139484D02*
G75*
G02*
X143531335Y-78296392I1560000J-1235517D01*
G01*
X140818039Y-78295000D02*
G75*
G02*
X142900130Y-78295163I1040961J-1080000D01*
G01*
X142900130Y-80454837D02*
G75*
G02*
X140818039Y-80455000I-1041130J1079837D01*
G01*
X143531335Y-80453608D02*
G75*
G02*
X140299000Y-80610516I-1672335J1078609D01*
G01*
%TO.C,D272*%
X162651000Y-200059000D02*
X162651000Y-200215000D01*
X162651000Y-202375000D02*
X162651000Y-202531000D01*
X162651000Y-200059484D02*
G75*
G02*
X165883335Y-200216392I1560000J-1235517D01*
G01*
X163170039Y-200215000D02*
G75*
G02*
X165252130Y-200215163I1040961J-1080000D01*
G01*
X165252130Y-202374837D02*
G75*
G02*
X163170039Y-202375000I-1041130J1079837D01*
G01*
X165883335Y-202373608D02*
G75*
G02*
X162651000Y-202530516I-1672335J1078609D01*
G01*
%TO.C,D100*%
X92055000Y-162920000D02*
X92055000Y-166010000D01*
X92055000Y-162920170D02*
G75*
G02*
X97605000Y-164465462I2560000J-1544830D01*
G01*
X97605000Y-164464538D02*
G75*
G02*
X92055000Y-166009830I-2990000J-462D01*
G01*
X97115000Y-164465000D02*
G75*
G02*
X92115000Y-164465000I-2500000J0D01*
G01*
X92115000Y-164465000D02*
G75*
G02*
X97115000Y-164465000I2500000J0D01*
G01*
%TO.C,D73*%
X73005000Y-124820000D02*
X73005000Y-127910000D01*
X73005000Y-124820170D02*
G75*
G02*
X78555000Y-126365462I2560000J-1544830D01*
G01*
X78555000Y-126364538D02*
G75*
G02*
X73005000Y-127909830I-2990000J-462D01*
G01*
X78065000Y-126365000D02*
G75*
G02*
X73065000Y-126365000I-2500000J0D01*
G01*
X73065000Y-126365000D02*
G75*
G02*
X78065000Y-126365000I2500000J0D01*
G01*
%TO.C,D273*%
X162651000Y-205139000D02*
X162651000Y-205295000D01*
X162651000Y-207455000D02*
X162651000Y-207611000D01*
X162651000Y-205139484D02*
G75*
G02*
X165883335Y-205296392I1560000J-1235517D01*
G01*
X163170039Y-205295000D02*
G75*
G02*
X165252130Y-205295163I1040961J-1080000D01*
G01*
X165252130Y-207454837D02*
G75*
G02*
X163170039Y-207455000I-1041130J1079837D01*
G01*
X165883335Y-207453608D02*
G75*
G02*
X162651000Y-207610516I-1672335J1078609D01*
G01*
%TO.C,D62*%
X228643476Y-94340000D02*
X228643476Y-97430000D01*
X228643476Y-94340170D02*
G75*
G02*
X234193476Y-95885462I2560000J-1544830D01*
G01*
X234193476Y-95884538D02*
G75*
G02*
X228643476Y-97429830I-2990000J-462D01*
G01*
X233703476Y-95885000D02*
G75*
G02*
X228703476Y-95885000I-2500000J0D01*
G01*
X228703476Y-95885000D02*
G75*
G02*
X233703476Y-95885000I2500000J0D01*
G01*
%TO.C,C3*%
X237364600Y-141129652D02*
X237364600Y-140607148D01*
X238834600Y-141129652D02*
X238834600Y-140607148D01*
%TO.C,D295*%
X125059000Y-98459000D02*
X125059000Y-98615000D01*
X125059000Y-100775000D02*
X125059000Y-100931000D01*
X125059000Y-98459484D02*
G75*
G02*
X128291335Y-98616392I1560000J-1235517D01*
G01*
X125578039Y-98615000D02*
G75*
G02*
X127660130Y-98615163I1040961J-1080000D01*
G01*
X127660130Y-100774837D02*
G75*
G02*
X125578039Y-100775000I-1041130J1079837D01*
G01*
X128291335Y-100773608D02*
G75*
G02*
X125059000Y-100930516I-1672335J1078609D01*
G01*
%TO.C,D19*%
X240312029Y-187260665D02*
X240312029Y-190350665D01*
X240312029Y-187260835D02*
G75*
G02*
X245862029Y-188806127I2560000J-1544830D01*
G01*
X245862029Y-188805203D02*
G75*
G02*
X240312029Y-190350495I-2990000J-462D01*
G01*
X245372029Y-188805665D02*
G75*
G02*
X240372029Y-188805665I-2500000J0D01*
G01*
X240372029Y-188805665D02*
G75*
G02*
X245372029Y-188805665I2500000J0D01*
G01*
%TO.C,D87*%
X85705000Y-124820000D02*
X85705000Y-127910000D01*
X85705000Y-124820170D02*
G75*
G02*
X91255000Y-126365462I2560000J-1544830D01*
G01*
X91255000Y-126364538D02*
G75*
G02*
X85705000Y-127909830I-2990000J-462D01*
G01*
X90765000Y-126365000D02*
G75*
G02*
X85765000Y-126365000I-2500000J0D01*
G01*
X85765000Y-126365000D02*
G75*
G02*
X90765000Y-126365000I2500000J0D01*
G01*
%TO.C,D57*%
X109889067Y-42411291D02*
X109889067Y-45501291D01*
X109889067Y-42411461D02*
G75*
G02*
X115439067Y-43956753I2560000J-1544830D01*
G01*
X115439067Y-43955829D02*
G75*
G02*
X109889067Y-45501121I-2990000J-462D01*
G01*
X114949067Y-43956291D02*
G75*
G02*
X109949067Y-43956291I-2500000J0D01*
G01*
X109949067Y-43956291D02*
G75*
G02*
X114949067Y-43956291I2500000J0D01*
G01*
%TO.C,D56*%
X99464335Y-46412971D02*
X99464335Y-49502971D01*
X99464335Y-46413141D02*
G75*
G02*
X105014335Y-47958433I2560000J-1544830D01*
G01*
X105014335Y-47957509D02*
G75*
G02*
X99464335Y-49502801I-2990000J-462D01*
G01*
X104524335Y-47957971D02*
G75*
G02*
X99524335Y-47957971I-2500000J0D01*
G01*
X99524335Y-47957971D02*
G75*
G02*
X104524335Y-47957971I2500000J0D01*
G01*
%TO.C,D77*%
X73005000Y-150220000D02*
X73005000Y-153310000D01*
X73005000Y-150220170D02*
G75*
G02*
X78555000Y-151765462I2560000J-1544830D01*
G01*
X78555000Y-151764538D02*
G75*
G02*
X73005000Y-153309830I-2990000J-462D01*
G01*
X78065000Y-151765000D02*
G75*
G02*
X73065000Y-151765000I-2500000J0D01*
G01*
X73065000Y-151765000D02*
G75*
G02*
X78065000Y-151765000I2500000J0D01*
G01*
%TO.C,D294*%
X125059000Y-93379000D02*
X125059000Y-93535000D01*
X125059000Y-95695000D02*
X125059000Y-95851000D01*
X125059000Y-93379484D02*
G75*
G02*
X128291335Y-93536392I1560000J-1235517D01*
G01*
X125578039Y-93535000D02*
G75*
G02*
X127660130Y-93535163I1040961J-1080000D01*
G01*
X127660130Y-95694837D02*
G75*
G02*
X125578039Y-95695000I-1041130J1079837D01*
G01*
X128291335Y-95693608D02*
G75*
G02*
X125059000Y-95850516I-1672335J1078609D01*
G01*
%TO.C,D108*%
X107295000Y-124820000D02*
X107295000Y-127910000D01*
X107295000Y-124820170D02*
G75*
G02*
X112845000Y-126365462I2560000J-1544830D01*
G01*
X112845000Y-126364538D02*
G75*
G02*
X107295000Y-127909830I-2990000J-462D01*
G01*
X112355000Y-126365000D02*
G75*
G02*
X107355000Y-126365000I-2500000J0D01*
G01*
X107355000Y-126365000D02*
G75*
G02*
X112355000Y-126365000I2500000J0D01*
G01*
%TO.C,D105*%
X98405000Y-150220000D02*
X98405000Y-153310000D01*
X98405000Y-150220170D02*
G75*
G02*
X103955000Y-151765462I2560000J-1544830D01*
G01*
X103955000Y-151764538D02*
G75*
G02*
X98405000Y-153309830I-2990000J-462D01*
G01*
X103465000Y-151765000D02*
G75*
G02*
X98465000Y-151765000I-2500000J0D01*
G01*
X98465000Y-151765000D02*
G75*
G02*
X103465000Y-151765000I2500000J0D01*
G01*
%TO.C,D13*%
X247203786Y-121689981D02*
X247203786Y-124779981D01*
X247203786Y-121690151D02*
G75*
G02*
X252753786Y-123235443I2560000J-1544830D01*
G01*
X252753786Y-123234519D02*
G75*
G02*
X247203786Y-124779811I-2990000J-462D01*
G01*
X252263786Y-123234981D02*
G75*
G02*
X247263786Y-123234981I-2500000J0D01*
G01*
X247263786Y-123234981D02*
G75*
G02*
X252263786Y-123234981I2500000J0D01*
G01*
%TO.C,D200*%
X206355000Y-131170000D02*
X206355000Y-134260000D01*
X206355000Y-131170170D02*
G75*
G02*
X211905000Y-132715462I2560000J-1544830D01*
G01*
X211905000Y-132714538D02*
G75*
G02*
X206355000Y-134259830I-2990000J-462D01*
G01*
X211415000Y-132715000D02*
G75*
G02*
X206415000Y-132715000I-2500000J0D01*
G01*
X206415000Y-132715000D02*
G75*
G02*
X211415000Y-132715000I2500000J0D01*
G01*
%TO.C,D113*%
X107295000Y-156570000D02*
X107295000Y-159660000D01*
X107295000Y-156570170D02*
G75*
G02*
X112845000Y-158115462I2560000J-1544830D01*
G01*
X112845000Y-158114538D02*
G75*
G02*
X107295000Y-159659830I-2990000J-462D01*
G01*
X112355000Y-158115000D02*
G75*
G02*
X107355000Y-158115000I-2500000J0D01*
G01*
X107355000Y-158115000D02*
G75*
G02*
X112355000Y-158115000I2500000J0D01*
G01*
%TO.C,D184*%
X187305000Y-162920000D02*
X187305000Y-166010000D01*
X187305000Y-162920170D02*
G75*
G02*
X192855000Y-164465462I2560000J-1544830D01*
G01*
X192855000Y-164464538D02*
G75*
G02*
X187305000Y-166009830I-2990000J-462D01*
G01*
X192365000Y-164465000D02*
G75*
G02*
X187365000Y-164465000I-2500000J0D01*
G01*
X187365000Y-164465000D02*
G75*
G02*
X192365000Y-164465000I2500000J0D01*
G01*
%TO.C,D329*%
X152491000Y-93379000D02*
X152491000Y-93535000D01*
X152491000Y-95695000D02*
X152491000Y-95851000D01*
X152491000Y-93379484D02*
G75*
G02*
X155723335Y-93536392I1560000J-1235517D01*
G01*
X153010039Y-93535000D02*
G75*
G02*
X155092130Y-93535163I1040961J-1080000D01*
G01*
X155092130Y-95694837D02*
G75*
G02*
X153010039Y-95695000I-1041130J1079837D01*
G01*
X155723335Y-95693608D02*
G75*
G02*
X152491000Y-95850516I-1672335J1078609D01*
G01*
%TO.C,D266*%
X157571000Y-205139000D02*
X157571000Y-205295000D01*
X157571000Y-207455000D02*
X157571000Y-207611000D01*
X157571000Y-205139484D02*
G75*
G02*
X160803335Y-205296392I1560000J-1235517D01*
G01*
X158090039Y-205295000D02*
G75*
G02*
X160172130Y-205295163I1040961J-1080000D01*
G01*
X160172130Y-207454837D02*
G75*
G02*
X158090039Y-207455000I-1041130J1079837D01*
G01*
X160803335Y-207453608D02*
G75*
G02*
X157571000Y-207610516I-1672335J1078609D01*
G01*
%TO.C,D302*%
X130139000Y-98459000D02*
X130139000Y-98615000D01*
X130139000Y-100775000D02*
X130139000Y-100931000D01*
X130139000Y-98459484D02*
G75*
G02*
X133371335Y-98616392I1560000J-1235517D01*
G01*
X130658039Y-98615000D02*
G75*
G02*
X132740130Y-98615163I1040961J-1080000D01*
G01*
X132740130Y-100774837D02*
G75*
G02*
X130658039Y-100775000I-1041130J1079837D01*
G01*
X133371335Y-100773608D02*
G75*
G02*
X130139000Y-100930516I-1672335J1078609D01*
G01*
%TO.C,D88*%
X85705000Y-131170000D02*
X85705000Y-134260000D01*
X85705000Y-131170170D02*
G75*
G02*
X91255000Y-132715462I2560000J-1544830D01*
G01*
X91255000Y-132714538D02*
G75*
G02*
X85705000Y-134259830I-2990000J-462D01*
G01*
X90765000Y-132715000D02*
G75*
G02*
X85765000Y-132715000I-2500000J0D01*
G01*
X85765000Y-132715000D02*
G75*
G02*
X90765000Y-132715000I2500000J0D01*
G01*
%TO.C,D158*%
X165715000Y-131170000D02*
X165715000Y-134260000D01*
X165715000Y-131170170D02*
G75*
G02*
X171265000Y-132715462I2560000J-1544830D01*
G01*
X171265000Y-132714538D02*
G75*
G02*
X165715000Y-134259830I-2990000J-462D01*
G01*
X170775000Y-132715000D02*
G75*
G02*
X165775000Y-132715000I-2500000J0D01*
G01*
X165775000Y-132715000D02*
G75*
G02*
X170775000Y-132715000I2500000J0D01*
G01*
%TO.C,D146*%
X153015000Y-143870000D02*
X153015000Y-146960000D01*
X153015000Y-143870170D02*
G75*
G02*
X158565000Y-145415462I2560000J-1544830D01*
G01*
X158565000Y-145414538D02*
G75*
G02*
X153015000Y-146959830I-2990000J-462D01*
G01*
X158075000Y-145415000D02*
G75*
G02*
X153075000Y-145415000I-2500000J0D01*
G01*
X153075000Y-145415000D02*
G75*
G02*
X158075000Y-145415000I2500000J0D01*
G01*
%TO.C,R6*%
X194717936Y-94896000D02*
X195172064Y-94896000D01*
X194717936Y-96366000D02*
X195172064Y-96366000D01*
%TO.C,D319*%
X147411000Y-78139000D02*
X147411000Y-78295000D01*
X147411000Y-80455000D02*
X147411000Y-80611000D01*
X147411000Y-78139484D02*
G75*
G02*
X150643335Y-78296392I1560000J-1235517D01*
G01*
X147930039Y-78295000D02*
G75*
G02*
X150012130Y-78295163I1040961J-1080000D01*
G01*
X150012130Y-80454837D02*
G75*
G02*
X147930039Y-80455000I-1041130J1079837D01*
G01*
X150643335Y-80453608D02*
G75*
G02*
X147411000Y-80610516I-1672335J1078609D01*
G01*
%TO.C,D197*%
X200005000Y-156570000D02*
X200005000Y-159660000D01*
X200005000Y-156570170D02*
G75*
G02*
X205555000Y-158115462I2560000J-1544830D01*
G01*
X205555000Y-158114538D02*
G75*
G02*
X200005000Y-159659830I-2990000J-462D01*
G01*
X205065000Y-158115000D02*
G75*
G02*
X200065000Y-158115000I-2500000J0D01*
G01*
X200065000Y-158115000D02*
G75*
G02*
X205065000Y-158115000I2500000J0D01*
G01*
%TO.C,D122*%
X119995000Y-124820000D02*
X119995000Y-127910000D01*
X119995000Y-124820170D02*
G75*
G02*
X125545000Y-126365462I2560000J-1544830D01*
G01*
X125545000Y-126364538D02*
G75*
G02*
X119995000Y-127909830I-2990000J-462D01*
G01*
X125055000Y-126365000D02*
G75*
G02*
X120055000Y-126365000I-2500000J0D01*
G01*
X120055000Y-126365000D02*
G75*
G02*
X125055000Y-126365000I2500000J0D01*
G01*
%TO.C,C9*%
X93194200Y-200144748D02*
X93194200Y-200667252D01*
X94664200Y-200144748D02*
X94664200Y-200667252D01*
%TO.C,D156*%
X159365000Y-162920000D02*
X159365000Y-166010000D01*
X159365000Y-162920170D02*
G75*
G02*
X164915000Y-164465462I2560000J-1544830D01*
G01*
X164915000Y-164464538D02*
G75*
G02*
X159365000Y-166009830I-2990000J-462D01*
G01*
X164425000Y-164465000D02*
G75*
G02*
X159425000Y-164465000I-2500000J0D01*
G01*
X159425000Y-164465000D02*
G75*
G02*
X164425000Y-164465000I2500000J0D01*
G01*
%TO.C,D97*%
X92055000Y-143870000D02*
X92055000Y-146960000D01*
X92055000Y-143870170D02*
G75*
G02*
X97605000Y-145415462I2560000J-1544830D01*
G01*
X97605000Y-145414538D02*
G75*
G02*
X92055000Y-146959830I-2990000J-462D01*
G01*
X97115000Y-145415000D02*
G75*
G02*
X92115000Y-145415000I-2500000J0D01*
G01*
X92115000Y-145415000D02*
G75*
G02*
X97115000Y-145415000I2500000J0D01*
G01*
%TO.C,D310*%
X135219000Y-103539000D02*
X135219000Y-103695000D01*
X135219000Y-105855000D02*
X135219000Y-106011000D01*
X135219000Y-103539484D02*
G75*
G02*
X138451335Y-103696392I1560000J-1235517D01*
G01*
X135738039Y-103695000D02*
G75*
G02*
X137820130Y-103695163I1040961J-1080000D01*
G01*
X137820130Y-105854837D02*
G75*
G02*
X135738039Y-105855000I-1041130J1079837D01*
G01*
X138451335Y-105853608D02*
G75*
G02*
X135219000Y-106010516I-1672335J1078609D01*
G01*
%TO.C,D8*%
X222133690Y-72487147D02*
X222133690Y-75577147D01*
X222133690Y-72487317D02*
G75*
G02*
X227683690Y-74032609I2560000J-1544830D01*
G01*
X227683690Y-74031685D02*
G75*
G02*
X222133690Y-75576977I-2990000J-462D01*
G01*
X227193690Y-74032147D02*
G75*
G02*
X222193690Y-74032147I-2500000J0D01*
G01*
X222193690Y-74032147D02*
G75*
G02*
X227193690Y-74032147I2500000J0D01*
G01*
%TO.C,D125*%
X119995000Y-143870000D02*
X119995000Y-146960000D01*
X119995000Y-143870170D02*
G75*
G02*
X125545000Y-145415462I2560000J-1544830D01*
G01*
X125545000Y-145414538D02*
G75*
G02*
X119995000Y-146959830I-2990000J-462D01*
G01*
X125055000Y-145415000D02*
G75*
G02*
X120055000Y-145415000I-2500000J0D01*
G01*
X120055000Y-145415000D02*
G75*
G02*
X125055000Y-145415000I2500000J0D01*
G01*
%TO.C,D53*%
X71472147Y-64591310D02*
X71472147Y-67681310D01*
X71472147Y-64591480D02*
G75*
G02*
X77022147Y-66136772I2560000J-1544830D01*
G01*
X77022147Y-66135848D02*
G75*
G02*
X71472147Y-67681140I-2990000J-462D01*
G01*
X76532147Y-66136310D02*
G75*
G02*
X71532147Y-66136310I-2500000J0D01*
G01*
X71532147Y-66136310D02*
G75*
G02*
X76532147Y-66136310I2500000J0D01*
G01*
%TO.C,D63*%
X241915000Y-143870000D02*
X241915000Y-146960000D01*
X241915000Y-143870170D02*
G75*
G02*
X247465000Y-145415462I2560000J-1544830D01*
G01*
X247465000Y-145414538D02*
G75*
G02*
X241915000Y-146959830I-2990000J-462D01*
G01*
X246975000Y-145415000D02*
G75*
G02*
X241975000Y-145415000I-2500000J0D01*
G01*
X241975000Y-145415000D02*
G75*
G02*
X246975000Y-145415000I2500000J0D01*
G01*
%TO.C,D188*%
X193655000Y-143870000D02*
X193655000Y-146960000D01*
X193655000Y-143870170D02*
G75*
G02*
X199205000Y-145415462I2560000J-1544830D01*
G01*
X199205000Y-145414538D02*
G75*
G02*
X193655000Y-146959830I-2990000J-462D01*
G01*
X198715000Y-145415000D02*
G75*
G02*
X193715000Y-145415000I-2500000J0D01*
G01*
X193715000Y-145415000D02*
G75*
G02*
X198715000Y-145415000I2500000J0D01*
G01*
%TO.C,D321*%
X147411000Y-88299000D02*
X147411000Y-88455000D01*
X147411000Y-90615000D02*
X147411000Y-90771000D01*
X147411000Y-88299484D02*
G75*
G02*
X150643335Y-88456392I1560000J-1235517D01*
G01*
X147930039Y-88455000D02*
G75*
G02*
X150012130Y-88455163I1040961J-1080000D01*
G01*
X150012130Y-90614837D02*
G75*
G02*
X147930039Y-90615000I-1041130J1079837D01*
G01*
X150643335Y-90613608D02*
G75*
G02*
X147411000Y-90770516I-1672335J1078609D01*
G01*
%TO.C,D332*%
X157571000Y-73059000D02*
X157571000Y-73215000D01*
X157571000Y-75375000D02*
X157571000Y-75531000D01*
X157571000Y-73059484D02*
G75*
G02*
X160803335Y-73216392I1560000J-1235517D01*
G01*
X158090039Y-73215000D02*
G75*
G02*
X160172130Y-73215163I1040961J-1080000D01*
G01*
X160172130Y-75374837D02*
G75*
G02*
X158090039Y-75375000I-1041130J1079837D01*
G01*
X160803335Y-75373608D02*
G75*
G02*
X157571000Y-75530516I-1672335J1078609D01*
G01*
%TO.C,D149*%
X153015000Y-162920000D02*
X153015000Y-166010000D01*
X153015000Y-162920170D02*
G75*
G02*
X158565000Y-164465462I2560000J-1544830D01*
G01*
X158565000Y-164464538D02*
G75*
G02*
X153015000Y-166009830I-2990000J-462D01*
G01*
X158075000Y-164465000D02*
G75*
G02*
X153075000Y-164465000I-2500000J0D01*
G01*
X153075000Y-164465000D02*
G75*
G02*
X158075000Y-164465000I2500000J0D01*
G01*
%TO.C,D257*%
X152491000Y-194979000D02*
X152491000Y-195135000D01*
X152491000Y-197295000D02*
X152491000Y-197451000D01*
X152491000Y-194979484D02*
G75*
G02*
X155723335Y-195136392I1560000J-1235517D01*
G01*
X153010039Y-195135000D02*
G75*
G02*
X155092130Y-195135163I1040961J-1080000D01*
G01*
X155092130Y-197294837D02*
G75*
G02*
X153010039Y-197295000I-1041130J1079837D01*
G01*
X155723335Y-197293608D02*
G75*
G02*
X152491000Y-197450516I-1672335J1078609D01*
G01*
%TO.C,D24*%
X205559931Y-230175933D02*
X205559931Y-233265933D01*
X205559931Y-230176103D02*
G75*
G02*
X211109931Y-231721395I2560000J-1544830D01*
G01*
X211109931Y-231720471D02*
G75*
G02*
X205559931Y-233265763I-2990000J-462D01*
G01*
X210619931Y-231720933D02*
G75*
G02*
X205619931Y-231720933I-2500000J0D01*
G01*
X205619931Y-231720933D02*
G75*
G02*
X210619931Y-231720933I2500000J0D01*
G01*
%TO.C,D209*%
X212705000Y-143870000D02*
X212705000Y-146960000D01*
X212705000Y-143870170D02*
G75*
G02*
X218255000Y-145415462I2560000J-1544830D01*
G01*
X218255000Y-145414538D02*
G75*
G02*
X212705000Y-146959830I-2990000J-462D01*
G01*
X217765000Y-145415000D02*
G75*
G02*
X212765000Y-145415000I-2500000J0D01*
G01*
X212765000Y-145415000D02*
G75*
G02*
X217765000Y-145415000I2500000J0D01*
G01*
%TO.C,D81*%
X79355000Y-131170000D02*
X79355000Y-134260000D01*
X79355000Y-131170170D02*
G75*
G02*
X84905000Y-132715462I2560000J-1544830D01*
G01*
X84905000Y-132714538D02*
G75*
G02*
X79355000Y-134259830I-2990000J-462D01*
G01*
X84415000Y-132715000D02*
G75*
G02*
X79415000Y-132715000I-2500000J0D01*
G01*
X79415000Y-132715000D02*
G75*
G02*
X84415000Y-132715000I2500000J0D01*
G01*
%TO.C,D341*%
X162651000Y-83219000D02*
X162651000Y-83375000D01*
X162651000Y-85535000D02*
X162651000Y-85691000D01*
X162651000Y-83219484D02*
G75*
G02*
X165883335Y-83376392I1560000J-1235517D01*
G01*
X163170039Y-83375000D02*
G75*
G02*
X165252130Y-83375163I1040961J-1080000D01*
G01*
X165252130Y-85534837D02*
G75*
G02*
X163170039Y-85535000I-1041130J1079837D01*
G01*
X165883335Y-85533608D02*
G75*
G02*
X162651000Y-85690516I-1672335J1078609D01*
G01*
%TO.C,D270*%
X162651000Y-189899000D02*
X162651000Y-190055000D01*
X162651000Y-192215000D02*
X162651000Y-192371000D01*
X162651000Y-189899484D02*
G75*
G02*
X165883335Y-190056392I1560000J-1235517D01*
G01*
X163170039Y-190055000D02*
G75*
G02*
X165252130Y-190055163I1040961J-1080000D01*
G01*
X165252130Y-192214837D02*
G75*
G02*
X163170039Y-192215000I-1041130J1079837D01*
G01*
X165883335Y-192213608D02*
G75*
G02*
X162651000Y-192370516I-1672335J1078609D01*
G01*
%TO.C,D89*%
X85705000Y-137520000D02*
X85705000Y-140610000D01*
X85705000Y-137520170D02*
G75*
G02*
X91255000Y-139065462I2560000J-1544830D01*
G01*
X91255000Y-139064538D02*
G75*
G02*
X85705000Y-140609830I-2990000J-462D01*
G01*
X90765000Y-139065000D02*
G75*
G02*
X85765000Y-139065000I-2500000J0D01*
G01*
X85765000Y-139065000D02*
G75*
G02*
X90765000Y-139065000I2500000J0D01*
G01*
%TO.C,D42*%
X41396291Y-176835933D02*
X41396291Y-179925933D01*
X41396291Y-176836103D02*
G75*
G02*
X46946291Y-178381395I2560000J-1544830D01*
G01*
X46946291Y-178380471D02*
G75*
G02*
X41396291Y-179925763I-2990000J-462D01*
G01*
X46456291Y-178380933D02*
G75*
G02*
X41456291Y-178380933I-2500000J0D01*
G01*
X41456291Y-178380933D02*
G75*
G02*
X46456291Y-178380933I2500000J0D01*
G01*
%TO.C,D323*%
X147411000Y-98459000D02*
X147411000Y-98615000D01*
X147411000Y-100775000D02*
X147411000Y-100931000D01*
X147411000Y-98459484D02*
G75*
G02*
X150643335Y-98616392I1560000J-1235517D01*
G01*
X147930039Y-98615000D02*
G75*
G02*
X150012130Y-98615163I1040961J-1080000D01*
G01*
X150012130Y-100774837D02*
G75*
G02*
X147930039Y-100775000I-1041130J1079837D01*
G01*
X150643335Y-100773608D02*
G75*
G02*
X147411000Y-100930516I-1672335J1078609D01*
G01*
%TO.C,D59*%
X131703904Y-37774404D02*
X131703904Y-40864404D01*
X131703904Y-37774574D02*
G75*
G02*
X137253904Y-39319866I2560000J-1544830D01*
G01*
X137253904Y-39318942D02*
G75*
G02*
X131703904Y-40864234I-2990000J-462D01*
G01*
X136763904Y-39319404D02*
G75*
G02*
X131763904Y-39319404I-2500000J0D01*
G01*
X131763904Y-39319404D02*
G75*
G02*
X136763904Y-39319404I2500000J0D01*
G01*
%TO.C,D307*%
X135219000Y-88299000D02*
X135219000Y-88455000D01*
X135219000Y-90615000D02*
X135219000Y-90771000D01*
X135219000Y-88299484D02*
G75*
G02*
X138451335Y-88456392I1560000J-1235517D01*
G01*
X135738039Y-88455000D02*
G75*
G02*
X137820130Y-88455163I1040961J-1080000D01*
G01*
X137820130Y-90614837D02*
G75*
G02*
X135738039Y-90615000I-1041130J1079837D01*
G01*
X138451335Y-90613608D02*
G75*
G02*
X135219000Y-90770516I-1672335J1078609D01*
G01*
%TO.C,D186*%
X193655000Y-131170000D02*
X193655000Y-134260000D01*
X193655000Y-131170170D02*
G75*
G02*
X199205000Y-132715462I2560000J-1544830D01*
G01*
X199205000Y-132714538D02*
G75*
G02*
X193655000Y-134259830I-2990000J-462D01*
G01*
X198715000Y-132715000D02*
G75*
G02*
X193715000Y-132715000I-2500000J0D01*
G01*
X193715000Y-132715000D02*
G75*
G02*
X198715000Y-132715000I2500000J0D01*
G01*
%TO.C,D221*%
X125059000Y-189899000D02*
X125059000Y-190055000D01*
X125059000Y-192215000D02*
X125059000Y-192371000D01*
X125059000Y-189899484D02*
G75*
G02*
X128291335Y-190056392I1560000J-1235517D01*
G01*
X125578039Y-190055000D02*
G75*
G02*
X127660130Y-190055163I1040961J-1080000D01*
G01*
X127660130Y-192214837D02*
G75*
G02*
X125578039Y-192215000I-1041130J1079837D01*
G01*
X128291335Y-192213608D02*
G75*
G02*
X125059000Y-192370516I-1672335J1078609D01*
G01*
%TO.C,D194*%
X200005000Y-137520000D02*
X200005000Y-140610000D01*
X200005000Y-137520170D02*
G75*
G02*
X205555000Y-139065462I2560000J-1544830D01*
G01*
X205555000Y-139064538D02*
G75*
G02*
X200005000Y-140609830I-2990000J-462D01*
G01*
X205065000Y-139065000D02*
G75*
G02*
X200065000Y-139065000I-2500000J0D01*
G01*
X200065000Y-139065000D02*
G75*
G02*
X205065000Y-139065000I2500000J0D01*
G01*
%TO.C,D243*%
X140299000Y-194979000D02*
X140299000Y-195135000D01*
X140299000Y-197295000D02*
X140299000Y-197451000D01*
X140299000Y-194979484D02*
G75*
G02*
X143531335Y-195136392I1560000J-1235517D01*
G01*
X140818039Y-195135000D02*
G75*
G02*
X142900130Y-195135163I1040961J-1080000D01*
G01*
X142900130Y-197294837D02*
G75*
G02*
X140818039Y-197295000I-1041130J1079837D01*
G01*
X143531335Y-197293608D02*
G75*
G02*
X140299000Y-197450516I-1672335J1078609D01*
G01*
%TO.C,D360*%
X174553125Y-28413876D02*
X174553125Y-31098876D01*
X174553125Y-31098876D02*
X176473125Y-31098876D01*
X176473125Y-31098876D02*
X176473125Y-28413876D01*
%TO.C,D142*%
X132695000Y-162920000D02*
X132695000Y-166010000D01*
X132695000Y-162920170D02*
G75*
G02*
X138245000Y-164465462I2560000J-1544830D01*
G01*
X138245000Y-164464538D02*
G75*
G02*
X132695000Y-166009830I-2990000J-462D01*
G01*
X137755000Y-164465000D02*
G75*
G02*
X132755000Y-164465000I-2500000J0D01*
G01*
X132755000Y-164465000D02*
G75*
G02*
X137755000Y-164465000I2500000J0D01*
G01*
%TO.C,D241*%
X140299000Y-184819000D02*
X140299000Y-184975000D01*
X140299000Y-187135000D02*
X140299000Y-187291000D01*
X140299000Y-184819484D02*
G75*
G02*
X143531335Y-184976392I1560000J-1235517D01*
G01*
X140818039Y-184975000D02*
G75*
G02*
X142900130Y-184975163I1040961J-1080000D01*
G01*
X142900130Y-187134837D02*
G75*
G02*
X140818039Y-187135000I-1041130J1079837D01*
G01*
X143531335Y-187133608D02*
G75*
G02*
X140299000Y-187290516I-1672335J1078609D01*
G01*
%TO.C,D50*%
X50467410Y-90530000D02*
X50467410Y-93620000D01*
X50467410Y-90530170D02*
G75*
G02*
X56017410Y-92075462I2560000J-1544830D01*
G01*
X56017410Y-92074538D02*
G75*
G02*
X50467410Y-93619830I-2990000J-462D01*
G01*
X55527410Y-92075000D02*
G75*
G02*
X50527410Y-92075000I-2500000J0D01*
G01*
X50527410Y-92075000D02*
G75*
G02*
X55527410Y-92075000I2500000J0D01*
G01*
%TO.C,D90*%
X85705000Y-143870000D02*
X85705000Y-146960000D01*
X85705000Y-143870170D02*
G75*
G02*
X91255000Y-145415462I2560000J-1544830D01*
G01*
X91255000Y-145414538D02*
G75*
G02*
X85705000Y-146959830I-2990000J-462D01*
G01*
X90765000Y-145415000D02*
G75*
G02*
X85765000Y-145415000I-2500000J0D01*
G01*
X85765000Y-145415000D02*
G75*
G02*
X90765000Y-145415000I2500000J0D01*
G01*
%TO.C,D12*%
X244313709Y-110904067D02*
X244313709Y-113994067D01*
X244313709Y-110904237D02*
G75*
G02*
X249863709Y-112449529I2560000J-1544830D01*
G01*
X249863709Y-112448605D02*
G75*
G02*
X244313709Y-113993897I-2990000J-462D01*
G01*
X249373709Y-112449067D02*
G75*
G02*
X244373709Y-112449067I-2500000J0D01*
G01*
X244373709Y-112449067D02*
G75*
G02*
X249373709Y-112449067I2500000J0D01*
G01*
%TO.C,D144*%
X153015000Y-131170000D02*
X153015000Y-134260000D01*
X153015000Y-131170170D02*
G75*
G02*
X158565000Y-132715462I2560000J-1544830D01*
G01*
X158565000Y-132714538D02*
G75*
G02*
X153015000Y-134259830I-2990000J-462D01*
G01*
X158075000Y-132715000D02*
G75*
G02*
X153075000Y-132715000I-2500000J0D01*
G01*
X153075000Y-132715000D02*
G75*
G02*
X158075000Y-132715000I2500000J0D01*
G01*
%TO.C,D277*%
X167731000Y-189899000D02*
X167731000Y-190055000D01*
X167731000Y-192215000D02*
X167731000Y-192371000D01*
X167731000Y-189899484D02*
G75*
G02*
X170963335Y-190056392I1560000J-1235517D01*
G01*
X168250039Y-190055000D02*
G75*
G02*
X170332130Y-190055163I1040961J-1080000D01*
G01*
X170332130Y-192214837D02*
G75*
G02*
X168250039Y-192215000I-1041130J1079837D01*
G01*
X170963335Y-192213608D02*
G75*
G02*
X167731000Y-192370516I-1672335J1078609D01*
G01*
%TO.C,D279*%
X167731000Y-200059000D02*
X167731000Y-200215000D01*
X167731000Y-202375000D02*
X167731000Y-202531000D01*
X167731000Y-200059484D02*
G75*
G02*
X170963335Y-200216392I1560000J-1235517D01*
G01*
X168250039Y-200215000D02*
G75*
G02*
X170332130Y-200215163I1040961J-1080000D01*
G01*
X170332130Y-202374837D02*
G75*
G02*
X168250039Y-202375000I-1041130J1079837D01*
G01*
X170963335Y-202373608D02*
G75*
G02*
X167731000Y-202530516I-1672335J1078609D01*
G01*
%TO.C,D316*%
X140299000Y-98459000D02*
X140299000Y-98615000D01*
X140299000Y-100775000D02*
X140299000Y-100931000D01*
X140299000Y-98459484D02*
G75*
G02*
X143531335Y-98616392I1560000J-1235517D01*
G01*
X140818039Y-98615000D02*
G75*
G02*
X142900130Y-98615163I1040961J-1080000D01*
G01*
X142900130Y-100774837D02*
G75*
G02*
X140818039Y-100775000I-1041130J1079837D01*
G01*
X143531335Y-100773608D02*
G75*
G02*
X140299000Y-100930516I-1672335J1078609D01*
G01*
%TO.C,D61*%
X192385000Y-58081524D02*
X192385000Y-61171524D01*
X192385000Y-58081694D02*
G75*
G02*
X197935000Y-59626986I2560000J-1544830D01*
G01*
X197935000Y-59626062D02*
G75*
G02*
X192385000Y-61171354I-2990000J-462D01*
G01*
X197445000Y-59626524D02*
G75*
G02*
X192445000Y-59626524I-2500000J0D01*
G01*
X192445000Y-59626524D02*
G75*
G02*
X197445000Y-59626524I2500000J0D01*
G01*
%TO.C,D166*%
X172065000Y-137520000D02*
X172065000Y-140610000D01*
X172065000Y-137520170D02*
G75*
G02*
X177615000Y-139065462I2560000J-1544830D01*
G01*
X177615000Y-139064538D02*
G75*
G02*
X172065000Y-140609830I-2990000J-462D01*
G01*
X177125000Y-139065000D02*
G75*
G02*
X172125000Y-139065000I-2500000J0D01*
G01*
X172125000Y-139065000D02*
G75*
G02*
X177125000Y-139065000I2500000J0D01*
G01*
%TO.C,D107*%
X98405000Y-162920000D02*
X98405000Y-166010000D01*
X98405000Y-162920170D02*
G75*
G02*
X103955000Y-164465462I2560000J-1544830D01*
G01*
X103955000Y-164464538D02*
G75*
G02*
X98405000Y-166009830I-2990000J-462D01*
G01*
X103465000Y-164465000D02*
G75*
G02*
X98465000Y-164465000I-2500000J0D01*
G01*
X98465000Y-164465000D02*
G75*
G02*
X103465000Y-164465000I2500000J0D01*
G01*
%TO.C,D16*%
X248950596Y-155021096D02*
X248950596Y-158111096D01*
X248950596Y-155021266D02*
G75*
G02*
X254500596Y-156566558I2560000J-1544830D01*
G01*
X254500596Y-156565634D02*
G75*
G02*
X248950596Y-158110926I-2990000J-462D01*
G01*
X254010596Y-156566096D02*
G75*
G02*
X249010596Y-156566096I-2500000J0D01*
G01*
X249010596Y-156566096D02*
G75*
G02*
X254010596Y-156566096I2500000J0D01*
G01*
%TO.C,D147*%
X153015000Y-150220000D02*
X153015000Y-153310000D01*
X153015000Y-150220170D02*
G75*
G02*
X158565000Y-151765462I2560000J-1544830D01*
G01*
X158565000Y-151764538D02*
G75*
G02*
X153015000Y-153309830I-2990000J-462D01*
G01*
X158075000Y-151765000D02*
G75*
G02*
X153075000Y-151765000I-2500000J0D01*
G01*
X153075000Y-151765000D02*
G75*
G02*
X158075000Y-151765000I2500000J0D01*
G01*
%TO.C,D328*%
X152491000Y-88299000D02*
X152491000Y-88455000D01*
X152491000Y-90615000D02*
X152491000Y-90771000D01*
X152491000Y-88299484D02*
G75*
G02*
X155723335Y-88456392I1560000J-1235517D01*
G01*
X153010039Y-88455000D02*
G75*
G02*
X155092130Y-88455163I1040961J-1080000D01*
G01*
X155092130Y-90614837D02*
G75*
G02*
X153010039Y-90615000I-1041130J1079837D01*
G01*
X155723335Y-90613608D02*
G75*
G02*
X152491000Y-90770516I-1672335J1078609D01*
G01*
%TO.C,D115*%
X113645000Y-124820000D02*
X113645000Y-127910000D01*
X113645000Y-124820170D02*
G75*
G02*
X119195000Y-126365462I2560000J-1544830D01*
G01*
X119195000Y-126364538D02*
G75*
G02*
X113645000Y-127909830I-2990000J-462D01*
G01*
X118705000Y-126365000D02*
G75*
G02*
X113705000Y-126365000I-2500000J0D01*
G01*
X113705000Y-126365000D02*
G75*
G02*
X118705000Y-126365000I2500000J0D01*
G01*
%TO.C,D84*%
X79355000Y-150220000D02*
X79355000Y-153310000D01*
X79355000Y-150220170D02*
G75*
G02*
X84905000Y-151765462I2560000J-1544830D01*
G01*
X84905000Y-151764538D02*
G75*
G02*
X79355000Y-153309830I-2990000J-462D01*
G01*
X84415000Y-151765000D02*
G75*
G02*
X79415000Y-151765000I-2500000J0D01*
G01*
X79415000Y-151765000D02*
G75*
G02*
X84415000Y-151765000I2500000J0D01*
G01*
%TO.C,D237*%
X135219000Y-200059000D02*
X135219000Y-200215000D01*
X135219000Y-202375000D02*
X135219000Y-202531000D01*
X135219000Y-200059484D02*
G75*
G02*
X138451335Y-200216392I1560000J-1235517D01*
G01*
X135738039Y-200215000D02*
G75*
G02*
X137820130Y-200215163I1040961J-1080000D01*
G01*
X137820130Y-202374837D02*
G75*
G02*
X135738039Y-202375000I-1041130J1079837D01*
G01*
X138451335Y-202373608D02*
G75*
G02*
X135219000Y-202530516I-1672335J1078609D01*
G01*
%TO.C,D25*%
X196195000Y-236257590D02*
X196195000Y-239347590D01*
X196195000Y-236257760D02*
G75*
G02*
X201745000Y-237803052I2560000J-1544830D01*
G01*
X201745000Y-237802128D02*
G75*
G02*
X196195000Y-239347420I-2990000J-462D01*
G01*
X201255000Y-237802590D02*
G75*
G02*
X196255000Y-237802590I-2500000J0D01*
G01*
X196255000Y-237802590D02*
G75*
G02*
X201255000Y-237802590I2500000J0D01*
G01*
%TO.C,D260*%
X152491000Y-210219000D02*
X152491000Y-210375000D01*
X152491000Y-212535000D02*
X152491000Y-212691000D01*
X152491000Y-210219484D02*
G75*
G02*
X155723335Y-210376392I1560000J-1235517D01*
G01*
X153010039Y-210375000D02*
G75*
G02*
X155092130Y-210375163I1040961J-1080000D01*
G01*
X155092130Y-212534837D02*
G75*
G02*
X153010039Y-212535000I-1041130J1079837D01*
G01*
X155723335Y-212533608D02*
G75*
G02*
X152491000Y-212690516I-1672335J1078609D01*
G01*
%TO.C,D262*%
X157571000Y-184819000D02*
X157571000Y-184975000D01*
X157571000Y-187135000D02*
X157571000Y-187291000D01*
X157571000Y-184819484D02*
G75*
G02*
X160803335Y-184976392I1560000J-1235517D01*
G01*
X158090039Y-184975000D02*
G75*
G02*
X160172130Y-184975163I1040961J-1080000D01*
G01*
X160172130Y-187134837D02*
G75*
G02*
X158090039Y-187135000I-1041130J1079837D01*
G01*
X160803335Y-187133608D02*
G75*
G02*
X157571000Y-187290516I-1672335J1078609D01*
G01*
%TO.C,D71*%
X93325000Y-58081524D02*
X93325000Y-61171524D01*
X93325000Y-58081694D02*
G75*
G02*
X98875000Y-59626986I2560000J-1544830D01*
G01*
X98875000Y-59626062D02*
G75*
G02*
X93325000Y-61171354I-2990000J-462D01*
G01*
X98385000Y-59626524D02*
G75*
G02*
X93385000Y-59626524I-2500000J0D01*
G01*
X93385000Y-59626524D02*
G75*
G02*
X98385000Y-59626524I2500000J0D01*
G01*
%TO.C,D246*%
X140299000Y-210219000D02*
X140299000Y-210375000D01*
X140299000Y-212535000D02*
X140299000Y-212691000D01*
X140299000Y-210219484D02*
G75*
G02*
X143531335Y-210376392I1560000J-1235517D01*
G01*
X140818039Y-210375000D02*
G75*
G02*
X142900130Y-210375163I1040961J-1080000D01*
G01*
X142900130Y-212534837D02*
G75*
G02*
X140818039Y-212535000I-1041130J1079837D01*
G01*
X143531335Y-212533608D02*
G75*
G02*
X140299000Y-212690516I-1672335J1078609D01*
G01*
%TO.C,D344*%
X162651000Y-98459000D02*
X162651000Y-98615000D01*
X162651000Y-100775000D02*
X162651000Y-100931000D01*
X162651000Y-98459484D02*
G75*
G02*
X165883335Y-98616392I1560000J-1235517D01*
G01*
X163170039Y-98615000D02*
G75*
G02*
X165252130Y-98615163I1040961J-1080000D01*
G01*
X165252130Y-100774837D02*
G75*
G02*
X163170039Y-100775000I-1041130J1079837D01*
G01*
X165883335Y-100773608D02*
G75*
G02*
X162651000Y-100930516I-1672335J1078609D01*
G01*
%TO.C,D235*%
X135219000Y-189899000D02*
X135219000Y-190055000D01*
X135219000Y-192215000D02*
X135219000Y-192371000D01*
X135219000Y-189899484D02*
G75*
G02*
X138451335Y-190056392I1560000J-1235517D01*
G01*
X135738039Y-190055000D02*
G75*
G02*
X137820130Y-190055163I1040961J-1080000D01*
G01*
X137820130Y-192214837D02*
G75*
G02*
X135738039Y-192215000I-1041130J1079837D01*
G01*
X138451335Y-192213608D02*
G75*
G02*
X135219000Y-192370516I-1672335J1078609D01*
G01*
%TO.C,D60*%
X142855000Y-37190000D02*
X142855000Y-40280000D01*
X142855000Y-37190170D02*
G75*
G02*
X148405000Y-38735462I2560000J-1544830D01*
G01*
X148405000Y-38734538D02*
G75*
G02*
X142855000Y-40279830I-2990000J-462D01*
G01*
X147915000Y-38735000D02*
G75*
G02*
X142915000Y-38735000I-2500000J0D01*
G01*
X142915000Y-38735000D02*
G75*
G02*
X147915000Y-38735000I2500000J0D01*
G01*
%TO.C,D330*%
X152491000Y-98459000D02*
X152491000Y-98615000D01*
X152491000Y-100775000D02*
X152491000Y-100931000D01*
X152491000Y-98459484D02*
G75*
G02*
X155723335Y-98616392I1560000J-1235517D01*
G01*
X153010039Y-98615000D02*
G75*
G02*
X155092130Y-98615163I1040961J-1080000D01*
G01*
X155092130Y-100774837D02*
G75*
G02*
X153010039Y-100775000I-1041130J1079837D01*
G01*
X155723335Y-100773608D02*
G75*
G02*
X152491000Y-100930516I-1672335J1078609D01*
G01*
%TO.C,D244*%
X140299000Y-200059000D02*
X140299000Y-200215000D01*
X140299000Y-202375000D02*
X140299000Y-202531000D01*
X140299000Y-200059484D02*
G75*
G02*
X143531335Y-200216392I1560000J-1235517D01*
G01*
X140818039Y-200215000D02*
G75*
G02*
X142900130Y-200215163I1040961J-1080000D01*
G01*
X142900130Y-202374837D02*
G75*
G02*
X140818039Y-202375000I-1041130J1079837D01*
G01*
X143531335Y-202373608D02*
G75*
G02*
X140299000Y-202530516I-1672335J1078609D01*
G01*
%TO.C,D251*%
X147411000Y-200059000D02*
X147411000Y-200215000D01*
X147411000Y-202375000D02*
X147411000Y-202531000D01*
X147411000Y-200059484D02*
G75*
G02*
X150643335Y-200216392I1560000J-1235517D01*
G01*
X147930039Y-200215000D02*
G75*
G02*
X150012130Y-200215163I1040961J-1080000D01*
G01*
X150012130Y-202374837D02*
G75*
G02*
X147930039Y-202375000I-1041130J1079837D01*
G01*
X150643335Y-202373608D02*
G75*
G02*
X147411000Y-202530516I-1672335J1078609D01*
G01*
%TO.C,D183*%
X187305000Y-156570000D02*
X187305000Y-159660000D01*
X187305000Y-156570170D02*
G75*
G02*
X192855000Y-158115462I2560000J-1544830D01*
G01*
X192855000Y-158114538D02*
G75*
G02*
X187305000Y-159659830I-2990000J-462D01*
G01*
X192365000Y-158115000D02*
G75*
G02*
X187365000Y-158115000I-2500000J0D01*
G01*
X187365000Y-158115000D02*
G75*
G02*
X192365000Y-158115000I2500000J0D01*
G01*
%TO.C,D204*%
X206355000Y-156570000D02*
X206355000Y-159660000D01*
X206355000Y-156570170D02*
G75*
G02*
X211905000Y-158115462I2560000J-1544830D01*
G01*
X211905000Y-158114538D02*
G75*
G02*
X206355000Y-159659830I-2990000J-462D01*
G01*
X211415000Y-158115000D02*
G75*
G02*
X206415000Y-158115000I-2500000J0D01*
G01*
X206415000Y-158115000D02*
G75*
G02*
X211415000Y-158115000I2500000J0D01*
G01*
%TO.C,D314*%
X140299000Y-88299000D02*
X140299000Y-88455000D01*
X140299000Y-90615000D02*
X140299000Y-90771000D01*
X140299000Y-88299484D02*
G75*
G02*
X143531335Y-88456392I1560000J-1235517D01*
G01*
X140818039Y-88455000D02*
G75*
G02*
X142900130Y-88455163I1040961J-1080000D01*
G01*
X142900130Y-90614837D02*
G75*
G02*
X140818039Y-90615000I-1041130J1079837D01*
G01*
X143531335Y-90613608D02*
G75*
G02*
X140299000Y-90770516I-1672335J1078609D01*
G01*
%TO.C,D342*%
X162651000Y-88299000D02*
X162651000Y-88455000D01*
X162651000Y-90615000D02*
X162651000Y-90771000D01*
X162651000Y-88299484D02*
G75*
G02*
X165883335Y-88456392I1560000J-1235517D01*
G01*
X163170039Y-88455000D02*
G75*
G02*
X165252130Y-88455163I1040961J-1080000D01*
G01*
X165252130Y-90614837D02*
G75*
G02*
X163170039Y-90615000I-1041130J1079837D01*
G01*
X165883335Y-90613608D02*
G75*
G02*
X162651000Y-90770516I-1672335J1078609D01*
G01*
%TO.C,D74*%
X73005000Y-131170000D02*
X73005000Y-134260000D01*
X73005000Y-131170170D02*
G75*
G02*
X78555000Y-132715462I2560000J-1544830D01*
G01*
X78555000Y-132714538D02*
G75*
G02*
X73005000Y-134259830I-2990000J-462D01*
G01*
X78065000Y-132715000D02*
G75*
G02*
X73065000Y-132715000I-2500000J0D01*
G01*
X73065000Y-132715000D02*
G75*
G02*
X78065000Y-132715000I2500000J0D01*
G01*
%TO.C,C5*%
X69673800Y-141724748D02*
X69673800Y-142247252D01*
X71143800Y-141724748D02*
X71143800Y-142247252D01*
%TO.C,D132*%
X126345000Y-143870000D02*
X126345000Y-146960000D01*
X126345000Y-143870170D02*
G75*
G02*
X131895000Y-145415462I2560000J-1544830D01*
G01*
X131895000Y-145414538D02*
G75*
G02*
X126345000Y-146959830I-2990000J-462D01*
G01*
X131405000Y-145415000D02*
G75*
G02*
X126405000Y-145415000I-2500000J0D01*
G01*
X126405000Y-145415000D02*
G75*
G02*
X131405000Y-145415000I2500000J0D01*
G01*
%TO.C,D336*%
X157571000Y-93379000D02*
X157571000Y-93535000D01*
X157571000Y-95695000D02*
X157571000Y-95851000D01*
X157571000Y-93379484D02*
G75*
G02*
X160803335Y-93536392I1560000J-1235517D01*
G01*
X158090039Y-93535000D02*
G75*
G02*
X160172130Y-93535163I1040961J-1080000D01*
G01*
X160172130Y-95694837D02*
G75*
G02*
X158090039Y-95695000I-1041130J1079837D01*
G01*
X160803335Y-95693608D02*
G75*
G02*
X157571000Y-95850516I-1672335J1078609D01*
G01*
%TO.C,D134*%
X126345000Y-156570000D02*
X126345000Y-159660000D01*
X126345000Y-156570170D02*
G75*
G02*
X131895000Y-158115462I2560000J-1544830D01*
G01*
X131895000Y-158114538D02*
G75*
G02*
X126345000Y-159659830I-2990000J-462D01*
G01*
X131405000Y-158115000D02*
G75*
G02*
X126405000Y-158115000I-2500000J0D01*
G01*
X126405000Y-158115000D02*
G75*
G02*
X131405000Y-158115000I2500000J0D01*
G01*
D12*
%TO.C,U15*%
X142015000Y-116044000D02*
X148815000Y-116044000D01*
X142015000Y-119044000D02*
X142015000Y-116044000D01*
X142765000Y-119044000D02*
X142015000Y-119044000D01*
X148815000Y-116044000D02*
X148815000Y-119044000D01*
X148815000Y-119044000D02*
X148065000Y-119044000D01*
D11*
%TO.C,D352*%
X167731000Y-103539000D02*
X167731000Y-103695000D01*
X167731000Y-105855000D02*
X167731000Y-106011000D01*
X167731000Y-103539484D02*
G75*
G02*
X170963335Y-103696392I1560000J-1235517D01*
G01*
X168250039Y-103695000D02*
G75*
G02*
X170332130Y-103695163I1040961J-1080000D01*
G01*
X170332130Y-105854837D02*
G75*
G02*
X168250039Y-105855000I-1041130J1079837D01*
G01*
X170963335Y-105853608D02*
G75*
G02*
X167731000Y-106010516I-1672335J1078609D01*
G01*
%TO.C,D121*%
X113645000Y-162920000D02*
X113645000Y-166010000D01*
X113645000Y-162920170D02*
G75*
G02*
X119195000Y-164465462I2560000J-1544830D01*
G01*
X119195000Y-164464538D02*
G75*
G02*
X113645000Y-166009830I-2990000J-462D01*
G01*
X118705000Y-164465000D02*
G75*
G02*
X113705000Y-164465000I-2500000J0D01*
G01*
X113705000Y-164465000D02*
G75*
G02*
X118705000Y-164465000I2500000J0D01*
G01*
%TO.C,D173*%
X178415000Y-137520000D02*
X178415000Y-140610000D01*
X178415000Y-137520170D02*
G75*
G02*
X183965000Y-139065462I2560000J-1544830D01*
G01*
X183965000Y-139064538D02*
G75*
G02*
X178415000Y-140609830I-2990000J-462D01*
G01*
X183475000Y-139065000D02*
G75*
G02*
X178475000Y-139065000I-2500000J0D01*
G01*
X178475000Y-139065000D02*
G75*
G02*
X183475000Y-139065000I2500000J0D01*
G01*
%TO.C,D242*%
X140299000Y-189899000D02*
X140299000Y-190055000D01*
X140299000Y-192215000D02*
X140299000Y-192371000D01*
X140299000Y-189899484D02*
G75*
G02*
X143531335Y-190056392I1560000J-1235517D01*
G01*
X140818039Y-190055000D02*
G75*
G02*
X142900130Y-190055163I1040961J-1080000D01*
G01*
X142900130Y-192214837D02*
G75*
G02*
X140818039Y-192215000I-1041130J1079837D01*
G01*
X143531335Y-192213608D02*
G75*
G02*
X140299000Y-192370516I-1672335J1078609D01*
G01*
%TD*%
M02*
