%TF.GenerationSoftware,KiCad,Pcbnew,8.0.2-1*%
%TF.CreationDate,2024-06-04T17:42:53+02:00*%
%TF.ProjectId,broadcast_clock,62726f61-6463-4617-9374-5f636c6f636b,rev?*%
%TF.SameCoordinates,Original*%
%TF.FileFunction,Soldermask,Top*%
%TF.FilePolarity,Negative*%
%FSLAX46Y46*%
G04 Gerber Fmt 4.6, Leading zero omitted, Abs format (unit mm)*
G04 Created by KiCad (PCBNEW 8.0.2-1) date 2024-06-04 17:42:53*
%MOMM*%
%LPD*%
G01*
G04 APERTURE LIST*
G04 Aperture macros list*
%AMRoundRect*
0 Rectangle with rounded corners*
0 $1 Rounding radius*
0 $2 $3 $4 $5 $6 $7 $8 $9 X,Y pos of 4 corners*
0 Add a 4 corners polygon primitive as box body*
4,1,4,$2,$3,$4,$5,$6,$7,$8,$9,$2,$3,0*
0 Add four circle primitives for the rounded corners*
1,1,$1+$1,$2,$3*
1,1,$1+$1,$4,$5*
1,1,$1+$1,$6,$7*
1,1,$1+$1,$8,$9*
0 Add four rect primitives between the rounded corners*
20,1,$1+$1,$2,$3,$4,$5,0*
20,1,$1+$1,$4,$5,$6,$7,0*
20,1,$1+$1,$6,$7,$8,$9,0*
20,1,$1+$1,$8,$9,$2,$3,0*%
G04 Aperture macros list end*
%ADD10R,1.500000X1.500000*%
%ADD11C,1.500000*%
%ADD12RoundRect,0.250000X0.450000X-0.262500X0.450000X0.262500X-0.450000X0.262500X-0.450000X-0.262500X0*%
%ADD13RoundRect,0.250000X-0.475000X0.250000X-0.475000X-0.250000X0.475000X-0.250000X0.475000X0.250000X0*%
%ADD14RoundRect,0.250000X-0.450000X0.262500X-0.450000X-0.262500X0.450000X-0.262500X0.450000X0.262500X0*%
%ADD15RoundRect,0.250000X0.262500X0.450000X-0.262500X0.450000X-0.262500X-0.450000X0.262500X-0.450000X0*%
%ADD16RoundRect,0.243750X0.456250X-0.243750X0.456250X0.243750X-0.456250X0.243750X-0.456250X-0.243750X0*%
%ADD17RoundRect,0.250000X0.250000X0.475000X-0.250000X0.475000X-0.250000X-0.475000X0.250000X-0.475000X0*%
%ADD18RoundRect,0.250000X0.475000X-0.250000X0.475000X0.250000X-0.475000X0.250000X-0.475000X-0.250000X0*%
%ADD19RoundRect,0.250000X-0.262500X-0.450000X0.262500X-0.450000X0.262500X0.450000X-0.262500X0.450000X0*%
%ADD20R,0.700000X1.900000*%
%ADD21C,2.050000*%
%ADD22C,2.250000*%
%ADD23R,1.600000X2.900000*%
%ADD24R,1.000000X1.000000*%
%ADD25O,1.000000X1.000000*%
%ADD26C,2.000000*%
G04 APERTURE END LIST*
D10*
%TO.C,D225*%
X125476000Y-211455000D03*
D11*
X127762000Y-211455000D03*
%TD*%
D10*
%TO.C,D254*%
X147828000Y-216535000D03*
D11*
X150114000Y-216535000D03*
%TD*%
D10*
%TO.C,D103*%
X99695000Y-139065000D03*
D11*
X102235000Y-139065000D03*
%TD*%
D10*
%TO.C,D54*%
X81440069Y-59109067D03*
D11*
X83980069Y-59109067D03*
%TD*%
D10*
%TO.C,D169*%
X173355000Y-158115000D03*
D11*
X175895000Y-158115000D03*
%TD*%
D10*
%TO.C,D45*%
X37465000Y-145415000D03*
D11*
X40005000Y-145415000D03*
%TD*%
D10*
%TO.C,D65*%
X193675000Y-231203476D03*
D11*
X196215000Y-231203476D03*
%TD*%
D10*
%TO.C,D30*%
X144145000Y-252095000D03*
D11*
X146685000Y-252095000D03*
%TD*%
D10*
%TO.C,D128*%
X121285000Y-164465000D03*
D11*
X123825000Y-164465000D03*
%TD*%
D10*
%TO.C,D109*%
X108585000Y-132715000D03*
D11*
X111125000Y-132715000D03*
%TD*%
D10*
%TO.C,D353*%
X144145000Y-137795000D03*
D11*
X146685000Y-137795000D03*
%TD*%
D10*
%TO.C,D85*%
X80645000Y-158115000D03*
D11*
X83185000Y-158115000D03*
%TD*%
D10*
%TO.C,D238*%
X135636000Y-206375000D03*
D11*
X137922000Y-206375000D03*
%TD*%
D10*
%TO.C,D26*%
X187535665Y-242872029D03*
D11*
X190075665Y-242872029D03*
%TD*%
D10*
%TO.C,D112*%
X108585000Y-151765000D03*
D11*
X111125000Y-151765000D03*
%TD*%
D10*
%TO.C,D340*%
X163068000Y-79375000D03*
D11*
X165354000Y-79375000D03*
%TD*%
D10*
%TO.C,D293*%
X125476000Y-89535000D03*
D11*
X127762000Y-89535000D03*
%TD*%
D10*
%TO.C,D110*%
X108585000Y-139065000D03*
D11*
X111125000Y-139065000D03*
%TD*%
D10*
%TO.C,D99*%
X93345000Y-158115000D03*
D11*
X95885000Y-158115000D03*
%TD*%
D10*
%TO.C,D199*%
X207645000Y-126365000D03*
D11*
X210185000Y-126365000D03*
%TD*%
D10*
%TO.C,D177*%
X179705000Y-164465000D03*
D11*
X182245000Y-164465000D03*
%TD*%
D10*
%TO.C,D111*%
X108585000Y-145415000D03*
D11*
X111125000Y-145415000D03*
%TD*%
D10*
%TO.C,D1*%
X155296096Y-39319404D03*
D11*
X157836096Y-39319404D03*
%TD*%
D12*
%TO.C,R3*%
X240411000Y-151788500D03*
X240411000Y-149963500D03*
%TD*%
D10*
%TO.C,D138*%
X133985000Y-139065000D03*
D11*
X136525000Y-139065000D03*
%TD*%
D10*
%TO.C,D139*%
X133985000Y-145415000D03*
D11*
X136525000Y-145415000D03*
%TD*%
D10*
%TO.C,D82*%
X80645000Y-139065000D03*
D11*
X83185000Y-139065000D03*
%TD*%
D10*
%TO.C,D327*%
X152908000Y-84455000D03*
D11*
X155194000Y-84455000D03*
%TD*%
D10*
%TO.C,D41*%
X46687971Y-188805665D03*
D11*
X49227971Y-188805665D03*
%TD*%
D10*
%TO.C,D309*%
X135636000Y-99695000D03*
D11*
X137922000Y-99695000D03*
%TD*%
D10*
%TO.C,D141*%
X133985000Y-158115000D03*
D11*
X136525000Y-158115000D03*
%TD*%
D10*
%TO.C,D303*%
X130556000Y-104775000D03*
D11*
X132842000Y-104775000D03*
%TD*%
D10*
%TO.C,D283*%
X120396000Y-74295000D03*
D11*
X122682000Y-74295000D03*
%TD*%
D10*
%TO.C,D219*%
X120396000Y-216535000D03*
D11*
X122682000Y-216535000D03*
%TD*%
D10*
%TO.C,D58*%
X121964981Y-41066214D03*
D11*
X124504981Y-41066214D03*
%TD*%
D10*
%TO.C,D39*%
X57839067Y-208119931D03*
D11*
X60379067Y-208119931D03*
%TD*%
D10*
%TO.C,D143*%
X154305000Y-126365000D03*
D11*
X156845000Y-126365000D03*
%TD*%
D10*
%TO.C,D28*%
X166325019Y-249763786D03*
D11*
X168865019Y-249763786D03*
%TD*%
D10*
%TO.C,D291*%
X125476000Y-79375000D03*
D11*
X127762000Y-79375000D03*
%TD*%
D10*
%TO.C,D265*%
X157988000Y-201295000D03*
D11*
X160274000Y-201295000D03*
%TD*%
D10*
%TO.C,D120*%
X114935000Y-158115000D03*
D11*
X117475000Y-158115000D03*
%TD*%
D10*
%TO.C,D36*%
X81440069Y-231720933D03*
D11*
X83980069Y-231720933D03*
%TD*%
D10*
%TO.C,D324*%
X147828000Y-104775000D03*
D11*
X150114000Y-104775000D03*
%TD*%
D10*
%TO.C,D94*%
X93345000Y-126365000D03*
D11*
X95885000Y-126365000D03*
%TD*%
D10*
%TO.C,D80*%
X80645000Y-126365000D03*
D11*
X83185000Y-126365000D03*
%TD*%
D10*
%TO.C,D117*%
X114935000Y-139065000D03*
D11*
X117475000Y-139065000D03*
%TD*%
D10*
%TO.C,D276*%
X168148000Y-186055000D03*
D11*
X170434000Y-186055000D03*
%TD*%
D13*
%TO.C,C2*%
X68199000Y-141036000D03*
X68199000Y-142936000D03*
%TD*%
D10*
%TO.C,D126*%
X121285000Y-151765000D03*
D11*
X123825000Y-151765000D03*
%TD*%
D10*
%TO.C,D278*%
X168148000Y-196215000D03*
D11*
X170434000Y-196215000D03*
%TD*%
D10*
%TO.C,D284*%
X120396000Y-79375000D03*
D11*
X122682000Y-79375000D03*
%TD*%
D10*
%TO.C,D46*%
X38049404Y-134263904D03*
D11*
X40589404Y-134263904D03*
%TD*%
D10*
%TO.C,D83*%
X80645000Y-145415000D03*
D11*
X83185000Y-145415000D03*
%TD*%
D10*
%TO.C,D172*%
X179705000Y-132715000D03*
D11*
X182245000Y-132715000D03*
%TD*%
D10*
%TO.C,D286*%
X120396000Y-89535000D03*
D11*
X122682000Y-89535000D03*
%TD*%
D10*
%TO.C,D318*%
X147828000Y-74295000D03*
D11*
X150114000Y-74295000D03*
%TD*%
D10*
%TO.C,D4*%
X187535665Y-47957971D03*
D11*
X190075665Y-47957971D03*
%TD*%
D10*
%TO.C,D333*%
X157988000Y-79375000D03*
D11*
X160274000Y-79375000D03*
%TD*%
D10*
%TO.C,D313*%
X140716000Y-84455000D03*
D11*
X143002000Y-84455000D03*
%TD*%
D10*
%TO.C,D40*%
X51757410Y-198755000D03*
D11*
X54297410Y-198755000D03*
%TD*%
D10*
%TO.C,D215*%
X120396000Y-196215000D03*
D11*
X122682000Y-196215000D03*
%TD*%
D14*
%TO.C,R5*%
X238125000Y-149963500D03*
X238125000Y-151788500D03*
%TD*%
D10*
%TO.C,D348*%
X168148000Y-84455000D03*
D11*
X170434000Y-84455000D03*
%TD*%
D12*
%TO.C,R213*%
X237744000Y-46124500D03*
X237744000Y-44299500D03*
%TD*%
D10*
%TO.C,D192*%
X201295000Y-126365000D03*
D11*
X203835000Y-126365000D03*
%TD*%
D10*
%TO.C,D79*%
X74295000Y-164465000D03*
D11*
X76835000Y-164465000D03*
%TD*%
D10*
%TO.C,D29*%
X155296096Y-251510596D03*
D11*
X157836096Y-251510596D03*
%TD*%
D10*
%TO.C,D114*%
X108585000Y-164465000D03*
D11*
X111125000Y-164465000D03*
%TD*%
D10*
%TO.C,D345*%
X163068000Y-104775000D03*
D11*
X165354000Y-104775000D03*
%TD*%
D10*
%TO.C,D205*%
X207645000Y-164465000D03*
D11*
X210185000Y-164465000D03*
%TD*%
D10*
%TO.C,D20*%
X236532590Y-198755000D03*
D11*
X239072590Y-198755000D03*
%TD*%
D10*
%TO.C,D136*%
X133985000Y-126365000D03*
D11*
X136525000Y-126365000D03*
%TD*%
D10*
%TO.C,D239*%
X135636000Y-211455000D03*
D11*
X137922000Y-211455000D03*
%TD*%
D10*
%TO.C,D305*%
X135636000Y-79375000D03*
D11*
X137922000Y-79375000D03*
%TD*%
D10*
%TO.C,D91*%
X86995000Y-151765000D03*
D11*
X89535000Y-151765000D03*
%TD*%
D10*
%TO.C,D163*%
X167005000Y-164465000D03*
D11*
X169545000Y-164465000D03*
%TD*%
D15*
%TO.C,R7*%
X186840500Y-195326000D03*
X185015500Y-195326000D03*
%TD*%
D10*
%TO.C,D227*%
X130556000Y-186055000D03*
D11*
X132842000Y-186055000D03*
%TD*%
D10*
%TO.C,D263*%
X157988000Y-191135000D03*
D11*
X160274000Y-191135000D03*
%TD*%
D10*
%TO.C,D338*%
X157988000Y-104775000D03*
D11*
X160274000Y-104775000D03*
%TD*%
D10*
%TO.C,D9*%
X230450933Y-82710069D03*
D11*
X232990933Y-82710069D03*
%TD*%
D10*
%TO.C,D69*%
X45085000Y-145415000D03*
D11*
X47625000Y-145415000D03*
%TD*%
D10*
%TO.C,D214*%
X120396000Y-191135000D03*
D11*
X122682000Y-191135000D03*
%TD*%
D10*
%TO.C,D10*%
X236532590Y-92075000D03*
D11*
X239072590Y-92075000D03*
%TD*%
D10*
%TO.C,D191*%
X194945000Y-164465000D03*
D11*
X197485000Y-164465000D03*
%TD*%
D10*
%TO.C,D22*%
X223423690Y-216797853D03*
D11*
X225963690Y-216797853D03*
%TD*%
D10*
%TO.C,D343*%
X163068000Y-94615000D03*
D11*
X165354000Y-94615000D03*
%TD*%
D10*
%TO.C,D66*%
X144145000Y-244475000D03*
D11*
X146685000Y-244475000D03*
%TD*%
D10*
%TO.C,D231*%
X130556000Y-206375000D03*
D11*
X132842000Y-206375000D03*
%TD*%
D10*
%TO.C,D116*%
X114935000Y-132715000D03*
D11*
X117475000Y-132715000D03*
%TD*%
D10*
%TO.C,D268*%
X157988000Y-216535000D03*
D11*
X160274000Y-216535000D03*
%TD*%
D10*
%TO.C,D255*%
X152908000Y-186055000D03*
D11*
X155194000Y-186055000D03*
%TD*%
D10*
%TO.C,D256*%
X152908000Y-191135000D03*
D11*
X155194000Y-191135000D03*
%TD*%
D10*
%TO.C,D27*%
X177110933Y-246873709D03*
D11*
X179650933Y-246873709D03*
%TD*%
D10*
%TO.C,D182*%
X188595000Y-151765000D03*
D11*
X191135000Y-151765000D03*
%TD*%
D14*
%TO.C,R11*%
X240411000Y-36806500D03*
X240411000Y-38631500D03*
%TD*%
D10*
%TO.C,D38*%
X64866310Y-216797853D03*
D11*
X67406310Y-216797853D03*
%TD*%
D10*
%TO.C,D171*%
X179705000Y-126365000D03*
D11*
X182245000Y-126365000D03*
%TD*%
D10*
%TO.C,D151*%
X160655000Y-132715000D03*
D11*
X163195000Y-132715000D03*
%TD*%
D10*
%TO.C,D52*%
X64866310Y-74032147D03*
D11*
X67406310Y-74032147D03*
%TD*%
D10*
%TO.C,D145*%
X154305000Y-139065000D03*
D11*
X156845000Y-139065000D03*
%TD*%
D10*
%TO.C,D47*%
X39796214Y-123234981D03*
D11*
X42336214Y-123234981D03*
%TD*%
D13*
%TO.C,C8*%
X183845200Y-199456000D03*
X183845200Y-201356000D03*
%TD*%
D10*
%TO.C,D281*%
X168148000Y-211455000D03*
D11*
X170434000Y-211455000D03*
%TD*%
D10*
%TO.C,D208*%
X213995000Y-139065000D03*
D11*
X216535000Y-139065000D03*
%TD*%
D10*
%TO.C,D274*%
X163068000Y-211455000D03*
D11*
X165354000Y-211455000D03*
%TD*%
D10*
%TO.C,D326*%
X152908000Y-79375000D03*
D11*
X155194000Y-79375000D03*
%TD*%
D10*
%TO.C,D213*%
X120396000Y-186055000D03*
D11*
X122682000Y-186055000D03*
%TD*%
D10*
%TO.C,D351*%
X168148000Y-99695000D03*
D11*
X170434000Y-99695000D03*
%TD*%
D10*
%TO.C,D308*%
X135636000Y-94615000D03*
D11*
X137922000Y-94615000D03*
%TD*%
D10*
%TO.C,D198*%
X201295000Y-164465000D03*
D11*
X203835000Y-164465000D03*
%TD*%
D10*
%TO.C,D258*%
X152908000Y-201295000D03*
D11*
X155194000Y-201295000D03*
%TD*%
D10*
%TO.C,D174*%
X179705000Y-145415000D03*
D11*
X182245000Y-145415000D03*
%TD*%
D15*
%TO.C,R10*%
X141780900Y-225348800D03*
X139955900Y-225348800D03*
%TD*%
D10*
%TO.C,D137*%
X133985000Y-132715000D03*
D11*
X136525000Y-132715000D03*
%TD*%
D10*
%TO.C,D311*%
X140716000Y-74295000D03*
D11*
X143002000Y-74295000D03*
%TD*%
D10*
%TO.C,D130*%
X127635000Y-132715000D03*
D11*
X130175000Y-132715000D03*
%TD*%
D10*
%TO.C,D297*%
X130556000Y-74295000D03*
D11*
X132842000Y-74295000D03*
%TD*%
D10*
%TO.C,D176*%
X179705000Y-158115000D03*
D11*
X182245000Y-158115000D03*
%TD*%
D10*
%TO.C,D92*%
X86995000Y-158115000D03*
D11*
X89535000Y-158115000D03*
%TD*%
D10*
%TO.C,D75*%
X74295000Y-139065000D03*
D11*
X76835000Y-139065000D03*
%TD*%
D16*
%TO.C,D358*%
X135381125Y-30351376D03*
X135381125Y-28476376D03*
%TD*%
D10*
%TO.C,D317*%
X140716000Y-104775000D03*
D11*
X143002000Y-104775000D03*
%TD*%
D17*
%TO.C,C7*%
X186243000Y-95123000D03*
X184343000Y-95123000D03*
%TD*%
D10*
%TO.C,D140*%
X133985000Y-151765000D03*
D11*
X136525000Y-151765000D03*
%TD*%
D10*
%TO.C,D21*%
X230450933Y-208119931D03*
D11*
X232990933Y-208119931D03*
%TD*%
D10*
%TO.C,D118*%
X114935000Y-145415000D03*
D11*
X117475000Y-145415000D03*
%TD*%
D10*
%TO.C,D127*%
X121285000Y-158115000D03*
D11*
X123825000Y-158115000D03*
%TD*%
D10*
%TO.C,D289*%
X120396000Y-104775000D03*
D11*
X122682000Y-104775000D03*
%TD*%
D10*
%TO.C,D155*%
X160655000Y-158115000D03*
D11*
X163195000Y-158115000D03*
%TD*%
D10*
%TO.C,D298*%
X130556000Y-79375000D03*
D11*
X132842000Y-79375000D03*
%TD*%
D10*
%TO.C,D229*%
X130556000Y-196215000D03*
D11*
X132842000Y-196215000D03*
%TD*%
D10*
%TO.C,D195*%
X201295000Y-145415000D03*
D11*
X203835000Y-145415000D03*
%TD*%
D10*
%TO.C,D153*%
X160655000Y-145415000D03*
D11*
X163195000Y-145415000D03*
%TD*%
D10*
%TO.C,D287*%
X120396000Y-94615000D03*
D11*
X122682000Y-94615000D03*
%TD*%
D10*
%TO.C,D218*%
X120396000Y-211455000D03*
D11*
X122682000Y-211455000D03*
%TD*%
D10*
%TO.C,D55*%
X90805000Y-53027410D03*
D11*
X93345000Y-53027410D03*
%TD*%
D10*
%TO.C,D32*%
X121964981Y-249763786D03*
D11*
X124504981Y-249763786D03*
%TD*%
D10*
%TO.C,D349*%
X168148000Y-89535000D03*
D11*
X170434000Y-89535000D03*
%TD*%
D10*
%TO.C,D285*%
X120396000Y-84455000D03*
D11*
X122682000Y-84455000D03*
%TD*%
D10*
%TO.C,D315*%
X140716000Y-94615000D03*
D11*
X143002000Y-94615000D03*
%TD*%
D10*
%TO.C,D101*%
X99695000Y-126365000D03*
D11*
X102235000Y-126365000D03*
%TD*%
D10*
%TO.C,D299*%
X130556000Y-84455000D03*
D11*
X132842000Y-84455000D03*
%TD*%
D10*
%TO.C,D354*%
X144145000Y-153035000D03*
D11*
X146685000Y-153035000D03*
%TD*%
D10*
%TO.C,D51*%
X57839067Y-82710069D03*
D11*
X60379067Y-82710069D03*
%TD*%
D10*
%TO.C,D193*%
X201295000Y-132715000D03*
D11*
X203835000Y-132715000D03*
%TD*%
D10*
%TO.C,D250*%
X147828000Y-196215000D03*
D11*
X150114000Y-196215000D03*
%TD*%
D10*
%TO.C,D95*%
X93345000Y-132715000D03*
D11*
X95885000Y-132715000D03*
%TD*%
D10*
%TO.C,D48*%
X42686291Y-112449067D03*
D11*
X45226291Y-112449067D03*
%TD*%
D10*
%TO.C,D76*%
X74295000Y-145415000D03*
D11*
X76835000Y-145415000D03*
%TD*%
D10*
%TO.C,D339*%
X163068000Y-74295000D03*
D11*
X165354000Y-74295000D03*
%TD*%
D10*
%TO.C,D165*%
X173355000Y-132715000D03*
D11*
X175895000Y-132715000D03*
%TD*%
D10*
%TO.C,D331*%
X152908000Y-104775000D03*
D11*
X155194000Y-104775000D03*
%TD*%
D10*
%TO.C,D23*%
X215527853Y-224693690D03*
D11*
X218067853Y-224693690D03*
%TD*%
D10*
%TO.C,D236*%
X135636000Y-196215000D03*
D11*
X137922000Y-196215000D03*
%TD*%
D10*
%TO.C,D68*%
X58356524Y-194945000D03*
D11*
X60896524Y-194945000D03*
%TD*%
D10*
%TO.C,D245*%
X140716000Y-206375000D03*
D11*
X143002000Y-206375000D03*
%TD*%
D10*
%TO.C,D129*%
X127635000Y-126365000D03*
D11*
X130175000Y-126365000D03*
%TD*%
D10*
%TO.C,D282*%
X168148000Y-216535000D03*
D11*
X170434000Y-216535000D03*
%TD*%
D10*
%TO.C,D212*%
X213995000Y-164465000D03*
D11*
X216535000Y-164465000D03*
%TD*%
D10*
%TO.C,D98*%
X93345000Y-151765000D03*
D11*
X95885000Y-151765000D03*
%TD*%
D10*
%TO.C,D11*%
X241602029Y-102024335D03*
D11*
X244142029Y-102024335D03*
%TD*%
D10*
%TO.C,D72*%
X144145000Y-46355000D03*
D11*
X146685000Y-46355000D03*
%TD*%
D10*
%TO.C,D5*%
X197485000Y-53027410D03*
D11*
X200025000Y-53027410D03*
%TD*%
D10*
%TO.C,D164*%
X173355000Y-126365000D03*
D11*
X175895000Y-126365000D03*
%TD*%
D10*
%TO.C,D161*%
X167005000Y-151765000D03*
D11*
X169545000Y-151765000D03*
%TD*%
D10*
%TO.C,D190*%
X194945000Y-158115000D03*
D11*
X197485000Y-158115000D03*
%TD*%
D10*
%TO.C,D240*%
X135636000Y-216535000D03*
D11*
X137922000Y-216535000D03*
%TD*%
D10*
%TO.C,D248*%
X147828000Y-186055000D03*
D11*
X150114000Y-186055000D03*
%TD*%
D10*
%TO.C,D102*%
X99695000Y-132715000D03*
D11*
X102235000Y-132715000D03*
%TD*%
D10*
%TO.C,D31*%
X132993904Y-251510596D03*
D11*
X135533904Y-251510596D03*
%TD*%
D10*
%TO.C,D226*%
X125476000Y-216535000D03*
D11*
X127762000Y-216535000D03*
%TD*%
D14*
%TO.C,R1*%
X52730400Y-149811100D03*
X52730400Y-151636100D03*
%TD*%
D10*
%TO.C,D168*%
X173355000Y-151765000D03*
D11*
X175895000Y-151765000D03*
%TD*%
D10*
%TO.C,D271*%
X163068000Y-196215000D03*
D11*
X165354000Y-196215000D03*
%TD*%
D10*
%TO.C,D67*%
X94615000Y-231203476D03*
D11*
X97155000Y-231203476D03*
%TD*%
D13*
%TO.C,C23*%
X139815000Y-116465000D03*
X139815000Y-118365000D03*
%TD*%
D10*
%TO.C,D202*%
X207645000Y-145415000D03*
D11*
X210185000Y-145415000D03*
%TD*%
D10*
%TO.C,D189*%
X194945000Y-151765000D03*
D11*
X197485000Y-151765000D03*
%TD*%
D10*
%TO.C,D160*%
X167005000Y-145415000D03*
D11*
X169545000Y-145415000D03*
%TD*%
D10*
%TO.C,D337*%
X157988000Y-99695000D03*
D11*
X160274000Y-99695000D03*
%TD*%
D10*
%TO.C,D133*%
X127635000Y-151765000D03*
D11*
X130175000Y-151765000D03*
%TD*%
D18*
%TO.C,C1*%
X57404000Y-151673600D03*
X57404000Y-149773600D03*
%TD*%
D10*
%TO.C,D322*%
X147828000Y-94615000D03*
D11*
X150114000Y-94615000D03*
%TD*%
D10*
%TO.C,D131*%
X127635000Y-139065000D03*
D11*
X130175000Y-139065000D03*
%TD*%
D10*
%TO.C,D104*%
X99695000Y-145415000D03*
D11*
X102235000Y-145415000D03*
%TD*%
D10*
%TO.C,D335*%
X157988000Y-89535000D03*
D11*
X160274000Y-89535000D03*
%TD*%
D10*
%TO.C,D86*%
X80645000Y-164465000D03*
D11*
X83185000Y-164465000D03*
%TD*%
D10*
%TO.C,D230*%
X130556000Y-201295000D03*
D11*
X132842000Y-201295000D03*
%TD*%
D10*
%TO.C,D159*%
X167005000Y-139065000D03*
D11*
X169545000Y-139065000D03*
%TD*%
D10*
%TO.C,D290*%
X125476000Y-74295000D03*
D11*
X127762000Y-74295000D03*
%TD*%
D15*
%TO.C,R8*%
X96924500Y-195326000D03*
X95099500Y-195326000D03*
%TD*%
D10*
%TO.C,D106*%
X99695000Y-158115000D03*
D11*
X102235000Y-158115000D03*
%TD*%
D10*
%TO.C,D196*%
X201295000Y-151765000D03*
D11*
X203835000Y-151765000D03*
%TD*%
D10*
%TO.C,D157*%
X167005000Y-126365000D03*
D11*
X169545000Y-126365000D03*
%TD*%
D18*
%TO.C,C10*%
X107086400Y-91374000D03*
X107086400Y-89474000D03*
%TD*%
D10*
%TO.C,D49*%
X46687971Y-102024335D03*
D11*
X49227971Y-102024335D03*
%TD*%
D12*
%TO.C,R4*%
X52730400Y-156970100D03*
X52730400Y-155145100D03*
%TD*%
D10*
%TO.C,D44*%
X38049404Y-156566096D03*
D11*
X40589404Y-156566096D03*
%TD*%
D10*
%TO.C,D6*%
X206849931Y-59109067D03*
D11*
X209389931Y-59109067D03*
%TD*%
D18*
%TO.C,C6*%
X240385600Y-141818400D03*
X240385600Y-139918400D03*
%TD*%
D10*
%TO.C,D7*%
X215527853Y-66136310D03*
D11*
X218067853Y-66136310D03*
%TD*%
D10*
%TO.C,D181*%
X188595000Y-145415000D03*
D11*
X191135000Y-145415000D03*
%TD*%
D10*
%TO.C,D217*%
X120396000Y-206375000D03*
D11*
X122682000Y-206375000D03*
%TD*%
D10*
%TO.C,D232*%
X130556000Y-211455000D03*
D11*
X132842000Y-211455000D03*
%TD*%
D10*
%TO.C,D43*%
X39796214Y-167595019D03*
D11*
X42336214Y-167595019D03*
%TD*%
D10*
%TO.C,D206*%
X213995000Y-126365000D03*
D11*
X216535000Y-126365000D03*
%TD*%
D10*
%TO.C,D275*%
X163068000Y-216535000D03*
D11*
X165354000Y-216535000D03*
%TD*%
D13*
%TO.C,C11*%
X138684000Y-229478800D03*
X138684000Y-231378800D03*
%TD*%
D10*
%TO.C,D14*%
X250240596Y-134263904D03*
D11*
X252780596Y-134263904D03*
%TD*%
D10*
%TO.C,D249*%
X147828000Y-191135000D03*
D11*
X150114000Y-191135000D03*
%TD*%
D10*
%TO.C,D148*%
X154305000Y-158115000D03*
D11*
X156845000Y-158115000D03*
%TD*%
D10*
%TO.C,D2*%
X166325019Y-41066214D03*
D11*
X168865019Y-41066214D03*
%TD*%
D10*
%TO.C,D180*%
X188595000Y-139065000D03*
D11*
X191135000Y-139065000D03*
%TD*%
D10*
%TO.C,D210*%
X213995000Y-151765000D03*
D11*
X216535000Y-151765000D03*
%TD*%
D10*
%TO.C,D222*%
X125476000Y-196215000D03*
D11*
X127762000Y-196215000D03*
%TD*%
D10*
%TO.C,D175*%
X179705000Y-151765000D03*
D11*
X182245000Y-151765000D03*
%TD*%
D10*
%TO.C,D17*%
X248493786Y-167595019D03*
D11*
X251033786Y-167595019D03*
%TD*%
D10*
%TO.C,D264*%
X157988000Y-196215000D03*
D11*
X160274000Y-196215000D03*
%TD*%
D10*
%TO.C,D269*%
X163068000Y-186055000D03*
D11*
X165354000Y-186055000D03*
%TD*%
D10*
%TO.C,D201*%
X207645000Y-139065000D03*
D11*
X210185000Y-139065000D03*
%TD*%
D10*
%TO.C,D300*%
X130556000Y-89535000D03*
D11*
X132842000Y-89535000D03*
%TD*%
D10*
%TO.C,D252*%
X147828000Y-206375000D03*
D11*
X150114000Y-206375000D03*
%TD*%
D10*
%TO.C,D154*%
X160655000Y-151765000D03*
D11*
X163195000Y-151765000D03*
%TD*%
D10*
%TO.C,D207*%
X213995000Y-132715000D03*
D11*
X216535000Y-132715000D03*
%TD*%
D10*
%TO.C,D253*%
X147828000Y-211455000D03*
D11*
X150114000Y-211455000D03*
%TD*%
D10*
%TO.C,D33*%
X111179067Y-246873709D03*
D11*
X113719067Y-246873709D03*
%TD*%
D10*
%TO.C,D224*%
X125476000Y-206375000D03*
D11*
X127762000Y-206375000D03*
%TD*%
D10*
%TO.C,D15*%
X250825000Y-145415000D03*
D11*
X253365000Y-145415000D03*
%TD*%
D10*
%TO.C,D150*%
X160655000Y-126365000D03*
D11*
X163195000Y-126365000D03*
%TD*%
D10*
%TO.C,D123*%
X121285000Y-132715000D03*
D11*
X123825000Y-132715000D03*
%TD*%
D10*
%TO.C,D70*%
X58356524Y-95885000D03*
D11*
X60896524Y-95885000D03*
%TD*%
D10*
%TO.C,D170*%
X173355000Y-164465000D03*
D11*
X175895000Y-164465000D03*
%TD*%
D10*
%TO.C,D34*%
X100754335Y-242872029D03*
D11*
X103294335Y-242872029D03*
%TD*%
D10*
%TO.C,D234*%
X135636000Y-186055000D03*
D11*
X137922000Y-186055000D03*
%TD*%
D10*
%TO.C,D247*%
X140716000Y-216535000D03*
D11*
X143002000Y-216535000D03*
%TD*%
D10*
%TO.C,D325*%
X152908000Y-74295000D03*
D11*
X155194000Y-74295000D03*
%TD*%
D10*
%TO.C,D288*%
X120396000Y-99695000D03*
D11*
X122682000Y-99695000D03*
%TD*%
D10*
%TO.C,D162*%
X167005000Y-158115000D03*
D11*
X169545000Y-158115000D03*
%TD*%
D10*
%TO.C,D124*%
X121285000Y-139065000D03*
D11*
X123825000Y-139065000D03*
%TD*%
D10*
%TO.C,D135*%
X127635000Y-164465000D03*
D11*
X130175000Y-164465000D03*
%TD*%
D10*
%TO.C,D228*%
X130556000Y-191135000D03*
D11*
X132842000Y-191135000D03*
%TD*%
D10*
%TO.C,D96*%
X93345000Y-139065000D03*
D11*
X95885000Y-139065000D03*
%TD*%
D10*
%TO.C,D187*%
X194945000Y-139065000D03*
D11*
X197485000Y-139065000D03*
%TD*%
D10*
%TO.C,D350*%
X168148000Y-94615000D03*
D11*
X170434000Y-94615000D03*
%TD*%
D16*
%TO.C,D357*%
X115315125Y-30351376D03*
X115315125Y-28476376D03*
%TD*%
D10*
%TO.C,D334*%
X157988000Y-84455000D03*
D11*
X160274000Y-84455000D03*
%TD*%
D18*
%TO.C,C4*%
X227533200Y-151724400D03*
X227533200Y-149824400D03*
%TD*%
D10*
%TO.C,D320*%
X147828000Y-84455000D03*
D11*
X150114000Y-84455000D03*
%TD*%
D10*
%TO.C,D64*%
X229933476Y-194945000D03*
D11*
X232473476Y-194945000D03*
%TD*%
D10*
%TO.C,D259*%
X152908000Y-206375000D03*
D11*
X155194000Y-206375000D03*
%TD*%
D10*
%TO.C,D37*%
X72762147Y-224693690D03*
D11*
X75302147Y-224693690D03*
%TD*%
D10*
%TO.C,D93*%
X86995000Y-164465000D03*
D11*
X89535000Y-164465000D03*
%TD*%
D10*
%TO.C,D18*%
X245603709Y-178380933D03*
D11*
X248143709Y-178380933D03*
%TD*%
D10*
%TO.C,D292*%
X125476000Y-84455000D03*
D11*
X127762000Y-84455000D03*
%TD*%
D10*
%TO.C,D152*%
X160655000Y-139065000D03*
D11*
X163195000Y-139065000D03*
%TD*%
D10*
%TO.C,D167*%
X173355000Y-145415000D03*
D11*
X175895000Y-145415000D03*
%TD*%
D10*
%TO.C,D216*%
X120396000Y-201295000D03*
D11*
X122682000Y-201295000D03*
%TD*%
D10*
%TO.C,D267*%
X157988000Y-211455000D03*
D11*
X160274000Y-211455000D03*
%TD*%
D10*
%TO.C,D211*%
X213995000Y-158115000D03*
D11*
X216535000Y-158115000D03*
%TD*%
D10*
%TO.C,D3*%
X177110933Y-43956291D03*
D11*
X179650933Y-43956291D03*
%TD*%
D10*
%TO.C,D220*%
X125476000Y-186055000D03*
D11*
X127762000Y-186055000D03*
%TD*%
D10*
%TO.C,D78*%
X74295000Y-158115000D03*
D11*
X76835000Y-158115000D03*
%TD*%
D10*
%TO.C,D301*%
X130556000Y-94615000D03*
D11*
X132842000Y-94615000D03*
%TD*%
D10*
%TO.C,D304*%
X135636000Y-74295000D03*
D11*
X137922000Y-74295000D03*
%TD*%
D10*
%TO.C,D347*%
X168148000Y-79375000D03*
D11*
X170434000Y-79375000D03*
%TD*%
D10*
%TO.C,D233*%
X130556000Y-216535000D03*
D11*
X132842000Y-216535000D03*
%TD*%
D10*
%TO.C,D223*%
X125476000Y-201295000D03*
D11*
X127762000Y-201295000D03*
%TD*%
D16*
%TO.C,D359*%
X155447125Y-30351376D03*
X155447125Y-28476376D03*
%TD*%
D19*
%TO.C,R9*%
X103786300Y-95656400D03*
X105611300Y-95656400D03*
%TD*%
D10*
%TO.C,D296*%
X125476000Y-104775000D03*
D11*
X127762000Y-104775000D03*
%TD*%
D10*
%TO.C,D280*%
X168148000Y-206375000D03*
D11*
X170434000Y-206375000D03*
%TD*%
D10*
%TO.C,D346*%
X168148000Y-74295000D03*
D11*
X170434000Y-74295000D03*
%TD*%
D10*
%TO.C,D306*%
X135636000Y-84455000D03*
D11*
X137922000Y-84455000D03*
%TD*%
D10*
%TO.C,D35*%
X90805000Y-237802590D03*
D11*
X93345000Y-237802590D03*
%TD*%
D10*
%TO.C,D119*%
X114935000Y-151765000D03*
D11*
X117475000Y-151765000D03*
%TD*%
D10*
%TO.C,D203*%
X207645000Y-151765000D03*
D11*
X210185000Y-151765000D03*
%TD*%
D10*
%TO.C,D178*%
X188595000Y-126365000D03*
D11*
X191135000Y-126365000D03*
%TD*%
D10*
%TO.C,D185*%
X194945000Y-126365000D03*
D11*
X197485000Y-126365000D03*
%TD*%
D10*
%TO.C,D261*%
X152908000Y-216535000D03*
D11*
X155194000Y-216535000D03*
%TD*%
D13*
%TO.C,C22*%
X151015000Y-116465000D03*
X151015000Y-118365000D03*
%TD*%
D10*
%TO.C,D179*%
X188595000Y-132715000D03*
D11*
X191135000Y-132715000D03*
%TD*%
D10*
%TO.C,D312*%
X140716000Y-79375000D03*
D11*
X143002000Y-79375000D03*
%TD*%
D10*
%TO.C,D272*%
X163068000Y-201295000D03*
D11*
X165354000Y-201295000D03*
%TD*%
D10*
%TO.C,D100*%
X93345000Y-164465000D03*
D11*
X95885000Y-164465000D03*
%TD*%
D10*
%TO.C,D73*%
X74295000Y-126365000D03*
D11*
X76835000Y-126365000D03*
%TD*%
D10*
%TO.C,D273*%
X163068000Y-206375000D03*
D11*
X165354000Y-206375000D03*
%TD*%
D10*
%TO.C,D62*%
X229933476Y-95885000D03*
D11*
X232473476Y-95885000D03*
%TD*%
D18*
%TO.C,C3*%
X238099600Y-141818400D03*
X238099600Y-139918400D03*
%TD*%
D10*
%TO.C,D295*%
X125476000Y-99695000D03*
D11*
X127762000Y-99695000D03*
%TD*%
D10*
%TO.C,D19*%
X241602029Y-188805665D03*
D11*
X244142029Y-188805665D03*
%TD*%
D10*
%TO.C,D87*%
X86995000Y-126365000D03*
D11*
X89535000Y-126365000D03*
%TD*%
D10*
%TO.C,D57*%
X111179067Y-43956291D03*
D11*
X113719067Y-43956291D03*
%TD*%
D10*
%TO.C,D56*%
X100754335Y-47957971D03*
D11*
X103294335Y-47957971D03*
%TD*%
D10*
%TO.C,D77*%
X74295000Y-151765000D03*
D11*
X76835000Y-151765000D03*
%TD*%
D10*
%TO.C,D294*%
X125476000Y-94615000D03*
D11*
X127762000Y-94615000D03*
%TD*%
D10*
%TO.C,D108*%
X108585000Y-126365000D03*
D11*
X111125000Y-126365000D03*
%TD*%
D10*
%TO.C,D105*%
X99695000Y-151765000D03*
D11*
X102235000Y-151765000D03*
%TD*%
D10*
%TO.C,D13*%
X248493786Y-123234981D03*
D11*
X251033786Y-123234981D03*
%TD*%
D10*
%TO.C,D200*%
X207645000Y-132715000D03*
D11*
X210185000Y-132715000D03*
%TD*%
D10*
%TO.C,D113*%
X108585000Y-158115000D03*
D11*
X111125000Y-158115000D03*
%TD*%
D10*
%TO.C,D184*%
X188595000Y-164465000D03*
D11*
X191135000Y-164465000D03*
%TD*%
D10*
%TO.C,D329*%
X152908000Y-94615000D03*
D11*
X155194000Y-94615000D03*
%TD*%
D10*
%TO.C,D266*%
X157988000Y-206375000D03*
D11*
X160274000Y-206375000D03*
%TD*%
D10*
%TO.C,D302*%
X130556000Y-99695000D03*
D11*
X132842000Y-99695000D03*
%TD*%
D10*
%TO.C,D88*%
X86995000Y-132715000D03*
D11*
X89535000Y-132715000D03*
%TD*%
D10*
%TO.C,D158*%
X167005000Y-132715000D03*
D11*
X169545000Y-132715000D03*
%TD*%
D10*
%TO.C,D146*%
X154305000Y-145415000D03*
D11*
X156845000Y-145415000D03*
%TD*%
D19*
%TO.C,R6*%
X194032500Y-95631000D03*
X195857500Y-95631000D03*
%TD*%
D10*
%TO.C,D319*%
X147828000Y-79375000D03*
D11*
X150114000Y-79375000D03*
%TD*%
D10*
%TO.C,D197*%
X201295000Y-158115000D03*
D11*
X203835000Y-158115000D03*
%TD*%
D10*
%TO.C,D122*%
X121285000Y-126365000D03*
D11*
X123825000Y-126365000D03*
%TD*%
D13*
%TO.C,C9*%
X93929200Y-199456000D03*
X93929200Y-201356000D03*
%TD*%
D10*
%TO.C,D156*%
X160655000Y-164465000D03*
D11*
X163195000Y-164465000D03*
%TD*%
D10*
%TO.C,D97*%
X93345000Y-145415000D03*
D11*
X95885000Y-145415000D03*
%TD*%
D10*
%TO.C,D310*%
X135636000Y-104775000D03*
D11*
X137922000Y-104775000D03*
%TD*%
D10*
%TO.C,D8*%
X223423690Y-74032147D03*
D11*
X225963690Y-74032147D03*
%TD*%
D10*
%TO.C,D125*%
X121285000Y-145415000D03*
D11*
X123825000Y-145415000D03*
%TD*%
D10*
%TO.C,D53*%
X72762147Y-66136310D03*
D11*
X75302147Y-66136310D03*
%TD*%
D10*
%TO.C,D63*%
X243205000Y-145415000D03*
D11*
X245745000Y-145415000D03*
%TD*%
D10*
%TO.C,D188*%
X194945000Y-145415000D03*
D11*
X197485000Y-145415000D03*
%TD*%
D10*
%TO.C,D321*%
X147828000Y-89535000D03*
D11*
X150114000Y-89535000D03*
%TD*%
D10*
%TO.C,D332*%
X157988000Y-74295000D03*
D11*
X160274000Y-74295000D03*
%TD*%
D10*
%TO.C,D149*%
X154305000Y-164465000D03*
D11*
X156845000Y-164465000D03*
%TD*%
D10*
%TO.C,D257*%
X152908000Y-196215000D03*
D11*
X155194000Y-196215000D03*
%TD*%
D10*
%TO.C,D24*%
X206849931Y-231720933D03*
D11*
X209389931Y-231720933D03*
%TD*%
D10*
%TO.C,D209*%
X213995000Y-145415000D03*
D11*
X216535000Y-145415000D03*
%TD*%
D10*
%TO.C,D81*%
X80645000Y-132715000D03*
D11*
X83185000Y-132715000D03*
%TD*%
D10*
%TO.C,D341*%
X163068000Y-84455000D03*
D11*
X165354000Y-84455000D03*
%TD*%
D10*
%TO.C,D270*%
X163068000Y-191135000D03*
D11*
X165354000Y-191135000D03*
%TD*%
D10*
%TO.C,D89*%
X86995000Y-139065000D03*
D11*
X89535000Y-139065000D03*
%TD*%
D10*
%TO.C,D42*%
X42686291Y-178380933D03*
D11*
X45226291Y-178380933D03*
%TD*%
D10*
%TO.C,D323*%
X147828000Y-99695000D03*
D11*
X150114000Y-99695000D03*
%TD*%
D10*
%TO.C,D59*%
X132993904Y-39319404D03*
D11*
X135533904Y-39319404D03*
%TD*%
D10*
%TO.C,D307*%
X135636000Y-89535000D03*
D11*
X137922000Y-89535000D03*
%TD*%
D10*
%TO.C,D186*%
X194945000Y-132715000D03*
D11*
X197485000Y-132715000D03*
%TD*%
D10*
%TO.C,D221*%
X125476000Y-191135000D03*
D11*
X127762000Y-191135000D03*
%TD*%
D10*
%TO.C,D194*%
X201295000Y-139065000D03*
D11*
X203835000Y-139065000D03*
%TD*%
D10*
%TO.C,D243*%
X140716000Y-196215000D03*
D11*
X143002000Y-196215000D03*
%TD*%
D16*
%TO.C,D360*%
X175513125Y-30351376D03*
X175513125Y-28476376D03*
%TD*%
D10*
%TO.C,D142*%
X133985000Y-164465000D03*
D11*
X136525000Y-164465000D03*
%TD*%
D10*
%TO.C,D241*%
X140716000Y-186055000D03*
D11*
X143002000Y-186055000D03*
%TD*%
D10*
%TO.C,D50*%
X51757410Y-92075000D03*
D11*
X54297410Y-92075000D03*
%TD*%
D10*
%TO.C,D90*%
X86995000Y-145415000D03*
D11*
X89535000Y-145415000D03*
%TD*%
D10*
%TO.C,D12*%
X245603709Y-112449067D03*
D11*
X248143709Y-112449067D03*
%TD*%
D10*
%TO.C,D144*%
X154305000Y-132715000D03*
D11*
X156845000Y-132715000D03*
%TD*%
D10*
%TO.C,D277*%
X168148000Y-191135000D03*
D11*
X170434000Y-191135000D03*
%TD*%
D10*
%TO.C,D279*%
X168148000Y-201295000D03*
D11*
X170434000Y-201295000D03*
%TD*%
D10*
%TO.C,D316*%
X140716000Y-99695000D03*
D11*
X143002000Y-99695000D03*
%TD*%
D10*
%TO.C,D61*%
X193675000Y-59626524D03*
D11*
X196215000Y-59626524D03*
%TD*%
D10*
%TO.C,D166*%
X173355000Y-139065000D03*
D11*
X175895000Y-139065000D03*
%TD*%
D10*
%TO.C,D107*%
X99695000Y-164465000D03*
D11*
X102235000Y-164465000D03*
%TD*%
D10*
%TO.C,D16*%
X250240596Y-156566096D03*
D11*
X252780596Y-156566096D03*
%TD*%
D10*
%TO.C,D147*%
X154305000Y-151765000D03*
D11*
X156845000Y-151765000D03*
%TD*%
D10*
%TO.C,D328*%
X152908000Y-89535000D03*
D11*
X155194000Y-89535000D03*
%TD*%
D10*
%TO.C,D115*%
X114935000Y-126365000D03*
D11*
X117475000Y-126365000D03*
%TD*%
D10*
%TO.C,D84*%
X80645000Y-151765000D03*
D11*
X83185000Y-151765000D03*
%TD*%
D10*
%TO.C,D237*%
X135636000Y-201295000D03*
D11*
X137922000Y-201295000D03*
%TD*%
D10*
%TO.C,D25*%
X197485000Y-237802590D03*
D11*
X200025000Y-237802590D03*
%TD*%
D10*
%TO.C,D260*%
X152908000Y-211455000D03*
D11*
X155194000Y-211455000D03*
%TD*%
D10*
%TO.C,D262*%
X157988000Y-186055000D03*
D11*
X160274000Y-186055000D03*
%TD*%
D10*
%TO.C,D71*%
X94615000Y-59626524D03*
D11*
X97155000Y-59626524D03*
%TD*%
D10*
%TO.C,D246*%
X140716000Y-211455000D03*
D11*
X143002000Y-211455000D03*
%TD*%
D10*
%TO.C,D344*%
X163068000Y-99695000D03*
D11*
X165354000Y-99695000D03*
%TD*%
D10*
%TO.C,D235*%
X135636000Y-191135000D03*
D11*
X137922000Y-191135000D03*
%TD*%
D10*
%TO.C,D60*%
X144145000Y-38735000D03*
D11*
X146685000Y-38735000D03*
%TD*%
D10*
%TO.C,D330*%
X152908000Y-99695000D03*
D11*
X155194000Y-99695000D03*
%TD*%
D10*
%TO.C,D244*%
X140716000Y-201295000D03*
D11*
X143002000Y-201295000D03*
%TD*%
D10*
%TO.C,D251*%
X147828000Y-201295000D03*
D11*
X150114000Y-201295000D03*
%TD*%
D10*
%TO.C,D183*%
X188595000Y-158115000D03*
D11*
X191135000Y-158115000D03*
%TD*%
D10*
%TO.C,D204*%
X207645000Y-158115000D03*
D11*
X210185000Y-158115000D03*
%TD*%
D10*
%TO.C,D314*%
X140716000Y-89535000D03*
D11*
X143002000Y-89535000D03*
%TD*%
D10*
%TO.C,D342*%
X163068000Y-89535000D03*
D11*
X165354000Y-89535000D03*
%TD*%
D10*
%TO.C,D74*%
X74295000Y-132715000D03*
D11*
X76835000Y-132715000D03*
%TD*%
D13*
%TO.C,C5*%
X70408800Y-141036000D03*
X70408800Y-142936000D03*
%TD*%
D10*
%TO.C,D132*%
X127635000Y-145415000D03*
D11*
X130175000Y-145415000D03*
%TD*%
D10*
%TO.C,D336*%
X157988000Y-94615000D03*
D11*
X160274000Y-94615000D03*
%TD*%
D10*
%TO.C,D134*%
X127635000Y-158115000D03*
D11*
X130175000Y-158115000D03*
%TD*%
D20*
%TO.C,U15*%
X143510000Y-118814000D03*
X144780000Y-118814000D03*
X146050000Y-118814000D03*
X147320000Y-118814000D03*
%TD*%
D10*
%TO.C,D352*%
X168148000Y-104775000D03*
D11*
X170434000Y-104775000D03*
%TD*%
D10*
%TO.C,D121*%
X114935000Y-164465000D03*
D11*
X117475000Y-164465000D03*
%TD*%
D10*
%TO.C,D173*%
X179705000Y-139065000D03*
D11*
X182245000Y-139065000D03*
%TD*%
D10*
%TO.C,D242*%
X140716000Y-191135000D03*
D11*
X143002000Y-191135000D03*
%TD*%
D21*
%TO.C,AE1*%
X40386000Y-45085000D03*
D22*
X42926000Y-47625000D03*
X42926000Y-42545000D03*
X37846000Y-47625000D03*
X37846000Y-42545000D03*
%TD*%
D23*
%TO.C,J2*%
X52764000Y-226646500D03*
X47464000Y-226646500D03*
X44264000Y-226646500D03*
%TD*%
D24*
%TO.C,J3*%
X73152000Y-32639000D03*
D25*
X73152000Y-33909000D03*
X73152000Y-35179000D03*
X73152000Y-36449000D03*
X73152000Y-37719000D03*
X73152000Y-38989000D03*
%TD*%
D11*
%TO.C,F1*%
X32766000Y-228346000D03*
X32766000Y-233426000D03*
%TD*%
D26*
%TO.C,J1*%
X215519000Y-40767000D03*
X215519000Y-43307000D03*
X215519000Y-45847000D03*
X215519000Y-48387000D03*
%TD*%
M02*
