%TF.GenerationSoftware,KiCad,Pcbnew,8.0.2-1*%
%TF.CreationDate,2024-06-04T17:42:53+02:00*%
%TF.ProjectId,broadcast_clock,62726f61-6463-4617-9374-5f636c6f636b,rev?*%
%TF.SameCoordinates,Original*%
%TF.FileFunction,Soldermask,Bot*%
%TF.FilePolarity,Negative*%
%FSLAX46Y46*%
G04 Gerber Fmt 4.6, Leading zero omitted, Abs format (unit mm)*
G04 Created by KiCad (PCBNEW 8.0.2-1) date 2024-06-04 17:42:53*
%MOMM*%
%LPD*%
G01*
G04 APERTURE LIST*
G04 Aperture macros list*
%AMRoundRect*
0 Rectangle with rounded corners*
0 $1 Rounding radius*
0 $2 $3 $4 $5 $6 $7 $8 $9 X,Y pos of 4 corners*
0 Add a 4 corners polygon primitive as box body*
4,1,4,$2,$3,$4,$5,$6,$7,$8,$9,$2,$3,0*
0 Add four circle primitives for the rounded corners*
1,1,$1+$1,$2,$3*
1,1,$1+$1,$4,$5*
1,1,$1+$1,$6,$7*
1,1,$1+$1,$8,$9*
0 Add four rect primitives between the rounded corners*
20,1,$1+$1,$2,$3,$4,$5,0*
20,1,$1+$1,$4,$5,$6,$7,0*
20,1,$1+$1,$6,$7,$8,$9,0*
20,1,$1+$1,$8,$9,$2,$3,0*%
G04 Aperture macros list end*
%ADD10C,0.150000*%
%ADD11R,1.500000X1.500000*%
%ADD12C,1.500000*%
%ADD13RoundRect,0.250000X0.450000X-0.262500X0.450000X0.262500X-0.450000X0.262500X-0.450000X-0.262500X0*%
%ADD14RoundRect,0.250000X-0.450000X0.262500X-0.450000X-0.262500X0.450000X-0.262500X0.450000X0.262500X0*%
%ADD15R,0.400000X1.100000*%
%ADD16RoundRect,0.375000X0.375000X-0.625000X0.375000X0.625000X-0.375000X0.625000X-0.375000X-0.625000X0*%
%ADD17RoundRect,0.500000X1.400000X-0.500000X1.400000X0.500000X-1.400000X0.500000X-1.400000X-0.500000X0*%
%ADD18RoundRect,0.250000X-0.475000X0.250000X-0.475000X-0.250000X0.475000X-0.250000X0.475000X0.250000X0*%
%ADD19R,2.540000X3.510000*%
%ADD20RoundRect,0.249999X-4.550001X4.150001X-4.550001X-4.150001X4.550001X-4.150001X4.550001X4.150001X0*%
%ADD21R,2.100000X1.400000*%
%ADD22C,2.050000*%
%ADD23C,2.250000*%
%ADD24R,0.900000X0.900000*%
%ADD25R,0.900000X0.880000*%
%ADD26R,1.500000X0.900000*%
%ADD27RoundRect,0.250000X-0.250000X-0.475000X0.250000X-0.475000X0.250000X0.475000X-0.250000X0.475000X0*%
%ADD28RoundRect,0.249999X-4.150001X-4.550001X4.150001X-4.550001X4.150001X4.550001X-4.150001X4.550001X0*%
%ADD29R,1.600000X2.900000*%
%ADD30RoundRect,0.250000X1.000000X0.650000X-1.000000X0.650000X-1.000000X-0.650000X1.000000X-0.650000X0*%
%ADD31RoundRect,0.250000X0.262500X0.450000X-0.262500X0.450000X-0.262500X-0.450000X0.262500X-0.450000X0*%
%ADD32RoundRect,0.250000X0.250000X0.475000X-0.250000X0.475000X-0.250000X-0.475000X0.250000X-0.475000X0*%
%ADD33RoundRect,0.250000X0.475000X-0.250000X0.475000X0.250000X-0.475000X0.250000X-0.475000X-0.250000X0*%
%ADD34R,1.200000X1.800000*%
%ADD35R,1.000000X1.000000*%
%ADD36O,1.000000X1.000000*%
%ADD37R,4.000000X14.000000*%
%ADD38R,1.500000X0.500000*%
%ADD39C,2.000000*%
%ADD40R,10.660000X8.380000*%
%ADD41R,1.016000X3.050000*%
%ADD42RoundRect,0.200000X0.700000X0.200000X-0.700000X0.200000X-0.700000X-0.200000X0.700000X-0.200000X0*%
%ADD43RoundRect,0.250000X1.000000X-1.500000X1.000000X1.500000X-1.000000X1.500000X-1.000000X-1.500000X0*%
%ADD44R,3.200000X2.000000*%
%ADD45R,1.890000X1.140000*%
G04 APERTURE END LIST*
D10*
X40386000Y-190246000D02*
X34036000Y-190246000D01*
X34036000Y-187198000D01*
X40386000Y-187198000D01*
X40386000Y-190246000D01*
G36*
X40386000Y-190246000D02*
G01*
X34036000Y-190246000D01*
X34036000Y-187198000D01*
X40386000Y-187198000D01*
X40386000Y-190246000D01*
G37*
X195072000Y-92075000D02*
X185801000Y-92075000D01*
X185801000Y-89027000D01*
X195072000Y-89027000D01*
X195072000Y-92075000D01*
G36*
X195072000Y-92075000D02*
G01*
X185801000Y-92075000D01*
X185801000Y-89027000D01*
X195072000Y-89027000D01*
X195072000Y-92075000D01*
G37*
X223520000Y-111887000D02*
X217424000Y-111887000D01*
X217424000Y-108966000D01*
X223520000Y-108966000D01*
X223520000Y-111887000D01*
G36*
X223520000Y-111887000D02*
G01*
X217424000Y-111887000D01*
X217424000Y-108966000D01*
X223520000Y-108966000D01*
X223520000Y-111887000D01*
G37*
X105029000Y-202057000D02*
X95885000Y-202057000D01*
X95885000Y-198755000D01*
X105029000Y-198755000D01*
X105029000Y-202057000D01*
G36*
X105029000Y-202057000D02*
G01*
X95885000Y-202057000D01*
X95885000Y-198755000D01*
X105029000Y-198755000D01*
X105029000Y-202057000D01*
G37*
X149961600Y-232079800D02*
X140792200Y-232079800D01*
X140792200Y-228752400D01*
X149961600Y-228752400D01*
X149961600Y-232079800D01*
G36*
X149961600Y-232079800D02*
G01*
X140792200Y-232079800D01*
X140792200Y-228752400D01*
X149961600Y-228752400D01*
X149961600Y-232079800D01*
G37*
X195199000Y-202057000D02*
X185674000Y-202057000D01*
X185674000Y-198755000D01*
X195199000Y-198755000D01*
X195199000Y-202057000D01*
G36*
X195199000Y-202057000D02*
G01*
X185674000Y-202057000D01*
X185674000Y-198755000D01*
X195199000Y-198755000D01*
X195199000Y-202057000D01*
G37*
X105156000Y-92075000D02*
X95758000Y-92075000D01*
X95758000Y-88773000D01*
X105156000Y-88773000D01*
X105156000Y-92075000D01*
G36*
X105156000Y-92075000D02*
G01*
X95758000Y-92075000D01*
X95758000Y-88773000D01*
X105156000Y-88773000D01*
X105156000Y-92075000D01*
G37*
D11*
%TO.C,D225*%
X125476000Y-211455000D03*
D12*
X127762000Y-211455000D03*
%TD*%
D11*
%TO.C,D254*%
X147828000Y-216535000D03*
D12*
X150114000Y-216535000D03*
%TD*%
D11*
%TO.C,D103*%
X99695000Y-139065000D03*
D12*
X102235000Y-139065000D03*
%TD*%
D11*
%TO.C,D54*%
X81440069Y-59109067D03*
D12*
X83980069Y-59109067D03*
%TD*%
D11*
%TO.C,D169*%
X173355000Y-158115000D03*
D12*
X175895000Y-158115000D03*
%TD*%
D11*
%TO.C,D45*%
X37465000Y-145415000D03*
D12*
X40005000Y-145415000D03*
%TD*%
D11*
%TO.C,D65*%
X193675000Y-231203476D03*
D12*
X196215000Y-231203476D03*
%TD*%
D11*
%TO.C,D30*%
X144145000Y-252095000D03*
D12*
X146685000Y-252095000D03*
%TD*%
D11*
%TO.C,D128*%
X121285000Y-164465000D03*
D12*
X123825000Y-164465000D03*
%TD*%
D11*
%TO.C,D109*%
X108585000Y-132715000D03*
D12*
X111125000Y-132715000D03*
%TD*%
D11*
%TO.C,D353*%
X144145000Y-137795000D03*
D12*
X146685000Y-137795000D03*
%TD*%
D11*
%TO.C,D85*%
X80645000Y-158115000D03*
D12*
X83185000Y-158115000D03*
%TD*%
D11*
%TO.C,D238*%
X135636000Y-206375000D03*
D12*
X137922000Y-206375000D03*
%TD*%
D11*
%TO.C,D26*%
X187535665Y-242872029D03*
D12*
X190075665Y-242872029D03*
%TD*%
D11*
%TO.C,D112*%
X108585000Y-151765000D03*
D12*
X111125000Y-151765000D03*
%TD*%
D11*
%TO.C,D340*%
X163068000Y-79375000D03*
D12*
X165354000Y-79375000D03*
%TD*%
D11*
%TO.C,D293*%
X125476000Y-89535000D03*
D12*
X127762000Y-89535000D03*
%TD*%
D11*
%TO.C,D110*%
X108585000Y-139065000D03*
D12*
X111125000Y-139065000D03*
%TD*%
D11*
%TO.C,D99*%
X93345000Y-158115000D03*
D12*
X95885000Y-158115000D03*
%TD*%
D11*
%TO.C,D199*%
X207645000Y-126365000D03*
D12*
X210185000Y-126365000D03*
%TD*%
D11*
%TO.C,D177*%
X179705000Y-164465000D03*
D12*
X182245000Y-164465000D03*
%TD*%
D11*
%TO.C,D111*%
X108585000Y-145415000D03*
D12*
X111125000Y-145415000D03*
%TD*%
D11*
%TO.C,D1*%
X155296096Y-39319404D03*
D12*
X157836096Y-39319404D03*
%TD*%
D11*
%TO.C,D138*%
X133985000Y-139065000D03*
D12*
X136525000Y-139065000D03*
%TD*%
D11*
%TO.C,D139*%
X133985000Y-145415000D03*
D12*
X136525000Y-145415000D03*
%TD*%
D11*
%TO.C,D82*%
X80645000Y-139065000D03*
D12*
X83185000Y-139065000D03*
%TD*%
D11*
%TO.C,D327*%
X152908000Y-84455000D03*
D12*
X155194000Y-84455000D03*
%TD*%
D11*
%TO.C,D41*%
X46687971Y-188805665D03*
D12*
X49227971Y-188805665D03*
%TD*%
D11*
%TO.C,D309*%
X135636000Y-99695000D03*
D12*
X137922000Y-99695000D03*
%TD*%
D11*
%TO.C,D141*%
X133985000Y-158115000D03*
D12*
X136525000Y-158115000D03*
%TD*%
D11*
%TO.C,D303*%
X130556000Y-104775000D03*
D12*
X132842000Y-104775000D03*
%TD*%
D11*
%TO.C,D283*%
X120396000Y-74295000D03*
D12*
X122682000Y-74295000D03*
%TD*%
D11*
%TO.C,D219*%
X120396000Y-216535000D03*
D12*
X122682000Y-216535000D03*
%TD*%
D11*
%TO.C,D58*%
X121964981Y-41066214D03*
D12*
X124504981Y-41066214D03*
%TD*%
D11*
%TO.C,D39*%
X57839067Y-208119931D03*
D12*
X60379067Y-208119931D03*
%TD*%
D11*
%TO.C,D143*%
X154305000Y-126365000D03*
D12*
X156845000Y-126365000D03*
%TD*%
D11*
%TO.C,D28*%
X166325019Y-249763786D03*
D12*
X168865019Y-249763786D03*
%TD*%
D11*
%TO.C,D291*%
X125476000Y-79375000D03*
D12*
X127762000Y-79375000D03*
%TD*%
D11*
%TO.C,D265*%
X157988000Y-201295000D03*
D12*
X160274000Y-201295000D03*
%TD*%
D11*
%TO.C,D120*%
X114935000Y-158115000D03*
D12*
X117475000Y-158115000D03*
%TD*%
D11*
%TO.C,D36*%
X81440069Y-231720933D03*
D12*
X83980069Y-231720933D03*
%TD*%
D11*
%TO.C,D324*%
X147828000Y-104775000D03*
D12*
X150114000Y-104775000D03*
%TD*%
D11*
%TO.C,D94*%
X93345000Y-126365000D03*
D12*
X95885000Y-126365000D03*
%TD*%
D11*
%TO.C,D80*%
X80645000Y-126365000D03*
D12*
X83185000Y-126365000D03*
%TD*%
D11*
%TO.C,D117*%
X114935000Y-139065000D03*
D12*
X117475000Y-139065000D03*
%TD*%
D11*
%TO.C,D276*%
X168148000Y-186055000D03*
D12*
X170434000Y-186055000D03*
%TD*%
D11*
%TO.C,D126*%
X121285000Y-151765000D03*
D12*
X123825000Y-151765000D03*
%TD*%
D11*
%TO.C,D278*%
X168148000Y-196215000D03*
D12*
X170434000Y-196215000D03*
%TD*%
D11*
%TO.C,D284*%
X120396000Y-79375000D03*
D12*
X122682000Y-79375000D03*
%TD*%
D11*
%TO.C,D46*%
X38049404Y-134263904D03*
D12*
X40589404Y-134263904D03*
%TD*%
D11*
%TO.C,D83*%
X80645000Y-145415000D03*
D12*
X83185000Y-145415000D03*
%TD*%
D11*
%TO.C,D172*%
X179705000Y-132715000D03*
D12*
X182245000Y-132715000D03*
%TD*%
D11*
%TO.C,D286*%
X120396000Y-89535000D03*
D12*
X122682000Y-89535000D03*
%TD*%
D11*
%TO.C,D318*%
X147828000Y-74295000D03*
D12*
X150114000Y-74295000D03*
%TD*%
D11*
%TO.C,D4*%
X187535665Y-47957971D03*
D12*
X190075665Y-47957971D03*
%TD*%
D11*
%TO.C,D333*%
X157988000Y-79375000D03*
D12*
X160274000Y-79375000D03*
%TD*%
D11*
%TO.C,D313*%
X140716000Y-84455000D03*
D12*
X143002000Y-84455000D03*
%TD*%
D11*
%TO.C,D40*%
X51757410Y-198755000D03*
D12*
X54297410Y-198755000D03*
%TD*%
D11*
%TO.C,D215*%
X120396000Y-196215000D03*
D12*
X122682000Y-196215000D03*
%TD*%
D11*
%TO.C,D348*%
X168148000Y-84455000D03*
D12*
X170434000Y-84455000D03*
%TD*%
D11*
%TO.C,D192*%
X201295000Y-126365000D03*
D12*
X203835000Y-126365000D03*
%TD*%
D11*
%TO.C,D79*%
X74295000Y-164465000D03*
D12*
X76835000Y-164465000D03*
%TD*%
D11*
%TO.C,D29*%
X155296096Y-251510596D03*
D12*
X157836096Y-251510596D03*
%TD*%
D11*
%TO.C,D114*%
X108585000Y-164465000D03*
D12*
X111125000Y-164465000D03*
%TD*%
D11*
%TO.C,D345*%
X163068000Y-104775000D03*
D12*
X165354000Y-104775000D03*
%TD*%
D11*
%TO.C,D205*%
X207645000Y-164465000D03*
D12*
X210185000Y-164465000D03*
%TD*%
D11*
%TO.C,D20*%
X236532590Y-198755000D03*
D12*
X239072590Y-198755000D03*
%TD*%
D11*
%TO.C,D136*%
X133985000Y-126365000D03*
D12*
X136525000Y-126365000D03*
%TD*%
D11*
%TO.C,D239*%
X135636000Y-211455000D03*
D12*
X137922000Y-211455000D03*
%TD*%
D11*
%TO.C,D305*%
X135636000Y-79375000D03*
D12*
X137922000Y-79375000D03*
%TD*%
D11*
%TO.C,D91*%
X86995000Y-151765000D03*
D12*
X89535000Y-151765000D03*
%TD*%
D11*
%TO.C,D163*%
X167005000Y-164465000D03*
D12*
X169545000Y-164465000D03*
%TD*%
D11*
%TO.C,D227*%
X130556000Y-186055000D03*
D12*
X132842000Y-186055000D03*
%TD*%
D11*
%TO.C,D263*%
X157988000Y-191135000D03*
D12*
X160274000Y-191135000D03*
%TD*%
D11*
%TO.C,D338*%
X157988000Y-104775000D03*
D12*
X160274000Y-104775000D03*
%TD*%
D11*
%TO.C,D9*%
X230450933Y-82710069D03*
D12*
X232990933Y-82710069D03*
%TD*%
D11*
%TO.C,D69*%
X45085000Y-145415000D03*
D12*
X47625000Y-145415000D03*
%TD*%
D11*
%TO.C,D214*%
X120396000Y-191135000D03*
D12*
X122682000Y-191135000D03*
%TD*%
D11*
%TO.C,D10*%
X236532590Y-92075000D03*
D12*
X239072590Y-92075000D03*
%TD*%
D11*
%TO.C,D191*%
X194945000Y-164465000D03*
D12*
X197485000Y-164465000D03*
%TD*%
D11*
%TO.C,D22*%
X223423690Y-216797853D03*
D12*
X225963690Y-216797853D03*
%TD*%
D11*
%TO.C,D343*%
X163068000Y-94615000D03*
D12*
X165354000Y-94615000D03*
%TD*%
D11*
%TO.C,D66*%
X144145000Y-244475000D03*
D12*
X146685000Y-244475000D03*
%TD*%
D11*
%TO.C,D231*%
X130556000Y-206375000D03*
D12*
X132842000Y-206375000D03*
%TD*%
D11*
%TO.C,D116*%
X114935000Y-132715000D03*
D12*
X117475000Y-132715000D03*
%TD*%
D11*
%TO.C,D268*%
X157988000Y-216535000D03*
D12*
X160274000Y-216535000D03*
%TD*%
D11*
%TO.C,D255*%
X152908000Y-186055000D03*
D12*
X155194000Y-186055000D03*
%TD*%
D11*
%TO.C,D256*%
X152908000Y-191135000D03*
D12*
X155194000Y-191135000D03*
%TD*%
D11*
%TO.C,D27*%
X177110933Y-246873709D03*
D12*
X179650933Y-246873709D03*
%TD*%
D11*
%TO.C,D182*%
X188595000Y-151765000D03*
D12*
X191135000Y-151765000D03*
%TD*%
D11*
%TO.C,D38*%
X64866310Y-216797853D03*
D12*
X67406310Y-216797853D03*
%TD*%
D11*
%TO.C,D171*%
X179705000Y-126365000D03*
D12*
X182245000Y-126365000D03*
%TD*%
D11*
%TO.C,D151*%
X160655000Y-132715000D03*
D12*
X163195000Y-132715000D03*
%TD*%
D11*
%TO.C,D52*%
X64866310Y-74032147D03*
D12*
X67406310Y-74032147D03*
%TD*%
D11*
%TO.C,D145*%
X154305000Y-139065000D03*
D12*
X156845000Y-139065000D03*
%TD*%
D11*
%TO.C,D47*%
X39796214Y-123234981D03*
D12*
X42336214Y-123234981D03*
%TD*%
D11*
%TO.C,D281*%
X168148000Y-211455000D03*
D12*
X170434000Y-211455000D03*
%TD*%
D11*
%TO.C,D208*%
X213995000Y-139065000D03*
D12*
X216535000Y-139065000D03*
%TD*%
D11*
%TO.C,D274*%
X163068000Y-211455000D03*
D12*
X165354000Y-211455000D03*
%TD*%
D11*
%TO.C,D326*%
X152908000Y-79375000D03*
D12*
X155194000Y-79375000D03*
%TD*%
D11*
%TO.C,D213*%
X120396000Y-186055000D03*
D12*
X122682000Y-186055000D03*
%TD*%
D11*
%TO.C,D351*%
X168148000Y-99695000D03*
D12*
X170434000Y-99695000D03*
%TD*%
D11*
%TO.C,D308*%
X135636000Y-94615000D03*
D12*
X137922000Y-94615000D03*
%TD*%
D11*
%TO.C,D198*%
X201295000Y-164465000D03*
D12*
X203835000Y-164465000D03*
%TD*%
D11*
%TO.C,D258*%
X152908000Y-201295000D03*
D12*
X155194000Y-201295000D03*
%TD*%
D11*
%TO.C,D174*%
X179705000Y-145415000D03*
D12*
X182245000Y-145415000D03*
%TD*%
D11*
%TO.C,D137*%
X133985000Y-132715000D03*
D12*
X136525000Y-132715000D03*
%TD*%
D11*
%TO.C,D311*%
X140716000Y-74295000D03*
D12*
X143002000Y-74295000D03*
%TD*%
D11*
%TO.C,D130*%
X127635000Y-132715000D03*
D12*
X130175000Y-132715000D03*
%TD*%
D11*
%TO.C,D297*%
X130556000Y-74295000D03*
D12*
X132842000Y-74295000D03*
%TD*%
D11*
%TO.C,D176*%
X179705000Y-158115000D03*
D12*
X182245000Y-158115000D03*
%TD*%
D11*
%TO.C,D92*%
X86995000Y-158115000D03*
D12*
X89535000Y-158115000D03*
%TD*%
D11*
%TO.C,D75*%
X74295000Y-139065000D03*
D12*
X76835000Y-139065000D03*
%TD*%
D11*
%TO.C,D317*%
X140716000Y-104775000D03*
D12*
X143002000Y-104775000D03*
%TD*%
D11*
%TO.C,D140*%
X133985000Y-151765000D03*
D12*
X136525000Y-151765000D03*
%TD*%
D11*
%TO.C,D21*%
X230450933Y-208119931D03*
D12*
X232990933Y-208119931D03*
%TD*%
D11*
%TO.C,D118*%
X114935000Y-145415000D03*
D12*
X117475000Y-145415000D03*
%TD*%
D11*
%TO.C,D127*%
X121285000Y-158115000D03*
D12*
X123825000Y-158115000D03*
%TD*%
D11*
%TO.C,D289*%
X120396000Y-104775000D03*
D12*
X122682000Y-104775000D03*
%TD*%
D11*
%TO.C,D155*%
X160655000Y-158115000D03*
D12*
X163195000Y-158115000D03*
%TD*%
D11*
%TO.C,D298*%
X130556000Y-79375000D03*
D12*
X132842000Y-79375000D03*
%TD*%
D11*
%TO.C,D229*%
X130556000Y-196215000D03*
D12*
X132842000Y-196215000D03*
%TD*%
D11*
%TO.C,D195*%
X201295000Y-145415000D03*
D12*
X203835000Y-145415000D03*
%TD*%
D11*
%TO.C,D153*%
X160655000Y-145415000D03*
D12*
X163195000Y-145415000D03*
%TD*%
D11*
%TO.C,D287*%
X120396000Y-94615000D03*
D12*
X122682000Y-94615000D03*
%TD*%
D11*
%TO.C,D218*%
X120396000Y-211455000D03*
D12*
X122682000Y-211455000D03*
%TD*%
D11*
%TO.C,D55*%
X90805000Y-53027410D03*
D12*
X93345000Y-53027410D03*
%TD*%
D11*
%TO.C,D32*%
X121964981Y-249763786D03*
D12*
X124504981Y-249763786D03*
%TD*%
D11*
%TO.C,D349*%
X168148000Y-89535000D03*
D12*
X170434000Y-89535000D03*
%TD*%
D11*
%TO.C,D285*%
X120396000Y-84455000D03*
D12*
X122682000Y-84455000D03*
%TD*%
D11*
%TO.C,D315*%
X140716000Y-94615000D03*
D12*
X143002000Y-94615000D03*
%TD*%
D11*
%TO.C,D101*%
X99695000Y-126365000D03*
D12*
X102235000Y-126365000D03*
%TD*%
D11*
%TO.C,D299*%
X130556000Y-84455000D03*
D12*
X132842000Y-84455000D03*
%TD*%
D11*
%TO.C,D354*%
X144145000Y-153035000D03*
D12*
X146685000Y-153035000D03*
%TD*%
D11*
%TO.C,D51*%
X57839067Y-82710069D03*
D12*
X60379067Y-82710069D03*
%TD*%
D11*
%TO.C,D193*%
X201295000Y-132715000D03*
D12*
X203835000Y-132715000D03*
%TD*%
D11*
%TO.C,D250*%
X147828000Y-196215000D03*
D12*
X150114000Y-196215000D03*
%TD*%
D11*
%TO.C,D95*%
X93345000Y-132715000D03*
D12*
X95885000Y-132715000D03*
%TD*%
D11*
%TO.C,D48*%
X42686291Y-112449067D03*
D12*
X45226291Y-112449067D03*
%TD*%
D11*
%TO.C,D76*%
X74295000Y-145415000D03*
D12*
X76835000Y-145415000D03*
%TD*%
D11*
%TO.C,D339*%
X163068000Y-74295000D03*
D12*
X165354000Y-74295000D03*
%TD*%
D11*
%TO.C,D165*%
X173355000Y-132715000D03*
D12*
X175895000Y-132715000D03*
%TD*%
D11*
%TO.C,D331*%
X152908000Y-104775000D03*
D12*
X155194000Y-104775000D03*
%TD*%
D11*
%TO.C,D23*%
X215527853Y-224693690D03*
D12*
X218067853Y-224693690D03*
%TD*%
D11*
%TO.C,D236*%
X135636000Y-196215000D03*
D12*
X137922000Y-196215000D03*
%TD*%
D11*
%TO.C,D68*%
X58356524Y-194945000D03*
D12*
X60896524Y-194945000D03*
%TD*%
D11*
%TO.C,D245*%
X140716000Y-206375000D03*
D12*
X143002000Y-206375000D03*
%TD*%
D11*
%TO.C,D129*%
X127635000Y-126365000D03*
D12*
X130175000Y-126365000D03*
%TD*%
D11*
%TO.C,D282*%
X168148000Y-216535000D03*
D12*
X170434000Y-216535000D03*
%TD*%
D11*
%TO.C,D212*%
X213995000Y-164465000D03*
D12*
X216535000Y-164465000D03*
%TD*%
D11*
%TO.C,D98*%
X93345000Y-151765000D03*
D12*
X95885000Y-151765000D03*
%TD*%
D11*
%TO.C,D11*%
X241602029Y-102024335D03*
D12*
X244142029Y-102024335D03*
%TD*%
D11*
%TO.C,D72*%
X144145000Y-46355000D03*
D12*
X146685000Y-46355000D03*
%TD*%
D11*
%TO.C,D5*%
X197485000Y-53027410D03*
D12*
X200025000Y-53027410D03*
%TD*%
D11*
%TO.C,D164*%
X173355000Y-126365000D03*
D12*
X175895000Y-126365000D03*
%TD*%
D11*
%TO.C,D161*%
X167005000Y-151765000D03*
D12*
X169545000Y-151765000D03*
%TD*%
D11*
%TO.C,D190*%
X194945000Y-158115000D03*
D12*
X197485000Y-158115000D03*
%TD*%
D11*
%TO.C,D240*%
X135636000Y-216535000D03*
D12*
X137922000Y-216535000D03*
%TD*%
D11*
%TO.C,D248*%
X147828000Y-186055000D03*
D12*
X150114000Y-186055000D03*
%TD*%
D11*
%TO.C,D102*%
X99695000Y-132715000D03*
D12*
X102235000Y-132715000D03*
%TD*%
D11*
%TO.C,D31*%
X132993904Y-251510596D03*
D12*
X135533904Y-251510596D03*
%TD*%
D11*
%TO.C,D226*%
X125476000Y-216535000D03*
D12*
X127762000Y-216535000D03*
%TD*%
D11*
%TO.C,D168*%
X173355000Y-151765000D03*
D12*
X175895000Y-151765000D03*
%TD*%
D11*
%TO.C,D271*%
X163068000Y-196215000D03*
D12*
X165354000Y-196215000D03*
%TD*%
D11*
%TO.C,D67*%
X94615000Y-231203476D03*
D12*
X97155000Y-231203476D03*
%TD*%
D11*
%TO.C,D202*%
X207645000Y-145415000D03*
D12*
X210185000Y-145415000D03*
%TD*%
D11*
%TO.C,D189*%
X194945000Y-151765000D03*
D12*
X197485000Y-151765000D03*
%TD*%
D11*
%TO.C,D160*%
X167005000Y-145415000D03*
D12*
X169545000Y-145415000D03*
%TD*%
D11*
%TO.C,D337*%
X157988000Y-99695000D03*
D12*
X160274000Y-99695000D03*
%TD*%
D11*
%TO.C,D133*%
X127635000Y-151765000D03*
D12*
X130175000Y-151765000D03*
%TD*%
D11*
%TO.C,D322*%
X147828000Y-94615000D03*
D12*
X150114000Y-94615000D03*
%TD*%
D11*
%TO.C,D131*%
X127635000Y-139065000D03*
D12*
X130175000Y-139065000D03*
%TD*%
D11*
%TO.C,D104*%
X99695000Y-145415000D03*
D12*
X102235000Y-145415000D03*
%TD*%
D11*
%TO.C,D335*%
X157988000Y-89535000D03*
D12*
X160274000Y-89535000D03*
%TD*%
D11*
%TO.C,D86*%
X80645000Y-164465000D03*
D12*
X83185000Y-164465000D03*
%TD*%
D11*
%TO.C,D230*%
X130556000Y-201295000D03*
D12*
X132842000Y-201295000D03*
%TD*%
D11*
%TO.C,D159*%
X167005000Y-139065000D03*
D12*
X169545000Y-139065000D03*
%TD*%
D11*
%TO.C,D290*%
X125476000Y-74295000D03*
D12*
X127762000Y-74295000D03*
%TD*%
D11*
%TO.C,D106*%
X99695000Y-158115000D03*
D12*
X102235000Y-158115000D03*
%TD*%
D11*
%TO.C,D196*%
X201295000Y-151765000D03*
D12*
X203835000Y-151765000D03*
%TD*%
D11*
%TO.C,D157*%
X167005000Y-126365000D03*
D12*
X169545000Y-126365000D03*
%TD*%
D11*
%TO.C,D49*%
X46687971Y-102024335D03*
D12*
X49227971Y-102024335D03*
%TD*%
D11*
%TO.C,D44*%
X38049404Y-156566096D03*
D12*
X40589404Y-156566096D03*
%TD*%
D11*
%TO.C,D6*%
X206849931Y-59109067D03*
D12*
X209389931Y-59109067D03*
%TD*%
D11*
%TO.C,D7*%
X215527853Y-66136310D03*
D12*
X218067853Y-66136310D03*
%TD*%
D11*
%TO.C,D181*%
X188595000Y-145415000D03*
D12*
X191135000Y-145415000D03*
%TD*%
D11*
%TO.C,D217*%
X120396000Y-206375000D03*
D12*
X122682000Y-206375000D03*
%TD*%
D11*
%TO.C,D232*%
X130556000Y-211455000D03*
D12*
X132842000Y-211455000D03*
%TD*%
D11*
%TO.C,D43*%
X39796214Y-167595019D03*
D12*
X42336214Y-167595019D03*
%TD*%
D11*
%TO.C,D206*%
X213995000Y-126365000D03*
D12*
X216535000Y-126365000D03*
%TD*%
D11*
%TO.C,D275*%
X163068000Y-216535000D03*
D12*
X165354000Y-216535000D03*
%TD*%
D11*
%TO.C,D14*%
X250240596Y-134263904D03*
D12*
X252780596Y-134263904D03*
%TD*%
D11*
%TO.C,D249*%
X147828000Y-191135000D03*
D12*
X150114000Y-191135000D03*
%TD*%
D11*
%TO.C,D148*%
X154305000Y-158115000D03*
D12*
X156845000Y-158115000D03*
%TD*%
D11*
%TO.C,D2*%
X166325019Y-41066214D03*
D12*
X168865019Y-41066214D03*
%TD*%
D11*
%TO.C,D180*%
X188595000Y-139065000D03*
D12*
X191135000Y-139065000D03*
%TD*%
D11*
%TO.C,D210*%
X213995000Y-151765000D03*
D12*
X216535000Y-151765000D03*
%TD*%
D11*
%TO.C,D222*%
X125476000Y-196215000D03*
D12*
X127762000Y-196215000D03*
%TD*%
D11*
%TO.C,D175*%
X179705000Y-151765000D03*
D12*
X182245000Y-151765000D03*
%TD*%
D11*
%TO.C,D17*%
X248493786Y-167595019D03*
D12*
X251033786Y-167595019D03*
%TD*%
D11*
%TO.C,D264*%
X157988000Y-196215000D03*
D12*
X160274000Y-196215000D03*
%TD*%
D11*
%TO.C,D269*%
X163068000Y-186055000D03*
D12*
X165354000Y-186055000D03*
%TD*%
D11*
%TO.C,D201*%
X207645000Y-139065000D03*
D12*
X210185000Y-139065000D03*
%TD*%
D11*
%TO.C,D300*%
X130556000Y-89535000D03*
D12*
X132842000Y-89535000D03*
%TD*%
D11*
%TO.C,D252*%
X147828000Y-206375000D03*
D12*
X150114000Y-206375000D03*
%TD*%
D11*
%TO.C,D154*%
X160655000Y-151765000D03*
D12*
X163195000Y-151765000D03*
%TD*%
D11*
%TO.C,D207*%
X213995000Y-132715000D03*
D12*
X216535000Y-132715000D03*
%TD*%
D11*
%TO.C,D253*%
X147828000Y-211455000D03*
D12*
X150114000Y-211455000D03*
%TD*%
D11*
%TO.C,D33*%
X111179067Y-246873709D03*
D12*
X113719067Y-246873709D03*
%TD*%
D11*
%TO.C,D224*%
X125476000Y-206375000D03*
D12*
X127762000Y-206375000D03*
%TD*%
D11*
%TO.C,D15*%
X250825000Y-145415000D03*
D12*
X253365000Y-145415000D03*
%TD*%
D11*
%TO.C,D150*%
X160655000Y-126365000D03*
D12*
X163195000Y-126365000D03*
%TD*%
D11*
%TO.C,D123*%
X121285000Y-132715000D03*
D12*
X123825000Y-132715000D03*
%TD*%
D11*
%TO.C,D70*%
X58356524Y-95885000D03*
D12*
X60896524Y-95885000D03*
%TD*%
D11*
%TO.C,D170*%
X173355000Y-164465000D03*
D12*
X175895000Y-164465000D03*
%TD*%
D11*
%TO.C,D34*%
X100754335Y-242872029D03*
D12*
X103294335Y-242872029D03*
%TD*%
D11*
%TO.C,D234*%
X135636000Y-186055000D03*
D12*
X137922000Y-186055000D03*
%TD*%
D11*
%TO.C,D247*%
X140716000Y-216535000D03*
D12*
X143002000Y-216535000D03*
%TD*%
D11*
%TO.C,D325*%
X152908000Y-74295000D03*
D12*
X155194000Y-74295000D03*
%TD*%
D11*
%TO.C,D288*%
X120396000Y-99695000D03*
D12*
X122682000Y-99695000D03*
%TD*%
D11*
%TO.C,D162*%
X167005000Y-158115000D03*
D12*
X169545000Y-158115000D03*
%TD*%
D11*
%TO.C,D124*%
X121285000Y-139065000D03*
D12*
X123825000Y-139065000D03*
%TD*%
D11*
%TO.C,D135*%
X127635000Y-164465000D03*
D12*
X130175000Y-164465000D03*
%TD*%
D11*
%TO.C,D228*%
X130556000Y-191135000D03*
D12*
X132842000Y-191135000D03*
%TD*%
D11*
%TO.C,D96*%
X93345000Y-139065000D03*
D12*
X95885000Y-139065000D03*
%TD*%
D11*
%TO.C,D187*%
X194945000Y-139065000D03*
D12*
X197485000Y-139065000D03*
%TD*%
D11*
%TO.C,D350*%
X168148000Y-94615000D03*
D12*
X170434000Y-94615000D03*
%TD*%
D11*
%TO.C,D334*%
X157988000Y-84455000D03*
D12*
X160274000Y-84455000D03*
%TD*%
D11*
%TO.C,D320*%
X147828000Y-84455000D03*
D12*
X150114000Y-84455000D03*
%TD*%
D11*
%TO.C,D64*%
X229933476Y-194945000D03*
D12*
X232473476Y-194945000D03*
%TD*%
D11*
%TO.C,D259*%
X152908000Y-206375000D03*
D12*
X155194000Y-206375000D03*
%TD*%
D11*
%TO.C,D37*%
X72762147Y-224693690D03*
D12*
X75302147Y-224693690D03*
%TD*%
D11*
%TO.C,D93*%
X86995000Y-164465000D03*
D12*
X89535000Y-164465000D03*
%TD*%
D11*
%TO.C,D18*%
X245603709Y-178380933D03*
D12*
X248143709Y-178380933D03*
%TD*%
D11*
%TO.C,D292*%
X125476000Y-84455000D03*
D12*
X127762000Y-84455000D03*
%TD*%
D11*
%TO.C,D152*%
X160655000Y-139065000D03*
D12*
X163195000Y-139065000D03*
%TD*%
D11*
%TO.C,D167*%
X173355000Y-145415000D03*
D12*
X175895000Y-145415000D03*
%TD*%
D11*
%TO.C,D216*%
X120396000Y-201295000D03*
D12*
X122682000Y-201295000D03*
%TD*%
D11*
%TO.C,D267*%
X157988000Y-211455000D03*
D12*
X160274000Y-211455000D03*
%TD*%
D11*
%TO.C,D211*%
X213995000Y-158115000D03*
D12*
X216535000Y-158115000D03*
%TD*%
D11*
%TO.C,D3*%
X177110933Y-43956291D03*
D12*
X179650933Y-43956291D03*
%TD*%
D11*
%TO.C,D220*%
X125476000Y-186055000D03*
D12*
X127762000Y-186055000D03*
%TD*%
D11*
%TO.C,D78*%
X74295000Y-158115000D03*
D12*
X76835000Y-158115000D03*
%TD*%
D11*
%TO.C,D301*%
X130556000Y-94615000D03*
D12*
X132842000Y-94615000D03*
%TD*%
D11*
%TO.C,D304*%
X135636000Y-74295000D03*
D12*
X137922000Y-74295000D03*
%TD*%
D11*
%TO.C,D347*%
X168148000Y-79375000D03*
D12*
X170434000Y-79375000D03*
%TD*%
D11*
%TO.C,D233*%
X130556000Y-216535000D03*
D12*
X132842000Y-216535000D03*
%TD*%
D11*
%TO.C,D223*%
X125476000Y-201295000D03*
D12*
X127762000Y-201295000D03*
%TD*%
D11*
%TO.C,D296*%
X125476000Y-104775000D03*
D12*
X127762000Y-104775000D03*
%TD*%
D11*
%TO.C,D280*%
X168148000Y-206375000D03*
D12*
X170434000Y-206375000D03*
%TD*%
D11*
%TO.C,D346*%
X168148000Y-74295000D03*
D12*
X170434000Y-74295000D03*
%TD*%
D11*
%TO.C,D306*%
X135636000Y-84455000D03*
D12*
X137922000Y-84455000D03*
%TD*%
D11*
%TO.C,D35*%
X90805000Y-237802590D03*
D12*
X93345000Y-237802590D03*
%TD*%
D11*
%TO.C,D119*%
X114935000Y-151765000D03*
D12*
X117475000Y-151765000D03*
%TD*%
D11*
%TO.C,D203*%
X207645000Y-151765000D03*
D12*
X210185000Y-151765000D03*
%TD*%
D11*
%TO.C,D178*%
X188595000Y-126365000D03*
D12*
X191135000Y-126365000D03*
%TD*%
D11*
%TO.C,D185*%
X194945000Y-126365000D03*
D12*
X197485000Y-126365000D03*
%TD*%
D11*
%TO.C,D261*%
X152908000Y-216535000D03*
D12*
X155194000Y-216535000D03*
%TD*%
D11*
%TO.C,D179*%
X188595000Y-132715000D03*
D12*
X191135000Y-132715000D03*
%TD*%
D11*
%TO.C,D312*%
X140716000Y-79375000D03*
D12*
X143002000Y-79375000D03*
%TD*%
D11*
%TO.C,D272*%
X163068000Y-201295000D03*
D12*
X165354000Y-201295000D03*
%TD*%
D11*
%TO.C,D100*%
X93345000Y-164465000D03*
D12*
X95885000Y-164465000D03*
%TD*%
D11*
%TO.C,D73*%
X74295000Y-126365000D03*
D12*
X76835000Y-126365000D03*
%TD*%
D11*
%TO.C,D273*%
X163068000Y-206375000D03*
D12*
X165354000Y-206375000D03*
%TD*%
D11*
%TO.C,D62*%
X229933476Y-95885000D03*
D12*
X232473476Y-95885000D03*
%TD*%
D11*
%TO.C,D295*%
X125476000Y-99695000D03*
D12*
X127762000Y-99695000D03*
%TD*%
D11*
%TO.C,D19*%
X241602029Y-188805665D03*
D12*
X244142029Y-188805665D03*
%TD*%
D11*
%TO.C,D87*%
X86995000Y-126365000D03*
D12*
X89535000Y-126365000D03*
%TD*%
D11*
%TO.C,D57*%
X111179067Y-43956291D03*
D12*
X113719067Y-43956291D03*
%TD*%
D11*
%TO.C,D56*%
X100754335Y-47957971D03*
D12*
X103294335Y-47957971D03*
%TD*%
D11*
%TO.C,D77*%
X74295000Y-151765000D03*
D12*
X76835000Y-151765000D03*
%TD*%
D11*
%TO.C,D294*%
X125476000Y-94615000D03*
D12*
X127762000Y-94615000D03*
%TD*%
D11*
%TO.C,D108*%
X108585000Y-126365000D03*
D12*
X111125000Y-126365000D03*
%TD*%
D11*
%TO.C,D105*%
X99695000Y-151765000D03*
D12*
X102235000Y-151765000D03*
%TD*%
D11*
%TO.C,D13*%
X248493786Y-123234981D03*
D12*
X251033786Y-123234981D03*
%TD*%
D11*
%TO.C,D200*%
X207645000Y-132715000D03*
D12*
X210185000Y-132715000D03*
%TD*%
D11*
%TO.C,D113*%
X108585000Y-158115000D03*
D12*
X111125000Y-158115000D03*
%TD*%
D11*
%TO.C,D184*%
X188595000Y-164465000D03*
D12*
X191135000Y-164465000D03*
%TD*%
D11*
%TO.C,D329*%
X152908000Y-94615000D03*
D12*
X155194000Y-94615000D03*
%TD*%
D11*
%TO.C,D266*%
X157988000Y-206375000D03*
D12*
X160274000Y-206375000D03*
%TD*%
D11*
%TO.C,D302*%
X130556000Y-99695000D03*
D12*
X132842000Y-99695000D03*
%TD*%
D11*
%TO.C,D88*%
X86995000Y-132715000D03*
D12*
X89535000Y-132715000D03*
%TD*%
D11*
%TO.C,D158*%
X167005000Y-132715000D03*
D12*
X169545000Y-132715000D03*
%TD*%
D11*
%TO.C,D146*%
X154305000Y-145415000D03*
D12*
X156845000Y-145415000D03*
%TD*%
D11*
%TO.C,D319*%
X147828000Y-79375000D03*
D12*
X150114000Y-79375000D03*
%TD*%
D11*
%TO.C,D197*%
X201295000Y-158115000D03*
D12*
X203835000Y-158115000D03*
%TD*%
D11*
%TO.C,D122*%
X121285000Y-126365000D03*
D12*
X123825000Y-126365000D03*
%TD*%
D11*
%TO.C,D156*%
X160655000Y-164465000D03*
D12*
X163195000Y-164465000D03*
%TD*%
D11*
%TO.C,D97*%
X93345000Y-145415000D03*
D12*
X95885000Y-145415000D03*
%TD*%
D11*
%TO.C,D310*%
X135636000Y-104775000D03*
D12*
X137922000Y-104775000D03*
%TD*%
D11*
%TO.C,D8*%
X223423690Y-74032147D03*
D12*
X225963690Y-74032147D03*
%TD*%
D11*
%TO.C,D125*%
X121285000Y-145415000D03*
D12*
X123825000Y-145415000D03*
%TD*%
D11*
%TO.C,D53*%
X72762147Y-66136310D03*
D12*
X75302147Y-66136310D03*
%TD*%
D11*
%TO.C,D63*%
X243205000Y-145415000D03*
D12*
X245745000Y-145415000D03*
%TD*%
D11*
%TO.C,D188*%
X194945000Y-145415000D03*
D12*
X197485000Y-145415000D03*
%TD*%
D11*
%TO.C,D321*%
X147828000Y-89535000D03*
D12*
X150114000Y-89535000D03*
%TD*%
D11*
%TO.C,D332*%
X157988000Y-74295000D03*
D12*
X160274000Y-74295000D03*
%TD*%
D11*
%TO.C,D149*%
X154305000Y-164465000D03*
D12*
X156845000Y-164465000D03*
%TD*%
D11*
%TO.C,D257*%
X152908000Y-196215000D03*
D12*
X155194000Y-196215000D03*
%TD*%
D11*
%TO.C,D24*%
X206849931Y-231720933D03*
D12*
X209389931Y-231720933D03*
%TD*%
D11*
%TO.C,D209*%
X213995000Y-145415000D03*
D12*
X216535000Y-145415000D03*
%TD*%
D11*
%TO.C,D81*%
X80645000Y-132715000D03*
D12*
X83185000Y-132715000D03*
%TD*%
D11*
%TO.C,D341*%
X163068000Y-84455000D03*
D12*
X165354000Y-84455000D03*
%TD*%
D11*
%TO.C,D270*%
X163068000Y-191135000D03*
D12*
X165354000Y-191135000D03*
%TD*%
D11*
%TO.C,D89*%
X86995000Y-139065000D03*
D12*
X89535000Y-139065000D03*
%TD*%
D11*
%TO.C,D42*%
X42686291Y-178380933D03*
D12*
X45226291Y-178380933D03*
%TD*%
D11*
%TO.C,D323*%
X147828000Y-99695000D03*
D12*
X150114000Y-99695000D03*
%TD*%
D11*
%TO.C,D59*%
X132993904Y-39319404D03*
D12*
X135533904Y-39319404D03*
%TD*%
D11*
%TO.C,D307*%
X135636000Y-89535000D03*
D12*
X137922000Y-89535000D03*
%TD*%
D11*
%TO.C,D186*%
X194945000Y-132715000D03*
D12*
X197485000Y-132715000D03*
%TD*%
D11*
%TO.C,D221*%
X125476000Y-191135000D03*
D12*
X127762000Y-191135000D03*
%TD*%
D11*
%TO.C,D194*%
X201295000Y-139065000D03*
D12*
X203835000Y-139065000D03*
%TD*%
D11*
%TO.C,D243*%
X140716000Y-196215000D03*
D12*
X143002000Y-196215000D03*
%TD*%
D11*
%TO.C,D142*%
X133985000Y-164465000D03*
D12*
X136525000Y-164465000D03*
%TD*%
D11*
%TO.C,D241*%
X140716000Y-186055000D03*
D12*
X143002000Y-186055000D03*
%TD*%
D11*
%TO.C,D50*%
X51757410Y-92075000D03*
D12*
X54297410Y-92075000D03*
%TD*%
D11*
%TO.C,D90*%
X86995000Y-145415000D03*
D12*
X89535000Y-145415000D03*
%TD*%
D11*
%TO.C,D12*%
X245603709Y-112449067D03*
D12*
X248143709Y-112449067D03*
%TD*%
D11*
%TO.C,D144*%
X154305000Y-132715000D03*
D12*
X156845000Y-132715000D03*
%TD*%
D11*
%TO.C,D277*%
X168148000Y-191135000D03*
D12*
X170434000Y-191135000D03*
%TD*%
D11*
%TO.C,D279*%
X168148000Y-201295000D03*
D12*
X170434000Y-201295000D03*
%TD*%
D11*
%TO.C,D316*%
X140716000Y-99695000D03*
D12*
X143002000Y-99695000D03*
%TD*%
D11*
%TO.C,D61*%
X193675000Y-59626524D03*
D12*
X196215000Y-59626524D03*
%TD*%
D11*
%TO.C,D166*%
X173355000Y-139065000D03*
D12*
X175895000Y-139065000D03*
%TD*%
D11*
%TO.C,D107*%
X99695000Y-164465000D03*
D12*
X102235000Y-164465000D03*
%TD*%
D11*
%TO.C,D16*%
X250240596Y-156566096D03*
D12*
X252780596Y-156566096D03*
%TD*%
D11*
%TO.C,D147*%
X154305000Y-151765000D03*
D12*
X156845000Y-151765000D03*
%TD*%
D11*
%TO.C,D328*%
X152908000Y-89535000D03*
D12*
X155194000Y-89535000D03*
%TD*%
D11*
%TO.C,D115*%
X114935000Y-126365000D03*
D12*
X117475000Y-126365000D03*
%TD*%
D11*
%TO.C,D84*%
X80645000Y-151765000D03*
D12*
X83185000Y-151765000D03*
%TD*%
D11*
%TO.C,D237*%
X135636000Y-201295000D03*
D12*
X137922000Y-201295000D03*
%TD*%
D11*
%TO.C,D25*%
X197485000Y-237802590D03*
D12*
X200025000Y-237802590D03*
%TD*%
D11*
%TO.C,D260*%
X152908000Y-211455000D03*
D12*
X155194000Y-211455000D03*
%TD*%
D11*
%TO.C,D262*%
X157988000Y-186055000D03*
D12*
X160274000Y-186055000D03*
%TD*%
D11*
%TO.C,D71*%
X94615000Y-59626524D03*
D12*
X97155000Y-59626524D03*
%TD*%
D11*
%TO.C,D246*%
X140716000Y-211455000D03*
D12*
X143002000Y-211455000D03*
%TD*%
D11*
%TO.C,D344*%
X163068000Y-99695000D03*
D12*
X165354000Y-99695000D03*
%TD*%
D11*
%TO.C,D235*%
X135636000Y-191135000D03*
D12*
X137922000Y-191135000D03*
%TD*%
D11*
%TO.C,D60*%
X144145000Y-38735000D03*
D12*
X146685000Y-38735000D03*
%TD*%
D11*
%TO.C,D330*%
X152908000Y-99695000D03*
D12*
X155194000Y-99695000D03*
%TD*%
D11*
%TO.C,D244*%
X140716000Y-201295000D03*
D12*
X143002000Y-201295000D03*
%TD*%
D11*
%TO.C,D251*%
X147828000Y-201295000D03*
D12*
X150114000Y-201295000D03*
%TD*%
D11*
%TO.C,D183*%
X188595000Y-158115000D03*
D12*
X191135000Y-158115000D03*
%TD*%
D11*
%TO.C,D204*%
X207645000Y-158115000D03*
D12*
X210185000Y-158115000D03*
%TD*%
D11*
%TO.C,D314*%
X140716000Y-89535000D03*
D12*
X143002000Y-89535000D03*
%TD*%
D11*
%TO.C,D342*%
X163068000Y-89535000D03*
D12*
X165354000Y-89535000D03*
%TD*%
D11*
%TO.C,D74*%
X74295000Y-132715000D03*
D12*
X76835000Y-132715000D03*
%TD*%
D11*
%TO.C,D132*%
X127635000Y-145415000D03*
D12*
X130175000Y-145415000D03*
%TD*%
D11*
%TO.C,D336*%
X157988000Y-94615000D03*
D12*
X160274000Y-94615000D03*
%TD*%
D11*
%TO.C,D134*%
X127635000Y-158115000D03*
D12*
X130175000Y-158115000D03*
%TD*%
D11*
%TO.C,D352*%
X168148000Y-104775000D03*
D12*
X170434000Y-104775000D03*
%TD*%
D11*
%TO.C,D121*%
X114935000Y-164465000D03*
D12*
X117475000Y-164465000D03*
%TD*%
D11*
%TO.C,D173*%
X179705000Y-139065000D03*
D12*
X182245000Y-139065000D03*
%TD*%
D11*
%TO.C,D242*%
X140716000Y-191135000D03*
D12*
X143002000Y-191135000D03*
%TD*%
D13*
%TO.C,R18*%
X221996000Y-43457500D03*
X221996000Y-41632500D03*
%TD*%
D14*
%TO.C,R19*%
X221996000Y-37949500D03*
X221996000Y-39774500D03*
%TD*%
D15*
%TO.C,U6*%
X104640000Y-203265000D03*
X103990000Y-203265000D03*
X103340000Y-203265000D03*
X102690000Y-203265000D03*
X102040000Y-203265000D03*
X101390000Y-203265000D03*
X100740000Y-203265000D03*
X100090000Y-203265000D03*
X99440000Y-203265000D03*
X98790000Y-203265000D03*
X98140000Y-203265000D03*
X97490000Y-203265000D03*
X96840000Y-203265000D03*
X96190000Y-203265000D03*
X96190000Y-197565000D03*
X96840000Y-197565000D03*
X97490000Y-197565000D03*
X98140000Y-197565000D03*
X98790000Y-197565000D03*
X99440000Y-197565000D03*
X100090000Y-197565000D03*
X100740000Y-197565000D03*
X101390000Y-197565000D03*
X102040000Y-197565000D03*
X102690000Y-197565000D03*
X103340000Y-197565000D03*
X103990000Y-197565000D03*
X104640000Y-197565000D03*
%TD*%
D16*
%TO.C,U14*%
X222715000Y-113565000D03*
X220415000Y-113565000D03*
D17*
X220415000Y-107265000D03*
D16*
X218115000Y-113565000D03*
%TD*%
D14*
%TO.C,R15*%
X245872000Y-52681500D03*
X245872000Y-54506500D03*
%TD*%
D18*
%TO.C,C20*%
X42672000Y-190820000D03*
X42672000Y-192720000D03*
%TD*%
D19*
%TO.C,BT1*%
X35104000Y-64770000D03*
X64464000Y-64770000D03*
%TD*%
D20*
%TO.C,C14*%
X38354000Y-204324000D03*
X38354000Y-217824000D03*
%TD*%
D21*
%TO.C,SW2*%
X258804000Y-67473000D03*
X249704000Y-67473000D03*
X258804000Y-71973000D03*
X249704000Y-71973000D03*
%TD*%
D22*
%TO.C,AE1*%
X40386000Y-45085000D03*
D23*
X42926000Y-47625000D03*
X42926000Y-42545000D03*
X37846000Y-47625000D03*
X37846000Y-42545000D03*
%TD*%
D16*
%TO.C,U10*%
X39511000Y-191872000D03*
X37211000Y-191872000D03*
D17*
X37211000Y-185572000D03*
D16*
X34911000Y-191872000D03*
%TD*%
D14*
%TO.C,R14*%
X245872000Y-48998500D03*
X245872000Y-50823500D03*
%TD*%
D24*
%TO.C,U3*%
X236814000Y-39949000D03*
X235414000Y-39949000D03*
X234014000Y-39949000D03*
X236814000Y-41349000D03*
X235414000Y-41349000D03*
X234014000Y-41349000D03*
D25*
X235404000Y-42729000D03*
D24*
X236804000Y-42749000D03*
X234004000Y-42749000D03*
D26*
X242824000Y-33559000D03*
X242824000Y-34829000D03*
X242824000Y-36099000D03*
X242824000Y-37369000D03*
X242824000Y-38639000D03*
X242824000Y-39909000D03*
X242824000Y-41179000D03*
X242824000Y-42449000D03*
X242824000Y-43719000D03*
X242824000Y-44989000D03*
X242824000Y-46259000D03*
X242824000Y-47529000D03*
X242824000Y-48799000D03*
X242824000Y-50069000D03*
X242824000Y-51339000D03*
X242824000Y-52609000D03*
X242824000Y-53879000D03*
X242824000Y-55149000D03*
X242824000Y-56419000D03*
X225044000Y-56419000D03*
X225044000Y-55149000D03*
X225044000Y-53879000D03*
X225044000Y-52609000D03*
X225044000Y-51339000D03*
X225044000Y-50069000D03*
X225044000Y-48799000D03*
X225044000Y-47529000D03*
X225044000Y-46259000D03*
X225044000Y-44989000D03*
X225044000Y-43719000D03*
X225044000Y-42449000D03*
X225044000Y-41179000D03*
X225044000Y-39909000D03*
X225044000Y-38639000D03*
X225044000Y-37369000D03*
X225044000Y-36099000D03*
X225044000Y-34829000D03*
X225044000Y-33559000D03*
%TD*%
D15*
%TO.C,U8*%
X149640000Y-233265000D03*
X148990000Y-233265000D03*
X148340000Y-233265000D03*
X147690000Y-233265000D03*
X147040000Y-233265000D03*
X146390000Y-233265000D03*
X145740000Y-233265000D03*
X145090000Y-233265000D03*
X144440000Y-233265000D03*
X143790000Y-233265000D03*
X143140000Y-233265000D03*
X142490000Y-233265000D03*
X141840000Y-233265000D03*
X141190000Y-233265000D03*
X141190000Y-227565000D03*
X141840000Y-227565000D03*
X142490000Y-227565000D03*
X143140000Y-227565000D03*
X143790000Y-227565000D03*
X144440000Y-227565000D03*
X145090000Y-227565000D03*
X145740000Y-227565000D03*
X146390000Y-227565000D03*
X147040000Y-227565000D03*
X147690000Y-227565000D03*
X148340000Y-227565000D03*
X148990000Y-227565000D03*
X149640000Y-227565000D03*
%TD*%
D27*
%TO.C,C26*%
X39690000Y-38608000D03*
X41590000Y-38608000D03*
%TD*%
D28*
%TO.C,C28*%
X81642000Y-38100000D03*
X95142000Y-38100000D03*
%TD*%
D29*
%TO.C,J2*%
X52764000Y-226646500D03*
X47464000Y-226646500D03*
X44264000Y-226646500D03*
%TD*%
D21*
%TO.C,SW1*%
X258804000Y-57694000D03*
X249704000Y-57694000D03*
X258804000Y-62194000D03*
X249704000Y-62194000D03*
%TD*%
D13*
%TO.C,R2*%
X221996000Y-54506500D03*
X221996000Y-52681500D03*
%TD*%
D27*
%TO.C,C27*%
X217490000Y-116586000D03*
X219390000Y-116586000D03*
%TD*%
D13*
%TO.C,R21*%
X67564000Y-241450500D03*
X67564000Y-239625500D03*
%TD*%
D30*
%TO.C,D355*%
X64484000Y-240538000D03*
X60484000Y-240538000D03*
%TD*%
D31*
%TO.C,R24*%
X49045500Y-42571000D03*
X47220500Y-42571000D03*
%TD*%
D27*
%TO.C,C32*%
X106421000Y-183465000D03*
X108321000Y-183465000D03*
%TD*%
D32*
%TO.C,C18*%
X49083000Y-47625000D03*
X47183000Y-47625000D03*
%TD*%
D15*
%TO.C,U5*%
X194640000Y-203265000D03*
X193990000Y-203265000D03*
X193340000Y-203265000D03*
X192690000Y-203265000D03*
X192040000Y-203265000D03*
X191390000Y-203265000D03*
X190740000Y-203265000D03*
X190090000Y-203265000D03*
X189440000Y-203265000D03*
X188790000Y-203265000D03*
X188140000Y-203265000D03*
X187490000Y-203265000D03*
X186840000Y-203265000D03*
X186190000Y-203265000D03*
X186190000Y-197565000D03*
X186840000Y-197565000D03*
X187490000Y-197565000D03*
X188140000Y-197565000D03*
X188790000Y-197565000D03*
X189440000Y-197565000D03*
X190090000Y-197565000D03*
X190740000Y-197565000D03*
X191390000Y-197565000D03*
X192040000Y-197565000D03*
X192690000Y-197565000D03*
X193340000Y-197565000D03*
X193990000Y-197565000D03*
X194640000Y-197565000D03*
%TD*%
D33*
%TO.C,C13*%
X245872000Y-36129000D03*
X245872000Y-34229000D03*
%TD*%
D34*
%TO.C,L2*%
X47203000Y-45083000D03*
X49063000Y-45083000D03*
%TD*%
D13*
%TO.C,R16*%
X221996000Y-50823500D03*
X221996000Y-48998500D03*
%TD*%
D33*
%TO.C,C12*%
X250317000Y-36129000D03*
X250317000Y-34229000D03*
%TD*%
D35*
%TO.C,J3*%
X73152000Y-32639000D03*
D36*
X73152000Y-33909000D03*
X73152000Y-35179000D03*
X73152000Y-36449000D03*
X73152000Y-37719000D03*
X73152000Y-38989000D03*
%TD*%
D12*
%TO.C,F1*%
X32766000Y-228346000D03*
X32766000Y-233426000D03*
%TD*%
D27*
%TO.C,C21*%
X34991000Y-194310000D03*
X36891000Y-194310000D03*
%TD*%
D13*
%TO.C,R22*%
X245872000Y-43467500D03*
X245872000Y-41642500D03*
%TD*%
D14*
%TO.C,R13*%
X221996000Y-45315500D03*
X221996000Y-47140500D03*
%TD*%
D37*
%TO.C,L1*%
X76858000Y-252730000D03*
X91798000Y-252730000D03*
%TD*%
D27*
%TO.C,C24*%
X102611000Y-183465000D03*
X104511000Y-183465000D03*
%TD*%
%TO.C,C31*%
X221300000Y-116586000D03*
X223200000Y-116586000D03*
%TD*%
D20*
%TO.C,C19*%
X38100000Y-81134000D03*
X38100000Y-94634000D03*
%TD*%
D38*
%TO.C,U1*%
X65615000Y-138615000D03*
X65615000Y-139415000D03*
X65615000Y-140215000D03*
X65615000Y-141015000D03*
X65615000Y-141815000D03*
X65615000Y-142615000D03*
X65615000Y-143415000D03*
X65615000Y-144215000D03*
X65615000Y-145015000D03*
X65615000Y-145815000D03*
X65615000Y-146615000D03*
X65615000Y-147415000D03*
X65615000Y-148215000D03*
X65615000Y-149015000D03*
X65615000Y-149815000D03*
X65615000Y-150615000D03*
X65615000Y-151415000D03*
X65615000Y-152215000D03*
X55215000Y-152215000D03*
X55215000Y-151415000D03*
X55215000Y-150615000D03*
X55215000Y-149815000D03*
X55215000Y-149015000D03*
X55215000Y-148215000D03*
X55215000Y-147415000D03*
X55215000Y-146615000D03*
X55215000Y-145815000D03*
X55215000Y-145015000D03*
X55215000Y-144215000D03*
X55215000Y-143415000D03*
X55215000Y-142615000D03*
X55215000Y-141815000D03*
X55215000Y-141015000D03*
X55215000Y-140215000D03*
X55215000Y-139415000D03*
X55215000Y-138615000D03*
%TD*%
D13*
%TO.C,R12*%
X245872000Y-39789500D03*
X245872000Y-37964500D03*
%TD*%
D14*
%TO.C,R17*%
X221996000Y-34266500D03*
X221996000Y-36091500D03*
%TD*%
D39*
%TO.C,J1*%
X215519000Y-40767000D03*
X215519000Y-43307000D03*
X215519000Y-45847000D03*
X215519000Y-48387000D03*
%TD*%
D13*
%TO.C,R20*%
X72644000Y-241450500D03*
X72644000Y-239625500D03*
%TD*%
D40*
%TO.C,U11*%
X66802000Y-256075500D03*
D41*
X63398000Y-245770500D03*
X65100000Y-245770500D03*
X66802000Y-245770500D03*
X68504000Y-245770500D03*
X70206000Y-245770500D03*
%TD*%
D38*
%TO.C,U2*%
X235615000Y-138615000D03*
X235615000Y-139415000D03*
X235615000Y-140215000D03*
X235615000Y-141015000D03*
X235615000Y-141815000D03*
X235615000Y-142615000D03*
X235615000Y-143415000D03*
X235615000Y-144215000D03*
X235615000Y-145015000D03*
X235615000Y-145815000D03*
X235615000Y-146615000D03*
X235615000Y-147415000D03*
X235615000Y-148215000D03*
X235615000Y-149015000D03*
X235615000Y-149815000D03*
X235615000Y-150615000D03*
X235615000Y-151415000D03*
X235615000Y-152215000D03*
X225215000Y-152215000D03*
X225215000Y-151415000D03*
X225215000Y-150615000D03*
X225215000Y-149815000D03*
X225215000Y-149015000D03*
X225215000Y-148215000D03*
X225215000Y-147415000D03*
X225215000Y-146615000D03*
X225215000Y-145815000D03*
X225215000Y-145015000D03*
X225215000Y-144215000D03*
X225215000Y-143415000D03*
X225215000Y-142615000D03*
X225215000Y-141815000D03*
X225215000Y-141015000D03*
X225215000Y-140215000D03*
X225215000Y-139415000D03*
X225215000Y-138615000D03*
%TD*%
D42*
%TO.C,U9*%
X68344000Y-31736000D03*
X68344000Y-32836000D03*
X68344000Y-33936000D03*
X68344000Y-35036000D03*
X68344000Y-36136000D03*
X68344000Y-37236000D03*
X68344000Y-38336000D03*
X68344000Y-39436000D03*
X68344000Y-43236000D03*
X68344000Y-44336000D03*
X68344000Y-45436000D03*
X68344000Y-46536000D03*
X68344000Y-47636000D03*
X68344000Y-48736000D03*
X51544000Y-48736000D03*
X51544000Y-47636000D03*
X51544000Y-46536000D03*
X51544000Y-45436000D03*
X51544000Y-44336000D03*
X51544000Y-43236000D03*
X51544000Y-39436000D03*
X51544000Y-38336000D03*
X51544000Y-37236000D03*
X51544000Y-36136000D03*
X51544000Y-35036000D03*
X51544000Y-33936000D03*
X51544000Y-32836000D03*
X51544000Y-31736000D03*
%TD*%
D16*
%TO.C,U13*%
X107823000Y-180467000D03*
X105523000Y-180467000D03*
D17*
X105523000Y-174167000D03*
D16*
X103223000Y-180467000D03*
%TD*%
D15*
%TO.C,U7*%
X96190000Y-87565000D03*
X96840000Y-87565000D03*
X97490000Y-87565000D03*
X98140000Y-87565000D03*
X98790000Y-87565000D03*
X99440000Y-87565000D03*
X100090000Y-87565000D03*
X100740000Y-87565000D03*
X101390000Y-87565000D03*
X102040000Y-87565000D03*
X102690000Y-87565000D03*
X103340000Y-87565000D03*
X103990000Y-87565000D03*
X104640000Y-87565000D03*
X104640000Y-93265000D03*
X103990000Y-93265000D03*
X103340000Y-93265000D03*
X102690000Y-93265000D03*
X102040000Y-93265000D03*
X101390000Y-93265000D03*
X100740000Y-93265000D03*
X100090000Y-93265000D03*
X99440000Y-93265000D03*
X98790000Y-93265000D03*
X98140000Y-93265000D03*
X97490000Y-93265000D03*
X96840000Y-93265000D03*
X96190000Y-93265000D03*
%TD*%
D33*
%TO.C,C16*%
X70104000Y-241488000D03*
X70104000Y-239588000D03*
%TD*%
D43*
%TO.C,C15*%
X59690000Y-234136000D03*
X59690000Y-227636000D03*
%TD*%
D44*
%TO.C,BZ1*%
X255397000Y-39941500D03*
X255397000Y-48958500D03*
%TD*%
D32*
%TO.C,C17*%
X48956000Y-40005000D03*
X47056000Y-40005000D03*
%TD*%
D15*
%TO.C,U4*%
X186190000Y-87565000D03*
X186840000Y-87565000D03*
X187490000Y-87565000D03*
X188140000Y-87565000D03*
X188790000Y-87565000D03*
X189440000Y-87565000D03*
X190090000Y-87565000D03*
X190740000Y-87565000D03*
X191390000Y-87565000D03*
X192040000Y-87565000D03*
X192690000Y-87565000D03*
X193340000Y-87565000D03*
X193990000Y-87565000D03*
X194640000Y-87565000D03*
X194640000Y-93265000D03*
X193990000Y-93265000D03*
X193340000Y-93265000D03*
X192690000Y-93265000D03*
X192040000Y-93265000D03*
X191390000Y-93265000D03*
X190740000Y-93265000D03*
X190090000Y-93265000D03*
X189440000Y-93265000D03*
X188790000Y-93265000D03*
X188140000Y-93265000D03*
X187490000Y-93265000D03*
X186840000Y-93265000D03*
X186190000Y-93265000D03*
%TD*%
D45*
%TO.C,D356*%
X40640000Y-233494000D03*
X40640000Y-229294000D03*
%TD*%
D16*
%TO.C,U12*%
X41924000Y-36170000D03*
X39624000Y-36170000D03*
D17*
X39624000Y-29870000D03*
D16*
X37324000Y-36170000D03*
%TD*%
M02*
